<?xml version="1.0" standalone="no"?>
<!DOCTYPE svg PUBLIC "-//W3C//DTD SVG 1.1//EN" "http://www.w3.org/Graphics/SVG/1.1/DTD/svg11.dtd" >
<svg xmlns="http://www.w3.org/2000/svg">
<metadata>
Copyright   : Copyright 2014 Luc(as) de Groot. All rights reserved. Published by LucasFonts.com
Designer    : Luc(as) de Groot
Foundry     : LucasFonts
Foundry URL : http://lucasfonts.com
</metadata>
<defs>
<font id="TheSansUHH_RegularItalic" horiz-adv-x="1126" >
<font-face units-per-em="2048" ascent="1516" descent="-532" />
<missing-glyph horiz-adv-x="446" />
<glyph unicode=" "  horiz-adv-x="446" />
<glyph unicode="&#x09;" horiz-adv-x="446" />
<glyph unicode="&#xa0;" horiz-adv-x="446" />
<glyph unicode="!" horiz-adv-x="641" d="M383 102q0 -51 -35 -85.5t-86 -34.5q-49 0 -80.5 32.5t-31.5 79.5q0 51 34.5 87t85.5 36q49 0 81 -34t32 -81zM383 340h-143l180 1098h201z" />
<glyph unicode="&#x22;" horiz-adv-x="724" d="M352 967h-125l60 465h182zM682 967h-125l59 465h183z" />
<glyph unicode="#" horiz-adv-x="1157" d="M1163 883h-194l-109 -371h187l-25 -121h-199l-114 -391h-138l115 391h-313l-115 -391h-137l112 391h-186l23 121h200l109 371h-189l23 121h201l112 378h140l-115 -378h313l113 378h139l-115 -378h185zM516 883l-108 -371h313l110 371h-315z" />
<glyph unicode="$" horiz-adv-x="980" d="M868 475q0 -80 -29.5 -150.5t-85 -127t-133 -94t-171.5 -54.5l-52 -266h-127l49 260q-74 2 -135 9t-108 22l43 166q25 -10 54.5 -19.5t62 -15.5t67.5 -9t68 -3q70 0 127 17t97 49t61.5 76t21.5 95q0 55 -32 93t-71.5 60.5t-122.5 62.5t-132.5 74t-82 87t-32.5 127 q0 78 29.5 146.5t84 120.5t128 86t157.5 46l39 215h129l-41 -209q57 -2 111.5 -8t97.5 -16l-41 -156q-49 16 -104.5 25.5t-116.5 9.5q-70 0 -124 -16.5t-91 -46t-55.5 -68.5t-18.5 -84q0 -53 32 -90t69.5 -57.5t124.5 -61.5t137.5 -76t83 -89t32.5 -130z" />
<glyph unicode="%" horiz-adv-x="1503" d="M1247 381q0 121 -110 121q-41 0 -78 -20.5t-65.5 -58.5t-44 -90t-15.5 -112q0 -123 110 -123q41 0 78 20.5t64.5 58.5t44 90.5t16.5 113.5zM651 1163q0 121 -110 121q-41 0 -78 -20.5t-65.5 -58.5t-44 -90t-15.5 -111q0 -123 111 -123q41 0 77.5 20.5t65.5 58t44 90 t15 113.5zM1391 399q0 -96 -31 -174t-83 -132t-116.5 -82.5t-132.5 -28.5q-117 0 -177 58t-60 165q0 94 30.5 172t81.5 132t115.5 83t132.5 29q117 0 178.5 -58t61.5 -164zM205 -41l-94 84l1261 1378l96 -86zM795 1182q0 -96 -31 -174t-83 -132.5t-116.5 -83t-132.5 -28.5 q-117 0 -177 58.5t-60 164.5q0 94 30.5 172t81.5 132.5t115.5 83t132.5 28.5q117 0 178.5 -57.5t61.5 -163.5z" />
<glyph unicode="&#x26;" horiz-adv-x="1595" d="M928 283q-104 104 -205.5 219.5t-177.5 220.5q-63 -45 -110.5 -85t-84.5 -85t-58.5 -96t-21.5 -109q0 -45 14.5 -84t43 -69.5t76 -48t108.5 -17.5q104 0 212 38t204 116zM852 1243q0 59 -35 94t-102 35q-92 0 -146.5 -57.5t-54.5 -143.5q0 -47 23.5 -103t68.5 -132 q61 43 101.5 73.5t73 66.5t52 78t19.5 89zM1464 913q-25 -182 -103.5 -340.5t-191.5 -279.5q61 -57 123 -110.5t119 -98.5l-121 -121q-72 57 -131 108.5t-119 106.5q-123 -96 -270 -146t-297 -50q-98 0 -172 25.5t-121 71.5t-69.5 105.5t-22.5 126.5q0 88 31 163t83 137.5 t115.5 114.5t147.5 112q-59 92 -92 170.5t-33 142.5q0 72 28.5 136.5t81 113.5t125 77.5t158.5 28.5q147 0 220 -65.5t73 -171.5q0 -70 -26.5 -130.5t-72.5 -113.5t-102.5 -99t-138.5 -106q70 -98 165 -206.5t206 -219.5q86 94 150.5 229.5t84.5 288.5h172z" />
<glyph unicode="'" horiz-adv-x="393" d="M352 967h-125l60 465h182z" />
<glyph unicode="(" horiz-adv-x="606" d="M764 1536q-96 -123 -181 -272.5t-150.5 -316.5t-101.5 -339t-36 -332q0 -184 25.5 -341.5t82.5 -299.5l-137 -61q-72 172 -105.5 339t-33.5 351q0 170 35 344t102.5 345t163.5 334t219 312z" />
<glyph unicode=")" horiz-adv-x="606" d="M526 909q0 -170 -34.5 -344t-102 -345t-164 -333.5t-219.5 -312.5l-115 64q96 123 181.5 272t151 316t101 339t35.5 332q0 184 -26.5 342t-83.5 299l137 61q74 -170 106.5 -337t32.5 -353z" />
<glyph unicode="*" horiz-adv-x="747" d="M588 1188l188 -105l-82 -108l-164 141l-24 -233l-131 18l67 215l-196 -125l-49 119l223 86l-187 104l80 105l162 -139l27 235l129 -18l-68 -217l201 125l49 -117z" />
<glyph unicode="+" d="M1047 537h-396l-80 -416h-163l77 416h-391l27 145h393l78 414h166l-80 -414h395z" />
<glyph unicode="," horiz-adv-x="450" d="M-86 -233q86 72 122 128t36 101q0 33 -17 61q-16 27 -15 55.5t14.5 53t38 41t57.5 16.5q51 0 83.5 -35.5t32.5 -97.5q0 -76 -64.5 -181.5t-221.5 -217.5z" />
<glyph unicode="-" horiz-adv-x="659" d="M571 518h-469l27 144h471z" />
<glyph unicode="." horiz-adv-x="454" d="M274 109q0 -53 -35.5 -90t-88.5 -37q-49 0 -83 34.5t-34 81.5q0 55 35.5 92t87.5 37q49 0 83.5 -34.5t34.5 -83.5z" />
<glyph unicode="/" horiz-adv-x="872" d="M18 -330h-170l1063 1880h170z" />
<glyph unicode="0" horiz-adv-x="1173" d="M958 973q0 139 -52 209.5t-156 70.5q-82 0 -150 -41t-119 -111.5t-87 -158.5t-58.5 -183t-32.5 -185.5t-10 -165.5q0 -131 55 -204t158 -73q74 0 137.5 37t113.5 101.5t88 148.5t63.5 179t37.5 191.5t12 184.5zM1141 975q0 -111 -17.5 -226.5t-53.5 -226t-90 -209 t-128 -172t-167 -115.5t-202 -42q-188 0 -280 108.5t-92 315.5q0 113 17 228.5t54 227t91.5 207.5t127 171t164.5 116t201 41q188 0 281.5 -108.5t93.5 -315.5z" />
<glyph unicode="1" horiz-adv-x="704" d="M426 0h-178l229 1204l-276 -104v166l344 116h145z" />
<glyph unicode="2" horiz-adv-x="1005" d="M967 1096q0 -88 -27 -167t-73 -150.5t-105.5 -137.5t-140.5 -145l-330 -334l2 -2q78 4 203 5t350 1l-33 -166h-784l28 147l373 373q96 92 159.5 164t103.5 134.5t59.5 121.5t19.5 121q0 84 -50 134t-144 50q-68 0 -139.5 -20.5t-145.5 -61.5v160q78 37 162 57.5t168 20.5 q166 0 255 -82t89 -223z" />
<glyph unicode="3" horiz-adv-x="985" d="M924 1135q0 -127 -82 -232.5t-221 -157.5v-2q57 -16 101 -42.5t71.5 -62.5t42 -78t14.5 -87q0 -96 -44 -185t-124 -158t-189.5 -107.5t-236.5 -38.5q-59 0 -121.5 7t-105.5 19l49 158q37 -14 91 -23.5t101 -9.5q84 0 156 23.5t125 66.5t83 101.5t30 128.5q0 88 -80 142 t-240 54q-31 0 -62.5 -2t-60.5 -6l29 141q119 0 210 23.5t153.5 67t93 99.5t30.5 122q0 70 -46 113.5t-142 43.5q-66 0 -127.5 -16t-120.5 -47l6 153q68 27 142.5 42.5t144.5 15.5q94 0 159.5 -23.5t102.5 -62.5t52.5 -85t15.5 -95z" />
<glyph unicode="4" horiz-adv-x="1089" d="M207 479q80 2 201.5 3t240.5 1l142 734l-3 -5zM1016 326h-228l-61 -326h-170l61 326h-604l17 149l719 907h239l-172 -897h230z" />
<glyph unicode="5" horiz-adv-x="931" d="M920 1214h-455l-74 -374q106 0 190.5 -18.5t145.5 -57.5t95 -101.5t34 -150.5q0 -106 -42 -202.5t-120 -170t-185.5 -115.5t-232.5 -42q-66 0 -131 7t-118 21l47 158q51 -14 105 -23.5t118 -9.5q84 0 153.5 26.5t118.5 75t75 112t26 134.5q0 31 -7.5 58.5t-22.5 51 t-40 42t-61.5 32t-86 20.5t-111.5 8t-140 -5l133 692h618z" />
<glyph unicode="6" horiz-adv-x="1155" d="M877 510q0 96 -53.5 155.5t-159.5 59.5q-74 0 -139.5 -28.5t-115 -79t-76 -117t-26.5 -138.5q0 -41 11.5 -82.5t36 -76.5t64.5 -55.5t93 -20.5q76 0 142.5 29.5t116.5 83t78 123t28 147.5zM1075 1237q-29 6 -57.5 8t-69.5 2q-199 0 -339 -115.5t-222 -336.5 q-6 -18 -14 -41t-15 -35v-4q63 74 153.5 114.5t199.5 40.5q88 0 154.5 -26.5t109.5 -73.5t63.5 -104.5t20.5 -120.5q0 -117 -45 -220.5t-124 -180t-183.5 -119.5t-221.5 -43q-176 0 -266 100t-90 287q0 82 18.5 188.5t59.5 222t106.5 226t161.5 199.5t226 141.5t290 52.5 q35 0 65.5 -2t47.5 -4z" />
<glyph unicode="7" horiz-adv-x="911" d="M995 1231q-88 -133 -178 -289t-175 -318.5t-158.5 -322.5t-129.5 -301h-196q66 160 148.5 333t170.5 338t171 305t151 241q-88 -6 -611 -7l33 172h803z" />
<glyph unicode="8" horiz-adv-x="1103" d="M770 356q0 76 -46 139.5t-159 137.5q-156 -82 -232.5 -164t-76.5 -184q0 -72 55.5 -116t157.5 -44q59 0 113.5 17.5t97.5 49t66.5 74.5t23.5 90zM895 1104q0 74 -53.5 119t-147.5 45q-61 0 -112.5 -18.5t-87 -50.5t-55 -75t-19.5 -90q0 -66 48 -119t140 -118 q147 82 217 150.5t70 156.5zM1077 1122q0 -72 -29.5 -131t-77.5 -106t-102.5 -83t-134.5 -83q113 -76 168 -157t55 -185q0 -86 -41 -160t-112.5 -127t-165.5 -81.5t-197 -28.5q-182 0 -275 75.5t-93 212.5q0 133 92 238.5t274 204.5q-106 74 -153 146.5t-47 162.5 q0 80 34.5 150.5t100 124t153.5 83t193 29.5q86 0 153.5 -21.5t113.5 -59.5t68.5 -90.5t22.5 -113.5z" />
<glyph unicode="9" horiz-adv-x="1167" d="M926 1034q0 98 -58.5 159.5t-156.5 61.5q-70 0 -133.5 -32.5t-110.5 -90t-73.5 -127t-26.5 -141.5q0 -94 50 -149.5t150 -55.5q76 0 141.5 27t114.5 77t76 119.5t27 151.5zM1114 1030q0 -88 -17.5 -197.5t-55 -227.5t-102.5 -228.5t-160 -200.5t-225 -142t-294 -52 q-53 0 -94 3t-80 9l33 164q35 -10 76 -15.5t90 -5.5q115 0 206 38t158.5 99.5t111.5 136t73 152.5q14 35 23 59.5t17 39.5v4q-63 -78 -155 -121t-197 -43q-86 0 -150.5 25.5t-106.5 71.5t-62.5 105.5t-20.5 124.5q0 113 41 217.5t116 185.5t177 126t221 45 q178 0 277.5 -99.5t99.5 -273.5z" />
<glyph unicode=":" horiz-adv-x="579" d="M365 106q0 -51 -36 -87.5t-87 -36.5q-49 0 -85 35.5t-36 82.5q0 53 37 90t86 37q51 0 86 -36t35 -85zM479 709q0 -51 -35.5 -88t-87.5 -37q-49 0 -83.5 34.5t-34.5 83.5q0 53 35.5 89t86.5 36t85 -34.5t34 -83.5z" />
<glyph unicode=";" horiz-adv-x="579" d="M479 709q0 -53 -35.5 -89t-87.5 -36q-51 0 -84.5 35.5t-33.5 82.5q0 53 35.5 89t86.5 36t85 -34.5t34 -83.5zM10 -233q117 98 143.5 167.5t-3.5 122.5q-14 27 -14.5 55.5t13 53t38 41t59.5 16.5q55 0 90 -45t24.5 -118.5t-76 -170t-208.5 -198.5z" />
<glyph unicode="&#x3c;" d="M397 621l453 -467l-125 -111l-551 590l741 565l101 -121z" />
<glyph unicode="=" d="M985 365h-897l29 143h897zM1051 709h-897l28 145h897z" />
<glyph unicode="&#x3e;" d="M260 43l-100 119l616 459l-452 464l127 113l550 -590z" />
<glyph unicode="?" horiz-adv-x="993" d="M358 340q-12 109 16.5 188.5t79 142t114 114t117.5 103.5t92 111.5t38 137.5q0 70 -45 118t-160 48q-135 0 -284 -52l-2 148q74 23 154.5 38t166.5 15q92 0 159.5 -21.5t113 -60.5t67 -90t21.5 -111q0 -104 -38 -179t-95.5 -134t-122 -110.5t-117.5 -108.5t-86 -128 t-23 -169h-166zM520 102q0 -53 -35.5 -86.5t-87.5 -33.5q-49 0 -80.5 32.5t-31.5 79.5q0 53 34.5 88t86.5 35q51 0 82.5 -34t31.5 -81z" />
<glyph unicode="@" horiz-adv-x="1966" d="M1204 946q-57 14 -108 15q-72 0 -132.5 -39t-103.5 -104.5t-66.5 -144.5t-23.5 -155q0 -119 84 -119q41 0 83 29t83 84t80 139t71 191zM1827 907q0 -135 -36 -252.5t-102.5 -206t-159.5 -136.5t-204 -48q-63 0 -106 18.5t-67 50.5t-30 71.5t2 84.5h-4q-20 -43 -51 -83.5 t-72 -72.5t-88 -50.5t-98 -18.5q-199 0 -199 225q0 98 27 202t87 195t159.5 147.5t238.5 56.5q68 0 139.5 -8.5t127.5 -20.5l-123 -422q-35 -123 -13.5 -182.5t101.5 -59.5q70 0 129 39t103 107.5t67.5 159t23.5 188.5t-28.5 184t-92 152.5t-165 104.5t-242.5 38 q-168 0 -316.5 -69.5t-260 -193.5t-174 -282.5t-62.5 -330.5q0 -125 36 -224.5t106.5 -170t178 -108.5t248.5 -38q94 0 178 13.5t175 39.5l8 -129q-88 -29 -187.5 -42t-195.5 -13q-164 0 -294 45t-219 131t-135.5 207t-46.5 270q0 201 74 387.5t208 329.5t312.5 225 t378.5 82q166 0 292 -45t208 -126t123 -188.5t41 -232.5z" />
<glyph unicode="A" horiz-adv-x="1232" d="M928 0l-49 334h-586l-176 -334h-187l752 1382h211l225 -1382h-190zM776 1018q-6 41 -11 91t-11 101h-2q-23 -47 -46.5 -95t-46.5 -95l-294 -545h495z" />
<glyph unicode="B" horiz-adv-x="1142" d="M844 453q0 96 -76 144t-242 48h-58.5t-50 -1t-38.5 -1l-94 -496q88 -10 164 -10q96 0 170.5 24.5t125 68.5t75 102t24.5 121zM918 1083q0 37 -12.5 67t-41 52.5t-76 34.5t-114.5 12q-39 0 -84 -2t-96 -4l-88 -463q18 0 38.5 -1t40 -1h47.5q104 0 179 25.5t120.5 70 t66 97.5t20.5 112zM1104 1114q0 -74 -23.5 -136.5t-64.5 -111.5t-93.5 -85t-111.5 -56v-2q102 -18 160.5 -87t58.5 -165q0 -94 -38 -180t-114.5 -152.5t-191.5 -105.5t-260 -39q-37 0 -102.5 1t-130 3t-111.5 2l262 1382q12 0 94 2t141.5 3.5t116.5 1.5q215 0 311.5 -75 t96.5 -200z" />
<glyph unicode="C" horiz-adv-x="1175" d="M1178 1192q-141 49 -287 49q-150 0 -262.5 -64.5t-184 -174t-106.5 -241.5t-35 -269q0 -78 20.5 -141.5t64.5 -110.5t113.5 -73t166.5 -26q78 0 169 19.5t160 50.5l9 -156q-84 -33 -188.5 -51t-196.5 -18q-143 0 -244 41t-159 109.5t-82.5 150.5t-24.5 172q0 172 46 337 t144 302t253 218t364 81q84 0 160.5 -12.5t148.5 -32.5z" />
<glyph unicode="D" horiz-adv-x="1363" d="M1143 868q0 84 -21.5 151.5t-72 118t-134.5 78t-204 27.5q-51 0 -121 -2t-98 -4l-205 -1081q37 -6 85 -9.5t83 -3.5q178 0 311 62.5t216 168t122 233.5t39 261zM1329 887q0 -174 -55 -335t-168 -287t-283 -198.5t-393 -72.5q-63 0 -118.5 2t-123 3t-106.5 1l262 1382 q176 2 250 4.5t143 2.5q158 0 271.5 -36t184.5 -102.5t103.5 -157.5t32.5 -206z" />
<glyph unicode="E" horiz-adv-x="1032" d="M1034 1235h-542l-86 -451h495l-27 -143h-495l-94 -491h542l-28 -150h-717l262 1382h719z" />
<glyph unicode="F" horiz-adv-x="948" d="M1018 1235h-526l-89 -461h488l-27 -143h-487l-121 -631h-174l262 1382h700z" />
<glyph unicode="G" horiz-adv-x="1370" d="M1290 1182q-84 31 -172 48t-170 17q-164 0 -288.5 -64.5t-204.5 -171t-119 -232.5t-39 -251q0 -90 23.5 -161.5t72.5 -122.5t126 -79t181 -28q76 0 141.5 10.5t129.5 28.5l100 524h174l-123 -643q-104 -37 -224 -56t-228 -19q-141 0 -247 35.5t-175.5 103t-104 166 t-34.5 221.5q0 156 53 313.5t160.5 289.5t271.5 211t377 79q98 0 190 -14.5t180 -43.5z" />
<glyph unicode="H" horiz-adv-x="1404" d="M1137 0h-174l122 641h-706l-123 -641h-174l262 1382h174l-110 -589h704l113 589h174z" />
<glyph unicode="I" horiz-adv-x="524" d="M256 0h-174l264 1382h174z" />
<glyph unicode="J" horiz-adv-x="692" d="M494 354q-18 -92 -51 -159.5t-84.5 -114.5t-121 -70.5t-161.5 -23.5q-39 0 -87 5t-79 11l27 158q35 -10 75.5 -17.5t73.5 -7.5q94 0 154.5 55.5t85.5 186.5l190 1005h174z" />
<glyph unicode="K" horiz-adv-x="1169" d="M575 707l461 -707h-223l-424 690l-133 -690h-174l262 1382h174l-123 -651l670 651h225z" />
<glyph unicode="L" horiz-adv-x="856" d="M748 0h-666l262 1382h174l-231 -1232h487z" />
<glyph unicode="M" horiz-adv-x="1792" d="M1602 0h-179l45 823q6 115 16.5 215.5t20.5 180.5h-4q-23 -55 -56.5 -125t-76.5 -158l-498 -936h-161l-138 887q-14 102 -23 184t-11 148h-2q-18 -82 -46 -180.5t-65 -225.5l-244 -813h-174l438 1382h234l135 -893q8 -53 14.5 -116.5t8.5 -124.5h2q63 158 108 241 l479 893h256z" />
<glyph unicode="N" horiz-adv-x="1384" d="M926 0l-371 907q-57 139 -92 275q-8 -55 -24.5 -152.5t-35 -208t-39 -224.5t-38.5 -204l-74 -393h-170l262 1382h166h59l363 -886q23 -59 42 -118t36 -120q8 66 23.5 160t33.5 198.5t37.5 212t38.5 199.5l67 354h168l-262 -1382h-162h-28z" />
<glyph unicode="O" horiz-adv-x="1419" d="M1204 870q0 174 -87 274.5t-261 100.5q-121 0 -225.5 -57.5t-180 -159.5t-116.5 -235.5t-41 -280.5q0 -174 87 -274.5t261 -100.5q121 0 224.5 57.5t180 160t117.5 235.5t41 280zM1391 899q0 -182 -55.5 -348t-160 -295t-250 -201.5t-317.5 -72.5q-248 0 -376 136 t-128 365q0 182 56.5 348t161 295t250 202t317.5 73q248 0 375 -136.5t127 -365.5z" />
<glyph unicode="P" horiz-adv-x="1103" d="M948 1016q0 102 -70.5 164.5t-226.5 62.5q-53 0 -97 -1t-62 -1l-115 -606q84 -12 155 -12q106 0 185.5 34.5t130.5 92t75.5 127t24.5 139.5zM1130 1038q0 -109 -41.5 -210t-122.5 -181t-199 -125t-261 -45q-53 0 -96 2t-62 4l-92 -483h-174l262 1382q20 0 95 2t124 3.5 t119 1.5q221 0 334.5 -96.5t113.5 -254.5z" />
<glyph unicode="Q" horiz-adv-x="1419" d="M926 76q39 0 82 -13.5t88 -28t100 -19.5t131 3l-31 -155q-76 -10 -135 -6t-104 16t-109.5 39t-94.5 38t-83 21.5t-119 10.5h-43q-248 0 -376 135t-128 364q0 182 56.5 349t161 296t250 202t317.5 73q248 0 375 -136.5t127 -365.5q0 -147 -36 -282.5t-99.5 -245 t-148.5 -185t-181 -110.5zM1204 870q0 174 -87 274.5t-261 100.5q-121 0 -225.5 -57.5t-180 -159.5t-116.5 -235.5t-41 -280.5q0 -174 87 -274.5t261 -100.5q121 0 224.5 57.5t180 160t117.5 235.5t41 280z" />
<glyph unicode="R" horiz-adv-x="1136" d="M913 1057q0 88 -64.5 138t-199.5 50q-47 0 -92 -2t-65 -4l-95 -500q18 0 58.5 -1t89.5 -1q98 0 169.5 29t115.5 75t63.5 102.5t19.5 113.5zM1100 1090q0 -80 -26.5 -157t-81 -142.5t-138.5 -109.5t-195 -60q10 -16 34 -56.5t48 -87.5l250 -477h-211l-307 602h-102 l-115 -602h-174l262 1380q18 0 97 2t123 4.5t116 2.5q201 0 310.5 -78t109.5 -221z" />
<glyph unicode="S" horiz-adv-x="1011" d="M938 1217q-53 16 -117.5 26t-124.5 10q-76 0 -134 -19.5t-97 -51t-57.5 -72.5t-18.5 -86q0 -59 34 -103t71.5 -70t129 -79t144.5 -97t87 -107.5t34 -151.5q0 -86 -35 -164t-104.5 -139.5t-173 -96t-232.5 -34.5q-86 0 -169 10t-148 28l49 170q66 -27 140.5 -41t158.5 -14 q156 0 243 74t87 184q0 61 -34 108.5t-76 76t-129 80t-138.5 93.5t-85 104.5t-33.5 145.5q0 80 33.5 152t100.5 128t164 88t218 32q61 0 130 -7.5t128 -19.5z" />
<glyph unicode="T" horiz-adv-x="1038" d="M1143 1233h-395l-234 -1233h-174l233 1233h-395l29 149h964z" />
<glyph unicode="U" horiz-adv-x="1392" d="M1223 506q-51 -266 -209 -395t-420 -129q-147 0 -240.5 36.5t-139.5 104t-54 156t12 198.5l172 905h174l-174 -909q-33 -174 28.5 -260t245.5 -86q92 0 163 21.5t124 68.5t90 123t58 186l164 856h172z" />
<glyph unicode="V" horiz-adv-x="1236" d="M629 0h-209l-225 1382h188l135 -907q10 -61 19.5 -140t15.5 -161h4q29 66 68 144.5t84 164.5l483 899h190z" />
<glyph unicode="W" horiz-adv-x="1916" d="M1391 0h-215l-89 928q-8 117 -2 209h-4q-63 -170 -82 -209l-432 -928h-225l-100 1382h184l63 -913q4 -76 5.5 -145.5t-0.5 -147.5h2q27 76 54.5 146.5t57.5 136.5l434 923h177l88 -938q4 -63 7 -133.5t3 -134.5h2q20 61 43.5 122.5t48.5 125.5l430 958h174z" />
<glyph unicode="X" horiz-adv-x="1196" d="M739 715l320 -715h-207l-242 580l-460 -580h-211l587 717l-293 665h195l225 -532l422 532h207z" />
<glyph unicode="Y" horiz-adv-x="1071" d="M629 535l-101 -535h-174l101 535l-279 847h186l150 -458q20 -72 33.5 -123t25.5 -105h2q37 61 77 121t77 115l317 450h193z" />
<glyph unicode="Z" horiz-adv-x="1081" d="M1133 1247l-787 -964q-31 -37 -57.5 -69t-46.5 -56q20 2 65 4t105.5 2h171.5h346l-29 -164h-901l25 131l747 926q35 45 71 85t77 85q-63 -2 -130 -3t-163 -1h-373l31 159h872z" />
<glyph unicode="[" horiz-adv-x="645" d="M750 1444h-232l-325 -1712h231l-27 -138h-391l377 1985h391z" />
<glyph unicode="\" horiz-adv-x="876" d="M573 -330l-344 1880h158l346 -1880h-160z" />
<glyph unicode="]" horiz-adv-x="645" d="M297 -406h-389l24 138h232l328 1712h-234l25 135h393z" />
<glyph unicode="^" d="M885 705l-199 546l-391 -546l-111 63l455 614h143l238 -612z" />
<glyph unicode="_" d="M934 -512h-1124l26 139h1125z" />
<glyph unicode="`" horiz-adv-x="702" d="M578 1167l-228 269l119 100l209 -287z" />
<glyph unicode="a" horiz-adv-x="1099" d="M831 877q-37 8 -72.5 13t-76.5 5q-111 0 -195 -51t-136 -135t-76.5 -185.5t-24.5 -204.5q0 -98 28.5 -144t77.5 -46q72 0 145.5 65.5t138.5 169t111 218t64 211.5zM1026 1004q-43 -221 -71.5 -371t-49 -257.5t-37 -194.5t-32.5 -181h-172q29 135 120 424l-4 2 q-35 -74 -76.5 -147.5t-102 -142t-137.5 -112.5t-165 -44q-111 0 -168 75.5t-57 233.5q0 143 38 276t116.5 238.5t200.5 167t282 61.5q84 0 163.5 -7t151.5 -21z" />
<glyph unicode="b" horiz-adv-x="1099" d="M858 698q0 98 -27.5 144.5t-78.5 46.5q-47 0 -97.5 -31t-97.5 -84t-89 -120.5t-77 -142.5t-59.5 -147.5t-36.5 -134.5l-16 -88q68 -18 149 -18q111 0 194 51t135 135t76.5 185.5t24.5 203.5zM1036 729q0 -143 -37.5 -276.5t-116.5 -238.5t-201 -166.5t-284 -61.5 q-84 0 -161.5 8t-151.5 22l281 1479h172l-97 -498q-6 -31 -13 -63.5t-20.5 -77.5t-32 -108.5t-46.5 -149.5l4 -2q41 96 91 176t109.5 139.5t130 93t146.5 33.5q113 0 170 -75.5t57 -233.5z" />
<glyph unicode="c" horiz-adv-x="845" d="M834 850q-45 18 -95.5 29.5t-101.5 11.5q-92 0 -164 -48t-120 -127t-72.5 -172t-24.5 -186q0 -45 9 -83.5t33 -70.5t67 -50.5t108 -18.5q59 0 119.5 13.5t109.5 35.5l3 -147q-61 -25 -133 -39t-144 -14q-96 0 -165.5 24.5t-111.5 69.5t-60.5 105.5t-18.5 135.5 q0 145 40 275.5t115.5 230t184 154.5t239.5 55q59 0 114.5 -8t111.5 -25z" />
<glyph unicode="d" horiz-adv-x="1099" d="M831 877q-37 8 -72.5 13t-76.5 5q-111 0 -195 -51t-136 -135t-76.5 -185.5t-24.5 -204.5q0 -98 28.5 -144t77.5 -46q72 0 145.5 65.5t138.5 169t111 218t64 211.5zM903 369q-8 -45 -16 -91.5t-17.5 -92.5t-17.5 -92t-16 -93h-170q10 63 38.5 163.5t79.5 260.5l-4 2 q-35 -74 -76.5 -147.5t-102 -142t-137.5 -112.5t-165 -44q-111 0 -168 75.5t-57 233.5q0 143 38 276t116.5 238.5t200.5 167t282 61.5q37 0 70.5 -3t76.5 -7l88 473h172z" />
<glyph unicode="e" horiz-adv-x="966" d="M748 784q0 57 -39 88t-105 31q-59 0 -110.5 -24.5t-92.5 -68.5t-70.5 -102.5t-47.5 -125.5q244 10 354.5 60t110.5 142zM922 807q0 -330 -662 -354q-4 -25 -8 -61t-4 -64q0 -61 11 -100.5t38 -62t68 -31.5t106 -9q72 0 144.5 15.5t140.5 41.5l6 -137q-76 -31 -164 -47 t-186 -16q-176 0 -258 77.5t-82 249.5q0 147 39 279.5t112.5 233t176 157.5t227.5 57q78 0 134 -18.5t92 -50t52.5 -72.5t16.5 -88z" />
<glyph unicode="f" horiz-adv-x="696" d="M913 1346q-35 10 -73.5 15t-69.5 5q-111 0 -175.5 -68.5t-92.5 -222.5l-10 -57h280l-24 -135h-283l-176 -938q-49 -248 -160 -357.5t-301 -109.5q-92 0 -168 18l39 146q37 -8 76 -13.5t67 -5.5q55 0 98.5 15.5t76 52.5t57 97t41.5 151l180 944h-211l27 135h211l12 67 q41 217 152.5 319.5t301.5 102.5q74 0 166 -18z" />
<glyph unicode="g" horiz-adv-x="1099" d="M831 877q-37 8 -72.5 13t-76.5 5q-111 0 -195 -51t-136 -135t-76.5 -185.5t-24.5 -204.5q0 -98 28.5 -144t77.5 -46q72 0 145.5 65.5t138.5 169t111 218t64 211.5zM815 -96q-18 -94 -57 -171t-106.5 -134.5t-167 -89t-232.5 -31.5q-80 0 -149.5 9t-129.5 26l41 161 q61 -20 133 -33.5t142 -13.5q154 0 243 74t121 246q12 59 24.5 114.5t28 109.5t33 112.5t41.5 132.5l-4 2q-33 -72 -75 -142.5t-101 -139t-136 -112.5t-165 -44q-111 0 -168 75.5t-57 233.5q0 143 38 276t116.5 238.5t200.5 167t282 61.5q84 0 160.5 -7t154.5 -21z" />
<glyph unicode="h" horiz-adv-x="1155" d="M889 0h-170l123 653q23 123 1 179.5t-93 56.5q-70 0 -142.5 -64.5t-137 -168t-111 -219t-64.5 -212.5l-41 -225h-172l283 1495h172l-93 -483q-6 -33 -14 -68t-20.5 -81t-32 -109.5t-47.5 -147.5h4q39 86 87 163t108.5 138.5t131 96t148.5 34.5q137 0 189.5 -92t21.5 -256 z" />
<glyph unicode="i" horiz-adv-x="518" d="M252 0h-170l192 1018h170zM539 1350q0 -53 -36 -88t-85 -35t-80 31.5t-31 76.5q0 51 36 86t85 35q47 0 79 -31.5t32 -74.5z" />
<glyph unicode="j" horiz-adv-x="532" d="M240 -137q-18 -98 -49 -169t-78 -119t-111.5 -72.5t-151.5 -24.5q-88 0 -151 14l35 156q29 -10 61.5 -16.5t69.5 -6.5q47 0 79.5 12.5t56.5 42t41 78.5t32 125l215 1135h170zM551 1350q0 -53 -35 -88t-84 -35t-79.5 31.5t-30.5 76.5q0 51 35.5 86t84.5 35q47 0 78 -31.5 t31 -74.5z" />
<glyph unicode="k" horiz-adv-x="978" d="M532 563l316 -563h-209l-283 545l-104 -545h-172l285 1495h170l-173 -911l486 483l127 -100z" />
<glyph unicode="l" horiz-adv-x="518" d="M252 0h-170l283 1495h170z" />
<glyph unicode="m" horiz-adv-x="1765" d="M1499 0h-172l125 653q23 123 1.5 180.5t-87.5 57.5q-61 0 -131 -57.5t-134.5 -154.5t-112.5 -217t-70 -237l-44 -225h-169l124 653q23 123 1.5 180.5t-87.5 57.5q-61 0 -130.5 -57.5t-135 -154.5t-114 -217t-70.5 -237l-41 -225h-172l102 530q8 43 15.5 83t15.5 81 t15.5 82t14.5 81t15 81t14 80h172q-14 -68 -40.5 -166t-73.5 -246h4q37 86 84 163t106.5 137.5t130 96t146.5 35.5q98 0 150.5 -52t52.5 -146q0 -47 -11.5 -98.5t-40.5 -137.5l4 -2q37 88 85.5 166t107.5 139.5t129 96t147 34.5q133 0 184.5 -91t20.5 -255z" />
<glyph unicode="n" horiz-adv-x="1155" d="M887 0h-170l125 653q23 123 1 179.5t-93 56.5q-70 0 -144 -64.5t-138.5 -168t-110.5 -219t-64 -212.5l-41 -225h-172l102 530q8 43 15.5 83t15.5 81t15.5 82t14.5 81t15 81t14 80h172q-14 -68 -40.5 -165t-73.5 -247h4q39 86 87 163t107.5 138.5t130 96t148.5 34.5 q139 0 191.5 -91t21.5 -255z" />
<glyph unicode="o" horiz-adv-x="1091" d="M850 649q0 106 -55.5 174t-165.5 68q-94 0 -166 -47t-119 -124t-70.5 -169t-23.5 -182q0 -106 55 -173t166 -67q94 0 167 46t120 123t69.5 169t22.5 182zM1030 674q0 -133 -39 -257t-114.5 -222.5t-186 -155.5t-248.5 -57q-184 0 -278 98t-94 264q0 133 38.5 257 t114.5 222.5t186.5 155.5t247.5 57q92 0 163 -26.5t118 -74.5t69.5 -114.5t22.5 -146.5z" />
<glyph unicode="p" horiz-adv-x="1099" d="M860 698q0 98 -28.5 144.5t-77.5 46.5t-98.5 -31t-96.5 -84t-89 -120.5t-77 -142.5t-59.5 -147.5t-36.5 -134.5l-16 -79q31 -12 73.5 -19.5t75.5 -7.5q111 0 193 51t135 136t77.5 185.5t24.5 202.5zM1036 729q0 -143 -37.5 -276.5t-116.5 -238.5t-201 -166.5t-284 -61.5 q-49 0 -147 12l-94 -504h-172l198 1034q4 20 14.5 77t17.5 94.5t14.5 77.5t15.5 80t15 81t13 80h172q-8 -35 -16 -73t-21.5 -86t-32 -111.5t-44.5 -147.5l4 -2q39 94 89 174t110.5 139.5t130 93t145.5 33.5q113 0 170 -75.5t57 -233.5z" />
<glyph unicode="q" horiz-adv-x="1099" d="M831 877q-37 8 -72.5 13t-76.5 5q-111 0 -195 -51t-136 -135t-76.5 -185.5t-24.5 -204.5q0 -98 28.5 -144t79.5 -46q72 0 144.5 65.5t137.5 169t111 218t64 211.5zM737 -506h-170l90 473q10 49 20.5 95.5t25 97.5t34 114.5t47.5 149.5l-4 2q-35 -74 -76.5 -147.5 t-102 -142t-137.5 -112.5t-165 -44q-111 0 -168 75.5t-57 233.5q0 143 38 276t116.5 238.5t200.5 167t282 61.5q86 0 165.5 -8t149.5 -23z" />
<glyph unicode="r" horiz-adv-x="714" d="M741 866q-68 18 -139.5 -36t-133.5 -154.5t-107.5 -219t-65.5 -225.5l-43 -231h-172l102 530q27 139 48.5 257t41.5 231h170q-14 -74 -39.5 -165t-68.5 -218l4 -2q49 104 94 180t97.5 131t114 80t132.5 12z" />
<glyph unicode="s" horiz-adv-x="802" d="M705 877q-82 25 -166 24q-98 0 -152.5 -41t-54.5 -108q0 -39 22.5 -72t48 -53.5t87 -64.5t96.5 -77.5t57.5 -80t22.5 -103.5q0 -63 -27 -120.5t-81 -102.5t-136 -70.5t-189 -25.5q-119 0 -215 22l37 154q98 -35 205 -35q106 0 165.5 42t59.5 122q0 39 -22.5 71.5t-47 53 t-86 64.5t-96 78t-57 80t-22.5 103q0 59 26.5 113.5t77.5 96.5t126 65.5t169 23.5q43 0 89 -4t93 -12z" />
<glyph unicode="t" horiz-adv-x="745" d="M743 883h-282l-105 -549q-23 -117 -2 -159t99 -42q41 0 74.5 4t64.5 13l-8 -146q-45 -10 -95.5 -15t-93.5 -5q-78 0 -127 19.5t-74.5 58t-28.5 99t13 148.5l111 574h-209l24 135h211l64 334l178 41l-72 -375h283z" />
<glyph unicode="u" horiz-adv-x="1153" d="M979 487q-8 -43 -15.5 -82.5t-15.5 -80.5t-15 -82t-14.5 -81t-15.5 -81t-14 -80h-172q14 68 40.5 165t76.5 247h-5q-39 -86 -87 -163t-108.5 -138.5t-131 -96t-148.5 -34.5q-139 0 -191 91t-22 255l133 692h170l-125 -653q-23 -123 0 -179.5t95 -56.5q70 0 142.5 64.5 t137 168t110.5 219t64 212.5l41 225h172z" />
<glyph unicode="v" horiz-adv-x="970" d="M489 0h-196l-172 1018h184l96 -639q16 -117 19 -201h4l457 883l161 -57z" />
<glyph unicode="w" horiz-adv-x="1589" d="M1653 1006l-510 -1006h-195l-86 623q-6 49 -9 101t-7 103q-94 -213 -196.5 -416.5t-203.5 -410.5h-198l-113 1018h187l57 -627q0 -12 1 -29.5t2 -38t3 -42t3 -41t2 -33.5t3 -23q43 109 95.5 216.5t103.5 213.5l203 404h190l78 -641q2 -14 4 -31.5t3 -36t2 -39t2 -37 t2 -30t3 -21.5q55 121 110.5 241t110.5 239l191 399z" />
<glyph unicode="x" horiz-adv-x="1038" d="M637 512l264 -512h-213l-188 399l-402 -450l-137 96l459 471l-256 502h203l184 -389l393 438l127 -92z" />
<glyph unicode="y" horiz-adv-x="956" d="M848 1059l164 -49q-96 -227 -193.5 -430t-196 -375t-193.5 -308.5t-189 -230.5q-96 -98 -190.5 -143t-205.5 -45h-26.5t-22.5 2q-12 2 -22 4l28 151q12 -2 25 -4q12 -2 26.5 -3t28.5 -1q74 0 140.5 39t116.5 107.5t80 161t30 198.5q0 82 -9.5 184.5t-26.5 216t-42 236.5 t-55 248h190q20 -98 40 -202.5t33 -202t21.5 -179.5t8.5 -137q0 -70 -6.5 -121t-16.5 -96q12 16 24.5 38.5t24.5 47t24.5 48.5t22.5 44q47 86 91 177t88.5 190.5t91.5 207t96 226.5v0z" />
<glyph unicode="z" horiz-adv-x="880" d="M846 895l-596 -737q25 0 67.5 1t88 1h108.5h201l-31 -160h-680l23 123l602 743q-53 -2 -118 -3t-138 -1h-195l29 156h661z" />
<glyph unicode="{" horiz-adv-x="679" d="M801 1444q-53 0 -91 -12.5t-65 -41t-45 -76.5t-33 -120l-47 -246q-29 -145 -90 -217t-156 -82v-4q86 -14 122 -88t10 -209l-72 -366q-14 -72 -14.5 -120t15 -77t48.5 -41t84 -12l-25 -138h-34q-170 0 -219.5 103.5t-12.5 290.5l72 368q25 121 -16.5 169t-153.5 55l26 139 q61 2 104.5 14t73 37t48 67t30.5 103l48 248q14 86 42.5 157.5t73.5 124t109.5 81t152.5 28.5h39z" />
<glyph unicode="|" horiz-adv-x="569" d="M162 -506h-135l391 2048h135z" />
<glyph unicode="}" horiz-adv-x="681" d="M651 580q-61 -4 -104 -15.5t-74 -37t-49 -67.5t-31 -104l-69 -368q-39 -201 -125 -296t-254 -95h-39l26 137q53 0 91 12t65 41t44.5 77t31.5 120l69 364q29 145 90.5 218t155.5 85v4q-86 12 -120.5 85t-8.5 208l47 248q14 72 15.5 120t-14 76.5t-49.5 41t-85 12.5l25 133 h30q86 0 140.5 -28.5t82 -80t29.5 -123t-14 -157.5l-51 -250q-23 -123 17 -169t155 -52z" />
<glyph unicode="~" d="M1135 1174q-8 -145 -87 -230.5t-202 -85.5q-76 0 -124 30t-95 89t-74 83.5t-76 24.5q-63 0 -100 -51t-45 -133h-129q6 145 85 230.5t204 85.5q76 0 123 -30t94 -89.5t74.5 -84t76.5 -24.5q61 0 99 51.5t45 133.5h131z" />
<glyph unicode="&#xa1;" horiz-adv-x="641" d="M229 -420h-202l237 1098h144zM500 924q0 -51 -36 -87t-85 -36t-82 33.5t-33 80.5q0 51 35 86t86 35q49 0 82 -32.5t33 -79.5z" />
<glyph unicode="&#xa2;" horiz-adv-x="915" d="M788 276q-51 -20 -109 -35.5t-118 -19.5l-53 -272h-135l53 272q-74 8 -133.5 36t-99 74t-61 110.5t-21.5 142.5q0 121 36.5 226t104 187t160 133.5t200.5 67.5l45 232h134l-41 -226q51 -2 103 -12t99 -31l-43 -151q-47 27 -100 40t-115 13q-82 0 -153.5 -31t-126 -89 t-85 -140t-30.5 -180q0 -53 14.5 -99.5t45 -82t80.5 -55t118 -19.5q61 0 127 17t121 46z" />
<glyph unicode="&#xa3;" horiz-adv-x="944" d="M797 799l-25 -135h-289q-8 -104 -24.5 -179t-45 -133.5t-73.5 -107.5t-113 -101q47 4 98.5 7.5t106.5 3.5h389l-28 -154h-801l24 123q84 57 135.5 107.5t83 107.5t50 134t26.5 192h-219l27 135h198q2 84 9.5 157.5t26 140t51 122t83 96.5t122 63.5t163.5 22.5 q61 0 114.5 -7.5t96.5 -21.5l-47 -147q-39 14 -87 23t-87 9q-59 0 -104.5 -17t-74 -48t-47 -73t-27.5 -92t-13 -104.5t-7 -123.5h308z" />
<glyph unicode="&#xa4;" d="M817 758q0 76 -41 120t-129 44q-61 0 -111.5 -28t-85 -74t-52 -104.5t-17.5 -117.5q0 -78 40 -124t126 -46q59 0 109.5 28.5t86 77t55 108t19.5 116.5zM946 924q31 -51 31 -138q0 -98 -33 -188t-106 -164l133 -215l-142 -94l-124 223q-92 -49 -189 -49q-92 0 -139 27 l-184 -199l-117 98l186 187q-43 55 -43 161q0 100 37 194.5t115 166.5l-123 199l143 90l113 -209q41 20 85 29.5t89 9.5q47 0 89 -8.5t73 -28.5l194 207l109 -99z" />
<glyph unicode="&#xa5;" horiz-adv-x="1183" d="M739 592h291l-22 -121h-332l-29 -145h334l-23 -121h-333l-39 -205h-172l37 205h-332l22 121h332l29 145h-334l25 121h290l-233 790h186l129 -464q16 -61 29.5 -118t28.5 -130h2q68 123 170 270l299 442h190z" />
<glyph unicode="&#xa6;" horiz-adv-x="569" d="M162 -506h-135l147 774h135zM408 788h-136l146 754h135z" />
<glyph unicode="&#xa7;" horiz-adv-x="1040" d="M702 504q0 45 -18 90t-47 88t-84 114.5t-72 92.5q-68 -43 -99.5 -99.5t-31.5 -121.5q0 -45 17.5 -89t47 -87t90 -121t64.5 -82q68 43 100.5 99.5t32.5 115.5zM889 1341q-68 23 -131 23q-61 0 -103.5 -19.5t-68 -51t-35.5 -65.5t-10 -67q0 -57 32.5 -104t119.5 -152.5 t130 -189.5t43 -185q0 -98 -55 -187t-160 -159q18 -35 29.5 -72.5t11.5 -80.5q0 -78 -32.5 -145.5t-91 -117t-134.5 -77t-160 -27.5q-45 0 -89 5t-79 16l35 149q86 -27 148 -27q59 0 102 19.5t68.5 50.5t38 65.5t12.5 67.5q0 43 -21.5 87t-45 74t-84 104.5t-94.5 126 t-56.5 111.5t-22.5 126q0 205 217 352q-47 86 -47 162q0 53 22.5 114.5t72 116t129 89t188.5 34.5q41 0 82 -5t72 -13z" />
<glyph unicode="&#xa8;" horiz-adv-x="931" d="M543 1346q0 -47 -32 -79t-77 -32q-43 0 -72.5 29.5t-29.5 72.5q0 47 31.5 79t76.5 32q43 0 73 -29.5t30 -72.5zM926 1346q0 -47 -32 -79t-77 -32q-43 0 -72.5 29.5t-29.5 72.5q0 47 31.5 79t76.5 32q43 0 73 -29.5t30 -72.5z" />
<glyph unicode="&#xa9;" horiz-adv-x="1515" d="M1010 901q-57 31 -144 31q-68 0 -116 -31t-77.5 -81t-43 -107.5t-13.5 -112.5q0 -74 36 -112.5t110 -38.5q43 0 86 8t82 22l4 -121q-47 -16 -101.5 -25t-99.5 -9q-137 0 -202.5 66.5t-65.5 184.5q0 96 28.5 183.5t83 153t131 102.5t171.5 37q53 0 94 -6.5t76 -18.5z M1337 713q0 104 -40 200.5t-111.5 169t-167.5 113.5t-205 41q-113 0 -215 -43t-182 -122t-125 -184.5t-45 -225.5q0 -106 40 -203t112.5 -170.5t168 -114.5t203.5 -41q113 0 215 43t182 123t125 186.5t45 227.5zM1477 719q0 -150 -56.5 -282t-157 -229t-229.5 -151.5 t-270 -54.5q-139 0 -261 50t-211 139.5t-138.5 209t-49.5 254.5q0 150 56.5 281t157 228.5t230.5 151.5t271 54q137 0 257 -50t210 -139t140.5 -209t50.5 -253z" />
<glyph unicode="&#xaa;" horiz-adv-x="802" d="M668 1266q-25 6 -49.5 9t-49.5 3q-59 0 -108 -28.5t-83 -79t-51.5 -111t-17.5 -123.5q0 -61 16.5 -88t53.5 -27q45 0 89 32t81 87t65.5 126t42.5 144zM707 442h-586l24 131h586zM829 1374q-20 -109 -38.5 -202t-36 -181t-30.5 -163.5t-19 -118.5h-144q8 35 23.5 87 t38.5 119h-2q-51 -106 -125 -163.5t-162 -57.5q-172 0 -172 209q0 98 28.5 186.5t84 157t137.5 107.5t186 39q41 0 79 -2t75.5 -6.5t76.5 -10.5z" />
<glyph unicode="&#xab;" horiz-adv-x="1015" d="M305 600l133 -297l-139 -65l-166 370l295 361l121 -74zM686 600l148 -291l-138 -67l-182 366l311 357l117 -74z" />
<glyph unicode="&#xac;" d="M932 213h-154l62 324h-746l27 145h899z" />
<glyph unicode="&#xad;" horiz-adv-x="659" d="M571 518h-469l27 144h471z" />
<glyph unicode="&#xae;" horiz-adv-x="1128" d="M764 1204q0 41 -57 41h-50l-24 -129h29q47 0 74.5 24.5t27.5 63.5zM866 1221q0 -61 -39 -103.5t-102 -56.5q6 -8 13 -23.5t18 -38.5l59 -147h-108l-74 197h-15l-36 -197h-93l89 469h147q74 0 107.5 -25.5t33.5 -74.5zM999 1100q0 63 -23.5 120.5t-65.5 102.5t-97 70.5 t-119 25.5q-66 0 -127 -26.5t-109 -74.5t-75 -112.5t-27 -136.5q0 -63 22.5 -122.5t64.5 -104.5t97.5 -71t118.5 -26q66 0 127.5 27t109.5 75t75.5 113.5t27.5 139.5zM1118 1106q0 -96 -38 -183t-103.5 -150.5t-149.5 -99.5t-172 -36t-164.5 31.5t-134 89t-89 134.5 t-31.5 163q0 100 37.5 187t103 151.5t149.5 99.5t174 35q88 0 165 -32t133.5 -89t88 -134t31.5 -167z" />
<glyph unicode="&#xaf;" horiz-adv-x="843" d="M821 1268h-502l25 129h502z" />
<glyph unicode="&#xb0;" horiz-adv-x="751" d="M645 1272q0 29 -8 51.5t-22.5 38.5t-36 24.5t-48.5 8.5q-61 0 -101 -45t-40 -119q0 -57 30 -90t85 -33q59 0 100 46t41 118zM782 1286q0 -66 -23.5 -121t-65.5 -93t-94 -58.5t-110 -20.5q-113 0 -175 60.5t-62 163.5q0 66 23.5 121t64.5 92.5t94 58t111 20.5 q113 0 175 -60.5t62 -162.5z" />
<glyph unicode="&#xb1;" d="M942 0h-946l27 147h946zM1073 684h-393l-76 -405h-166l76 405h-393l29 145h393l78 404h165l-77 -404h393z" />
<glyph unicode="&#xb2;" horiz-adv-x="712" d="M129 748l23 124l233 197q113 92 162 166t49 139q0 51 -27.5 81t-87.5 30q-47 0 -93 -13.5t-91 -35.5l-8 125q49 23 111.5 38t123.5 15q123 0 185.5 -53.5t62.5 -155.5q0 -96 -56.5 -186.5t-170.5 -190.5l-174 -145q57 2 133 3t207 1l-27 -139h-555z" />
<glyph unicode="&#xb3;" horiz-adv-x="692" d="M698 1042q0 -66 -29.5 -123t-84 -99t-127 -64.5t-154.5 -22.5q-45 0 -90 4t-82 13l31 124q29 -10 69.5 -15t77.5 -5q100 0 160.5 45t60.5 123q0 51 -47 78.5t-141 27.5q-18 0 -36.5 -1t-53.5 -3l20 115q143 0 224.5 43t81.5 121q0 92 -115 92q-41 0 -87 -9t-85 -26l2 117 q45 16 104.5 26.5t108.5 10.5q119 0 178 -47t59 -129q0 -84 -50 -147.5t-132 -90.5q59 -12 98 -56.5t39 -101.5z" />
<glyph unicode="&#xb4;" horiz-adv-x="702" d="M387 1167l-70 88l301 281l93 -111z" />
<glyph unicode="&#xb5;" horiz-adv-x="1177" d="M1036 -4q-25 -6 -48 -8t-42 -2q-84 0 -127 34.5t-43 120.5q0 51 14.5 118t47.5 153h-2q-37 -86 -84 -164t-103.5 -137.5t-120 -94t-131.5 -34.5q-145 0 -166 137q-2 -70 -4 -95.5t-4 -50.5q-16 -111 -24.5 -225.5t-8.5 -253.5h-170q2 182 19.5 332.5t40 259.5t64.5 286 t63 287l69 359h170l-110 -582q-16 -86 -18.5 -144.5t9 -94t35 -52t60.5 -16.5q68 0 139.5 64.5t135 168t109.5 219t64 212.5l41 225h172l-116 -612q-12 -68 -18.5 -120.5t-6.5 -82.5q0 -39 13.5 -54.5t43.5 -15.5q12 0 20.5 1t24.5 3z" />
<glyph unicode="&#xb6;" horiz-adv-x="1153" d="M582 512q-96 0 -165 24.5t-115 70.5t-67.5 108.5t-21.5 138.5q0 88 28.5 170t80 149.5t124 117.5t158.5 73q68 18 144 18zM1174 1247h-144l-276 -1444h-301l24 136h148l274 1443h299z" />
<glyph unicode="&#xb7;" horiz-adv-x="460" d="M377 612q0 -53 -38 -92t-91 -39q-49 0 -84 37t-35 86q0 55 38 93t91 38q51 0 85 -36t34 -87z" />
<glyph unicode="&#xb8;" horiz-adv-x="587" d="M240 -84q57 -98 31.5 -194.5t-124.5 -202.5h-153q49 53 78.5 96t42 82t4.5 79t-35 85z" />
<glyph unicode="&#xb9;" horiz-adv-x="550" d="M287 748l135 700l-195 -72v137l248 86h137l-161 -851h-164z" />
<glyph unicode="&#xba;" horiz-adv-x="839" d="M700 1133q0 66 -31.5 102.5t-99.5 36.5q-51 0 -92 -25.5t-68.5 -71t-42 -100.5t-14.5 -112q0 -66 32 -103t97 -37q53 0 94 25.5t69 71t42 101t14 112.5zM700 442h-577l24 131h580zM854 1153q0 -96 -27.5 -180t-80 -146.5t-126 -97.5t-163.5 -35q-260 0 -260 248 q0 96 27.5 180t80.5 146.5t127 97.5t162 35q125 0 192.5 -65.5t67.5 -182.5z" />
<glyph unicode="&#xbb;" horiz-adv-x="1015" d="M233 242l-118 73l258 293l-146 289l138 68l180 -365zM629 238l-121 73l246 297l-131 295l139 66l164 -371z" />
<glyph unicode="&#xbc;" horiz-adv-x="1640" d="M287 748l135 700l-195 -72v137l248 86h137l-161 -851h-164zM45 -287l-98 80l1632 1852l97 -80zM1331 -23l-37 -190h-152l39 190h-391l10 115l428 546h230l-100 -530h133l-25 -131h-135zM1284 526l-330 -422q25 2 58.5 3t69.5 1h64.5h59.5z" />
<glyph unicode="&#xbd;" horiz-adv-x="1687" d="M45 -287l-98 80l1632 1852l97 -80zM287 748l135 700l-195 -72v137l248 86h137l-161 -851h-164zM897 -213l23 124l233 197q113 92 162 166t49 139q0 51 -27.5 81t-87.5 30q-47 0 -93 -13.5t-91 -35.5l-8 125q49 23 111.5 38t123.5 15q123 0 185.5 -53.5t62.5 -155.5 q0 -96 -56.5 -186.5t-170.5 -190.5l-174 -145q57 2 133 3t207 1l-27 -139h-555z" />
<glyph unicode="&#xbe;" horiz-adv-x="1683" d="M86 -287l-98 80l1632 1852l97 -80zM698 1042q0 -66 -29.5 -123t-84 -99t-127 -64.5t-154.5 -22.5q-45 0 -90 4t-82 13l31 124q29 -10 69.5 -15t77.5 -5q100 0 160.5 45t60.5 123q0 51 -47 78.5t-141 27.5q-18 0 -36.5 -1t-53.5 -3l20 115q143 0 224.5 43t81.5 121 q0 92 -115 92q-41 0 -87 -9t-85 -26l2 117q45 16 104.5 26.5t108.5 10.5q119 0 178 -47t59 -129q0 -84 -50 -147.5t-132 -90.5q59 -12 98 -56.5t39 -101.5zM1372 -23l-37 -190h-152l39 190h-391l10 115l428 546h230l-100 -530h133l-25 -131h-135zM1325 526l-330 -422 q25 2 58.5 3t69.5 1h64.5h59.5z" />
<glyph unicode="&#xbf;" horiz-adv-x="993" d="M635 678q12 -109 -16.5 -188.5t-79 -142t-114 -114t-117.5 -103.5t-92 -111.5t-38 -137.5q0 -70 45 -118t160 -48q135 0 285 52l2 -148q-74 -23 -155 -38t-167 -15q-92 0 -159.5 21.5t-112.5 60.5t-66.5 90t-21.5 110q0 104 37.5 179t95 134.5t122 111t118 108.5t85 128 t23.5 169h166zM473 915q0 53 36 87t87 34q49 0 81 -32.5t32 -79.5q0 -53 -35 -88t-86 -35t-83 33.5t-32 80.5z" />
<glyph unicode="&#xc0;" horiz-adv-x="1232" d="M928 0l-49 334h-586l-176 -334h-187l752 1382h211l225 -1382h-190zM776 1018q-6 41 -11 91t-11 101h-2q-23 -47 -46.5 -95t-46.5 -95l-294 -545h495zM895 1487l-354 119l74 133l331 -152z" />
<glyph unicode="&#xc1;" horiz-adv-x="1232" d="M928 0l-49 334h-586l-176 -334h-187l752 1382h211l225 -1382h-190zM776 1018q-6 41 -11 91t-11 101h-2q-23 -47 -46.5 -95t-46.5 -95l-294 -545h495zM700 1487l-16 104l385 148l27 -140z" />
<glyph unicode="&#xc2;" horiz-adv-x="1232" d="M928 0l-49 334h-586l-176 -334h-187l752 1382h211l225 -1382h-190zM776 1018q-6 41 -11 91t-11 101h-2q-23 -47 -46.5 -95t-46.5 -95l-294 -545h495zM1073 1485l-243 125l-293 -125l-33 100l352 168l283 -168z" />
<glyph unicode="&#xc3;" horiz-adv-x="1232" d="M928 0l-49 334h-586l-176 -334h-187l752 1382h211l225 -1382h-190zM776 1018q-6 41 -11 91t-11 101h-2q-23 -47 -46.5 -95t-46.5 -95l-294 -545h495zM1186 1655q-90 -147 -226 -148q-45 0 -78.5 14.5t-73.5 43t-60.5 40t-49.5 11.5q-70 0 -133 -92l-86 63 q43 72 102.5 111t126.5 39q45 0 79 -14.5t74 -43t60.5 -40t48.5 -11.5q70 0 132 92z" />
<glyph unicode="&#xc4;" horiz-adv-x="1232" d="M928 0l-49 334h-586l-176 -334h-187l752 1382h211l225 -1382h-190zM776 1018q-6 41 -11 91t-11 101h-2q-23 -47 -46.5 -95t-46.5 -95l-294 -545h495zM1139 1602q0 -45 -32 -77t-75 -32t-70.5 28.5t-27.5 71.5q0 45 30.5 77t73.5 32t72 -29.5t29 -70.5zM711 1602 q0 -45 -31 -77t-74 -32t-71.5 29.5t-28.5 70.5q0 45 30.5 77t73.5 32t72 -28.5t29 -71.5z" />
<glyph unicode="&#xc5;" horiz-adv-x="1232" d="M928 0l-49 334h-586l-176 -334h-187l752 1382h211l225 -1382h-190zM776 1018q-6 41 -11 91t-11 101h-2q-23 -47 -46.5 -95t-46.5 -95l-294 -545h495zM1079 1718q0 -55 -19.5 -103t-56 -83t-87 -54.5t-109.5 -19.5q-88 0 -142.5 45t-54.5 123q0 55 19.5 103.5t56.5 84 t87 55t110 19.5q90 0 143 -45t53 -125zM825 1556q55 0 90 41t35 105q0 43 -21.5 65.5t-62.5 22.5q-57 0 -92 -42t-35 -106q0 -41 22.5 -63.5t63.5 -22.5z" />
<glyph unicode="&#xc6;" horiz-adv-x="1570" d="M868 1237q-35 -55 -76.5 -118.5t-113.5 -164.5l-336 -475h391l146 758h-11zM1565 1235h-514l-86 -451h477l-27 -143h-479l-92 -491h524l-29 -150h-696l66 338h-459l-236 -338h-194l981 1382h188h604z" />
<glyph unicode="&#xc7;" horiz-adv-x="1175" d="M1178 1192q-141 49 -287 49q-150 0 -262.5 -64.5t-184 -174t-106.5 -241.5t-35 -269q0 -78 20.5 -141.5t64.5 -110.5t113.5 -73t166.5 -26q78 0 169 19.5t160 50.5l9 -156q-84 -33 -188.5 -51t-196.5 -18q-143 0 -244 41t-159 109.5t-82.5 150.5t-24.5 172q0 172 46 337 t144 302t253 218t364 81q84 0 160.5 -12.5t148.5 -32.5zM602 -84q57 -98 31.5 -194.5t-124.5 -202.5h-153q49 53 78.5 96t42 82t4.5 79t-35 85z" />
<glyph unicode="&#xc8;" horiz-adv-x="1032" d="M1034 1235h-542l-86 -451h495l-27 -143h-495l-94 -491h542l-28 -150h-717l262 1382h719zM809 1487l-354 119l74 133l331 -152z" />
<glyph unicode="&#xc9;" horiz-adv-x="1032" d="M1034 1235h-542l-86 -451h495l-27 -143h-495l-94 -491h542l-28 -150h-717l262 1382h719zM610 1487l-16 104l385 148l27 -140z" />
<glyph unicode="&#xca;" horiz-adv-x="1032" d="M1034 1235h-542l-86 -451h495l-27 -143h-495l-94 -491h542l-28 -150h-717l262 1382h719zM983 1485l-243 125l-293 -125l-33 100l352 168l283 -168z" />
<glyph unicode="&#xcb;" horiz-adv-x="1032" d="M1034 1235h-542l-86 -451h495l-27 -143h-495l-94 -491h542l-28 -150h-717l262 1382h719zM1041 1602q0 -45 -32 -77t-75 -32t-70.5 28.5t-27.5 71.5q0 45 30.5 77t73.5 32t72 -29.5t29 -70.5zM613 1602q0 -45 -31 -77t-74 -32t-71.5 29.5t-28.5 70.5q0 45 30.5 77t73.5 32 t72 -28.5t29 -71.5z" />
<glyph unicode="&#xcc;" horiz-adv-x="524" d="M256 0h-174l264 1382h174zM547 1487l-354 119l74 133l331 -152z" />
<glyph unicode="&#xcd;" horiz-adv-x="524" d="M256 0h-174l264 1382h174zM366 1487l-16 104l385 148l27 -140z" />
<glyph unicode="&#xce;" horiz-adv-x="524" d="M256 0h-174l264 1382h174zM721 1485l-243 125l-293 -125l-33 100l352 168l283 -168z" />
<glyph unicode="&#xcf;" horiz-adv-x="524" d="M256 0h-174l264 1382h174zM791 1602q0 -45 -32 -77t-75 -32t-70.5 28.5t-27.5 71.5q0 45 30.5 77t73.5 32t72 -29.5t29 -70.5zM363 1602q0 -45 -31 -77t-74 -32t-71.5 29.5t-28.5 70.5q0 45 30.5 77t73.5 32t72 -28.5t29 -71.5z" />
<glyph unicode="&#xd0;" horiz-adv-x="1380" d="M1157 868q0 84 -21.5 151.5t-70.5 118t-134 78t-206 27.5q-49 0 -86 -1t-133 -5l-88 -457h295l-25 -137h-295l-92 -487q37 -6 85 -9.5t85 -3.5q178 0 310 62.5t215 167t122 232.5t39 263zM1343 887q0 -174 -55 -335t-166.5 -287t-282.5 -198.5t-395 -72.5q-82 0 -159.5 2 t-184.5 4l121 643h-186l26 137h185l114 602q49 0 186.5 3.5t207.5 3.5q158 0 271.5 -36t183 -102.5t102 -157.5t32.5 -206z" />
<glyph unicode="&#xd1;" horiz-adv-x="1384" d="M926 0l-371 907q-57 139 -92 275q-8 -55 -24.5 -152.5t-35 -208t-39 -224.5t-38.5 -204l-74 -393h-170l262 1382h166h59l363 -886q23 -59 42 -118t36 -120q8 66 23.5 160t33.5 198.5t37.5 212t38.5 199.5l67 354h168l-262 -1382h-162h-28zM1264 1655q-90 -147 -226 -148 q-45 0 -78.5 14.5t-73.5 43t-60.5 40t-49.5 11.5q-70 0 -133 -92l-86 63q43 72 102.5 111t126.5 39q45 0 79 -14.5t74 -43t60.5 -40t48.5 -11.5q70 0 132 92z" />
<glyph unicode="&#xd2;" horiz-adv-x="1419" d="M1204 870q0 174 -87 274.5t-261 100.5q-121 0 -225.5 -57.5t-180 -159.5t-116.5 -235.5t-41 -280.5q0 -174 87 -274.5t261 -100.5q121 0 224.5 57.5t180 160t117.5 235.5t41 280zM1391 899q0 -182 -55.5 -348t-160 -295t-250 -201.5t-317.5 -72.5q-248 0 -376 136 t-128 365q0 182 56.5 348t161 295t250 202t317.5 73q248 0 375 -136.5t127 -365.5zM981 1487l-354 119l74 133l331 -152z" />
<glyph unicode="&#xd3;" horiz-adv-x="1419" d="M1204 870q0 174 -87 274.5t-261 100.5q-121 0 -225.5 -57.5t-180 -159.5t-116.5 -235.5t-41 -280.5q0 -174 87 -274.5t261 -100.5q121 0 224.5 57.5t180 160t117.5 235.5t41 280zM1391 899q0 -182 -55.5 -348t-160 -295t-250 -201.5t-317.5 -72.5q-248 0 -376 136 t-128 365q0 182 56.5 348t161 295t250 202t317.5 73q248 0 375 -136.5t127 -365.5zM831 1487l-16 104l385 148l27 -140z" />
<glyph unicode="&#xd4;" horiz-adv-x="1419" d="M1204 870q0 174 -87 274.5t-261 100.5q-121 0 -225.5 -57.5t-180 -159.5t-116.5 -235.5t-41 -280.5q0 -174 87 -274.5t261 -100.5q121 0 224.5 57.5t180 160t117.5 235.5t41 280zM1391 899q0 -182 -55.5 -348t-160 -295t-250 -201.5t-317.5 -72.5q-248 0 -376 136 t-128 365q0 182 56.5 348t161 295t250 202t317.5 73q248 0 375 -136.5t127 -365.5zM1181 1485l-243 125l-293 -125l-33 100l352 168l283 -168z" />
<glyph unicode="&#xd5;" horiz-adv-x="1419" d="M1204 870q0 174 -87 274.5t-261 100.5q-121 0 -225.5 -57.5t-180 -159.5t-116.5 -235.5t-41 -280.5q0 -174 87 -274.5t261 -100.5q121 0 224.5 57.5t180 160t117.5 235.5t41 280zM1391 899q0 -182 -55.5 -348t-160 -295t-250 -201.5t-317.5 -72.5q-248 0 -376 136 t-128 365q0 182 56.5 348t161 295t250 202t317.5 73q248 0 375 -136.5t127 -365.5zM1274 1655q-90 -147 -226 -148q-45 0 -78.5 14.5t-73.5 43t-60.5 40t-49.5 11.5q-70 0 -133 -92l-86 63q43 72 102.5 111t126.5 39q45 0 79 -14.5t74 -43t60.5 -40t48.5 -11.5q70 0 132 92z " />
<glyph unicode="&#xd6;" horiz-adv-x="1419" d="M1204 870q0 174 -87 274.5t-261 100.5q-121 0 -225.5 -57.5t-180 -159.5t-116.5 -235.5t-41 -280.5q0 -174 87 -274.5t261 -100.5q121 0 224.5 57.5t180 160t117.5 235.5t41 280zM1391 899q0 -182 -55.5 -348t-160 -295t-250 -201.5t-317.5 -72.5q-248 0 -376 136 t-128 365q0 182 56.5 348t161 295t250 202t317.5 73q248 0 375 -136.5t127 -365.5zM1243 1602q0 -45 -32 -77t-75 -32t-70.5 28.5t-27.5 71.5q0 45 30.5 77t73.5 32t72 -29.5t29 -70.5zM815 1602q0 -45 -31 -77t-74 -32t-71.5 29.5t-28.5 70.5q0 45 30.5 77t73.5 32 t72 -28.5t29 -71.5z" />
<glyph unicode="&#xd7;" d="M686 604l283 -350l-117 -94l-281 348l-413 -348l-88 104l415 350l-282 349l116 94l281 -346l412 346l88 -105z" />
<glyph unicode="&#xd8;" horiz-adv-x="1419" d="M197 -152l112 207q-98 61 -151.5 168t-53.5 260q0 184 56.5 349t159 292t247 202t322.5 75q43 0 79 -4t70 -15l109 195l123 -53l-103 -185q104 -59 164 -166.5t60 -273.5q0 -184 -55.5 -349t-159 -292t-248 -201.5t-320.5 -74.5q-53 0 -94 7t-78 15l-114 -209zM518 156 q25 -10 54.5 -16.5t74.5 -6.5q119 0 222.5 57.5t178 156.5t117.5 234.5t43 290.5q0 106 -33.5 186.5t-91.5 121.5zM958 1235q-23 6 -50 10t-64 4q-117 0 -219.5 -57t-176 -156.5t-117.5 -234.5t-44 -291q0 -94 26.5 -170t83.5 -121z" />
<glyph unicode="&#xd9;" horiz-adv-x="1392" d="M1223 506q-51 -266 -209 -395t-420 -129q-147 0 -240.5 36.5t-139.5 104t-54 156t12 198.5l172 905h174l-174 -909q-33 -174 28.5 -260t245.5 -86q92 0 163 21.5t124 68.5t90 123t58 186l164 856h172zM948 1487l-354 119l74 133l331 -152z" />
<glyph unicode="&#xda;" horiz-adv-x="1392" d="M1223 506q-51 -266 -209 -395t-420 -129q-147 0 -240.5 36.5t-139.5 104t-54 156t12 198.5l172 905h174l-174 -909q-33 -174 28.5 -260t245.5 -86q92 0 163 21.5t124 68.5t90 123t58 186l164 856h172zM856 1487l-16 104l385 148l27 -140z" />
<glyph unicode="&#xdb;" horiz-adv-x="1392" d="M1223 506q-51 -266 -209 -395t-420 -129q-147 0 -240.5 36.5t-139.5 104t-54 156t12 198.5l172 905h174l-174 -909q-33 -174 28.5 -260t245.5 -86q92 0 163 21.5t124 68.5t90 123t58 186l164 856h172zM1159 1485l-243 125l-293 -125l-33 100l352 168l283 -168z" />
<glyph unicode="&#xdc;" horiz-adv-x="1392" d="M1223 506q-51 -266 -209 -395t-420 -129q-147 0 -240.5 36.5t-139.5 104t-54 156t12 198.5l172 905h174l-174 -909q-33 -174 28.5 -260t245.5 -86q92 0 163 21.5t124 68.5t90 123t58 186l164 856h172zM1223 1602q0 -45 -32 -77t-75 -32t-70.5 28.5t-27.5 71.5 q0 45 30.5 77t73.5 32t72 -29.5t29 -70.5zM795 1602q0 -45 -31 -77t-74 -32t-71.5 29.5t-28.5 70.5q0 45 30.5 77t73.5 32t72 -28.5t29 -71.5z" />
<glyph unicode="&#xdd;" horiz-adv-x="1071" d="M629 535l-101 -535h-174l101 535l-279 847h186l150 -458q20 -72 33.5 -123t25.5 -105h2q37 61 77 121t77 115l317 450h193zM688 1487l-16 104l385 148l27 -140z" />
<glyph unicode="&#xde;" horiz-adv-x="1073" d="M907 811q0 102 -70.5 164.5t-226.5 62.5q-53 0 -97 -3t-62 -5l-115 -602q20 -2 65 -7t91 -5q106 0 185 34.5t130 93t75.5 128t24.5 139.5zM1090 834q0 -111 -42 -212.5t-123 -180.5t-199 -125t-261 -46q-53 0 -96 3t-62 6l-51 -279h-174l262 1382h176l-39 -202q27 2 76 3 t84 1q221 0 335 -96t114 -254z" />
<glyph unicode="&#xdf;" horiz-adv-x="1155" d="M1100 1268q0 -72 -23.5 -124t-58.5 -87t-97.5 -77t-89 -63.5t-49 -57.5t-22.5 -85q0 -57 29.5 -99t93 -108.5t96.5 -122t33 -131.5q0 -68 -29 -128t-84 -106t-134 -71.5t-175 -25.5q-51 0 -86 3t-82 11l31 156q41 -12 77.5 -19.5t79.5 -7.5q104 0 162.5 45t58.5 123 q0 57 -29.5 100t-92 107.5t-95 119t-32.5 130.5q0 68 23.5 116.5t58 83.5t94 77t89.5 66.5t52.5 62.5t22.5 89q0 55 -41 89t-117 34q-123 0 -202 -80t-111 -252l-207 -1093q-25 -125 -63 -213t-91 -143.5t-124.5 -82t-166.5 -26.5q-29 0 -60.5 3t-45.5 5l43 145 q10 -2 32.5 -6t49.5 -4q53 0 93 17.5t69.5 54.5t52 98.5t39.5 151.5l204 1081q47 248 176.5 364.5t335.5 116.5q145 0 228.5 -64t83.5 -173z" />
<glyph unicode="&#xe0;" horiz-adv-x="1099" d="M831 877q-37 8 -72.5 13t-76.5 5q-111 0 -195 -51t-136 -135t-76.5 -185.5t-24.5 -204.5q0 -98 28.5 -144t77.5 -46q72 0 145.5 65.5t138.5 169t111 218t64 211.5zM1026 1004q-43 -221 -71.5 -371t-49 -257.5t-37 -194.5t-32.5 -181h-172q29 135 120 424l-4 2 q-35 -74 -76.5 -147.5t-102 -142t-137.5 -112.5t-165 -44q-111 0 -168 75.5t-57 233.5q0 143 38 276t116.5 238.5t200.5 167t282 61.5q84 0 163.5 -7t151.5 -21zM715 1167l-228 269l119 100l209 -287z" />
<glyph unicode="&#xe1;" horiz-adv-x="1099" d="M831 877q-37 8 -72.5 13t-76.5 5q-111 0 -195 -51t-136 -135t-76.5 -185.5t-24.5 -204.5q0 -98 28.5 -144t77.5 -46q72 0 145.5 65.5t138.5 169t111 218t64 211.5zM1026 1004q-43 -221 -71.5 -371t-49 -257.5t-37 -194.5t-32.5 -181h-172q29 135 120 424l-4 2 q-35 -74 -76.5 -147.5t-102 -142t-137.5 -112.5t-165 -44q-111 0 -168 75.5t-57 233.5q0 143 38 276t116.5 238.5t200.5 167t282 61.5q84 0 163.5 -7t151.5 -21zM688 1167l-70 88l301 281l93 -111z" />
<glyph unicode="&#xe2;" horiz-adv-x="1099" d="M831 877q-37 8 -72.5 13t-76.5 5q-111 0 -195 -51t-136 -135t-76.5 -185.5t-24.5 -204.5q0 -98 28.5 -144t77.5 -46q72 0 145.5 65.5t138.5 169t111 218t64 211.5zM1026 1004q-43 -221 -71.5 -371t-49 -257.5t-37 -194.5t-32.5 -181h-172q29 135 120 424l-4 2 q-35 -74 -76.5 -147.5t-102 -142t-137.5 -112.5t-165 -44q-111 0 -168 75.5t-57 233.5q0 143 38 276t116.5 238.5t200.5 167t282 61.5q84 0 163.5 -7t151.5 -21zM889 1171l-164 175l-237 -175l-60 84l324 265l227 -267z" />
<glyph unicode="&#xe3;" horiz-adv-x="1099" d="M831 877q-37 8 -72.5 13t-76.5 5q-111 0 -195 -51t-136 -135t-76.5 -185.5t-24.5 -204.5q0 -98 28.5 -144t77.5 -46q72 0 145.5 65.5t138.5 169t111 218t64 211.5zM1026 1004q-43 -221 -71.5 -371t-49 -257.5t-37 -194.5t-32.5 -181h-172q29 135 120 424l-4 2 q-35 -74 -76.5 -147.5t-102 -142t-137.5 -112.5t-165 -44q-111 0 -168 75.5t-57 233.5q0 143 38 276t116.5 238.5t200.5 167t282 61.5q84 0 163.5 -7t151.5 -21zM1067 1374q-41 -74 -99.5 -114.5t-125.5 -40.5q-45 0 -77 15t-69 44t-56.5 41t-47.5 12q-66 0 -127 -96l-86 70 q41 76 98 115.5t125 39.5q43 0 75.5 -15t70.5 -44t58.5 -41t47.5 -12q68 0 127 96z" />
<glyph unicode="&#xe4;" horiz-adv-x="1099" d="M831 877q-37 8 -72.5 13t-76.5 5q-111 0 -195 -51t-136 -135t-76.5 -185.5t-24.5 -204.5q0 -98 28.5 -144t77.5 -46q72 0 145.5 65.5t138.5 169t111 218t64 211.5zM1026 1004q-43 -221 -71.5 -371t-49 -257.5t-37 -194.5t-32.5 -181h-172q29 135 120 424l-4 2 q-35 -74 -76.5 -147.5t-102 -142t-137.5 -112.5t-165 -44q-111 0 -168 75.5t-57 233.5q0 143 38 276t116.5 238.5t200.5 167t282 61.5q84 0 163.5 -7t151.5 -21zM637 1346q0 -47 -32 -79t-77 -32q-43 0 -72.5 29.5t-29.5 72.5q0 47 31.5 79t76.5 32q43 0 73 -29.5t30 -72.5z M1020 1346q0 -47 -32 -79t-77 -32q-43 0 -72.5 29.5t-29.5 72.5q0 47 31.5 79t76.5 32q43 0 73 -29.5t30 -72.5z" />
<glyph unicode="&#xe5;" horiz-adv-x="1099" d="M831 877q-37 8 -72.5 13t-76.5 5q-111 0 -195 -51t-136 -135t-76.5 -185.5t-24.5 -204.5q0 -98 28.5 -144t77.5 -46q72 0 145.5 65.5t138.5 169t111 218t64 211.5zM1026 1004q-43 -221 -71.5 -371t-49 -257.5t-37 -194.5t-32.5 -181h-172q29 135 120 424l-4 2 q-35 -74 -76.5 -147.5t-102 -142t-137.5 -112.5t-165 -44q-111 0 -168 75.5t-57 233.5q0 143 38 276t116.5 238.5t200.5 167t282 61.5q84 0 163.5 -7t151.5 -21zM967 1403q0 -55 -19.5 -104.5t-56.5 -85.5t-88 -56.5t-113 -20.5q-88 0 -139 47.5t-51 126.5q0 57 19.5 105.5 t56 85.5t88 56.5t112.5 19.5q88 0 139.5 -47t51.5 -127zM711 1239q57 0 92 42t35 101q0 41 -20.5 66.5t-61.5 25.5q-57 0 -92 -42t-35 -101q0 -43 20.5 -67.5t61.5 -24.5z" />
<glyph unicode="&#xe6;" horiz-adv-x="1562" d="M682 461q-109 -4 -192.5 -15.5t-144 -36t-94.5 -65.5t-34 -102q0 -51 32 -86t93 -35q59 0 114.5 27.5t101.5 76.5t79 111t45 125zM1343 784q0 57 -38.5 88t-104.5 31q-59 0 -110.5 -24.5t-92.5 -67.5t-70.5 -100.5t-47.5 -124.5q121 4 209 19.5t144 40t83.5 59t27.5 79.5 zM1518 807q0 -78 -40 -140.5t-121 -107.5t-207 -70.5t-294 -31.5q-6 -23 -9 -59t-3 -70q0 -61 11 -100.5t38 -62t67.5 -31.5t106.5 -9q70 0 143.5 15.5t139.5 41.5l8 -137q-76 -31 -164 -47t-186 -16q-80 0 -136.5 15t-93.5 44t-57.5 72t-28.5 100q-27 -45 -67.5 -87 t-93 -75t-114 -51t-126.5 -18q-119 0 -183.5 63.5t-64.5 167.5q0 98 49 169t139.5 115t209 65.5t266.5 25.5l14 63q31 129 -8 189.5t-162 60.5q-74 0 -155 -20.5t-152 -53.5l-17 138q82 33 174.5 52t178.5 19q70 0 120 -13t83.5 -35.5t53 -51.5t29.5 -64q27 31 63 61 t82 53.5t99 36.5t113 13q76 0 133 -18.5t92 -50t52.5 -72.5t17.5 -88z" />
<glyph unicode="&#xe7;" horiz-adv-x="845" d="M834 850q-45 18 -95.5 29.5t-101.5 11.5q-92 0 -164 -48t-120 -127t-72.5 -172t-24.5 -186q0 -45 9 -83.5t33 -70.5t67 -50.5t108 -18.5q59 0 119.5 13.5t109.5 35.5l3 -147q-61 -25 -133 -39t-144 -14q-96 0 -165.5 24.5t-111.5 69.5t-60.5 105.5t-18.5 135.5 q0 145 40 275.5t115.5 230t184 154.5t239.5 55q59 0 114.5 -8t111.5 -25zM414 -84q57 -98 31.5 -194.5t-124.5 -202.5h-153q49 53 78.5 96t42 82t4.5 79t-35 85z" />
<glyph unicode="&#xe8;" horiz-adv-x="966" d="M748 784q0 57 -39 88t-105 31q-59 0 -110.5 -24.5t-92.5 -68.5t-70.5 -102.5t-47.5 -125.5q244 10 354.5 60t110.5 142zM922 807q0 -330 -662 -354q-4 -25 -8 -61t-4 -64q0 -61 11 -100.5t38 -62t68 -31.5t106 -9q72 0 144.5 15.5t140.5 41.5l6 -137q-76 -31 -164 -47 t-186 -16q-176 0 -258 77.5t-82 249.5q0 147 39 279.5t112.5 233t176 157.5t227.5 57q78 0 134 -18.5t92 -50t52.5 -72.5t16.5 -88zM637 1167l-228 269l119 100l209 -287z" />
<glyph unicode="&#xe9;" horiz-adv-x="966" d="M748 784q0 57 -39 88t-105 31q-59 0 -110.5 -24.5t-92.5 -68.5t-70.5 -102.5t-47.5 -125.5q244 10 354.5 60t110.5 142zM922 807q0 -330 -662 -354q-4 -25 -8 -61t-4 -64q0 -61 11 -100.5t38 -62t68 -31.5t106 -9q72 0 144.5 15.5t140.5 41.5l6 -137q-76 -31 -164 -47 t-186 -16q-176 0 -258 77.5t-82 249.5q0 147 39 279.5t112.5 233t176 157.5t227.5 57q78 0 134 -18.5t92 -50t52.5 -72.5t16.5 -88zM600 1167l-70 88l301 281l93 -111z" />
<glyph unicode="&#xea;" horiz-adv-x="966" d="M748 784q0 57 -39 88t-105 31q-59 0 -110.5 -24.5t-92.5 -68.5t-70.5 -102.5t-47.5 -125.5q244 10 354.5 60t110.5 142zM922 807q0 -330 -662 -354q-4 -25 -8 -61t-4 -64q0 -61 11 -100.5t38 -62t68 -31.5t106 -9q72 0 144.5 15.5t140.5 41.5l6 -137q-76 -31 -164 -47 t-186 -16q-176 0 -258 77.5t-82 249.5q0 147 39 279.5t112.5 233t176 157.5t227.5 57q78 0 134 -18.5t92 -50t52.5 -72.5t16.5 -88zM831 1171l-164 175l-237 -175l-60 84l324 265l227 -267z" />
<glyph unicode="&#xeb;" horiz-adv-x="966" d="M748 784q0 57 -39 88t-105 31q-59 0 -110.5 -24.5t-92.5 -68.5t-70.5 -102.5t-47.5 -125.5q244 10 354.5 60t110.5 142zM922 807q0 -330 -662 -354q-4 -25 -8 -61t-4 -64q0 -61 11 -100.5t38 -62t68 -31.5t106 -9q72 0 144.5 15.5t140.5 41.5l6 -137q-76 -31 -164 -47 t-186 -16q-176 0 -258 77.5t-82 249.5q0 147 39 279.5t112.5 233t176 157.5t227.5 57q78 0 134 -18.5t92 -50t52.5 -72.5t16.5 -88zM582 1346q0 -47 -32 -79t-77 -32q-43 0 -72.5 29.5t-29.5 72.5q0 47 31.5 79t76.5 32q43 0 73 -29.5t30 -72.5zM965 1346q0 -47 -32 -79 t-77 -32q-43 0 -72.5 29.5t-29.5 72.5q0 47 31.5 79t76.5 32q43 0 73 -29.5t30 -72.5z" />
<glyph unicode="&#xec;" horiz-adv-x="518" d="M252 0h-170l192 1018h170zM370 1157l-139 326l141 67l111 -338z" />
<glyph unicode="&#xed;" horiz-adv-x="518" d="M252 0h-170l192 1018h170zM401 1165l-88 72l262 305l109 -86z" />
<glyph unicode="&#xee;" horiz-adv-x="518" d="M252 0h-170l192 1018h170zM563 1171l-137 175l-213 -175l-57 84l299 265l198 -269z" />
<glyph unicode="&#xef;" horiz-adv-x="518" d="M252 0h-170l192 1018h170zM354 1346q0 -47 -31.5 -79t-76.5 -32q-43 0 -73 29.5t-30 72.5q0 47 32 79t77 32q43 0 72.5 -29.5t29.5 -72.5zM702 1346q0 -47 -31.5 -79t-76.5 -32q-43 0 -74 30.5t-31 71.5q0 47 33 79t78 32q43 0 72.5 -29.5t29.5 -72.5z" />
<glyph unicode="&#xf0;" horiz-adv-x="1093" d="M850 659q0 106 -56.5 169t-162.5 63q-86 0 -158 -42t-122 -114.5t-75.5 -163t-25.5 -182.5q0 -125 58.5 -192.5t162.5 -67.5q102 0 176 55.5t119 140.5t64.5 174.5t19.5 159.5zM881 1290q78 -123 116.5 -259t38.5 -279q0 -158 -41 -298.5t-118.5 -247t-186 -165.5 t-239.5 -59q-182 0 -281.5 92t-99.5 276q0 135 41 258t117.5 219.5t183 151.5t233.5 55q76 0 132.5 -23.5t78.5 -72.5q-8 29 -20.5 61.5t-18.5 44.5q-25 57 -47 100.5t-49 80.5l-232 -97l-55 99l213 88q-27 31 -57.5 61.5t-73.5 69.5l170 76q37 -35 68.5 -70t58.5 -68 l227 93l54 -97z" />
<glyph unicode="&#xf1;" horiz-adv-x="1155" d="M887 0h-170l125 653q23 123 1 179.5t-93 56.5q-70 0 -144 -64.5t-138.5 -168t-110.5 -219t-64 -212.5l-41 -225h-172l102 530q8 43 15.5 83t15.5 81t15.5 82t14.5 81t15 81t14 80h172q-14 -68 -40.5 -165t-73.5 -247h4q39 86 87 163t107.5 138.5t130 96t148.5 34.5 q139 0 191.5 -91t21.5 -255zM1088 1374q-41 -74 -99.5 -114.5t-125.5 -40.5q-45 0 -77 15t-69 44t-56.5 41t-47.5 12q-66 0 -127 -96l-86 70q41 76 98 115.5t125 39.5q43 0 75.5 -15t70.5 -44t58.5 -41t47.5 -12q68 0 127 96z" />
<glyph unicode="&#xf2;" horiz-adv-x="1091" d="M850 649q0 106 -55.5 174t-165.5 68q-94 0 -166 -47t-119 -124t-70.5 -169t-23.5 -182q0 -106 55 -173t166 -67q94 0 167 46t120 123t69.5 169t22.5 182zM1030 674q0 -133 -39 -257t-114.5 -222.5t-186 -155.5t-248.5 -57q-184 0 -278 98t-94 264q0 133 38.5 257 t114.5 222.5t186.5 155.5t247.5 57q92 0 163 -26.5t118 -74.5t69.5 -114.5t22.5 -146.5zM703 1167l-228 269l119 100l209 -287z" />
<glyph unicode="&#xf3;" horiz-adv-x="1091" d="M850 649q0 106 -55.5 174t-165.5 68q-94 0 -166 -47t-119 -124t-70.5 -169t-23.5 -182q0 -106 55 -173t166 -67q94 0 167 46t120 123t69.5 169t22.5 182zM1030 674q0 -133 -39 -257t-114.5 -222.5t-186 -155.5t-248.5 -57q-184 0 -278 98t-94 264q0 133 38.5 257 t114.5 222.5t186.5 155.5t247.5 57q92 0 163 -26.5t118 -74.5t69.5 -114.5t22.5 -146.5zM668 1167l-70 88l301 281l93 -111z" />
<glyph unicode="&#xf4;" horiz-adv-x="1091" d="M850 649q0 106 -55.5 174t-165.5 68q-94 0 -166 -47t-119 -124t-70.5 -169t-23.5 -182q0 -106 55 -173t166 -67q94 0 167 46t120 123t69.5 169t22.5 182zM1030 674q0 -133 -39 -257t-114.5 -222.5t-186 -155.5t-248.5 -57q-184 0 -278 98t-94 264q0 133 38.5 257 t114.5 222.5t186.5 155.5t247.5 57q92 0 163 -26.5t118 -74.5t69.5 -114.5t22.5 -146.5zM880 1171l-164 175l-237 -175l-60 84l324 265l227 -267z" />
<glyph unicode="&#xf5;" horiz-adv-x="1091" d="M850 649q0 106 -55.5 174t-165.5 68q-94 0 -166 -47t-119 -124t-70.5 -169t-23.5 -182q0 -106 55 -173t166 -67q94 0 167 46t120 123t69.5 169t22.5 182zM1030 674q0 -133 -39 -257t-114.5 -222.5t-186 -155.5t-248.5 -57q-184 0 -278 98t-94 264q0 133 38.5 257 t114.5 222.5t186.5 155.5t247.5 57q92 0 163 -26.5t118 -74.5t69.5 -114.5t22.5 -146.5zM1063 1374q-41 -74 -99.5 -114.5t-125.5 -40.5q-45 0 -77 15t-69 44t-56.5 41t-47.5 12q-66 0 -127 -96l-86 70q41 76 98 115.5t125 39.5q43 0 75.5 -15t70.5 -44t58.5 -41t47.5 -12 q68 0 127 96z" />
<glyph unicode="&#xf6;" horiz-adv-x="1091" d="M850 649q0 106 -55.5 174t-165.5 68q-94 0 -166 -47t-119 -124t-70.5 -169t-23.5 -182q0 -106 55 -173t166 -67q94 0 167 46t120 123t69.5 169t22.5 182zM1030 674q0 -133 -39 -257t-114.5 -222.5t-186 -155.5t-248.5 -57q-184 0 -278 98t-94 264q0 133 38.5 257 t114.5 222.5t186.5 155.5t247.5 57q92 0 163 -26.5t118 -74.5t69.5 -114.5t22.5 -146.5zM625 1346q0 -47 -32 -79t-77 -32q-43 0 -72.5 29.5t-29.5 72.5q0 47 31.5 79t76.5 32q43 0 73 -29.5t30 -72.5zM1008 1346q0 -47 -32 -79t-77 -32q-43 0 -72.5 29.5t-29.5 72.5 q0 47 31.5 79t76.5 32q43 0 73 -29.5t30 -72.5z" />
<glyph unicode="&#xf7;" d="M618 199q0 -51 -35.5 -86t-84.5 -35t-82 33.5t-33 83.5q0 51 35 85.5t84 34.5t82.5 -34.5t33.5 -81.5zM1047 537h-953l27 145h952zM778 1024q0 -51 -34.5 -86t-86.5 -35q-49 0 -81.5 34t-32.5 83q0 51 34.5 86t84.5 35q49 0 82.5 -34t33.5 -83z" />
<glyph unicode="&#xf8;" horiz-adv-x="1091" d="M88 -156l115 203q-59 43 -96 117t-37 180q0 131 38.5 255t113.5 221.5t184.5 156.5t250.5 59q27 0 52.5 -2t48.5 -6l114 203l105 -53l-107 -191q78 -45 119 -125t41 -188q0 -131 -39 -255t-113.5 -221.5t-184 -156.5t-251.5 -59q-74 0 -131 18l-116 -209zM385 135 q23 -6 47.5 -10t52.5 -4q98 4 169 56t117 130t68.5 170t22.5 176q0 66 -20.5 113t-55.5 78zM684 893q-16 4 -32.5 5t-37.5 -1q-94 -2 -163.5 -51t-116.5 -125t-70.5 -169t-23.5 -183q0 -104 53 -170z" />
<glyph unicode="&#xf9;" horiz-adv-x="1153" d="M979 487q-8 -43 -15.5 -82.5t-15.5 -80.5t-15 -82t-14.5 -81t-15.5 -81t-14 -80h-172q14 68 40.5 165t76.5 247h-5q-39 -86 -87 -163t-108.5 -138.5t-131 -96t-148.5 -34.5q-139 0 -191 91t-22 255l133 692h170l-125 -653q-23 -123 0 -179.5t95 -56.5q70 0 142.5 64.5 t137 168t110.5 219t64 212.5l41 225h172zM713 1167l-228 269l119 100l209 -287z" />
<glyph unicode="&#xfa;" horiz-adv-x="1153" d="M979 487q-8 -43 -15.5 -82.5t-15.5 -80.5t-15 -82t-14.5 -81t-15.5 -81t-14 -80h-172q14 68 40.5 165t76.5 247h-5q-39 -86 -87 -163t-108.5 -138.5t-131 -96t-148.5 -34.5q-139 0 -191 91t-22 255l133 692h170l-125 -653q-23 -123 0 -179.5t95 -56.5q70 0 142.5 64.5 t137 168t110.5 219t64 212.5l41 225h172zM702 1167l-70 88l301 281l93 -111z" />
<glyph unicode="&#xfb;" horiz-adv-x="1153" d="M979 487q-8 -43 -15.5 -82.5t-15.5 -80.5t-15 -82t-14.5 -81t-15.5 -81t-14 -80h-172q14 68 40.5 165t76.5 247h-5q-39 -86 -87 -163t-108.5 -138.5t-131 -96t-148.5 -34.5q-139 0 -191 91t-22 255l133 692h170l-125 -653q-23 -123 0 -179.5t95 -56.5q70 0 142.5 64.5 t137 168t110.5 219t64 212.5l41 225h172zM907 1171l-164 175l-237 -175l-60 84l324 265l227 -267z" />
<glyph unicode="&#xfc;" horiz-adv-x="1153" d="M979 487q-8 -43 -15.5 -82.5t-15.5 -80.5t-15 -82t-14.5 -81t-15.5 -81t-14 -80h-172q14 68 40.5 165t76.5 247h-5q-39 -86 -87 -163t-108.5 -138.5t-131 -96t-148.5 -34.5q-139 0 -191 91t-22 255l133 692h170l-125 -653q-23 -123 0 -179.5t95 -56.5q70 0 142.5 64.5 t137 168t110.5 219t64 212.5l41 225h172zM654 1346q0 -47 -32 -79t-77 -32q-43 0 -72.5 29.5t-29.5 72.5q0 47 31.5 79t76.5 32q43 0 73 -29.5t30 -72.5zM1037 1346q0 -47 -32 -79t-77 -32q-43 0 -72.5 29.5t-29.5 72.5q0 47 31.5 79t76.5 32q43 0 73 -29.5t30 -72.5z" />
<glyph unicode="&#xfd;" horiz-adv-x="956" d="M1012 1010q-96 -227 -194.5 -430t-195 -375t-192.5 -308.5t-190 -230.5q-98 -98 -191.5 -143t-204.5 -45h-26.5t-22.5 2q-12 2 -22 4l28 151q12 -2 25 -4q10 -2 24.5 -3t30.5 -1q59 0 112.5 27t106.5 78q39 39 67 80t46 88t26.5 104t8.5 129q0 166 -36 399.5t-97 485.5 h190q20 -98 40 -202.5t33 -202t21.5 -180.5t8.5 -136q0 -72 -6.5 -122t-16.5 -95h4q23 45 46.5 90t45.5 88q92 174 180.5 367.5t186.5 433.5zM616 1167l-69 88l301 281l92 -111z" />
<glyph unicode="&#xfe;" horiz-adv-x="1099" d="M858 698q0 98 -27.5 144.5t-78.5 46.5q-47 0 -97.5 -31t-97.5 -84t-89 -120.5t-77 -142.5t-59.5 -147.5t-36.5 -134.5l-14 -79q31 -12 73.5 -19.5t75.5 -7.5q111 0 193 51t134 136t76.5 185.5t24.5 202.5zM1036 729q0 -143 -37.5 -276.5t-116.5 -238.5t-201 -166.5 t-284 -61.5q-49 0 -147 12l-94 -504h-172l383 2001h172l-80 -418q-8 -47 -18.5 -93t-26 -100.5t-36 -123t-48.5 -158.5h4q41 94 91 172t109.5 137.5t130 93t146.5 33.5q111 0 168 -75.5t57 -233.5z" />
<glyph unicode="&#xff;" horiz-adv-x="956" d="M1012 1010q-96 -227 -194.5 -430t-195 -375t-192.5 -308.5t-190 -230.5q-98 -98 -191.5 -143t-204.5 -45h-26.5t-22.5 2q-12 2 -22 4l28 151q12 -2 25 -4q10 -2 24.5 -3t30.5 -1q59 0 112.5 27t106.5 78q39 39 67 80t46 88t26.5 104t8.5 129q0 166 -36 399.5t-97 485.5 h190q20 -98 40 -202.5t33 -202t21.5 -180.5t8.5 -136q0 -72 -6.5 -122t-16.5 -95h4q23 45 46.5 90t45.5 88q92 174 180.5 367.5t186.5 433.5zM559 1346q0 -47 -31.5 -79t-76.5 -32q-43 0 -73 29.5t-30 72.5q0 47 32 79t77 32q43 0 72.5 -29.5t29.5 -72.5zM942 1346 q0 -47 -31.5 -79t-76.5 -32q-43 0 -73 29.5t-30 72.5q0 47 32 79t77 32q43 0 72.5 -29.5t29.5 -72.5z" />
<glyph unicode="&#x100;" horiz-adv-x="1232" d="M928 0l-49 334h-586l-176 -334h-187l752 1382h211l225 -1382h-190zM776 1018q-6 41 -11 91t-11 101h-2q-23 -47 -46.5 -95t-46.5 -95l-294 -545h495zM1088 1534h-551l24 121h549z" />
<glyph unicode="&#x101;" horiz-adv-x="1099" d="M831 877q-37 8 -72.5 13t-76.5 5q-111 0 -195 -51t-136 -135t-76.5 -185.5t-24.5 -204.5q0 -98 28.5 -144t77.5 -46q72 0 145.5 65.5t138.5 169t111 218t64 211.5zM1026 1004q-43 -221 -71.5 -371t-49 -257.5t-37 -194.5t-32.5 -181h-172q29 135 120 424l-4 2 q-35 -74 -76.5 -147.5t-102 -142t-137.5 -112.5t-165 -44q-111 0 -168 75.5t-57 233.5q0 143 38 276t116.5 238.5t200.5 167t282 61.5q84 0 163.5 -7t151.5 -21zM952 1268h-502l25 129h502z" />
<glyph unicode="&#x102;" horiz-adv-x="1232" d="M928 0l-49 334h-586l-176 -334h-187l752 1382h211l225 -1382h-190zM776 1018q-6 41 -11 91t-11 101h-2q-23 -47 -46.5 -95t-46.5 -95l-294 -545h495zM1106 1743q-10 -49 -33 -93t-59.5 -79t-88 -54.5t-114.5 -19.5t-110.5 19.5t-74 54.5t-36 79t1.5 93h110 q-10 -53 20.5 -90t98.5 -37t113 33.5t57 93.5h115z" />
<glyph unicode="&#x103;" horiz-adv-x="1099" d="M831 877q-37 8 -72.5 13t-76.5 5q-111 0 -195 -51t-136 -135t-76.5 -185.5t-24.5 -204.5q0 -98 28.5 -144t77.5 -46q72 0 145.5 65.5t138.5 169t111 218t64 211.5zM1026 1004q-43 -221 -71.5 -371t-49 -257.5t-37 -194.5t-32.5 -181h-172q29 135 120 424l-4 2 q-35 -74 -76.5 -147.5t-102 -142t-137.5 -112.5t-165 -44q-111 0 -168 75.5t-57 233.5q0 143 38 276t116.5 238.5t200.5 167t282 61.5q84 0 163.5 -7t151.5 -21zM987 1468q-10 -55 -32.5 -103t-59.5 -86t-88 -59.5t-115 -21.5q-63 0 -107 22.5t-68 60.5t-29 86t5 101h113 q-12 -59 14.5 -99t87.5 -40t102.5 37t55.5 102h121z" />
<glyph unicode="&#x104;" horiz-adv-x="1232" d="M1110 -395q-109 -82 -227 -82q-94 0 -141.5 46t-47.5 107q0 88 61.5 172t172.5 156l-49 330h-586l-176 -334h-187l752 1382h211l225 -1382q-74 -45 -124 -86t-78.5 -77t-41 -67.5t-12.5 -58.5q0 -25 16.5 -40t51.5 -15q63 0 141 53zM776 1018q-6 45 -12 96t-10 96h-2 l-93 -190l-294 -545h495z" />
<glyph unicode="&#x105;" horiz-adv-x="1099" d="M1026 1004q-57 -287 -91 -468.5t-51.5 -283.5t-23.5 -153.5t-8 -98.5q-119 -76 -177.5 -149.5t-58.5 -137.5q0 -57 62 -57q66 0 141 53l43 -102q-51 -39 -111.5 -61.5t-115.5 -22.5q-86 0 -138.5 43t-52.5 119q0 80 63.5 169t178.5 164q10 92 31.5 185.5t66.5 220.5l-4 2 q-35 -74 -76.5 -147.5t-102 -142t-137.5 -112.5t-165 -44q-111 0 -168 75.5t-57 233.5q0 143 38 276t116.5 238.5t200.5 167t282 61.5q84 0 163.5 -7t151.5 -21zM356 129q72 0 145.5 65.5t138.5 169t111 218t64 211.5l16 84q-37 8 -72.5 13t-76.5 5q-111 0 -195 -51 t-136 -135t-76.5 -185.5t-24.5 -204.5q0 -98 28.5 -144t77.5 -46z" />
<glyph unicode="&#x106;" horiz-adv-x="1175" d="M1178 1192q-141 49 -287 49q-150 0 -262.5 -64.5t-184 -174t-106.5 -241.5t-35 -269q0 -78 20.5 -141.5t64.5 -110.5t113.5 -73t166.5 -26q78 0 169 19.5t160 50.5l9 -156q-84 -33 -188.5 -51t-196.5 -18q-143 0 -244 41t-159 109.5t-82.5 150.5t-24.5 172q0 172 46 337 t144 302t253 218t364 81q84 0 160.5 -12.5t148.5 -32.5zM817 1487l-16 104l385 148l27 -140z" />
<glyph unicode="&#x107;" horiz-adv-x="845" d="M834 850q-45 18 -95.5 29.5t-101.5 11.5q-92 0 -164 -48t-120 -127t-72.5 -172t-24.5 -186q0 -45 9 -83.5t33 -70.5t67 -50.5t108 -18.5q59 0 119.5 13.5t109.5 35.5l3 -147q-61 -25 -133 -39t-144 -14q-96 0 -165.5 24.5t-111.5 69.5t-60.5 105.5t-18.5 135.5 q0 145 40 275.5t115.5 230t184 154.5t239.5 55q59 0 114.5 -8t111.5 -25zM630 1165l-88 72l262 305l109 -86z" />
<glyph unicode="&#x108;" horiz-adv-x="1175" d="M1178 1192q-141 49 -287 49q-150 0 -262.5 -64.5t-184 -174t-106.5 -241.5t-35 -269q0 -78 20.5 -141.5t64.5 -110.5t113.5 -73t166.5 -26q78 0 169 19.5t160 50.5l9 -156q-84 -33 -188.5 -51t-196.5 -18q-143 0 -244 41t-159 109.5t-82.5 150.5t-24.5 172q0 172 46 337 t144 302t253 218t364 81q84 0 160.5 -12.5t148.5 -32.5zM1161 1485l-243 125l-293 -125l-33 100l352 168l283 -168z" />
<glyph unicode="&#x109;" horiz-adv-x="845" d="M834 850q-45 18 -95.5 29.5t-101.5 11.5q-92 0 -164 -48t-120 -127t-72.5 -172t-24.5 -186q0 -45 9 -83.5t33 -70.5t67 -50.5t108 -18.5q59 0 119.5 13.5t109.5 35.5l3 -147q-61 -25 -133 -39t-144 -14q-96 0 -165.5 24.5t-111.5 69.5t-60.5 105.5t-18.5 135.5 q0 145 40 275.5t115.5 230t184 154.5t239.5 55q59 0 114.5 -8t111.5 -25zM831 1171l-164 175l-237 -175l-60 84l324 265l227 -267z" />
<glyph unicode="&#x10a;" horiz-adv-x="1175" d="M1178 1192q-141 49 -287 49q-150 0 -262.5 -64.5t-184 -174t-106.5 -241.5t-35 -269q0 -78 20.5 -141.5t64.5 -110.5t113.5 -73t166.5 -26q78 0 169 19.5t160 50.5l9 -156q-84 -33 -188.5 -51t-196.5 -18q-143 0 -244 41t-159 109.5t-82.5 150.5t-24.5 172q0 172 46 337 t144 302t253 218t364 81q84 0 160.5 -12.5t148.5 -32.5zM1026 1606q0 -49 -33 -81t-78 -32t-73.5 28.5t-28.5 71.5q0 49 33 81t78 32q43 0 72.5 -29.5t29.5 -70.5z" />
<glyph unicode="&#x10b;" horiz-adv-x="845" d="M834 850q-45 18 -95.5 29.5t-101.5 11.5q-92 0 -164 -48t-120 -127t-72.5 -172t-24.5 -186q0 -45 9 -83.5t33 -70.5t67 -50.5t108 -18.5q59 0 119.5 13.5t109.5 35.5l3 -147q-61 -25 -133 -39t-144 -14q-96 0 -165.5 24.5t-111.5 69.5t-60.5 105.5t-18.5 135.5 q0 145 40 275.5t115.5 230t184 154.5t239.5 55q59 0 114.5 -8t111.5 -25zM778 1350q0 -53 -35.5 -88t-85.5 -35q-49 0 -79.5 31.5t-30.5 76.5q0 51 35.5 86t85.5 35q47 0 78.5 -31.5t31.5 -74.5z" />
<glyph unicode="&#x10c;" horiz-adv-x="1175" d="M1178 1192q-141 49 -287 49q-150 0 -262.5 -64.5t-184 -174t-106.5 -241.5t-35 -269q0 -78 20.5 -141.5t64.5 -110.5t113.5 -73t166.5 -26q78 0 169 19.5t160 50.5l9 -156q-84 -33 -188.5 -51t-196.5 -18q-143 0 -244 41t-159 109.5t-82.5 150.5t-24.5 172q0 172 46 337 t144 302t253 218t364 81q84 0 160.5 -12.5t148.5 -32.5zM891 1485l-285 170l64 98l243 -123l295 123l33 -100z" />
<glyph unicode="&#x10d;" horiz-adv-x="845" d="M834 850q-45 18 -95.5 29.5t-101.5 11.5q-92 0 -164 -48t-120 -127t-72.5 -172t-24.5 -186q0 -45 9 -83.5t33 -70.5t67 -50.5t108 -18.5q59 0 119.5 13.5t109.5 35.5l3 -147q-61 -25 -133 -39t-144 -14q-96 0 -165.5 24.5t-111.5 69.5t-60.5 105.5t-18.5 135.5 q0 145 40 275.5t115.5 230t184 154.5t239.5 55q59 0 114.5 -8t111.5 -25zM635 1171l-228 267l90 82l164 -174l238 174l59 -84z" />
<glyph unicode="&#x10e;" horiz-adv-x="1363" d="M1143 868q0 84 -21.5 151.5t-72 118t-134.5 78t-204 27.5q-51 0 -121 -2t-98 -4l-205 -1081q37 -6 85 -9.5t83 -3.5q178 0 311 62.5t216 168t122 233.5t39 261zM1329 887q0 -174 -55 -335t-168 -287t-283 -198.5t-393 -72.5q-63 0 -118.5 2t-123 3t-106.5 1l262 1382 q176 2 250 4.5t143 2.5q158 0 271.5 -36t184.5 -102.5t103.5 -157.5t32.5 -206zM793 1485l-285 170l64 98l243 -123l295 123l33 -100z" />
<glyph unicode="&#x10f;" horiz-adv-x="1159" d="M831 877q-37 8 -72.5 13t-76.5 5q-111 0 -195 -51t-136 -135t-76.5 -185.5t-24.5 -204.5q0 -98 28.5 -144t77.5 -46q72 0 145.5 65.5t138.5 169t111 218t64 211.5zM903 369q-8 -45 -16 -91.5t-17.5 -92.5t-17.5 -92t-16 -93h-170q10 63 38.5 163.5t79.5 260.5l-4 2 q-35 -74 -76.5 -147.5t-102 -142t-137.5 -112.5t-165 -44q-111 0 -168 75.5t-57 233.5q0 143 38 276t116.5 238.5t200.5 167t282 61.5q37 0 70.5 -3t76.5 -7l88 473h172zM1481 1513l-207 -354l-111 37l178 360z" />
<glyph unicode="&#x110;" horiz-adv-x="1380" d="M1157 868q0 84 -21.5 151.5t-70.5 118t-134 78t-206 27.5q-49 0 -86 -1t-133 -5l-88 -457h295l-25 -137h-295l-92 -487q37 -6 85 -9.5t85 -3.5q178 0 310 62.5t215 167t122 232.5t39 263zM1343 887q0 -174 -55 -335t-166.5 -287t-282.5 -198.5t-395 -72.5q-82 0 -159.5 2 t-184.5 4l121 643h-186l26 137h185l114 602q49 0 186.5 3.5t207.5 3.5q158 0 271.5 -36t183 -102.5t102 -157.5t32.5 -206z" />
<glyph unicode="&#x111;" horiz-adv-x="1099" d="M831 877q-37 8 -72.5 13t-76.5 5q-111 0 -195 -51t-136 -135t-76.5 -185.5t-24.5 -204.5q0 -98 28.5 -144t77.5 -46q72 0 145.5 65.5t138.5 169t111 218t64 211.5zM1210 1212h-145l-162 -843q-16 -92 -33.5 -184.5t-33.5 -184.5h-170q10 63 38.5 163.5t79.5 260.5l-4 2 q-35 -74 -76.5 -147.5t-102 -142t-137.5 -112.5t-165 -44q-111 0 -168 75.5t-57 233.5q0 143 38 276t116.5 238.5t200.5 167t282 61.5q37 0 70.5 -3t76.5 -7l35 190h-234l23 119h233l31 164h172l-31 -164h146z" />
<glyph unicode="&#x112;" horiz-adv-x="1032" d="M1034 1235h-542l-86 -451h495l-27 -143h-495l-94 -491h542l-28 -150h-717l262 1382h719zM994 1534h-551l24 121h549z" />
<glyph unicode="&#x113;" horiz-adv-x="966" d="M748 784q0 57 -39 88t-105 31q-59 0 -110.5 -24.5t-92.5 -68.5t-70.5 -102.5t-47.5 -125.5q244 10 354.5 60t110.5 142zM922 807q0 -330 -662 -354q-4 -25 -8 -61t-4 -64q0 -61 11 -100.5t38 -62t68 -31.5t106 -9q72 0 144.5 15.5t140.5 41.5l6 -137q-76 -31 -164 -47 t-186 -16q-176 0 -258 77.5t-82 249.5q0 147 39 279.5t112.5 233t176 157.5t227.5 57q78 0 134 -18.5t92 -50t52.5 -72.5t16.5 -88zM889 1268h-502l25 129h502z" />
<glyph unicode="&#x114;" horiz-adv-x="1032" d="M1034 1235h-542l-86 -451h495l-27 -143h-495l-94 -491h542l-28 -150h-717l262 1382h719zM1024 1743q-10 -49 -33 -93t-59.5 -79t-88 -54.5t-114.5 -19.5t-110.5 19.5t-74 54.5t-36 79t1.5 93h110q-10 -53 20.5 -90t98.5 -37t113 33.5t57 93.5h115z" />
<glyph unicode="&#x115;" horiz-adv-x="966" d="M748 784q0 57 -39 88t-105 31q-59 0 -110.5 -24.5t-92.5 -68.5t-70.5 -102.5t-47.5 -125.5q244 10 354.5 60t110.5 142zM922 807q0 -330 -662 -354q-4 -25 -8 -61t-4 -64q0 -61 11 -100.5t38 -62t68 -31.5t106 -9q72 0 144.5 15.5t140.5 41.5l6 -137q-76 -31 -164 -47 t-186 -16q-176 0 -258 77.5t-82 249.5q0 147 39 279.5t112.5 233t176 157.5t227.5 57q78 0 134 -18.5t92 -50t52.5 -72.5t16.5 -88zM924 1468q-10 -55 -32.5 -103t-59.5 -86t-88 -59.5t-115 -21.5q-63 0 -107 22.5t-68 60.5t-29 86t5 101h113q-12 -59 14.5 -99t87.5 -40 t102.5 37t55.5 102h121z" />
<glyph unicode="&#x116;" horiz-adv-x="1032" d="M1034 1235h-542l-86 -451h495l-27 -143h-495l-94 -491h542l-28 -150h-717l262 1382h719zM844 1606q0 -49 -33 -81t-78 -32t-73.5 28.5t-28.5 71.5q0 49 33 81t78 32q43 0 72.5 -29.5t29.5 -70.5z" />
<glyph unicode="&#x117;" horiz-adv-x="966" d="M748 784q0 57 -39 88t-105 31q-59 0 -110.5 -24.5t-92.5 -68.5t-70.5 -102.5t-47.5 -125.5q244 10 354.5 60t110.5 142zM922 807q0 -330 -662 -354q-4 -25 -8 -61t-4 -64q0 -61 11 -100.5t38 -62t68 -31.5t106 -9q72 0 144.5 15.5t140.5 41.5l6 -137q-76 -31 -164 -47 t-186 -16q-176 0 -258 77.5t-82 249.5q0 147 39 279.5t112.5 233t176 157.5t227.5 57q78 0 134 -18.5t92 -50t52.5 -72.5t16.5 -88zM768 1354q0 -53 -35.5 -88t-85.5 -35q-49 0 -79.5 31.5t-30.5 76.5q0 51 35.5 86t85.5 35q47 0 78.5 -31.5t31.5 -74.5z" />
<glyph unicode="&#x118;" horiz-adv-x="1032" d="M776 -395q-55 -41 -111.5 -61.5t-115.5 -20.5q-90 0 -139.5 44t-49.5 109q0 86 60.5 170t169.5 154h-508l262 1382h719l-29 -147h-542l-86 -451h495l-27 -143h-495l-94 -491h542l-28 -142q-143 -78 -207 -156.5t-64 -140.5q0 -55 68 -55q31 0 65.5 13.5t75.5 39.5z" />
<glyph unicode="&#x119;" horiz-adv-x="966" d="M748 784q0 57 -39 88t-105 31q-59 0 -110.5 -24.5t-92.5 -68.5t-70.5 -102.5t-47.5 -125.5q242 10 353.5 60t111.5 142zM922 807q0 -68 -28 -122t-83 -95t-135 -69.5t-184.5 -46t-231.5 -21.5q-4 -25 -8 -61t-4 -64q0 -119 48 -161t175 -42q72 0 144.5 15.5t140.5 41.5 l6 -135q-80 -39 -143.5 -83t-105.5 -89t-62.5 -87t-20.5 -77q0 -55 66 -55q33 0 67.5 13.5t75.5 39.5l39 -104q-55 -41 -111.5 -61.5t-115.5 -20.5q-90 0 -140.5 44t-50.5 109q0 84 56.5 165t150.5 143h-64q-166 0 -248.5 75.5t-82.5 249.5q0 147 39 279.5t112.5 233 t176 157.5t227.5 57q78 0 134 -18.5t92 -50t52.5 -72.5t16.5 -88z" />
<glyph unicode="&#x11a;" horiz-adv-x="1032" d="M1034 1235h-542l-86 -451h495l-27 -143h-495l-94 -491h542l-28 -150h-717l262 1382h719zM707 1485l-285 170l64 98l243 -123l295 123l33 -100z" />
<glyph unicode="&#x11b;" horiz-adv-x="966" d="M748 784q0 57 -39 88t-105 31q-59 0 -110.5 -24.5t-92.5 -68.5t-70.5 -102.5t-47.5 -125.5q244 10 354.5 60t110.5 142zM922 807q0 -330 -662 -354q-4 -25 -8 -61t-4 -64q0 -61 11 -100.5t38 -62t68 -31.5t106 -9q72 0 144.5 15.5t140.5 41.5l6 -137q-76 -31 -164 -47 t-186 -16q-176 0 -258 77.5t-82 249.5q0 147 39 279.5t112.5 233t176 157.5t227.5 57q78 0 134 -18.5t92 -50t52.5 -72.5t16.5 -88zM623 1171l-228 267l90 82l164 -174l238 174l59 -84z" />
<glyph unicode="&#x11c;" horiz-adv-x="1370" d="M1290 1182q-84 31 -172 48t-170 17q-164 0 -288.5 -64.5t-204.5 -171t-119 -232.5t-39 -251q0 -90 23.5 -161.5t72.5 -122.5t126 -79t181 -28q76 0 141.5 10.5t129.5 28.5l100 524h174l-123 -643q-104 -37 -224 -56t-228 -19q-141 0 -247 35.5t-175.5 103t-104 166 t-34.5 221.5q0 156 53 313.5t160.5 289.5t271.5 211t377 79q98 0 190 -14.5t180 -43.5zM1220 1485l-243 125l-293 -125l-33 100l352 168l283 -168z" />
<glyph unicode="&#x11d;" horiz-adv-x="1099" d="M831 877q-37 8 -72.5 13t-76.5 5q-111 0 -195 -51t-136 -135t-76.5 -185.5t-24.5 -204.5q0 -98 28.5 -144t77.5 -46q72 0 145.5 65.5t138.5 169t111 218t64 211.5zM815 -96q-18 -94 -57 -171t-106.5 -134.5t-167 -89t-232.5 -31.5q-80 0 -149.5 9t-129.5 26l41 161 q61 -20 133 -33.5t142 -13.5q154 0 243 74t121 246q12 59 24.5 114.5t28 109.5t33 112.5t41.5 132.5l-4 2q-33 -72 -75 -142.5t-101 -139t-136 -112.5t-165 -44q-111 0 -168 75.5t-57 233.5q0 143 38 276t116.5 238.5t200.5 167t282 61.5q84 0 160.5 -7t154.5 -21zM882 1171 l-164 175l-237 -175l-60 84l324 265l227 -267z" />
<glyph unicode="&#x11e;" horiz-adv-x="1370" d="M1290 1182q-84 31 -172 48t-170 17q-164 0 -288.5 -64.5t-204.5 -171t-119 -232.5t-39 -251q0 -90 23.5 -161.5t72.5 -122.5t126 -79t181 -28q76 0 141.5 10.5t129.5 28.5l100 524h174l-123 -643q-104 -37 -224 -56t-228 -19q-141 0 -247 35.5t-175.5 103t-104 166 t-34.5 221.5q0 156 53 313.5t160.5 289.5t271.5 211t377 79q98 0 190 -14.5t180 -43.5zM1268 1743q-10 -49 -33 -93t-59.5 -79t-88 -54.5t-114.5 -19.5t-110.5 19.5t-74 54.5t-36 79t1.5 93h110q-10 -53 20.5 -90t98.5 -37t113 33.5t57 93.5h115z" />
<glyph unicode="&#x11f;" horiz-adv-x="1099" d="M831 877q-37 8 -72.5 13t-76.5 5q-111 0 -195 -51t-136 -135t-76.5 -185.5t-24.5 -204.5q0 -98 28.5 -144t77.5 -46q72 0 145.5 65.5t138.5 169t111 218t64 211.5zM815 -96q-18 -94 -57 -171t-106.5 -134.5t-167 -89t-232.5 -31.5q-80 0 -149.5 9t-129.5 26l41 161 q61 -20 133 -33.5t142 -13.5q154 0 243 74t121 246q12 59 24.5 114.5t28 109.5t33 112.5t41.5 132.5l-4 2q-33 -72 -75 -142.5t-101 -139t-136 -112.5t-165 -44q-111 0 -168 75.5t-57 233.5q0 143 38 276t116.5 238.5t200.5 167t282 61.5q84 0 160.5 -7t154.5 -21zM975 1468 q-10 -55 -32.5 -103t-59.5 -86t-88 -59.5t-115 -21.5q-63 0 -107 22.5t-68 60.5t-29 86t5 101h113q-12 -59 14.5 -99t87.5 -40t102.5 37t55.5 102h121z" />
<glyph unicode="&#x120;" horiz-adv-x="1370" d="M1290 1182q-84 31 -172 48t-170 17q-164 0 -288.5 -64.5t-204.5 -171t-119 -232.5t-39 -251q0 -90 23.5 -161.5t72.5 -122.5t126 -79t181 -28q76 0 141.5 10.5t129.5 28.5l100 524h174l-123 -643q-104 -37 -224 -56t-228 -19q-141 0 -247 35.5t-175.5 103t-104 166 t-34.5 221.5q0 156 53 313.5t160.5 289.5t271.5 211t377 79q98 0 190 -14.5t180 -43.5zM1079 1610q0 -49 -33 -81t-78 -32t-73.5 28.5t-28.5 71.5q0 49 33 81t78 32q43 0 72.5 -29.5t29.5 -70.5z" />
<glyph unicode="&#x121;" horiz-adv-x="1099" d="M831 877q-37 8 -72.5 13t-76.5 5q-111 0 -195 -51t-136 -135t-76.5 -185.5t-24.5 -204.5q0 -98 28.5 -144t77.5 -46q72 0 145.5 65.5t138.5 169t111 218t64 211.5zM815 -96q-18 -94 -57 -171t-106.5 -134.5t-167 -89t-232.5 -31.5q-80 0 -149.5 9t-129.5 26l41 161 q61 -20 133 -33.5t142 -13.5q154 0 243 74t121 246q12 59 24.5 114.5t28 109.5t33 112.5t41.5 132.5l-4 2q-33 -72 -75 -142.5t-101 -139t-136 -112.5t-165 -44q-111 0 -168 75.5t-57 233.5q0 143 38 276t116.5 238.5t200.5 167t282 61.5q84 0 160.5 -7t154.5 -21zM854 1350 q0 -53 -35.5 -88t-85.5 -35q-49 0 -79.5 31.5t-30.5 76.5q0 51 35.5 86t85.5 35q47 0 78.5 -31.5t31.5 -74.5z" />
<glyph unicode="&#x122;" horiz-adv-x="1370" d="M1290 1182q-84 31 -172 48t-170 17q-164 0 -288.5 -64.5t-204.5 -171t-119 -232.5t-39 -251q0 -90 23.5 -161.5t72.5 -122.5t126 -79t181 -28q76 0 141.5 10.5t129.5 28.5l100 524h174l-123 -643q-104 -37 -224 -56t-228 -19q-141 0 -247 35.5t-175.5 103t-104 166 t-34.5 221.5q0 156 53 313.5t160.5 289.5t271.5 211t377 79q98 0 190 -14.5t180 -43.5zM613 -100q49 0 76.5 -40t16.5 -101.5t-73.5 -128t-181.5 -119.5l-41 69q80 51 107.5 101.5t7.5 93.5q-16 47 9.5 86t78.5 39z" />
<glyph unicode="&#x123;" horiz-adv-x="1099" d="M831 877q-37 8 -72.5 13t-76.5 5q-111 0 -195 -51t-136 -135t-76.5 -185.5t-24.5 -204.5q0 -98 28.5 -144t77.5 -46q72 0 145.5 65.5t138.5 169t111 218t64 211.5zM815 -96q-18 -94 -57 -171t-106.5 -134.5t-167 -89t-232.5 -31.5q-80 0 -149.5 9t-129.5 26l41 161 q61 -20 133 -33.5t142 -13.5q154 0 243 74t121 246q12 59 24.5 114.5t28 109.5t33 112.5t41.5 132.5l-4 2q-33 -72 -75 -142.5t-101 -139t-136 -112.5t-165 -44q-111 0 -168 75.5t-57 233.5q0 143 38 276t116.5 238.5t200.5 167t282 61.5q84 0 160.5 -7t154.5 -21zM884 1479 q-80 -49 -107.5 -99.5t-6.5 -95.5q16 -47 -9.5 -86t-76.5 -39q-47 0 -76 40t-17.5 101.5t74 128t181.5 119.5z" />
<glyph unicode="&#x124;" horiz-adv-x="1404" d="M1137 0h-174l122 641h-706l-123 -641h-174l262 1382h174l-110 -589h704l113 589h174zM1163 1485l-243 125l-293 -125l-33 100l352 168l283 -168z" />
<glyph unicode="&#x125;" horiz-adv-x="1155" d="M889 0h-170l123 653q23 123 1 179.5t-93 56.5q-70 0 -142.5 -64.5t-137 -168t-111 -219t-64.5 -212.5l-41 -225h-172l283 1495h172l-93 -483q-6 -33 -14 -68t-20.5 -81t-32 -109.5t-47.5 -147.5h4q39 86 87 163t108.5 138.5t131 96t148.5 34.5q137 0 189.5 -92t21.5 -256 zM1042 1551l-243 125l-293 -125l-33 100l352 168l283 -168z" />
<glyph unicode="&#x126;" horiz-adv-x="1443" d="M469 1014l-47 -242h706l48 242h-707zM1532 1157l-29 -143h-153l-193 -1014h-174l117 629h-707l-117 -629h-174l193 1014h-154l25 143h156l43 225h174l-41 -225h704l43 225h174l-45 -225h158z" />
<glyph unicode="&#x127;" horiz-adv-x="1161" d="M786 1329l-26 -135h-277l-39 -197q-6 -33 -13 -64.5t-19.5 -76.5t-31 -107.5t-44.5 -142.5h4q39 86 87 163t108.5 137.5t130 95t147.5 34.5q139 0 191.5 -91t21.5 -257l-131 -688h-172l123 653q23 121 1 177.5t-91 56.5q-70 0 -142.5 -64.5t-137 -167t-111 -218 t-64.5 -212.5l-43 -225h-170l225 1194h-178l25 135h178l33 166h170l-31 -166h276z" />
<glyph unicode="&#x128;" horiz-adv-x="524" d="M256 0h-174l264 1382h174zM832 1655q-90 -147 -226 -148q-45 0 -78.5 14.5t-73.5 43t-60.5 40t-49.5 11.5q-70 0 -133 -92l-86 63q43 72 102.5 111t126.5 39q45 0 79 -14.5t74 -43t60.5 -40t48.5 -11.5q70 0 132 92z" />
<glyph unicode="&#x129;" horiz-adv-x="518" d="M252 0h-170l192 1018h170zM715 1376q-37 -74 -85 -111.5t-113 -37.5q-31 0 -58.5 13t-62.5 39t-50.5 35t-31.5 9q-29 0 -55.5 -24.5t-42.5 -61.5l-84 63q76 154 198 154q33 0 60.5 -13.5t64.5 -41t49.5 -35.5t28.5 -8q29 0 53.5 23.5t46.5 62.5z" />
<glyph unicode="&#x12a;" horiz-adv-x="524" d="M256 0h-174l264 1382h174zM740 1534h-551l24 121h549z" />
<glyph unicode="&#x12b;" horiz-adv-x="518" d="M252 0h-170l192 1018h170zM176 1268l27 129h469l-25 -129h-471z" />
<glyph unicode="&#x12c;" horiz-adv-x="524" d="M256 0h-174l264 1382h174zM760 1743q-10 -49 -33 -93t-59.5 -79t-88 -54.5t-114.5 -19.5t-110.5 19.5t-74 54.5t-36 79t1.5 93h110q-10 -53 20.5 -90t98.5 -37t113 33.5t57 93.5h115z" />
<glyph unicode="&#x12d;" horiz-adv-x="518" d="M252 0h-170l192 1018h170zM680 1468q-23 -129 -94.5 -199.5t-181.5 -70.5q-111 0 -161 71.5t-26 198.5h115q-12 -57 11.5 -98t76.5 -41t91 38t50 101h119z" />
<glyph unicode="&#x12e;" horiz-adv-x="524" d="M256 0q-115 -84 -160 -155.5t-45 -133.5q0 -55 68 -55q31 0 65.5 13.5t75.5 39.5l39 -104q-55 -41 -111.5 -61.5t-115.5 -20.5q-90 0 -139.5 44t-49.5 109q0 43 12.5 86t38 85t62.5 82t88 79l260 1374h174z" />
<glyph unicode="&#x12f;" horiz-adv-x="518" d="M49 -289q0 -55 68 -55q33 0 67.5 13.5t73.5 39.5l39 -104q-55 -41 -111.5 -61.5t-115.5 -20.5q-90 0 -139.5 44t-49.5 109q0 76 47 153t156 179l190 1010h170l-192 -1018q-113 -100 -158 -171t-45 -118zM539 1350q0 -53 -36 -88t-85 -35t-80 31.5t-31 76.5q0 51 36 86 t85 35q47 0 79 -31.5t32 -74.5z" />
<glyph unicode="&#x130;" horiz-adv-x="524" d="M256 0h-174l264 1382h174zM584 1606q0 -49 -33 -81t-78 -32t-73.5 28.5t-28.5 71.5q0 49 33 81t78 32q43 0 72.5 -29.5t29.5 -70.5z" />
<glyph unicode="&#x131;" horiz-adv-x="518" d="M252 0h-170l192 1018h170z" />
<glyph unicode="&#x132;" horiz-adv-x="1216" d="M256 0h-174l264 1382h174zM1018 354q-18 -92 -51 -159.5t-84.5 -114.5t-121 -70.5t-161.5 -23.5q-39 0 -87 5t-79 11l27 158q35 -10 75.5 -17.5t73.5 -7.5q94 0 154.5 55.5t85.5 186.5l190 1005h174z" />
<glyph unicode="&#x133;" horiz-adv-x="1052" d="M252 0h-170l192 1018h170zM539 1350q0 -53 -36 -88t-85 -35t-80 31.5t-31 76.5q0 51 36 86t85 35q47 0 79 -31.5t32 -74.5zM758 -137q-18 -98 -49 -169t-78 -119t-111.5 -72.5t-151.5 -24.5q-88 0 -151 14l35 156q29 -10 61.5 -16.5t69.5 -6.5q47 0 79.5 12.5t56.5 42 t41 78.5t32 125l215 1135h170zM1069 1350q0 -53 -35 -88t-84 -35t-79.5 31.5t-30.5 76.5q0 51 35.5 86t84.5 35q47 0 78 -31.5t31 -74.5z" />
<glyph unicode="&#x134;" horiz-adv-x="692" d="M494 354q-18 -92 -51 -159.5t-84.5 -114.5t-121 -70.5t-161.5 -23.5q-39 0 -87 5t-79 11l27 158q35 -10 75.5 -17.5t73.5 -7.5q94 0 154.5 55.5t85.5 186.5l190 1005h174zM887 1485l-243 125l-293 -125l-33 100l352 168l283 -168z" />
<glyph unicode="&#x135;" horiz-adv-x="532" d="M240 -137q-18 -98 -49 -169t-78 -119t-111.5 -72.5t-151.5 -24.5q-88 0 -151 14l35 156q29 -10 61.5 -16.5t69.5 -6.5q47 0 79.5 12.5t56.5 42t41 78.5t32 125l215 1135h170zM579 1171l-137 175l-213 -175l-57 84l299 265l198 -269z" />
<glyph unicode="&#x136;" horiz-adv-x="1169" d="M575 707l461 -707h-223l-424 690l-133 -690h-174l262 1382h174l-123 -651l670 651h225zM467 -100q49 0 76.5 -40t16.5 -101.5t-73.5 -128t-181.5 -119.5l-41 69q80 51 107.5 101.5t7.5 93.5q-16 47 9.5 86t78.5 39z" />
<glyph unicode="&#x137;" horiz-adv-x="978" d="M532 563l316 -563h-209l-283 545l-104 -545h-172l285 1495h170l-173 -911l486 483l127 -100zM234 -100q49 0 76.5 -40t16.5 -101.5t-73.5 -128t-181.5 -119.5l-41 69q80 51 107.5 101.5t7.5 93.5q-16 47 9.5 86t78.5 39z" />
<glyph unicode="&#x138;" horiz-adv-x="978" d="M530 551l310 -551h-209l-279 532l-100 -532h-172l194 1018h172l-86 -445l494 494l127 -100z" />
<glyph unicode="&#x139;" horiz-adv-x="856" d="M748 0h-666l262 1382h174l-231 -1232h487zM497 1487l-16 104l385 148l27 -140z" />
<glyph unicode="&#x13a;" horiz-adv-x="518" d="M252 0h-170l283 1495h170zM409 1610l-16 104l385 148l27 -140z" />
<glyph unicode="&#x13b;" horiz-adv-x="856" d="M748 0h-666l262 1382h174l-231 -1232h487zM385 -100q49 0 76.5 -40t16.5 -101.5t-73.5 -128t-181.5 -119.5l-41 69q80 51 107.5 101.5t7.5 93.5q-16 47 9.5 86t78.5 39z" />
<glyph unicode="&#x13c;" horiz-adv-x="518" d="M252 0h-170l283 1495h170zM136 -100q49 0 76.5 -40t16.5 -101.5t-73.5 -128t-181.5 -119.5l-41 69q80 51 107.5 101.5t7.5 93.5q-16 47 9.5 86t78.5 39z" />
<glyph unicode="&#x13d;" horiz-adv-x="860" d="M748 0h-666l262 1382h174l-231 -1232h487zM1029 1544l-289 -297l-90 66l264 311z" />
<glyph unicode="&#x13e;" horiz-adv-x="577" d="M252 0h-170l283 1495h170zM897 1513l-207 -354l-111 37l178 360z" />
<glyph unicode="&#x13f;" horiz-adv-x="1107" d="M748 0h-666l262 1382h174l-231 -1232h487zM1012 714q0 -53 -38 -92t-91 -39q-49 0 -84 37t-35 86q0 55 38 93t91 38q51 0 85 -36t34 -87z" />
<glyph unicode="&#x140;" horiz-adv-x="765" d="M252 0h-170l283 1495h170zM780 612q0 -53 -38 -92t-91 -39q-49 0 -84 37t-35 86q0 55 38 93t91 38q51 0 85 -36t34 -87z" />
<glyph unicode="&#x141;" horiz-adv-x="870" d="M764 0h-666l138 723l-170 -74l-17 135l217 95l94 503h175l-78 -421l239 102l17 -137l-287 -123l-125 -653h492z" />
<glyph unicode="&#x142;" horiz-adv-x="581" d="M449 848l-160 -848h-170l141 752l-141 -74l-19 125l189 100l112 592h170l-94 -498l156 82l20 -125z" />
<glyph unicode="&#x143;" horiz-adv-x="1384" d="M926 0l-371 907q-57 139 -92 275q-8 -55 -24.5 -152.5t-35 -208t-39 -224.5t-38.5 -204l-74 -393h-170l262 1382h166h59l363 -886q23 -59 42 -118t36 -120q8 66 23.5 160t33.5 198.5t37.5 212t38.5 199.5l67 354h168l-262 -1382h-162h-28zM839 1487l-16 104l385 148 l27 -140z" />
<glyph unicode="&#x144;" horiz-adv-x="1155" d="M887 0h-170l125 653q23 123 1 179.5t-93 56.5q-70 0 -144 -64.5t-138.5 -168t-110.5 -219t-64 -212.5l-41 -225h-172l102 530q8 43 15.5 83t15.5 81t15.5 82t14.5 81t15 81t14 80h172q-14 -68 -40.5 -165t-73.5 -247h4q39 86 87 163t107.5 138.5t130 96t148.5 34.5 q139 0 191.5 -91t21.5 -255zM717 1167l-70 88l301 281l93 -111z" />
<glyph unicode="&#x145;" horiz-adv-x="1384" d="M926 0l-371 907q-57 139 -92 275q-8 -55 -24.5 -152.5t-35 -208t-39 -224.5t-38.5 -204l-74 -393h-170l262 1382h166h59l363 -886q23 -59 42 -118t36 -120q8 66 23.5 160t33.5 198.5t37.5 212t38.5 199.5l67 354h168l-262 -1382h-162h-28zM570 -100q49 0 76.5 -40 t16.5 -101.5t-73.5 -128t-181.5 -119.5l-41 69q80 51 107.5 101.5t7.5 93.5q-16 47 9.5 86t78.5 39z" />
<glyph unicode="&#x146;" horiz-adv-x="1155" d="M887 0h-170l125 653q23 123 1 179.5t-93 56.5q-70 0 -144 -64.5t-138.5 -168t-110.5 -219t-64 -212.5l-41 -225h-172l102 530q8 43 15.5 83t15.5 81t15.5 82t14.5 81t15 81t14 80h172q-14 -68 -40.5 -165t-73.5 -247h4q39 86 87 163t107.5 138.5t130 96t148.5 34.5 q139 0 191.5 -91t21.5 -255zM457 -100q49 0 76.5 -40t16.5 -101.5t-73.5 -128t-181.5 -119.5l-41 69q80 51 107.5 101.5t7.5 93.5q-16 47 9.5 86t78.5 39z" />
<glyph unicode="&#x147;" horiz-adv-x="1384" d="M926 0l-371 907q-57 139 -92 275q-8 -55 -24.5 -152.5t-35 -208t-39 -224.5t-38.5 -204l-74 -393h-170l262 1382h166h59l363 -886q23 -59 42 -118t36 -120q8 66 23.5 160t33.5 198.5t37.5 212t38.5 199.5l67 354h168l-262 -1382h-162h-28zM895 1485l-285 170l64 98 l243 -123l295 123l33 -100z" />
<glyph unicode="&#x148;" horiz-adv-x="1155" d="M887 0h-170l125 653q23 123 1 179.5t-93 56.5q-70 0 -144 -64.5t-138.5 -168t-110.5 -219t-64 -212.5l-41 -225h-172l102 530q8 43 15.5 83t15.5 81t15.5 82t14.5 81t15 81t14 80h172q-14 -68 -40.5 -165t-73.5 -247h4q39 86 87 163t107.5 138.5t130 96t148.5 34.5 q139 0 191.5 -91t21.5 -255zM711 1171l-228 267l90 82l164 -174l238 174l59 -84z" />
<glyph unicode="&#x149;" horiz-adv-x="1320" d="M154 1085q84 78 116.5 132.5t32.5 95.5q0 25 -12 42t-12 56q0 47 28.5 78t77.5 31q47 0 72.5 -33t25.5 -80q0 -78 -66.5 -177.5t-203.5 -209.5zM1053 0h-170l125 653q23 123 1 179.5t-94 56.5q-70 0 -143.5 -64.5t-138 -168t-110.5 -219t-64 -212.5l-41 -225h-172 l102 530q8 43 15.5 83t15.5 81t15 82t14.5 81t15.5 81t14 80h172q-14 -68 -40.5 -165t-73.5 -247h4q39 86 87 163t107.5 138.5t130 96t148.5 34.5q139 0 191.5 -91t21.5 -255z" />
<glyph unicode="&#x14a;" horiz-adv-x="1384" d="M1118 12q-27 -139 -69.5 -233t-102 -154.5t-136.5 -94.5t-179 -54l-13 137q68 14 118 36.5t91 63.5t71 106.5t48 162.5l-389 915q-57 131 -98 272q-8 -59 -23.5 -153t-34 -205t-38 -222.5t-37.5 -205.5l-74 -383h-170l262 1382h207l379 -882q23 -51 42 -105.5t42 -124.5 q8 70 22.5 162t32.5 195.5t36.5 207t37.5 193.5l67 354h168z" />
<glyph unicode="&#x14b;" horiz-adv-x="1155" d="M971 375q-31 -162 -60.5 -273.5t-57.5 -183.5t-55.5 -115t-60.5 -75q-49 -51 -117.5 -84t-175.5 -60l-26 135q135 37 190 93q27 27 48.5 60.5t43 92t46 155.5t53.5 245q25 131 35 211.5t10 136.5q0 98 -30 138t-89 40q-66 0 -133.5 -59.5t-126.5 -156.5t-102.5 -207 t-61.5 -206l-49 -262h-172l102 530q37 186 55.5 284.5t34.5 203.5h172q-8 -39 -16 -74t-20.5 -77t-29 -96t-40.5 -128h2q88 199 200.5 296t235.5 97q121 0 180.5 -72.5t59.5 -234.5q0 -61 -10 -143t-35 -211z" />
<glyph unicode="&#x14c;" horiz-adv-x="1419" d="M1204 870q0 174 -87 274.5t-261 100.5q-121 0 -225.5 -57.5t-180 -159.5t-116.5 -235.5t-41 -280.5q0 -174 87 -274.5t261 -100.5q121 0 224.5 57.5t180 160t117.5 235.5t41 280zM1391 899q0 -182 -55.5 -348t-160 -295t-250 -201.5t-317.5 -72.5q-248 0 -376 136 t-128 365q0 182 56.5 348t161 295t250 202t317.5 73q248 0 375 -136.5t127 -365.5zM1186 1534h-551l24 121h549z" />
<glyph unicode="&#x14d;" horiz-adv-x="1091" d="M850 649q0 106 -55.5 174t-165.5 68q-94 0 -166 -47t-119 -124t-70.5 -169t-23.5 -182q0 -106 55 -173t166 -67q94 0 167 46t120 123t69.5 169t22.5 182zM1030 674q0 -133 -39 -257t-114.5 -222.5t-186 -155.5t-248.5 -57q-184 0 -278 98t-94 264q0 133 38.5 257 t114.5 222.5t186.5 155.5t247.5 57q92 0 163 -26.5t118 -74.5t69.5 -114.5t22.5 -146.5zM954 1268h-502l25 129h502z" />
<glyph unicode="&#x14e;" horiz-adv-x="1419" d="M1204 870q0 174 -87 274.5t-261 100.5q-121 0 -225.5 -57.5t-180 -159.5t-116.5 -235.5t-41 -280.5q0 -174 87 -274.5t261 -100.5q121 0 224.5 57.5t180 160t117.5 235.5t41 280zM1391 899q0 -182 -55.5 -348t-160 -295t-250 -201.5t-317.5 -72.5q-248 0 -376 136 t-128 365q0 182 56.5 348t161 295t250 202t317.5 73q248 0 375 -136.5t127 -365.5zM1207 1743q-10 -49 -33 -93t-59.5 -79t-88 -54.5t-114.5 -19.5t-110.5 19.5t-74 54.5t-36 79t1.5 93h110q-10 -53 20.5 -90t98.5 -37t113 33.5t57 93.5h115z" />
<glyph unicode="&#x14f;" horiz-adv-x="1091" d="M850 649q0 106 -55.5 174t-165.5 68q-94 0 -166 -47t-119 -124t-70.5 -169t-23.5 -182q0 -106 55 -173t166 -67q94 0 167 46t120 123t69.5 169t22.5 182zM1030 674q0 -133 -39 -257t-114.5 -222.5t-186 -155.5t-248.5 -57q-184 0 -278 98t-94 264q0 133 38.5 257 t114.5 222.5t186.5 155.5t247.5 57q92 0 163 -26.5t118 -74.5t69.5 -114.5t22.5 -146.5zM979 1468q-10 -55 -32.5 -103t-59.5 -86t-88 -59.5t-115 -21.5q-63 0 -107 22.5t-68 60.5t-29 86t5 101h113q-12 -59 14.5 -99t87.5 -40t102.5 37t55.5 102h121z" />
<glyph unicode="&#x150;" horiz-adv-x="1419" d="M1204 870q0 174 -87 274.5t-261 100.5q-121 0 -225.5 -57.5t-180 -159.5t-116.5 -235.5t-41 -280.5q0 -174 87 -274.5t261 -100.5q121 0 224.5 57.5t180 160t117.5 235.5t41 280zM1391 899q0 -182 -55.5 -348t-160 -295t-250 -201.5t-317.5 -72.5q-248 0 -376 136 t-128 365q0 182 56.5 348t161 295t250 202t317.5 73q248 0 375 -136.5t127 -365.5zM744 1485l-72 82l268 258l90 -103zM1092 1485l-68 84l301 250l84 -105z" />
<glyph unicode="&#x151;" horiz-adv-x="1091" d="M850 649q0 106 -55.5 174t-165.5 68q-94 0 -166 -47t-119 -124t-70.5 -169t-23.5 -182q0 -106 55 -173t166 -67q94 0 167 46t120 123t69.5 169t22.5 182zM1030 674q0 -133 -39 -257t-114.5 -222.5t-186 -155.5t-248.5 -57q-184 0 -278 98t-94 264q0 133 38.5 257 t114.5 222.5t186.5 155.5t247.5 57q92 0 163 -26.5t118 -74.5t69.5 -114.5t22.5 -146.5zM544 1171l-82 76l277 285l98 -96zM888 1171l-79 76l294 273l95 -101z" />
<glyph unicode="&#x152;" horiz-adv-x="1751" d="M1057 1219q-39 12 -92.5 19t-108.5 7q-121 0 -225.5 -57.5t-180 -159.5t-116.5 -235.5t-41 -280.5q0 -174 87 -274.5t261 -100.5q106 0 215 25zM1751 1235h-518l-84 -451h491l-26 -143h-494l-92 -491h518l-28 -150h-674q-57 -8 -121 -13t-115 -5q-248 0 -376 136 t-128 365q0 182 56.5 348t161 295t250 202t317.5 73q59 0 115.5 -5t107.5 -14h668z" />
<glyph unicode="&#x153;" horiz-adv-x="1710" d="M850 649q0 106 -55.5 174t-165.5 68q-94 0 -166 -47t-119 -124t-70.5 -169t-23.5 -182q0 -106 55 -173t166 -67q94 0 167 46t120 123t69.5 169t22.5 182zM1493 784q0 57 -39 88t-104 31q-61 0 -112.5 -24.5t-92.5 -68.5t-69.5 -102.5t-47.5 -125.5q242 10 353.5 60 t111.5 142zM1667 807q0 -162 -167 -252t-496 -102q-4 -23 -7.5 -59t-3.5 -66q0 -61 11.5 -100.5t38 -62t67.5 -31.5t107 -9q70 0 143.5 15.5t138.5 41.5l8 -137q-76 -31 -164 -47t-186 -16q-137 0 -213 47t-98 153q-72 -98 -174.5 -149t-229.5 -51q-184 0 -278 98t-94 264 q0 133 38.5 257t114.5 222.5t186.5 155.5t247.5 57q129 0 213 -54t117 -155q63 96 163.5 152.5t221.5 56.5q76 0 133.5 -18.5t92 -50t52 -72.5t17.5 -88z" />
<glyph unicode="&#x154;" horiz-adv-x="1136" d="M913 1057q0 88 -64.5 138t-199.5 50q-47 0 -92 -2t-65 -4l-95 -500q18 0 58.5 -1t89.5 -1q98 0 169.5 29t115.5 75t63.5 102.5t19.5 113.5zM1100 1090q0 -80 -26.5 -157t-81 -142.5t-138.5 -109.5t-195 -60q10 -16 34 -56.5t48 -87.5l250 -477h-211l-307 602h-102 l-115 -602h-174l262 1380q18 0 97 2t123 4.5t116 2.5q201 0 310.5 -78t109.5 -221zM639 1487l-16 104l385 148l27 -140z" />
<glyph unicode="&#x155;" horiz-adv-x="714" d="M741 866q-68 18 -139.5 -36t-133.5 -154.5t-107.5 -219t-65.5 -225.5l-43 -231h-172l102 530q27 139 48.5 257t41.5 231h170q-14 -74 -39.5 -165t-68.5 -218l4 -2q49 104 94 180t97.5 131t114 80t132.5 12zM547 1167l-70 88l301 281l93 -111z" />
<glyph unicode="&#x156;" horiz-adv-x="1136" d="M913 1057q0 88 -64.5 138t-199.5 50q-47 0 -92 -2t-65 -4l-95 -500q18 0 58.5 -1t89.5 -1q98 0 169.5 29t115.5 75t63.5 102.5t19.5 113.5zM1100 1090q0 -80 -26.5 -157t-81 -142.5t-138.5 -109.5t-195 -60q10 -16 34 -56.5t48 -87.5l250 -477h-211l-307 602h-102 l-115 -602h-174l262 1380q18 0 97 2t123 4.5t116 2.5q201 0 310.5 -78t109.5 -221zM443 -100q49 0 76.5 -40t16.5 -101.5t-73.5 -128t-181.5 -119.5l-41 69q80 51 107.5 101.5t7.5 93.5q-16 47 9.5 86t78.5 39z" />
<glyph unicode="&#x157;" horiz-adv-x="714" d="M741 866q-68 18 -139.5 -36t-133.5 -154.5t-107.5 -219t-65.5 -225.5l-43 -231h-172l102 530q27 139 48.5 257t41.5 231h170q-14 -74 -39.5 -165t-68.5 -218l4 -2q49 104 94 180t97.5 131t114 80t132.5 12zM152 -100q49 0 76.5 -40t16.5 -101.5t-73.5 -128t-181.5 -119.5 l-41 69q80 51 107.5 101.5t7.5 93.5q-16 47 9.5 86t78.5 39z" />
<glyph unicode="&#x158;" horiz-adv-x="1136" d="M913 1057q0 88 -64.5 138t-199.5 50q-47 0 -92 -2t-65 -4l-95 -500q18 0 58.5 -1t89.5 -1q98 0 169.5 29t115.5 75t63.5 102.5t19.5 113.5zM1100 1090q0 -80 -26.5 -157t-81 -142.5t-138.5 -109.5t-195 -60q10 -16 34 -56.5t48 -87.5l250 -477h-211l-307 602h-102 l-115 -602h-174l262 1380q18 0 97 2t123 4.5t116 2.5q201 0 310.5 -78t109.5 -221zM711 1485l-285 170l64 98l243 -123l295 123l33 -100z" />
<glyph unicode="&#x159;" horiz-adv-x="714" d="M741 866q-68 18 -139.5 -36t-133.5 -154.5t-107.5 -219t-65.5 -225.5l-43 -231h-172l102 530q27 139 48.5 257t41.5 231h170q-14 -74 -39.5 -165t-68.5 -218l4 -2q49 104 94 180t97.5 131t114 80t132.5 12zM553 1171l-228 267l90 82l164 -174l238 174l59 -84z" />
<glyph unicode="&#x15a;" horiz-adv-x="1011" d="M938 1217q-53 16 -117.5 26t-124.5 10q-76 0 -134 -19.5t-97 -51t-57.5 -72.5t-18.5 -86q0 -59 34 -103t71.5 -70t129 -79t144.5 -97t87 -107.5t34 -151.5q0 -86 -35 -164t-104.5 -139.5t-173 -96t-232.5 -34.5q-86 0 -169 10t-148 28l49 170q66 -27 140.5 -41t158.5 -14 q156 0 243 74t87 184q0 61 -34 108.5t-76 76t-129 80t-138.5 93.5t-85 104.5t-33.5 145.5q0 80 33.5 152t100.5 128t164 88t218 32q61 0 130 -7.5t128 -19.5zM641 1487l-16 104l385 148l27 -140z" />
<glyph unicode="&#x15b;" horiz-adv-x="802" d="M705 877q-82 25 -166 24q-98 0 -152.5 -41t-54.5 -108q0 -39 22.5 -72t48 -53.5t87 -64.5t96.5 -77.5t57.5 -80t22.5 -103.5q0 -63 -27 -120.5t-81 -102.5t-136 -70.5t-189 -25.5q-119 0 -215 22l37 154q98 -35 205 -35q106 0 165.5 42t59.5 122q0 39 -22.5 71.5t-47 53 t-86 64.5t-96 78t-57 80t-22.5 103q0 59 26.5 113.5t77.5 96.5t126 65.5t169 23.5q43 0 89 -4t93 -12zM520 1165l-88 72l262 305l109 -86z" />
<glyph unicode="&#x15c;" horiz-adv-x="1011" d="M938 1217q-53 16 -117.5 26t-124.5 10q-76 0 -134 -19.5t-97 -51t-57.5 -72.5t-18.5 -86q0 -59 34 -103t71.5 -70t129 -79t144.5 -97t87 -107.5t34 -151.5q0 -86 -35 -164t-104.5 -139.5t-173 -96t-232.5 -34.5q-86 0 -169 10t-148 28l49 170q66 -27 140.5 -41t158.5 -14 q156 0 243 74t87 184q0 61 -34 108.5t-76 76t-129 80t-138.5 93.5t-85 104.5t-33.5 145.5q0 80 33.5 152t100.5 128t164 88t218 32q61 0 130 -7.5t128 -19.5zM981 1485l-243 125l-293 -125l-33 100l352 168l283 -168z" />
<glyph unicode="&#x15d;" horiz-adv-x="802" d="M705 877q-82 25 -166 24q-98 0 -152.5 -41t-54.5 -108q0 -39 22.5 -72t48 -53.5t87 -64.5t96.5 -77.5t57.5 -80t22.5 -103.5q0 -63 -27 -120.5t-81 -102.5t-136 -70.5t-189 -25.5q-119 0 -215 22l37 154q98 -35 205 -35q106 0 165.5 42t59.5 122q0 39 -22.5 71.5t-47 53 t-86 64.5t-96 78t-57 80t-22.5 103q0 59 26.5 113.5t77.5 96.5t126 65.5t169 23.5q43 0 89 -4t93 -12zM721 1171l-164 175l-237 -175l-60 84l324 265l227 -267z" />
<glyph unicode="&#x15e;" horiz-adv-x="1011" d="M938 1217q-53 16 -117.5 26t-124.5 10q-76 0 -134 -19.5t-97 -51t-57.5 -72.5t-18.5 -86q0 -59 34 -103t71.5 -70t129 -79t144.5 -97t87 -107.5t34 -151.5q0 -86 -35 -164t-104.5 -139.5t-173 -96t-232.5 -34.5q-86 0 -169 10t-148 28l49 170q66 -27 140.5 -41t158.5 -14 q156 0 243 74t87 184q0 61 -34 108.5t-76 76t-129 80t-138.5 93.5t-85 104.5t-33.5 145.5q0 80 33.5 152t100.5 128t164 88t218 32q61 0 130 -7.5t128 -19.5zM422 -84q57 -98 31.5 -194.5t-124.5 -202.5h-153q49 53 78.5 96t42 82t4.5 79t-35 85z" />
<glyph unicode="&#x15f;" horiz-adv-x="802" d="M705 877q-82 25 -166 24q-98 0 -152.5 -41t-54.5 -108q0 -39 22.5 -72t48 -53.5t87 -64.5t96.5 -77.5t57.5 -80t22.5 -103.5q0 -63 -27 -120.5t-81 -102.5t-136 -70.5t-189 -25.5q-119 0 -215 22l37 154q98 -35 205 -35q106 0 165.5 42t59.5 122q0 39 -22.5 71.5t-47 53 t-86 64.5t-96 78t-57 80t-22.5 103q0 59 26.5 113.5t77.5 96.5t126 65.5t169 23.5q43 0 89 -4t93 -12zM318 -84q57 -98 31.5 -194.5t-124.5 -202.5h-153q49 53 78.5 96t42 82t4.5 79t-35 85z" />
<glyph unicode="&#x160;" horiz-adv-x="1011" d="M938 1217q-53 16 -117.5 26t-124.5 10q-76 0 -134 -19.5t-97 -51t-57.5 -72.5t-18.5 -86q0 -59 34 -103t71.5 -70t129 -79t144.5 -97t87 -107.5t34 -151.5q0 -86 -35 -164t-104.5 -139.5t-173 -96t-232.5 -34.5q-86 0 -169 10t-148 28l49 170q66 -27 140.5 -41t158.5 -14 q156 0 243 74t87 184q0 61 -34 108.5t-76 76t-129 80t-138.5 93.5t-85 104.5t-33.5 145.5q0 80 33.5 152t100.5 128t164 88t218 32q61 0 130 -7.5t128 -19.5zM698 1485l-285 170l64 98l243 -123l295 123l33 -100z" />
<glyph unicode="&#x161;" horiz-adv-x="802" d="M705 877q-82 25 -166 24q-98 0 -152.5 -41t-54.5 -108q0 -39 22.5 -72t48 -53.5t87 -64.5t96.5 -77.5t57.5 -80t22.5 -103.5q0 -63 -27 -120.5t-81 -102.5t-136 -70.5t-189 -25.5q-119 0 -215 22l37 154q98 -35 205 -35q106 0 165.5 42t59.5 122q0 39 -22.5 71.5t-47 53 t-86 64.5t-96 78t-57 80t-22.5 103q0 59 26.5 113.5t77.5 96.5t126 65.5t169 23.5q43 0 89 -4t93 -12zM525 1171l-228 267l90 82l164 -174l238 174l59 -84z" />
<glyph unicode="&#x162;" horiz-adv-x="1038" d="M1143 1233h-395l-234 -1233h-174l233 1233h-395l29 149h964zM465 -84q57 -98 31.5 -194.5t-124.5 -202.5h-153q49 53 78.5 96t42 82t4.5 79t-35 85z" />
<glyph unicode="&#x163;" horiz-adv-x="745" d="M743 883h-282l-105 -549q-23 -117 -2 -159t99 -42q41 0 74.5 4t64.5 13l-8 -146q-45 -10 -95.5 -15t-93.5 -5q-78 0 -127 19.5t-74.5 58t-28.5 99t13 148.5l111 574h-209l24 135h211l64 334l178 41l-72 -375h283zM381 -84q57 -98 31.5 -194.5t-124.5 -202.5h-153 q49 53 78.5 96t42 82t4.5 79t-35 85z" />
<glyph unicode="&#x164;" horiz-adv-x="1038" d="M1143 1233h-395l-234 -1233h-174l233 1233h-395l29 149h964zM701 1485l-285 170l64 98l243 -123l295 123l33 -100z" />
<glyph unicode="&#x165;" horiz-adv-x="751" d="M743 883h-282l-105 -549q-23 -117 -2 -159t99 -42q41 0 74.5 4t64.5 13l-8 -146q-45 -10 -95.5 -15t-93.5 -5q-78 0 -127 19.5t-74.5 58t-28.5 99t13 148.5l111 574h-209l24 135h211l64 334l178 41l-72 -375h283zM955 1513l-207 -354l-111 37l178 360z" />
<glyph unicode="&#x166;" horiz-adv-x="1038" d="M573 1233h-395l29 149h964l-28 -149h-395l-86 -449h235l-29 -143h-233l-121 -641h-174l121 641h-236l27 143h235z" />
<glyph unicode="&#x167;" horiz-adv-x="800" d="M682 592l-23 -129h-262l-24 -133q-20 -115 0 -157t98 -42q37 0 69.5 4t69.5 12l-8 -143q-98 -20 -186 -20q-78 0 -128 19.5t-76 58t-28 100t15 149.5l28 152h-188l22 129h191l55 293h-209l27 133h209l63 334l178 41l-69 -375h280l-24 -133h-283l-57 -293h260z" />
<glyph unicode="&#x168;" horiz-adv-x="1392" d="M1223 506q-51 -266 -209 -395t-420 -129q-147 0 -240.5 36.5t-139.5 104t-54 156t12 198.5l172 905h174l-174 -909q-33 -174 28.5 -260t245.5 -86q92 0 163 21.5t124 68.5t90 123t58 186l164 856h172zM1262 1655q-90 -147 -226 -148q-45 0 -78.5 14.5t-73.5 43t-60.5 40 t-49.5 11.5q-70 0 -133 -92l-86 63q43 72 102.5 111t126.5 39q45 0 79 -14.5t74 -43t60.5 -40t48.5 -11.5q70 0 132 92z" />
<glyph unicode="&#x169;" horiz-adv-x="1153" d="M979 487q-8 -43 -15.5 -82.5t-15.5 -80.5t-15 -82t-14.5 -81t-15.5 -81t-14 -80h-172q14 68 40.5 165t76.5 247h-5q-39 -86 -87 -163t-108.5 -138.5t-131 -96t-148.5 -34.5q-139 0 -191 91t-22 255l133 692h170l-125 -653q-23 -123 0 -179.5t95 -56.5q70 0 142.5 64.5 t137 168t110.5 219t64 212.5l41 225h172zM1079 1374q-41 -74 -99.5 -114.5t-125.5 -40.5q-45 0 -77 15t-69 44t-56.5 41t-47.5 12q-66 0 -127 -96l-86 70q41 76 98 115.5t125 39.5q43 0 75.5 -15t70.5 -44t58.5 -41t47.5 -12q68 0 127 96z" />
<glyph unicode="&#x16a;" horiz-adv-x="1392" d="M1223 506q-51 -266 -209 -395t-420 -129q-147 0 -240.5 36.5t-139.5 104t-54 156t12 198.5l172 905h174l-174 -909q-33 -174 28.5 -260t245.5 -86q92 0 163 21.5t124 68.5t90 123t58 186l164 856h172zM1172 1534h-551l24 121h549z" />
<glyph unicode="&#x16b;" horiz-adv-x="1153" d="M979 487q-8 -43 -15.5 -82.5t-15.5 -80.5t-15 -82t-14.5 -81t-15.5 -81t-14 -80h-172q14 68 40.5 165t76.5 247h-5q-39 -86 -87 -163t-108.5 -138.5t-131 -96t-148.5 -34.5q-139 0 -191 91t-22 255l133 692h170l-125 -653q-23 -123 0 -179.5t95 -56.5q70 0 142.5 64.5 t137 168t110.5 219t64 212.5l41 225h172zM977 1268h-502l25 129h502z" />
<glyph unicode="&#x16c;" horiz-adv-x="1392" d="M1223 506q-51 -266 -209 -395t-420 -129q-147 0 -240.5 36.5t-139.5 104t-54 156t12 198.5l172 905h174l-174 -909q-33 -174 28.5 -260t245.5 -86q92 0 163 21.5t124 68.5t90 123t58 186l164 856h172zM1194 1743q-10 -49 -33 -93t-59.5 -79t-88 -54.5t-114.5 -19.5 t-110.5 19.5t-74 54.5t-36 79t1.5 93h110q-10 -53 20.5 -90t98.5 -37t113 33.5t57 93.5h115z" />
<glyph unicode="&#x16d;" horiz-adv-x="1153" d="M979 487q-8 -43 -15.5 -82.5t-15.5 -80.5t-15 -82t-14.5 -81t-15.5 -81t-14 -80h-172q14 68 40.5 165t76.5 247h-5q-39 -86 -87 -163t-108.5 -138.5t-131 -96t-148.5 -34.5q-139 0 -191 91t-22 255l133 692h170l-125 -653q-23 -123 0 -179.5t95 -56.5q70 0 142.5 64.5 t137 168t110.5 219t64 212.5l41 225h172zM1014 1468q-10 -55 -32.5 -103t-59.5 -86t-88 -59.5t-115 -21.5q-63 0 -107 22.5t-68 60.5t-29 86t5 101h113q-12 -59 14.5 -99t87.5 -40t102.5 37t55.5 102h121z" />
<glyph unicode="&#x16e;" horiz-adv-x="1392" d="M1223 506q-51 -266 -209 -395t-420 -129q-147 0 -240.5 36.5t-139.5 104t-54 156t12 198.5l172 905h174l-174 -909q-33 -174 28.5 -260t245.5 -86q92 0 163 21.5t124 68.5t90 123t58 186l164 856h172zM1149 1683q0 -55 -19.5 -103t-56 -83t-87 -54.5t-109.5 -19.5 q-88 0 -142.5 45t-54.5 123q0 55 19.5 103.5t56.5 84t87 55t110 19.5q90 0 143 -45t53 -125zM895 1521q55 0 90 41t35 105q0 43 -21.5 65.5t-62.5 22.5q-57 0 -92 -42t-35 -106q0 -41 22.5 -63.5t63.5 -22.5z" />
<glyph unicode="&#x16f;" horiz-adv-x="1153" d="M979 487q-8 -43 -15.5 -82.5t-15.5 -80.5t-15 -82t-14.5 -81t-15.5 -81t-14 -80h-172q14 68 40.5 165t76.5 247h-5q-39 -86 -87 -163t-108.5 -138.5t-131 -96t-148.5 -34.5q-139 0 -191 91t-22 255l133 692h170l-125 -653q-23 -123 0 -179.5t95 -56.5q70 0 142.5 64.5 t137 168t110.5 219t64 212.5l41 225h172zM977 1393q0 -55 -19.5 -104.5t-56.5 -85.5t-88 -56.5t-113 -20.5q-88 0 -139 47.5t-51 126.5q0 57 19.5 105.5t56 85.5t88 56.5t112.5 19.5q88 0 139.5 -47t51.5 -127zM721 1229q57 0 92 42t35 101q0 41 -20.5 66.5t-61.5 25.5 q-57 0 -92 -42t-35 -101q0 -43 20.5 -67.5t61.5 -24.5z" />
<glyph unicode="&#x170;" horiz-adv-x="1392" d="M1223 506q-51 -266 -209 -395t-420 -129q-147 0 -240.5 36.5t-139.5 104t-54 156t12 198.5l172 905h174l-174 -909q-33 -174 28.5 -260t245.5 -86q92 0 163 21.5t124 68.5t90 123t58 186l164 856h172zM703 1485l-72 82l268 258l90 -103zM1051 1485l-68 84l301 250 l84 -105z" />
<glyph unicode="&#x171;" horiz-adv-x="1153" d="M979 487q-8 -43 -15.5 -82.5t-15.5 -80.5t-15 -82t-14.5 -81t-15.5 -81t-14 -80h-172q14 68 40.5 165t76.5 247h-5q-39 -86 -87 -163t-108.5 -138.5t-131 -96t-148.5 -34.5q-139 0 -191 91t-22 255l133 692h170l-125 -653q-23 -123 0 -179.5t95 -56.5q70 0 142.5 64.5 t137 168t110.5 219t64 212.5l41 225h172zM565 1171l-82 76l277 285l98 -96zM909 1171l-79 76l294 273l95 -101z" />
<glyph unicode="&#x172;" horiz-adv-x="1392" d="M1223 506q-23 -115 -66 -207t-115 -164q-170 -119 -352 -250q-51 -53 -72.5 -97t-21.5 -77q0 -55 68 -55q33 0 67.5 13.5t73.5 39.5l39 -104q-55 -41 -111.5 -61.5t-116.5 -20.5q-90 0 -139 44t-49 109q0 84 57.5 165t151.5 143h-55q-133 0 -223.5 33.5t-138.5 98 t-59 154.5t11 207l172 905h174l-174 -909q-33 -174 28.5 -260t245.5 -86q92 0 163 21.5t124 68.5t90 123t58 186l164 856h172z" />
<glyph unicode="&#x173;" horiz-adv-x="1153" d="M678 -289q0 -55 67 -55q33 0 68 13.5t74 39.5l39 -104q-55 -41 -111.5 -61.5t-116.5 -20.5q-90 0 -139 44t-49 109q0 88 61.5 173t180.5 165q4 82 19 168t63 230h-5q-39 -86 -87 -163t-108.5 -138.5t-131 -96t-148.5 -34.5q-137 0 -189 91t-22 255l131 692h172l-124 -653 q-25 -123 -2.5 -179.5t94.5 -56.5q70 0 142.5 64.5t137 168t110.5 219t64 212.5l43 225h170l-125 -651q-25 -131 -31.5 -223.5t-6.5 -143.5q-129 -86 -184.5 -159t-55.5 -130z" />
<glyph unicode="&#x174;" horiz-adv-x="1916" d="M1391 0h-215l-89 928q-8 117 -2 209h-4q-63 -170 -82 -209l-432 -928h-225l-100 1382h184l63 -913q4 -76 5.5 -145.5t-0.5 -147.5h2q27 76 54.5 146.5t57.5 136.5l434 923h177l88 -938q4 -63 7 -133.5t3 -134.5h2q20 61 43.5 122.5t48.5 125.5l430 958h174zM1419 1485 l-243 125l-293 -125l-33 100l352 168l283 -168z" />
<glyph unicode="&#x175;" horiz-adv-x="1589" d="M1143 0h-195l-86 623q-6 49 -9 101t-5 103h-2q-29 -66 -59.5 -131t-61.5 -131l-279 -565h-198l-113 1018h187l51 -578q6 -70 10 -135t8 -121h2q25 61 54.5 128t58.5 128l289 578h190l70 -578q10 -92 14 -148t6 -110h4q25 59 51.5 119.5t63.5 138.5l297 621l162 -55z M1122 1171l-164 175l-237 -175l-59 84l323 265l227 -267z" />
<glyph unicode="&#x176;" horiz-adv-x="1071" d="M629 535l-101 -535h-174l101 535l-279 847h186l150 -458q20 -72 33.5 -123t25.5 -105h2q37 61 77 121t77 115l317 450h193zM985 1485l-243 125l-293 -125l-33 100l352 168l283 -168z" />
<glyph unicode="&#x177;" horiz-adv-x="956" d="M1012 1010q-96 -227 -194.5 -430t-195 -375t-192.5 -308.5t-190 -230.5q-98 -98 -191.5 -143t-204.5 -45h-26.5t-22.5 2q-12 2 -22 4l28 151q12 -2 25 -4q10 -2 24.5 -3t30.5 -1q59 0 112.5 27t106.5 78q39 39 67 80t46 88t26.5 104t8.5 129q0 166 -36 399.5t-97 485.5 h190q20 -98 40 -202.5t33 -202t21.5 -180.5t8.5 -136q0 -72 -6.5 -122t-16.5 -95h4q23 45 46.5 90t45.5 88q92 174 180.5 367.5t186.5 433.5zM803 1171l-164 175l-238 -175l-59 84l324 265l227 -267z" />
<glyph unicode="&#x178;" horiz-adv-x="1071" d="M629 535l-101 -535h-174l101 535l-279 847h186l150 -458q20 -72 33.5 -123t25.5 -105h2q37 61 77 121t77 115l317 450h193zM1059 1602q0 -45 -32 -77t-75 -32t-70.5 28.5t-27.5 71.5q0 45 30.5 77t73.5 32t72 -29.5t29 -70.5zM631 1602q0 -45 -31 -77t-74 -32t-71.5 29.5 t-28.5 70.5q0 45 30.5 77t73.5 32t72 -28.5t29 -71.5z" />
<glyph unicode="&#x179;" horiz-adv-x="1081" d="M1133 1247l-787 -964q-31 -37 -57.5 -69t-46.5 -56q20 2 65 4t105.5 2h171.5h346l-29 -164h-901l25 131l747 926q35 45 71 85t77 85q-63 -2 -130 -3t-163 -1h-373l31 159h872zM684 1487l-16 104l385 148l27 -140z" />
<glyph unicode="&#x17a;" horiz-adv-x="880" d="M846 895l-596 -737q25 0 67.5 1t88 1h108.5h201l-31 -160h-680l23 123l602 743q-53 -2 -118 -3t-138 -1h-195l29 156h661zM569 1167l-70 88l301 281l93 -111z" />
<glyph unicode="&#x17b;" horiz-adv-x="1081" d="M1133 1247l-787 -964q-31 -37 -57.5 -69t-46.5 -56q20 2 65 4t105.5 2h171.5h346l-29 -164h-901l25 131l747 926q35 45 71 85t77 85q-63 -2 -130 -3t-163 -1h-373l31 159h872zM858 1606q0 -49 -33 -81t-78 -32t-73.5 28.5t-28.5 71.5q0 49 33 81t78 32q43 0 72.5 -29.5 t29.5 -70.5z" />
<glyph unicode="&#x17c;" horiz-adv-x="880" d="M846 895l-596 -737q25 0 67.5 1t88 1h108.5h201l-31 -160h-680l23 123l602 743q-53 -2 -118 -3t-138 -1h-195l29 156h661zM710 1350q0 -53 -35.5 -88t-85.5 -35q-49 0 -79.5 31.5t-30.5 76.5q0 51 35.5 86t85.5 35q47 0 78.5 -31.5t31.5 -74.5z" />
<glyph unicode="&#x17d;" horiz-adv-x="1081" d="M1133 1247l-787 -964q-31 -37 -57.5 -69t-46.5 -56q20 2 65 4t105.5 2h171.5h346l-29 -164h-901l25 131l747 926q35 45 71 85t77 85q-63 -2 -130 -3t-163 -1h-373l31 159h872zM737 1485l-285 170l64 98l243 -123l295 123l33 -100z" />
<glyph unicode="&#x17e;" horiz-adv-x="880" d="M846 895l-596 -737q25 0 67.5 1t88 1h108.5h201l-31 -160h-680l23 123l602 743q-53 -2 -118 -3t-138 -1h-195l29 156h661zM570 1171l-228 267l90 82l164 -174l238 174l59 -84z" />
<glyph unicode="&#x17f;" horiz-adv-x="520" d="M788 1354q-43 12 -83 12q-98 0 -158 -67.5t-88 -215.5l-226 -1187q-20 -109 -57 -188t-90 -130t-125 -75.5t-162 -24.5q-27 0 -57.5 2t-48.5 4l43 149q23 -6 43 -9t41 -3q51 0 90 16.5t68.5 50t51 86t36.5 128.5l225 1185q39 217 146.5 318.5t287.5 101.5q53 0 106 -8z " />
<glyph unicode="&#x192;" horiz-adv-x="882" d="M334 184q-43 -145 -88 -241.5t-101.5 -155.5t-129 -87t-173.5 -28q-39 0 -75.5 5.5t-67.5 13.5l45 153q31 -12 66.5 -19t68.5 -7q51 0 89 17.5t70 55t59.5 103t58.5 166.5l159 542h-245l24 136h260l80 274q59 197 169 298t286 101q37 0 73.5 -3t65.5 -9l-35 -145 q-61 16 -133 16q-94 0 -154.5 -61.5t-99.5 -192.5l-82 -278h330l-27 -136h-340z" />
<glyph unicode="&#x1e6;" horiz-adv-x="1370" d="M1290 1182q-84 31 -172 48t-170 17q-164 0 -288.5 -64.5t-204.5 -171t-119 -232.5t-39 -251q0 -90 23.5 -161.5t72.5 -122.5t126 -79t181 -28q76 0 141.5 10.5t129.5 28.5l100 524h174l-123 -643q-104 -37 -224 -56t-228 -19q-141 0 -247 35.5t-175.5 103t-104 166 t-34.5 221.5q0 156 53 313.5t160.5 289.5t271.5 211t377 79q98 0 190 -14.5t180 -43.5zM938 1485l-285 170l64 98l243 -123l295 123l33 -100z" />
<glyph unicode="&#x1e7;" horiz-adv-x="1099" d="M831 877q-37 8 -72.5 13t-76.5 5q-111 0 -195 -51t-136 -135t-76.5 -185.5t-24.5 -204.5q0 -98 28.5 -144t77.5 -46q72 0 145.5 65.5t138.5 169t111 218t64 211.5zM815 -96q-18 -94 -57 -171t-106.5 -134.5t-167 -89t-232.5 -31.5q-80 0 -149.5 9t-129.5 26l41 161 q61 -20 133 -33.5t142 -13.5q154 0 243 74t121 246q12 59 24.5 114.5t28 109.5t33 112.5t41.5 132.5l-4 2q-33 -72 -75 -142.5t-101 -139t-136 -112.5t-165 -44q-111 0 -168 75.5t-57 233.5q0 143 38 276t116.5 238.5t200.5 167t282 61.5q84 0 160.5 -7t154.5 -21zM689 1171 l-228 267l90 82l164 -174l238 174l59 -84z" />
<glyph unicode="&#x1fa;" horiz-adv-x="1232" d="M928 0l-49 334h-586l-176 -334h-187l752 1382h211l225 -1382h-190zM776 1018q-6 41 -11 91t-11 101h-2q-23 -47 -46.5 -95t-46.5 -95l-294 -545h495zM783 1806l-17 84l357 117l22 -111zM1047 1634q0 -47 -20.5 -87t-56.5 -67.5t-81 -42t-92 -14.5q-80 0 -130 39t-50 109 q0 49 20.5 88t56.5 66.5t82 42t93 14.5q80 0 129 -39t49 -109zM816 1509q49 0 83.5 31t34.5 84q0 33 -21.5 52.5t-62.5 19.5q-51 0 -85.5 -31t-34.5 -82q0 -33 22.5 -53.5t63.5 -20.5z" />
<glyph unicode="&#x1fb;" horiz-adv-x="1099" d="M831 877q-37 8 -72.5 13t-76.5 5q-111 0 -195 -51t-136 -135t-76.5 -185.5t-24.5 -204.5q0 -98 28.5 -144t77.5 -46q72 0 145.5 65.5t138.5 169t111 218t64 211.5zM1026 1004q-43 -221 -71.5 -371t-49 -257.5t-37 -194.5t-32.5 -181h-172q29 135 120 424l-4 2 q-35 -74 -76.5 -147.5t-102 -142t-137.5 -112.5t-165 -44q-111 0 -168 75.5t-57 233.5q0 143 38 276t116.5 238.5t200.5 167t282 61.5q84 0 163.5 -7t151.5 -21zM703 1597l-18 95l374 141l29 -127zM963 1370q0 -53 -18.5 -99t-54 -82t-84 -55.5t-105.5 -19.5q-84 0 -135 44 t-51 118q0 53 19 99t54 82t84 55.5t107 19.5q84 0 134 -44t50 -118zM717 1208q57 0 91 42t34 104q0 37 -22.5 60.5t-59.5 23.5q-57 0 -90 -42t-33 -104q0 -37 21.5 -60.5t58.5 -23.5z" />
<glyph unicode="&#x1fc;" horiz-adv-x="1570" d="M868 1237q-35 -55 -76.5 -118.5t-113.5 -164.5l-336 -475h391l146 758h-11zM1565 1235h-514l-86 -451h477l-27 -143h-479l-92 -491h524l-29 -150h-696l66 338h-459l-236 -338h-194l981 1382h188h604zM1097 1487l-16 104l385 148l27 -140z" />
<glyph unicode="&#x1fd;" horiz-adv-x="1562" d="M682 461q-109 -4 -192.5 -15.5t-144 -36t-94.5 -65.5t-34 -102q0 -51 32 -86t93 -35q59 0 114.5 27.5t101.5 76.5t79 111t45 125zM1343 784q0 57 -38.5 88t-104.5 31q-59 0 -110.5 -24.5t-92.5 -67.5t-70.5 -100.5t-47.5 -124.5q121 4 209 19.5t144 40t83.5 59t27.5 79.5 zM1518 807q0 -78 -40 -140.5t-121 -107.5t-207 -70.5t-294 -31.5q-6 -23 -9 -59t-3 -70q0 -61 11 -100.5t38 -62t67.5 -31.5t106.5 -9q70 0 143.5 15.5t139.5 41.5l8 -137q-76 -31 -164 -47t-186 -16q-80 0 -136.5 15t-93.5 44t-57.5 72t-28.5 100q-27 -45 -67.5 -87 t-93 -75t-114 -51t-126.5 -18q-119 0 -183.5 63.5t-64.5 167.5q0 98 49 169t139.5 115t209 65.5t266.5 25.5l14 63q31 129 -8 189.5t-162 60.5q-74 0 -155 -20.5t-152 -53.5l-17 138q82 33 174.5 52t178.5 19q70 0 120 -13t83.5 -35.5t53 -51.5t29.5 -64q27 31 63 61 t82 53.5t99 36.5t113 13q76 0 133 -18.5t92 -50t52.5 -72.5t17.5 -88zM940 1167l-70 88l301 281l93 -111z" />
<glyph unicode="&#x1fe;" horiz-adv-x="1419" d="M197 -152l112 207q-98 59 -151.5 167t-53.5 261q0 182 56.5 349t159 293t247 201t322.5 75q43 0 79 -4t70 -15l109 195l123 -53l-103 -185q104 -59 164 -166.5t60 -273.5q0 -182 -55.5 -349t-158 -293t-247 -200.5t-322.5 -74.5q-53 0 -94 6t-78 16l-114 -209zM518 156 q25 -10 55.5 -16.5t73.5 -6.5q119 0 221.5 57.5t178 156.5t118.5 234.5t43 290.5q0 106 -33.5 186.5t-91.5 121.5zM958 1235q-23 6 -50 10t-64 4q-117 0 -218.5 -57t-177 -157.5t-118.5 -234.5t-43 -290q0 -94 26.5 -170t83.5 -121zM799 1577l-17 104l385 148l27 -139z" />
<glyph unicode="&#x1ff;" horiz-adv-x="1091" d="M88 -156l115 203q-59 43 -96 117t-37 180q0 131 38.5 255t113.5 221.5t184.5 156.5t250.5 59q27 0 52.5 -2t48.5 -6l114 203l105 -53l-107 -191q78 -45 119 -125t41 -188q0 -131 -39 -255t-113.5 -221.5t-184 -156.5t-251.5 -59q-74 0 -131 18l-116 -209zM385 135 q23 -6 47.5 -10t52.5 -4q98 4 169 56t117 130t68.5 170t22.5 176q0 66 -20.5 113t-55.5 78zM684 893q-16 4 -32.5 5t-37.5 -1q-94 -2 -163.5 -51t-116.5 -125t-70.5 -169t-23.5 -183q0 -104 53 -170zM639 1177l-70 88l301 281l93 -111z" />
<glyph unicode="&#x218;" horiz-adv-x="1011" d="M938 1217q-53 16 -117.5 26t-124.5 10q-76 0 -134 -19.5t-97 -51t-57.5 -72.5t-18.5 -86q0 -59 34 -103t71.5 -70t129 -79t144.5 -97t87 -107.5t34 -151.5q0 -86 -35 -164t-104.5 -139.5t-173 -96t-232.5 -34.5q-86 0 -169 10t-148 28l49 170q66 -27 140.5 -41t158.5 -14 q156 0 243 74t87 184q0 61 -34 108.5t-76 76t-129 80t-138.5 93.5t-85 104.5t-33.5 145.5q0 80 33.5 152t100.5 128t164 88t218 32q61 0 130 -7.5t128 -19.5zM365 -100q49 0 76.5 -40t16.5 -101.5t-73.5 -128t-181.5 -119.5l-41 69q80 51 107.5 101.5t7.5 93.5 q-16 47 9.5 86t78.5 39z" />
<glyph unicode="&#x219;" horiz-adv-x="802" d="M705 877q-82 25 -166 24q-98 0 -152.5 -41t-54.5 -108q0 -39 22.5 -72t48 -53.5t87 -64.5t96.5 -77.5t57.5 -80t22.5 -103.5q0 -63 -27 -120.5t-81 -102.5t-136 -70.5t-189 -25.5q-119 0 -215 22l37 154q98 -35 205 -35q106 0 165.5 42t59.5 122q0 39 -22.5 71.5t-47 53 t-86 64.5t-96 78t-57 80t-22.5 103q0 59 26.5 113.5t77.5 96.5t126 65.5t169 23.5q43 0 89 -4t93 -12zM262 -100q49 0 76.5 -40t16.5 -101.5t-73.5 -128t-181.5 -119.5l-41 69q80 51 107.5 101.5t7.5 93.5q-16 47 9.5 86t78.5 39z" />
<glyph unicode="&#x21a;" horiz-adv-x="1038" d="M1143 1233h-395l-234 -1233h-174l233 1233h-395l29 149h964zM396 -100q49 0 76.5 -40t16.5 -101.5t-73.5 -128t-181.5 -119.5l-41 69q80 51 107.5 101.5t7.5 93.5q-16 47 9.5 86t78.5 39z" />
<glyph unicode="&#x21b;" horiz-adv-x="745" d="M743 883h-282l-105 -549q-23 -117 -2 -159t99 -42q41 0 74.5 4t64.5 13l-8 -146q-45 -10 -95.5 -15t-93.5 -5q-78 0 -127 19.5t-74.5 58t-28.5 99t13 148.5l111 574h-209l24 135h211l64 334l178 41l-72 -375h283zM303 -100q49 0 76.5 -40t16.5 -101.5t-73.5 -128 t-181.5 -119.5l-41 69q80 51 107.5 101.5t7.5 93.5q-16 47 9.5 86t78.5 39z" />
<glyph unicode="&#x237;" horiz-adv-x="532" d="M240 -137q-18 -98 -49 -169t-78 -119t-111.5 -72.5t-151.5 -24.5q-88 0 -151 14l35 156q29 -10 61.5 -16.5t69.5 -6.5q47 0 79.5 12.5t56.5 42t41 78.5t32 125l215 1135h170z" />
<glyph unicode="&#x2bc;" horiz-adv-x="165" d="M154 1085q84 78 116.5 133.5t32.5 94.5q0 12 -4 22.5t-9 20.5t-8 22.5t-3 32.5q0 47 28.5 78t77.5 31q47 0 72.5 -33t25.5 -80q0 -78 -66.5 -177.5t-203.5 -209.5z" />
<glyph unicode="&#x2c6;" horiz-adv-x="892" d="M778 1171l-164 175l-237 -175l-60 84l324 265l227 -267z" />
<glyph unicode="&#x2c7;" horiz-adv-x="892" d="M578 1171l-228 267l90 82l164 -174l238 174l59 -84z" />
<glyph unicode="&#x2d8;" horiz-adv-x="835" d="M852 1468q-10 -55 -32.5 -103t-59.5 -86t-88 -59.5t-115 -21.5q-63 0 -107 22.5t-68 60.5t-29 86t5 101h113q-12 -59 14.5 -99t87.5 -40t102.5 37t55.5 102h121z" />
<glyph unicode="&#x2d9;" horiz-adv-x="569" d="M563 1350q0 -53 -35.5 -88t-85.5 -35q-49 0 -79.5 31.5t-30.5 76.5q0 51 35.5 86t85.5 35q47 0 78.5 -31.5t31.5 -74.5z" />
<glyph unicode="&#x2da;" horiz-adv-x="798" d="M797 1393q0 -55 -19.5 -104.5t-56.5 -85.5t-88 -56.5t-113 -20.5q-88 0 -139 47.5t-51 126.5q0 57 19.5 105.5t56 85.5t88 56.5t112.5 19.5q88 0 139.5 -47t51.5 -127zM541 1229q57 0 92 42t35 101q0 41 -20.5 66.5t-61.5 25.5q-57 0 -92 -42t-35 -101q0 -43 20.5 -67.5 t61.5 -24.5z" />
<glyph unicode="&#x2db;" horiz-adv-x="774" d="M428 0q-127 -86 -183.5 -158.5t-56.5 -130.5q0 -55 68 -55q31 0 65.5 13.5t75.5 39.5l39 -104q-55 -41 -111.5 -61.5t-115.5 -20.5q-90 0 -139.5 44t-49.5 109q0 86 61.5 172t178.5 166z" />
<glyph unicode="&#x2dc;" horiz-adv-x="1021" d="M1016 1374q-41 -74 -99.5 -114.5t-125.5 -40.5q-45 0 -77 15t-69 44t-56.5 41t-47.5 12q-66 0 -127 -96l-86 70q41 76 98 115.5t125 39.5q43 0 75.5 -15t70.5 -44t58.5 -41t47.5 -12q68 0 127 96z" />
<glyph unicode="&#x2dd;" horiz-adv-x="1046" d="M397 1171l-82 76l277 285l98 -96zM741 1171l-79 76l294 273l95 -101z" />
<glyph unicode="&#x312;" horiz-adv-x="600" d="M618 1479q-80 -49 -107.5 -99.5t-6.5 -95.5q16 -47 -9.5 -86t-76.5 -39q-47 0 -76 40t-17.5 101.5t74 128t181.5 119.5z" />
<glyph unicode="&#x315;" horiz-adv-x="598" d="M623 1513l-207 -354l-111 37l178 360z" />
<glyph unicode="&#x323;" horiz-adv-x="0" d="M-614 -315q0 -53 -35 -89t-84 -36t-81 33.5t-32 80.5q0 53 36 88t85 35t80 -33.5t31 -78.5z" />
<glyph unicode="&#x326;" horiz-adv-x="600" d="M199 -100q49 0 76.5 -40t16.5 -101.5t-73.5 -128t-181.5 -119.5l-41 69q80 51 107.5 101.5t7.5 93.5q-16 47 9.5 86t78.5 39z" />
<glyph unicode="&#x37e;" horiz-adv-x="579" d="M479 709q0 -53 -35.5 -89t-87.5 -36q-51 0 -84.5 35.5t-33.5 82.5q0 53 35.5 89t86.5 36t85 -34.5t34 -83.5zM10 -233q117 98 143.5 167.5t-3.5 122.5q-14 27 -14.5 55.5t13 53t38 41t59.5 16.5q55 0 90 -45t24.5 -118.5t-76 -170t-208.5 -198.5z" />
<glyph unicode="&#x384;" horiz-adv-x="544" d="M422 1149l-123 18l113 351l155 -19z" />
<glyph unicode="&#x385;" horiz-adv-x="1040" d="M1032 1348q0 -47 -29.5 -78t-70.5 -31q-39 0 -66.5 27.5t-27.5 64.5q0 47 29.5 77t70.5 30q39 0 66.5 -26.5t27.5 -63.5zM524 1348q0 -47 -28.5 -78t-69.5 -31q-39 0 -67.5 27.5t-28.5 64.5q0 47 29.5 77t70.5 30q39 0 66.5 -26.5t27.5 -63.5zM688 1149l-108 10l65 350 l143 -10z" />
<glyph unicode="&#x386;" horiz-adv-x="1261" d="M953 0l-49 334h-586l-176 -334h-187l752 1382h211l225 -1382h-190zM801 1018q-6 41 -11 91t-11 101h-2q-23 -47 -46.5 -95t-46.5 -95l-294 -545h495zM309 1149l-123 18l113 351l155 -19z" />
<glyph unicode="&#x387;" horiz-adv-x="569" d="M498 1022q0 -51 -35 -86t-84 -35q-47 0 -77 33t-30 80q0 51 35 86t82 35t78 -33t31 -80z" />
<glyph unicode="&#x388;" horiz-adv-x="1140" d="M1143 1235h-542l-86 -451h495l-27 -143h-495l-94 -491h542l-28 -150h-717l262 1382h719zM252 1149l-123 18l113 351l155 -19z" />
<glyph unicode="&#x389;" horiz-adv-x="1511" d="M1246 0h-174l122 641h-706l-123 -641h-174l262 1382h174l-110 -589h704l113 589h174zM252 1149l-123 18l113 351l155 -19z" />
<glyph unicode="&#x38a;" horiz-adv-x="632" d="M365 0h-174l264 1382h174zM252 1149l-123 18l113 351l155 -19z" />
<glyph unicode="&#x38c;" horiz-adv-x="1468" d="M1253 870q0 174 -87 274.5t-261 100.5q-121 0 -225.5 -57.5t-180 -159.5t-116.5 -235.5t-41 -280.5q0 -174 87 -274.5t261 -100.5q121 0 224.5 57.5t180 160t117.5 235.5t41 280zM1440 899q0 -182 -55.5 -348t-160 -295t-250 -201.5t-317.5 -72.5q-248 0 -376 136 t-128 365q0 182 56.5 348t161 295t250 202t317.5 73q248 0 375 -136.5t127 -365.5zM252 1149l-123 18l113 351l155 -19z" />
<glyph unicode="&#x38e;" horiz-adv-x="1294" d="M1458 1382q-162 -205 -272.5 -357.5t-188.5 -279.5t-126 -238.5t-68 -217.5l-56 -289h-174l56 289q20 104 14 215.5t-36 238.5t-79 273.5t-129 365.5h184q55 -143 92 -263t58.5 -213t31 -161.5t11.5 -123.5h2q23 59 56.5 128.5t90 162t139.5 210t195 260.5h199zM244 1149 l-123 18l113 351l155 -19z" />
<glyph unicode="&#x38f;" horiz-adv-x="1490" d="M827 0l29 147q207 141 303 326.5t96 411.5q0 172 -84 267t-249 95q-129 0 -233.5 -63.5t-177.5 -168t-111 -228t-38 -240.5q0 -121 44.5 -214t144.5 -186l-27 -147h-483l29 150h297q-90 74 -140.5 176t-50.5 231q0 92 22.5 190.5t68.5 193.5t111.5 178t152.5 146.5 t193.5 99.5t227.5 36q233 0 364.5 -126t131.5 -366q0 -236 -105.5 -433t-296.5 -326h293l-30 -150h-482zM252 1149l-123 18l113 351l155 -19z" />
<glyph unicode="&#x390;" horiz-adv-x="544" d="M393 -4q-27 -6 -47 -8t-45 -2q-92 0 -134 40t-42 136q0 31 4 70.5t14 93.5l133 692h170l-124 -660q-10 -51 -16.5 -90t-6.5 -63q0 -39 13.5 -55.5t43.5 -16.5q33 0 52 4zM788 1348q0 -47 -29.5 -78t-70.5 -31q-39 0 -66.5 27.5t-27.5 64.5q0 47 29.5 77t70.5 30 q39 0 66.5 -26.5t27.5 -63.5zM280 1348q0 -47 -28.5 -78t-69.5 -31q-39 0 -67.5 27.5t-28.5 64.5q0 47 29.5 77t70.5 30q39 0 66.5 -26.5t27.5 -63.5zM444 1149l-108 10l65 350l143 -10z" />
<glyph unicode="&#x391;" horiz-adv-x="1232" d="M928 0l-49 334h-586l-176 -334h-187l752 1382h211l225 -1382h-190zM776 1018q-6 41 -11 91t-11 101h-2q-23 -47 -46.5 -95t-46.5 -95l-294 -545h495z" />
<glyph unicode="&#x392;" horiz-adv-x="1142" d="M844 453q0 96 -76 144t-242 48h-58.5t-50 -1t-38.5 -1l-94 -496q88 -10 164 -10q96 0 170.5 24.5t125 68.5t75 102t24.5 121zM918 1083q0 37 -12.5 67t-41 52.5t-76 34.5t-114.5 12q-39 0 -84 -2t-96 -4l-88 -463q18 0 38.5 -1t40 -1h47.5q104 0 179 25.5t120.5 70 t66 97.5t20.5 112zM1104 1114q0 -74 -23.5 -136.5t-64.5 -111.5t-93.5 -85t-111.5 -56v-2q102 -18 160.5 -87t58.5 -165q0 -94 -38 -180t-114.5 -152.5t-191.5 -105.5t-260 -39q-37 0 -102.5 1t-130 3t-111.5 2l262 1382q12 0 94 2t141.5 3.5t116.5 1.5q215 0 311.5 -75 t96.5 -200z" />
<glyph unicode="&#x393;" horiz-adv-x="862" d="M492 1233l-236 -1233h-174l262 1382h674l-29 -149h-497z" />
<glyph unicode="&#x394;" horiz-adv-x="1218" d="M758 1073q-6 47 -8 81t-2 67h-3q-47 -109 -69 -152l-488 -911h715zM-37 0l25 129l684 1253h213l207 -1253l-23 -129h-1106z" />
<glyph unicode="&#x395;" horiz-adv-x="1032" d="M1034 1235h-542l-86 -451h495l-27 -143h-495l-94 -491h542l-28 -150h-717l262 1382h719z" />
<glyph unicode="&#x396;" horiz-adv-x="1081" d="M1133 1247l-787 -964q-31 -37 -57.5 -69t-46.5 -56q20 2 65 4t105.5 2h171.5h346l-29 -164h-901l25 131l747 926q35 45 71 85t77 85q-63 -2 -130 -3t-163 -1h-373l31 159h872z" />
<glyph unicode="&#x397;" horiz-adv-x="1404" d="M1137 0h-174l122 641h-706l-123 -641h-174l262 1382h174l-110 -589h704l113 589h174z" />
<glyph unicode="&#x398;" horiz-adv-x="1415" d="M1200 881q0 172 -85 268t-251 96q-123 0 -228.5 -58.5t-182 -160.5t-118.5 -236.5t-42 -281.5q0 -174 84 -271.5t241 -97.5q119 0 224.5 56.5t186.5 158t126 237.5t45 290zM1389 901q0 -195 -61.5 -362.5t-171 -293.5t-254 -194.5t-306.5 -68.5q-246 0 -370 130t-124 371 q0 186 59.5 353.5t168 294t254 198.5t309.5 72q240 0 368 -130t128 -370zM496 645l26 139h486l-29 -139h-483z" />
<glyph unicode="&#x399;" horiz-adv-x="524" d="M256 0h-174l264 1382h174z" />
<glyph unicode="&#x39a;" horiz-adv-x="1169" d="M575 707l461 -707h-223l-424 690l-133 -690h-174l262 1382h174l-123 -651l670 651h225z" />
<glyph unicode="&#x39b;" horiz-adv-x="1232" d="M928 0l-137 899q-12 82 -21.5 151.5t-15.5 135.5h-2q-31 -70 -71 -146.5t-83 -154.5l-475 -885h-186l755 1382h199l223 -1382h-186z" />
<glyph unicode="&#x39c;" horiz-adv-x="1792" d="M1602 0h-179l45 823q6 115 16.5 215.5t20.5 180.5h-4q-23 -55 -56.5 -125t-76.5 -158l-498 -936h-161l-138 887q-14 102 -23 184t-11 148h-2q-18 -82 -46 -180.5t-65 -225.5l-244 -813h-174l438 1382h234l135 -893q8 -53 14.5 -116.5t8.5 -124.5h2q63 158 108 241 l479 893h256z" />
<glyph unicode="&#x39d;" horiz-adv-x="1384" d="M926 0l-371 907q-57 139 -92 275q-8 -55 -24.5 -152.5t-35 -208t-39 -224.5t-38.5 -204l-74 -393h-170l262 1382h166h59l363 -886q23 -59 42 -118t36 -120q8 66 23.5 160t33.5 198.5t37.5 212t38.5 199.5l67 354h168l-262 -1382h-162h-28z" />
<glyph unicode="&#x39e;" horiz-adv-x="1089" d="M905 0h-905l31 162h907zM897 639h-649l26 147h650zM1122 1223h-870l29 159h870z" />
<glyph unicode="&#x39f;" horiz-adv-x="1419" d="M1204 870q0 174 -87 274.5t-261 100.5q-121 0 -225.5 -57.5t-180 -159.5t-116.5 -235.5t-41 -280.5q0 -174 87 -274.5t261 -100.5q121 0 224.5 57.5t180 160t117.5 235.5t41 280zM1391 899q0 -182 -55.5 -348t-160 -295t-250 -201.5t-317.5 -72.5q-248 0 -376 136 t-128 365q0 182 56.5 348t161 295t250 202t317.5 73q248 0 375 -136.5t127 -365.5z" />
<glyph unicode="&#x3a0;" horiz-adv-x="1325" d="M885 0l233 1231h-629l-233 -1231h-174l262 1382h488.5h488.5l-262 -1382h-174z" />
<glyph unicode="&#x3a1;" horiz-adv-x="1103" d="M948 1016q0 102 -70.5 164.5t-226.5 62.5q-53 0 -97 -1t-62 -1l-115 -606q84 -12 155 -12q106 0 185.5 34.5t130.5 92t75.5 127t24.5 139.5zM1130 1038q0 -109 -41.5 -210t-122.5 -181t-199 -125t-261 -45q-53 0 -96 2t-62 4l-92 -483h-174l262 1382q20 0 95 2t124 3.5 t119 1.5q221 0 334.5 -96.5t113.5 -254.5z" />
<glyph unicode="&#x3a3;" horiz-adv-x="1026" d="M0 0l29 147l589 562l-350 542l23 131h831l-30 -155h-615l346 -529l-571 -538h657l-30 -160h-879z" />
<glyph unicode="&#x3a4;" horiz-adv-x="1038" d="M1143 1233h-395l-234 -1233h-174l233 1233h-395l29 149h964z" />
<glyph unicode="&#x3a5;" horiz-adv-x="1071" d="M1235 1382q-162 -205 -272.5 -357.5t-188.5 -279.5t-126 -238.5t-68 -217.5l-56 -289h-174l56 289q20 104 14 215.5t-36 238.5t-79 273.5t-129 365.5h184q55 -143 92 -263t58.5 -213t31 -161.5t11.5 -123.5h2q23 59 56.5 128.5t90 162t139.5 210t195 260.5h199z" />
<glyph unicode="&#x3a6;" horiz-adv-x="1624" d="M850 1190q-137 -10 -243.5 -66.5t-179.5 -145.5t-108.5 -198.5t-35.5 -224.5q0 -162 97 -258t282 -104zM1399 829q0 162 -96.5 257.5t-280.5 103.5l-191 -995q137 10 244 66t179.5 145.5t108.5 197.5t36 225zM774 -109h-170l29 154q-258 6 -396.5 135t-138.5 348 q0 150 52.5 291.5t154 255t247.5 183t327 79.5l28 146h170l-28 -146q258 -6 397 -135t139 -348q0 -150 -52 -291t-154.5 -254.5t-249 -183.5t-326.5 -80z" />
<glyph unicode="&#x3a7;" horiz-adv-x="1196" d="M739 715l320 -715h-207l-242 580l-460 -580h-211l587 717l-293 665h195l225 -532l422 532h207z" />
<glyph unicode="&#x3a8;" horiz-adv-x="1574" d="M1489 842q-43 -244 -207 -383.5t-446 -155.5l-56 -303h-174l58 303q-162 8 -262.5 52t-146.5 114t-52 157t16 197l43 215q20 102 30.5 184.5t10.5 159.5h172q-2 -78 -12 -160.5t-27 -174.5l-43 -228q-16 -84 -12 -147.5t36 -110.5t99.5 -74.5t175.5 -33.5l176 929h174 l-176 -929q195 12 306.5 110.5t150.5 310.5l31 160q12 59 21 104.5t19.5 85.5t23 77.5t28.5 80.5h168q-31 -80 -50.5 -161.5t-37.5 -180.5z" />
<glyph unicode="&#x3a9;" horiz-adv-x="1445" d="M782 0l29 147q207 141 303 326.5t96 411.5q0 172 -84 267t-249 95q-129 0 -233.5 -63.5t-177.5 -168t-111 -228t-38 -240.5q0 -121 44.5 -214t144.5 -186l-27 -147h-483l29 150h297q-90 74 -140.5 176t-50.5 231q0 92 22.5 190.5t68.5 193.5t111.5 178t152.5 146.5 t193.5 99.5t227.5 36q233 0 364.5 -126t131.5 -366q0 -236 -105.5 -433t-296.5 -326h293l-30 -150h-482z" />
<glyph unicode="&#x3aa;" horiz-adv-x="524" d="M256 0h-174l264 1382h174zM791 1602q0 -45 -32 -77t-75 -32t-70.5 28.5t-27.5 71.5q0 45 30.5 77t73.5 32t72 -29.5t29 -70.5zM363 1602q0 -45 -31 -77t-74 -32t-71.5 29.5t-28.5 70.5q0 45 30.5 77t73.5 32t72 -28.5t29 -71.5z" />
<glyph unicode="&#x3ab;" horiz-adv-x="1071" d="M1235 1382q-162 -205 -272.5 -357.5t-188.5 -279.5t-126 -238.5t-68 -217.5l-56 -289h-174l56 289q20 104 14 215.5t-36 238.5t-79 273.5t-129 365.5h184q55 -143 92 -263t58.5 -213t31 -161.5t11.5 -123.5h2q23 59 56.5 128.5t90 162t139.5 210t195 260.5h199z M1061 1602q0 -45 -32 -77t-75 -32t-70.5 28.5t-27.5 71.5q0 45 30.5 77t73.5 32t72 -29.5t29 -70.5zM633 1602q0 -45 -31 -77t-74 -32t-71.5 29.5t-28.5 70.5q0 45 30.5 77t73.5 32t72 -28.5t29 -71.5z" />
<glyph unicode="&#x3ac;" horiz-adv-x="1183" d="M762 559q0 184 -35 257t-125 73q-78 0 -143.5 -50.5t-111.5 -133t-69.5 -182t-23.5 -197.5q0 -100 30.5 -147.5t90.5 -47.5q86 0 185 82t202 244v102zM774 266q-61 -84 -120.5 -140t-115 -88t-107.5 -44t-105 -12q-125 0 -187.5 74.5t-62.5 234.5q0 141 38 275 t109.5 240.5t175 168t230.5 61.5t196.5 -79.5t77.5 -254.5q33 70 63.5 148t59.5 168h170q-66 -166 -134.5 -307.5t-133.5 -251.5v-88q0 -78 6 -126t19.5 -75t32 -36t44.5 -9q12 0 49 4l-24 -139q-23 -2 -39.5 -4t-32.5 -2q-104 0 -155.5 63t-53.5 219zM735 1149l-123 18 l113 351l155 -19z" />
<glyph unicode="&#x3ad;" horiz-adv-x="886" d="M737 33q-92 -25 -173 -37t-158 -12q-94 0 -164 17t-115 49t-65.5 75t-20.5 94q0 106 66.5 191.5t173.5 117.5l2 2q-55 25 -84 65t-29 99q0 63 27.5 125t83 112t141.5 78.5t199 28.5q68 0 139 -9t125 -25l-51 -136q-53 18 -111.5 28.5t-120.5 10.5q-70 0 -121 -17.5 t-81.5 -46t-45 -63.5t-14.5 -69q0 -55 45 -88t127 -33h229l-24 -125h-232q-63 0 -112 -17.5t-83 -48t-50.5 -67.5t-16.5 -78q0 -61 54.5 -99t162.5 -38q63 0 138 12t149 35zM686 1149l-123 18l113 351l155 -19z" />
<glyph unicode="&#x3ae;" horiz-adv-x="1171" d="M399 1018q-4 -121 -16 -220.5t-41 -197.5h2q37 84 86 163t110.5 140.5t132 98t150.5 36.5q141 0 192.5 -93t20.5 -253l-135 -704q-16 -82 -25.5 -149.5t-15.5 -127t-8 -113t0 -104.5h-168q-2 49 -1 98.5t6 106.5t14.5 123.5t25.5 150.5l129 680q23 123 1.5 179.5 t-93.5 56.5q-49 0 -98.5 -32t-96.5 -84t-89 -120.5t-76.5 -142.5t-59 -147.5t-37.5 -137.5l-41 -225h-172l97 500q12 61 19 127.5t12 134t5 132t-2 124.5h172zM842 1149l-123 18l113 351l155 -19z" />
<glyph unicode="&#x3af;" horiz-adv-x="544" d="M393 -4q-27 -6 -47 -8t-45 -2q-92 0 -134 40t-42 136q0 31 4 70.5t14 93.5l133 692h170l-124 -660q-10 -51 -16.5 -90t-6.5 -63q0 -39 13.5 -55.5t43.5 -16.5q33 0 52 4zM451 1149l-123 18l113 351l155 -19z" />
<glyph unicode="&#x3b0;" horiz-adv-x="1155" d="M473 -18q-164 0 -235.5 72.5t-71.5 213.5q0 61 11 126t31.5 155t31 144.5t10.5 105.5q0 88 -74 88q-18 0 -55 -4l29 141q27 4 51 6t51 2q86 0 131 -45t45 -139q0 -68 -11 -133.5t-33 -157.5t-32 -149.5t-10 -114.5q0 -88 37 -128t123 -40q104 0 178 72.5t118 197.5 t65.5 283t25.5 340h178q-6 -231 -45 -420.5t-112.5 -328t-183.5 -213t-253 -74.5zM1083 1348q0 -47 -29.5 -78t-70.5 -31q-39 0 -66.5 27.5t-27.5 64.5q0 47 29.5 77t70.5 30q39 0 66.5 -26.5t27.5 -63.5zM575 1348q0 -47 -28.5 -78t-69.5 -31q-39 0 -67.5 27.5t-28.5 64.5 q0 47 29.5 77t70.5 30q39 0 66.5 -26.5t27.5 -63.5zM739 1149l-108 10l65 350l143 -10z" />
<glyph unicode="&#x3b1;" horiz-adv-x="1183" d="M762 559q0 184 -35 257t-125 73q-78 0 -143.5 -50.5t-111.5 -133t-69.5 -182t-23.5 -197.5q0 -100 30.5 -147.5t90.5 -47.5q86 0 185 82t202 244v102zM774 266q-61 -84 -120.5 -140t-115 -88t-107.5 -44t-105 -12q-125 0 -187.5 74.5t-62.5 234.5q0 141 38 275 t109.5 240.5t175 168t230.5 61.5t196.5 -79.5t77.5 -254.5q33 70 63.5 148t59.5 168h170q-66 -166 -134.5 -307.5t-133.5 -251.5v-88q0 -78 6 -126t19.5 -75t32 -36t44.5 -9q12 0 49 4l-24 -139q-23 -2 -39.5 -4t-32.5 -2q-104 0 -155.5 63t-53.5 219z" />
<glyph unicode="&#x3b2;" horiz-adv-x="1093" d="M846 608q0 96 -36 157.5t-108 94.5q-74 -35 -165 -66.5t-201 -64.5q-20 -102 -31.5 -195.5t-11.5 -148.5q0 -76 14.5 -127t41 -78.5t62 -39t83.5 -11.5q90 0 157.5 46t110.5 120t63.5 156.5t20.5 156.5zM905 1260q0 47 -29.5 77.5t-87.5 30.5q-80 0 -146.5 -40 t-116.5 -108.5t-87 -154.5t-65 -186q147 45 248.5 87t164 87t91 96.5t28.5 110.5zM1087 1282q0 -104 -58 -188t-171 -154q84 -39 127 -119t43 -188q0 -109 -36 -222.5t-108.5 -212t-181 -157.5t-247.5 -59q-80 0 -141.5 19t-106.5 62t-69.5 116t-24.5 179q0 88 15 204 t48 246t86 254t132 225.5t185.5 161.5t239.5 60q135 0 201.5 -61.5t66.5 -165.5z" />
<glyph unicode="&#x3b3;" horiz-adv-x="960" d="M961 1016q-12 -139 -50.5 -264t-94.5 -234.5t-123.5 -209t-157.5 -214.5q-61 -80 -92 -148.5t-44 -135.5l-61 -316h-170l47 240q14 82 23.5 183t9.5 189q0 184 -37 422t-102 490h190q27 -106 47.5 -215t35.5 -213.5t23.5 -195.5t8.5 -163q0 -49 -4 -73h2q18 35 93 137 t131 199.5t99 234.5t45 303z" />
<glyph unicode="&#x3b4;" horiz-adv-x="1054" d="M803 596q0 90 -39 161.5t-123 145.5q-84 -2 -156.5 -46t-125 -118.5t-80 -170t-27.5 -197.5q0 -117 52 -179.5t151 -62.5q84 0 149.5 42t109.5 110.5t66.5 151.5t22.5 163zM739 1509q84 0 157 -18t128 -51l-78 -129q-57 31 -110.5 47t-106.5 16q-82 0 -118 -29.5 t-36 -80.5q0 -20 8.5 -40t29 -44.5t54 -57t93.5 -86.5q117 -104 169 -203.5t52 -218.5q0 -137 -44 -253.5t-122 -201.5t-178 -131t-209 -46q-170 0 -263 89t-93 271q0 123 32.5 235.5t94 203.5t145.5 152.5t182 84.5q-68 61 -99.5 115.5t-31.5 113.5q0 55 20.5 102.5 t63.5 83t108.5 56t151.5 20.5z" />
<glyph unicode="&#x3b5;" horiz-adv-x="886" d="M737 33q-92 -25 -173 -37t-158 -12q-94 0 -164 17t-115 49t-65.5 75t-20.5 94q0 106 66.5 191.5t173.5 117.5l2 2q-55 25 -84 65t-29 99q0 63 27.5 125t83 112t141.5 78.5t199 28.5q68 0 139 -9t125 -25l-51 -136q-53 18 -111.5 28.5t-120.5 10.5q-70 0 -121 -17.5 t-81.5 -46t-45 -63.5t-14.5 -69q0 -55 45 -88t127 -33h229l-24 -125h-232q-63 0 -112 -17.5t-83 -48t-50.5 -67.5t-16.5 -78q0 -61 54.5 -99t162.5 -38q63 0 138 12t149 35z" />
<glyph unicode="&#x3b6;" horiz-adv-x="811" d="M350 -371q86 88 127 162t41 123q0 45 -31.5 66.5t-119.5 29.5q-168 16 -240 81t-72 198q0 92 30 197.5t82 213t119.5 209t141.5 189.5t146.5 154.5t134.5 103.5h-439l27 139h657l-24 -129q-78 -45 -159 -116.5t-160 -163t-146.5 -190.5t-119.5 -200.5t-80.5 -195.5 t-28.5 -170q0 -80 48 -117t171 -51q131 -16 188 -64.5t57 -138.5q0 -43 -11 -85t-37.5 -91t-75 -106.5t-117.5 -125.5z" />
<glyph unicode="&#x3b7;" horiz-adv-x="1171" d="M399 1018q-4 -121 -16 -220.5t-41 -197.5h2q37 84 86 163t110.5 140.5t132 98t150.5 36.5q141 0 192.5 -93t20.5 -253l-135 -704q-16 -82 -25.5 -149.5t-15.5 -127t-8 -113t0 -104.5h-168q-2 49 -1 98.5t6 106.5t14.5 123.5t25.5 150.5l129 680q23 123 1.5 179.5 t-93.5 56.5q-49 0 -98.5 -32t-96.5 -84t-89 -120.5t-76.5 -142.5t-59 -147.5t-37.5 -137.5l-41 -225h-172l97 500q12 61 19 127.5t12 134t5 132t-2 124.5h172z" />
<glyph unicode="&#x3b8;" horiz-adv-x="1144" d="M872 1018q4 174 -37.5 266t-138.5 92q-82 0 -132 -56t-50 -144q0 -80 60.5 -119t195.5 -39h102zM330 827q-27 -104 -41.5 -211.5t-14.5 -199.5q0 -141 38 -214t128 -73q96 0 171 70.5t124 184.5t79 240t42 248h-108q-197 0 -298.5 71t-101.5 204q0 74 24.5 139.5 t73 116.5t118 80.5t157.5 29.5q164 0 245 -108.5t81 -319.5v-67h38q43 0 83 -3t69 -11l-29 -140q-37 4 -81 6t-97 2q-20 -180 -69.5 -340.5t-128 -284.5t-185 -194.5t-233.5 -70.5q-164 0 -241 104t-77 305q0 102 17.5 214t46.5 222h170z" />
<glyph unicode="&#x3b9;" horiz-adv-x="544" d="M393 -4q-27 -6 -47 -8t-45 -2q-92 0 -134 40t-42 136q0 31 4 70.5t14 93.5l133 692h170l-124 -660q-10 -51 -16.5 -90t-6.5 -63q0 -39 13.5 -55.5t43.5 -16.5q33 0 52 4z" />
<glyph unicode="&#x3ba;" horiz-adv-x="983" d="M633 0l-281 524l-100 -524h-172l194 1018h172l-86 -453l494 498l125 -98l-449 -422l312 -543h-209z" />
<glyph unicode="&#x3bb;" horiz-adv-x="954" d="M780 248q12 -74 26.5 -94.5t43.5 -20.5q25 0 41 4l-25 -145q-16 -2 -36.5 -4t-38.5 -2q-39 0 -69 7t-52.5 26.5t-37 56.5t-22.5 94l-86 627h-2q-31 -86 -73.5 -186.5t-96 -209t-114 -220t-125.5 -218.5l-160 68q158 250 290 498.5t242 500.5l-18 131q-10 63 -25.5 104.5 t-36 63t-43 29.5t-49.5 8q-14 0 -30.5 -1t-32.5 -3l18 135q29 6 51.5 8t45.5 2q55 0 98 -13t75.5 -46t56 -92.5t38.5 -149.5z" />
<glyph unicode="&#x3bc;" horiz-adv-x="1177" d="M1036 -4q-25 -6 -48 -8t-42 -2q-84 0 -127 34.5t-43 120.5q0 51 14.5 118t47.5 153h-2q-37 -86 -84 -164t-103.5 -137.5t-120 -94t-131.5 -34.5q-145 0 -166 137q-2 -70 -4 -95.5t-4 -50.5q-16 -111 -24.5 -225.5t-8.5 -253.5h-170q2 182 19.5 332.5t40 259.5t64.5 286 t63 287l69 359h170l-110 -582q-16 -86 -18.5 -144.5t9 -94t35 -52t60.5 -16.5q68 0 139.5 64.5t135 168t109.5 219t64 212.5l41 225h172l-116 -612q-12 -68 -18.5 -120.5t-6.5 -82.5q0 -39 13.5 -54.5t43.5 -15.5q12 0 20.5 1t24.5 3z" />
<glyph unicode="&#x3bd;" horiz-adv-x="974" d="M422 338q0 -72 -6 -143h2q72 82 137.5 183t120.5 214t100 227.5t80 227.5l174 -43q-49 -137 -106.5 -268.5t-131 -261.5t-164.5 -251t-200 -223h-176v707q0 55 -9.5 92t-26.5 56t-37.5 26.5t-45.5 7.5q-12 0 -27.5 -1t-29.5 -3l22 137q31 4 55.5 7t49.5 3q51 0 91 -13 t68.5 -45t44 -84t15.5 -128v-424z" />
<glyph unicode="&#x3be;" horiz-adv-x="821" d="M711 -41q0 -43 -11.5 -85t-38 -91t-73.5 -106.5t-117 -125.5l-111 78q86 90 128 163t42 122q0 45 -34.5 66.5t-135.5 29.5q-164 18 -240.5 85t-76.5 192q0 82 24.5 158.5t71.5 141t112.5 111.5t145.5 70q-74 16 -113.5 69.5t-39.5 133.5q0 59 21.5 120.5t60.5 116t92 94 t112 58.5q-27 -2 -55.5 -3t-54.5 -1h-160l27 139h649l-27 -139h-41q-117 0 -203.5 -35t-141 -91t-80 -116.5t-25.5 -114.5q0 -68 47 -110.5t145 -42.5h162l-27 -139h-90q-119 0 -203.5 -34t-134 -90.5t-71 -120t-21.5 -126.5q0 -80 50.5 -119t175.5 -55q143 -18 201.5 -64.5 t58.5 -138.5z" />
<glyph unicode="&#x3bf;" horiz-adv-x="1091" d="M850 649q0 106 -55.5 174t-165.5 68q-94 0 -166 -47t-119 -124t-70.5 -169t-23.5 -182q0 -106 55 -173t166 -67q94 0 167 46t120 123t69.5 169t22.5 182zM1030 674q0 -133 -39 -257t-114.5 -222.5t-186 -155.5t-248.5 -57q-184 0 -278 98t-94 264q0 133 38.5 257 t114.5 222.5t186.5 155.5t247.5 57q92 0 163 -26.5t118 -74.5t69.5 -114.5t22.5 -146.5z" />
<glyph unicode="&#x3c0;" horiz-adv-x="1271" d="M1022 874q-37 -197 -53.5 -338t-16.5 -231q0 -96 19.5 -135t60.5 -39q45 0 88 12l-6 -141q-29 -8 -63.5 -12t-71.5 -4q-111 0 -157 64.5t-46 221.5q0 98 19.5 248t56.5 354h-340q-39 -233 -114.5 -460.5t-190.5 -436.5l-170 46q123 223 198.5 428.5t112.5 422.5h-248 l29 144h1176l-29 -144h-254z" />
<glyph unicode="&#x3c1;" horiz-adv-x="1075" d="M831 678q0 102 -43 157.5t-133 55.5q-70 0 -125 -34t-98 -92t-73.5 -130t-51 -149.5t-35 -147.5t-24.5 -143q37 -33 85 -51.5t107 -18.5q104 0 180 50t122 133t67.5 179.5t21.5 190.5zM418 -14q-66 0 -110 12t-81 39q-12 -121 -22 -264.5t-12 -278.5h-173q6 106 16.5 302 t31 362t62.5 323.5t112.5 283.5t180 198.5t259.5 72.5q158 0 243 -84t85 -260q0 -131 -35 -256t-107.5 -227.5t-185 -162.5t-264.5 -60z" />
<glyph unicode="&#x3c2;" horiz-adv-x="878" d="M698 -41q0 -43 -11 -85t-37.5 -91t-74 -106.5t-116.5 -125.5l-111 78q86 88 127 162t41 123q0 45 -31.5 66.5t-117.5 29.5q-152 16 -223.5 97t-71.5 219q0 113 33.5 234.5t103.5 230t182.5 176t261.5 67.5q68 0 120 -9t101 -26l-40 -149q-45 18 -94.5 28.5t-100.5 10.5 q-100 0 -174 -52.5t-121 -135.5t-68.5 -174t-21.5 -171q0 -90 46 -137t153 -57q131 -16 188 -64.5t57 -138.5z" />
<glyph unicode="&#x3c3;" horiz-adv-x="1153" d="M856 653q0 141 -76 236q-23 2 -47 2h-61q-92 0 -170 -41t-132.5 -113.5t-84 -166t-29.5 -197.5q0 -119 53 -181.5t168 -62.5q96 0 169 49t119 128t68.5 170t22.5 177zM1171 874q-66 0 -120 2.5t-86 6.5q29 -39 46 -97.5t17 -132.5q0 -125 -39 -244.5t-113.5 -217 t-184 -153.5t-245.5 -56q-186 0 -278 92t-92 270q0 156 46 284t131 219t199.5 140t247.5 49q66 0 233 -9t265 -9z" />
<glyph unicode="&#x3c4;" horiz-adv-x="727" d="M479 874l-100 -528q-12 -66 -15.5 -106.5t5 -64t27 -33t50.5 -9.5q14 0 34 2t38 6l-8 -143q-35 -6 -66.5 -10t-58.5 -4q-135 0 -177 74.5t-9 244.5l110 571h-231l28 144h666l-29 -144h-264z" />
<glyph unicode="&#x3c5;" horiz-adv-x="1155" d="M473 -18q-164 0 -235.5 72.5t-71.5 213.5q0 61 11 126t31.5 155t31 144.5t10.5 105.5q0 88 -74 88q-18 0 -55 -4l29 141q27 4 51 6t51 2q86 0 131 -45t45 -139q0 -68 -11 -133.5t-33 -157.5t-32 -149.5t-10 -114.5q0 -88 37 -128t123 -40q104 0 178 72.5t118 197.5 t65.5 283t25.5 340h178q-6 -231 -45 -420.5t-112.5 -328t-183.5 -213t-253 -74.5z" />
<glyph unicode="&#x3c6;" horiz-adv-x="1357" d="M1110 643q0 111 -39 179.5t-102 68.5q-37 0 -64.5 -16.5t-50.5 -56.5t-44.5 -110.5t-41.5 -181.5l-76 -393q98 10 176 56.5t132.5 118t82 158.5t27.5 177zM569 -516h-170l97 502q-201 8 -307.5 116.5t-106.5 288.5q0 100 27.5 202.5t87 196t150.5 166t214 109.5l33 -137 q-80 -25 -142.5 -76t-104.5 -119.5t-62.5 -148.5t-20.5 -162q0 -264 260 -289l78 408q27 141 65 237t87 152.5t108.5 80t132.5 23.5q137 0 217 -100t80 -264q0 -129 -44 -247t-127 -211t-199.5 -151.5t-255.5 -72.5z" />
<glyph unicode="&#x3c7;" horiz-adv-x="948" d="M766 -510q-18 -2 -41 -4t-41 -2q-55 0 -91 12t-62.5 47t-48 99.5t-40.5 175.5l-51 303l-405 -641l-166 49l522 768l-74 367q-14 74 -26.5 117.5t-27.5 67t-32.5 32t-44.5 8.5q-20 0 -37 -2l17 135q18 4 39.5 6t38.5 2q55 0 92 -12t64.5 -44t47 -88.5t35.5 -148.5l47 -276 l377 592l160 -58l-490 -714l80 -387q18 -90 32.5 -143.5t30 -80t32 -36t42.5 -9.5q20 0 37 2z" />
<glyph unicode="&#x3c8;" horiz-adv-x="1556" d="M676 -506h-170l94 490q-127 6 -211 33.5t-132 71.5t-67.5 102.5t-19.5 132.5q0 49 10 106t30.5 143t30 135.5t9.5 90.5q0 88 -74 88q-18 0 -55 -4l29 141q27 4 51 6t51 2q86 0 130 -45t44 -139q0 -55 -10 -116.5t-30.5 -149.5t-30 -137.5t-9.5 -90.5q0 -51 13.5 -91 t45 -68.5t86 -46t136.5 -23.5l237 1257h170l-237 -1257q123 10 212 55t151.5 144.5t96 269.5t35.5 424h176q-4 -256 -45 -442.5t-125 -313.5t-214 -195.5t-314 -82.5z" />
<glyph unicode="&#x3c9;" horiz-adv-x="1550" d="M956 -18q-113 0 -174 55t-63 153q-47 -96 -132 -152t-184 -56q-68 0 -126 21.5t-101 66.5t-66.5 114.5t-23.5 161.5q0 86 17.5 173t56.5 179.5t106.5 184.5t163.5 178q66 -39 129 -80q-82 -72 -139.5 -150.5t-91 -156.5t-49 -151.5t-15.5 -141.5q0 -111 47 -173.5 t127 -62.5q84 0 150.5 68t91.5 207l65 342h166l-65 -352q-4 -31 -7 -54.5t-3 -44.5q0 -82 37.5 -124t101.5 -42q74 0 134 46.5t103 122t65.5 167.5t22.5 181q0 92 -26.5 170.5t-81.5 154.5l156 74q61 -82 96 -174t35 -213q0 -147 -43 -275.5t-118 -222.5t-168.5 -144 t-193.5 -50z" />
<glyph unicode="&#x3ca;" horiz-adv-x="544" d="M393 -4q-27 -6 -47 -8t-45 -2q-92 0 -134 40t-42 136q0 31 4 70.5t14 93.5l133 692h170l-124 -660q-10 -51 -16.5 -90t-6.5 -63q0 -39 13.5 -55.5t43.5 -16.5q33 0 52 4zM360 1346q0 -47 -31.5 -79t-76.5 -32q-43 0 -73 29.5t-30 72.5q0 47 32 79t77 32q43 0 72.5 -29.5 t29.5 -72.5zM708 1346q0 -47 -31.5 -79t-76.5 -32q-43 0 -74 30.5t-31 71.5q0 47 33 79t78 32q43 0 72.5 -29.5t29.5 -72.5z" />
<glyph unicode="&#x3cb;" horiz-adv-x="1155" d="M473 -18q-164 0 -235.5 72.5t-71.5 213.5q0 61 11 126t31.5 155t31 144.5t10.5 105.5q0 88 -74 88q-18 0 -55 -4l29 141q27 4 51 6t51 2q86 0 131 -45t45 -139q0 -68 -11 -133.5t-33 -157.5t-32 -149.5t-10 -114.5q0 -88 37 -128t123 -40q104 0 178 72.5t118 197.5 t65.5 283t25.5 340h178q-6 -231 -45 -420.5t-112.5 -328t-183.5 -213t-253 -74.5zM633 1346q0 -47 -32 -79t-77 -32q-43 0 -72.5 29.5t-29.5 72.5q0 47 31.5 79t76.5 32q43 0 73 -29.5t30 -72.5zM1016 1346q0 -47 -32 -79t-77 -32q-43 0 -72.5 29.5t-29.5 72.5q0 47 31.5 79 t76.5 32q43 0 73 -29.5t30 -72.5z" />
<glyph unicode="&#x3cc;" horiz-adv-x="1091" d="M850 649q0 106 -55.5 174t-165.5 68q-94 0 -166 -47t-119 -124t-70.5 -169t-23.5 -182q0 -106 55 -173t166 -67q94 0 167 46t120 123t69.5 169t22.5 182zM1030 674q0 -133 -39 -257t-114.5 -222.5t-186 -155.5t-248.5 -57q-184 0 -278 98t-94 264q0 133 38.5 257 t114.5 222.5t186.5 155.5t247.5 57q92 0 163 -26.5t118 -74.5t69.5 -114.5t22.5 -146.5zM733 1149l-123 18l113 351l155 -19z" />
<glyph unicode="&#x3cd;" horiz-adv-x="1155" d="M473 -18q-164 0 -235.5 72.5t-71.5 213.5q0 61 11 126t31.5 155t31 144.5t10.5 105.5q0 88 -74 88q-18 0 -55 -4l29 141q27 4 51 6t51 2q86 0 131 -45t45 -139q0 -68 -11 -133.5t-33 -157.5t-32 -149.5t-10 -114.5q0 -88 37 -128t123 -40q104 0 178 72.5t118 197.5 t65.5 283t25.5 340h178q-6 -231 -45 -420.5t-112.5 -328t-183.5 -213t-253 -74.5zM756 1149l-123 18l113 351l155 -19z" />
<glyph unicode="&#x3ce;" horiz-adv-x="1550" d="M956 -18q-113 0 -174 55t-63 153q-47 -96 -132 -152t-184 -56q-68 0 -126 21.5t-101 66.5t-66.5 114.5t-23.5 161.5q0 86 17.5 173t56.5 179.5t106.5 184.5t163.5 178q66 -39 129 -80q-82 -72 -139.5 -150.5t-91 -156.5t-49 -151.5t-15.5 -141.5q0 -111 47 -173.5 t127 -62.5q84 0 150.5 68t91.5 207l65 342h166l-65 -352q-4 -31 -7 -54.5t-3 -44.5q0 -82 37.5 -124t101.5 -42q74 0 134 46.5t103 122t65.5 167.5t22.5 181q0 92 -26.5 170.5t-81.5 154.5l156 74q61 -82 96 -174t35 -213q0 -147 -43 -275.5t-118 -222.5t-168.5 -144 t-193.5 -50zM954 1149l-123 18l113 351l155 -19z" />
<glyph unicode="&#x3d1;" horiz-adv-x="1144" d="M872 1018q4 174 -37.5 266t-138.5 92q-82 0 -132 -56t-50 -144q0 -80 60.5 -119t195.5 -39h102zM330 827q-27 -104 -41.5 -211.5t-14.5 -199.5q0 -141 38 -214t128 -73q96 0 171 70.5t124 184.5t79 240t42 248h-108q-197 0 -298.5 71t-101.5 204q0 74 24.5 139.5 t73 116.5t118 80.5t157.5 29.5q164 0 245 -108.5t81 -319.5v-67h38q43 0 83 -3t69 -11l-29 -140q-37 4 -81 6t-97 2q-20 -180 -69.5 -340.5t-128 -284.5t-185 -194.5t-233.5 -70.5q-164 0 -241 104t-77 305q0 102 17.5 214t46.5 222h170z" />
<glyph unicode="&#x3d5;" horiz-adv-x="1357" d="M1110 643q0 111 -39 179.5t-102 68.5q-37 0 -64.5 -16.5t-50.5 -56.5t-44.5 -110.5t-41.5 -181.5l-76 -393q98 10 176 56.5t132.5 118t82 158.5t27.5 177zM569 -516h-170l97 502q-201 8 -307.5 116.5t-106.5 288.5q0 100 27.5 202.5t87 196t150.5 166t214 109.5l33 -137 q-80 -25 -142.5 -76t-104.5 -119.5t-62.5 -148.5t-20.5 -162q0 -264 260 -289l78 408q27 141 65 237t87 152.5t108.5 80t132.5 23.5q137 0 217 -100t80 -264q0 -129 -44 -247t-127 -211t-199.5 -151.5t-255.5 -72.5z" />
<glyph unicode="&#x1e02;" horiz-adv-x="1142" d="M844 453q0 96 -76 144t-242 48h-58.5t-50 -1t-38.5 -1l-94 -496q88 -10 164 -10q96 0 170.5 24.5t125 68.5t75 102t24.5 121zM918 1083q0 37 -12.5 67t-41 52.5t-76 34.5t-114.5 12q-39 0 -84 -2t-96 -4l-88 -463q18 0 38.5 -1t40 -1h47.5q104 0 179 25.5t120.5 70 t66 97.5t20.5 112zM1104 1114q0 -74 -23.5 -136.5t-64.5 -111.5t-93.5 -85t-111.5 -56v-2q102 -18 160.5 -87t58.5 -165q0 -94 -38 -180t-114.5 -152.5t-191.5 -105.5t-260 -39q-37 0 -102.5 1t-130 3t-111.5 2l262 1382q12 0 94 2t141.5 3.5t116.5 1.5q215 0 311.5 -75 t96.5 -200zM858 1606q0 -49 -33 -81t-78 -32t-73.5 28.5t-28.5 71.5q0 49 33 81t78 32q43 0 72.5 -29.5t29.5 -70.5z" />
<glyph unicode="&#x1e03;" horiz-adv-x="1099" d="M858 698q0 98 -27.5 144.5t-78.5 46.5q-47 0 -97.5 -31t-97.5 -84t-89 -120.5t-77 -142.5t-59.5 -147.5t-36.5 -134.5l-16 -88q68 -18 149 -18q111 0 194 51t135 135t76.5 185.5t24.5 203.5zM1036 729q0 -143 -37.5 -276.5t-116.5 -238.5t-201 -166.5t-284 -61.5 q-84 0 -161.5 8t-151.5 22l281 1479h172l-97 -498q-6 -31 -13 -63.5t-20.5 -77.5t-32 -108.5t-46.5 -149.5l4 -2q41 96 91 176t109.5 139.5t130 93t146.5 33.5q113 0 170 -75.5t57 -233.5zM604 1747q0 -49 -33 -81t-78 -32t-73.5 28.5t-28.5 71.5q0 49 33 81t78 32 q43 0 72.5 -29.5t29.5 -70.5z" />
<glyph unicode="&#x1e0a;" horiz-adv-x="1363" d="M1143 868q0 84 -21.5 151.5t-72 118t-134.5 78t-204 27.5q-51 0 -121 -2t-98 -4l-205 -1081q37 -6 85 -9.5t83 -3.5q178 0 311 62.5t216 168t122 233.5t39 261zM1329 887q0 -174 -55 -335t-168 -287t-283 -198.5t-393 -72.5q-63 0 -118.5 2t-123 3t-106.5 1l262 1382 q176 2 250 4.5t143 2.5q158 0 271.5 -36t184.5 -102.5t103.5 -157.5t32.5 -206zM922 1606q0 -49 -33 -81t-78 -32t-73.5 28.5t-28.5 71.5q0 49 33 81t78 32q43 0 72.5 -29.5t29.5 -70.5z" />
<glyph unicode="&#x1e0b;" horiz-adv-x="1099" d="M831 877q-37 8 -72.5 13t-76.5 5q-111 0 -195 -51t-136 -135t-76.5 -185.5t-24.5 -204.5q0 -98 28.5 -144t77.5 -46q72 0 145.5 65.5t138.5 169t111 218t64 211.5zM903 369q-8 -45 -16 -91.5t-17.5 -92.5t-17.5 -92t-16 -93h-170q10 63 38.5 163.5t79.5 260.5l-4 2 q-35 -74 -76.5 -147.5t-102 -142t-137.5 -112.5t-165 -44q-111 0 -168 75.5t-57 233.5q0 143 38 276t116.5 238.5t200.5 167t282 61.5q37 0 70.5 -3t76.5 -7l88 473h172zM1182 1747q0 -49 -33 -81t-78 -32t-73.5 28.5t-28.5 71.5q0 49 33 81t78 32q43 0 72.5 -29.5 t29.5 -70.5z" />
<glyph unicode="&#x1e0c;" horiz-adv-x="1363" d="M1143 868q0 84 -21.5 151.5t-72 118t-134.5 78t-204 27.5q-51 0 -121 -2t-98 -4l-205 -1081q37 -6 85 -9.5t83 -3.5q178 0 311 62.5t216 168t122 233.5t39 261zM1329 887q0 -174 -55 -335t-168 -287t-283 -198.5t-393 -72.5q-63 0 -118.5 2t-123 3t-106.5 1l262 1382 q176 2 250 4.5t143 2.5q158 0 271.5 -36t184.5 -102.5t103.5 -157.5t32.5 -206zM619 -315q0 -53 -35 -89t-84 -36t-81 33.5t-32 80.5q0 53 36 88t85 35t80 -33.5t31 -78.5z" />
<glyph unicode="&#x1e0d;" horiz-adv-x="1099" d="M831 877q-37 8 -72.5 13t-76.5 5q-111 0 -195 -51t-136 -135t-76.5 -185.5t-24.5 -204.5q0 -98 28.5 -144t77.5 -46q72 0 145.5 65.5t138.5 169t111 218t64 211.5zM903 369q-8 -45 -16 -91.5t-17.5 -92.5t-17.5 -92t-16 -93h-170q10 63 38.5 163.5t79.5 260.5l-4 2 q-35 -74 -76.5 -147.5t-102 -142t-137.5 -112.5t-165 -44q-111 0 -168 75.5t-57 233.5q0 143 38 276t116.5 238.5t200.5 167t282 61.5q37 0 70.5 -3t76.5 -7l88 473h172zM539 -315q0 -53 -35 -89t-84 -36t-81 33.5t-32 80.5q0 53 36 88t85 35t80 -33.5t31 -78.5z" />
<glyph unicode="&#x1e1e;" horiz-adv-x="948" d="M1018 1235h-526l-89 -461h488l-27 -143h-487l-121 -631h-174l262 1382h700zM846 1606q0 -49 -33 -81t-78 -32t-73.5 28.5t-28.5 71.5q0 49 33 81t78 32q43 0 72.5 -29.5t29.5 -70.5z" />
<glyph unicode="&#x1e1f;" horiz-adv-x="696" d="M913 1346q-35 10 -73.5 15t-69.5 5q-111 0 -175.5 -68.5t-92.5 -222.5l-10 -57h280l-24 -135h-283l-176 -938q-49 -248 -160 -357.5t-301 -109.5q-92 0 -168 18l39 146q37 -8 76 -13.5t67 -5.5q55 0 98.5 15.5t76 52.5t57 97t41.5 151l180 944h-211l27 135h211l12 67 q41 217 152.5 319.5t301.5 102.5q74 0 166 -18zM852 1747q0 -49 -33 -81t-78 -32t-73.5 28.5t-28.5 71.5q0 49 33 81t78 32q43 0 72.5 -29.5t29.5 -70.5z" />
<glyph unicode="&#x1e24;" horiz-adv-x="1404" d="M1137 0h-174l122 641h-706l-123 -641h-174l262 1382h174l-110 -589h704l113 589h174zM678 -315q0 -53 -35 -89t-84 -36t-81 33.5t-32 80.5q0 53 36 88t85 35t80 -33.5t31 -78.5z" />
<glyph unicode="&#x1e25;" horiz-adv-x="1155" d="M889 0h-170l123 653q23 123 1 179.5t-93 56.5q-70 0 -142.5 -64.5t-137 -168t-111 -219t-64.5 -212.5l-41 -225h-172l283 1495h172l-93 -483q-6 -33 -14 -68t-20.5 -81t-32 -109.5t-47.5 -147.5h4q39 86 87 163t108.5 138.5t131 96t148.5 34.5q137 0 189.5 -92t21.5 -256 zM555 -315q0 -53 -35 -89t-84 -36t-81 33.5t-32 80.5q0 53 36 88t85 35t80 -33.5t31 -78.5z" />
<glyph unicode="&#x1e36;" horiz-adv-x="856" d="M748 0h-666l262 1382h174l-231 -1232h487zM500 -315q0 -53 -35 -89t-84 -36t-81 33.5t-32 80.5q0 53 36 88t85 35t80 -33.5t31 -78.5z" />
<glyph unicode="&#x1e37;" horiz-adv-x="518" d="M252 0h-170l283 1495h170zM230 -315q0 -53 -35 -89t-84 -36t-81 33.5t-32 80.5q0 53 36 88t85 35t80 -33.5t31 -78.5z" />
<glyph unicode="&#x1e38;" horiz-adv-x="856" d="M748 0h-666l262 1382h174l-231 -1232h487zM961 1534h-551l24 121h549zM498 -315q0 -53 -35 -89t-84 -36t-81 33.5t-32 80.5q0 53 36 88t85 35t80 -33.5t31 -78.5z" />
<glyph unicode="&#x1e39;" horiz-adv-x="518" d="M252 0h-170l283 1495h170zM758 1640h-551l24 121h549zM230 -315q0 -53 -35 -89t-84 -36t-81 33.5t-32 80.5q0 53 36 88t85 35t80 -33.5t31 -78.5z" />
<glyph unicode="&#x1e40;" horiz-adv-x="1792" d="M1602 0h-179l45 823q6 115 16.5 215.5t20.5 180.5h-4q-23 -55 -56.5 -125t-76.5 -158l-498 -936h-161l-138 887q-14 102 -23 184t-11 148h-2q-18 -82 -46 -180.5t-65 -225.5l-244 -813h-174l438 1382h234l135 -893q8 -53 14.5 -116.5t8.5 -124.5h2q63 158 108 241 l479 893h256zM1214 1606q0 -49 -33 -81t-78 -32t-73.5 28.5t-28.5 71.5q0 49 33 81t78 32q43 0 72.5 -29.5t29.5 -70.5z" />
<glyph unicode="&#x1e41;" horiz-adv-x="1765" d="M1499 0h-172l125 653q23 123 1.5 180.5t-87.5 57.5q-61 0 -131 -57.5t-134.5 -154.5t-112.5 -217t-70 -237l-44 -225h-169l124 653q23 123 1.5 180.5t-87.5 57.5q-61 0 -130.5 -57.5t-135 -154.5t-114 -217t-70.5 -237l-41 -225h-172l102 530q8 43 15.5 83t15.5 81 t15.5 82t14.5 81t15 81t14 80h172q-14 -68 -40.5 -166t-73.5 -246h4q37 86 84 163t106.5 137.5t130 96t146.5 35.5q98 0 150.5 -52t52.5 -146q0 -47 -11.5 -98.5t-40.5 -137.5l4 -2q37 88 85.5 166t107.5 139.5t129 96t147 34.5q133 0 184.5 -91t20.5 -255zM1159 1354 q0 -53 -35.5 -88t-85.5 -35q-49 0 -79.5 31.5t-30.5 76.5q0 51 35.5 86t85.5 35q47 0 78.5 -31.5t31.5 -74.5z" />
<glyph unicode="&#x1e42;" horiz-adv-x="1792" d="M1602 0h-179l45 823q6 115 16.5 215.5t20.5 180.5h-4q-23 -55 -56.5 -125t-76.5 -158l-498 -936h-161l-138 887q-14 102 -23 184t-11 148h-2q-18 -82 -46 -180.5t-65 -225.5l-244 -813h-174l438 1382h234l135 -893q8 -53 14.5 -116.5t8.5 -124.5h2q63 158 108 241 l479 893h256zM867 -301q0 -53 -35 -89t-84 -36t-81 33.5t-32 80.5q0 53 36 88t85 35t80 -33.5t31 -78.5z" />
<glyph unicode="&#x1e43;" horiz-adv-x="1765" d="M1499 0h-172l125 653q23 123 1.5 180.5t-87.5 57.5q-61 0 -131 -57.5t-134.5 -154.5t-112.5 -217t-70 -237l-44 -225h-169l124 653q23 123 1.5 180.5t-87.5 57.5q-61 0 -130.5 -57.5t-135 -154.5t-114 -217t-70.5 -237l-41 -225h-172l102 530q8 43 15.5 83t15.5 81 t15.5 82t14.5 81t15 81t14 80h172q-14 -68 -40.5 -166t-73.5 -246h4q37 86 84 163t106.5 137.5t130 96t146.5 35.5q98 0 150.5 -52t52.5 -146q0 -47 -11.5 -98.5t-40.5 -137.5l4 -2q37 88 85.5 166t107.5 139.5t129 96t147 34.5q133 0 184.5 -91t20.5 -255zM863 -315 q0 -53 -35 -89t-84 -36t-81 33.5t-32 80.5q0 53 36 88t85 35t80 -33.5t31 -78.5z" />
<glyph unicode="&#x1e44;" horiz-adv-x="1376" d="M926 0l-371 907q-57 139 -92 275q-8 -55 -24.5 -152.5t-35 -208t-39 -224.5t-38.5 -204l-74 -393h-170l262 1382h166h59l363 -886q23 -59 42 -118t36 -120q8 66 23.5 160t33.5 198.5t37.5 212t38.5 199.5l67 354h168l-262 -1382h-162h-28zM981 1606q0 -49 -33 -81 t-78 -32t-73.5 28.5t-28.5 71.5q0 49 33 81t78 32q43 0 72.5 -29.5t29.5 -70.5z" />
<glyph unicode="&#x1e45;" horiz-adv-x="1155" d="M887 0h-170l125 653q23 123 1 179.5t-93 56.5q-70 0 -144 -64.5t-138.5 -168t-110.5 -219t-64 -212.5l-41 -225h-172l102 530q8 43 15.5 83t15.5 81t15.5 82t14.5 81t15 81t14 80h172q-14 -68 -40.5 -165t-73.5 -247h4q39 86 87 163t107.5 138.5t130 96t148.5 34.5 q139 0 191.5 -91t21.5 -255zM813 1350q0 -53 -35.5 -88t-85.5 -35q-49 0 -79.5 31.5t-30.5 76.5q0 51 35.5 86t85.5 35q47 0 78.5 -31.5t31.5 -74.5z" />
<glyph unicode="&#x1e46;" horiz-adv-x="1376" d="M926 0l-371 907q-57 139 -92 275q-8 -55 -24.5 -152.5t-35 -208t-39 -224.5t-38.5 -204l-74 -393h-170l262 1382h166h59l363 -886q23 -59 42 -118t36 -120q8 66 23.5 160t33.5 198.5t37.5 212t38.5 199.5l67 354h168l-262 -1382h-162h-28zM676 -315q0 -53 -35 -89 t-84 -36t-81 33.5t-32 80.5q0 53 36 88t85 35t80 -33.5t31 -78.5z" />
<glyph unicode="&#x1e47;" horiz-adv-x="1155" d="M887 0h-170l125 653q23 123 1 179.5t-93 56.5q-70 0 -144 -64.5t-138.5 -168t-110.5 -219t-64 -212.5l-41 -225h-172l102 530q8 43 15.5 83t15.5 81t15.5 82t14.5 81t15 81t14 80h172q-14 -68 -40.5 -165t-73.5 -247h4q39 86 87 163t107.5 138.5t130 96t148.5 34.5 q139 0 191.5 -91t21.5 -255zM557 -315q0 -53 -35 -89t-84 -36t-81 33.5t-32 80.5q0 53 36 88t85 35t80 -33.5t31 -78.5z" />
<glyph unicode="&#x1e56;" horiz-adv-x="1103" d="M948 1016q0 102 -70.5 164.5t-226.5 62.5q-53 0 -97 -1t-62 -1l-115 -606q84 -12 155 -12q106 0 185.5 34.5t130.5 92t75.5 127t24.5 139.5zM1130 1038q0 -109 -41.5 -210t-122.5 -181t-199 -125t-261 -45q-53 0 -96 2t-62 4l-92 -483h-174l262 1382q20 0 95 2t124 3.5 t119 1.5q221 0 334.5 -96.5t113.5 -254.5zM852 1606q0 -49 -33 -81t-78 -32t-73.5 28.5t-28.5 71.5q0 49 33 81t78 32q43 0 72.5 -29.5t29.5 -70.5z" />
<glyph unicode="&#x1e57;" horiz-adv-x="1099" d="M860 698q0 98 -28.5 144.5t-77.5 46.5t-98.5 -31t-96.5 -84t-89 -120.5t-77 -142.5t-59.5 -147.5t-36.5 -134.5l-16 -79q31 -12 73.5 -19.5t75.5 -7.5q111 0 193 51t135 136t77.5 185.5t24.5 202.5zM1036 729q0 -143 -37.5 -276.5t-116.5 -238.5t-201 -166.5t-284 -61.5 q-49 0 -147 12l-94 -504h-172l198 1034q4 20 14.5 77t17.5 94.5t14.5 77.5t15.5 80t15 81t13 80h172q-8 -35 -16 -73t-21.5 -86t-32 -111.5t-44.5 -147.5l4 -2q39 94 89 174t110.5 139.5t130 93t145.5 33.5q113 0 170 -75.5t57 -233.5zM887 1354q0 -53 -35.5 -88t-85.5 -35 q-49 0 -79.5 31.5t-30.5 76.5q0 51 35.5 86t85.5 35q47 0 78.5 -31.5t31.5 -74.5z" />
<glyph unicode="&#x1e5a;" horiz-adv-x="1136" d="M913 1057q0 88 -64.5 138t-199.5 50q-47 0 -92 -2t-65 -4l-95 -500q18 0 58.5 -1t89.5 -1q98 0 169.5 29t115.5 75t63.5 102.5t19.5 113.5zM1100 1090q0 -80 -26.5 -157t-81 -142.5t-138.5 -109.5t-195 -60q10 -16 34 -56.5t48 -87.5l250 -477h-211l-307 602h-102 l-115 -602h-174l262 1380q18 0 97 2t123 4.5t116 2.5q201 0 310.5 -78t109.5 -221zM605 -315q0 -53 -35 -89t-84 -36t-81 33.5t-32 80.5q0 53 36 88t85 35t80 -33.5t31 -78.5z" />
<glyph unicode="&#x1e5b;" horiz-adv-x="714" d="M741 866q-68 18 -139.5 -36t-133.5 -154.5t-107.5 -219t-65.5 -225.5l-43 -231h-172l102 530q27 139 48.5 257t41.5 231h170q-14 -74 -39.5 -165t-68.5 -218l4 -2q49 104 94 180t97.5 131t114 80t132.5 12zM226 -315q0 -53 -35 -89t-84 -36t-81 33.5t-32 80.5q0 53 36 88 t85 35t80 -33.5t31 -78.5z" />
<glyph unicode="&#x1e5c;" horiz-adv-x="1136" d="M913 1057q0 88 -64.5 138t-199.5 50q-47 0 -92 -2t-65 -4l-95 -500q18 0 58.5 -1t89.5 -1q98 0 169.5 29t115.5 75t63.5 102.5t19.5 113.5zM1100 1090q0 -80 -26.5 -157t-81 -142.5t-138.5 -109.5t-195 -60q10 -16 34 -56.5t48 -87.5l250 -477h-211l-307 602h-102 l-115 -602h-174l262 1380q18 0 97 2t123 4.5t116 2.5q201 0 310.5 -78t109.5 -221zM1004 1534h-551l24 121h549zM605 -315q0 -53 -35 -89t-84 -36t-81 33.5t-32 80.5q0 53 36 88t85 35t80 -33.5t31 -78.5z" />
<glyph unicode="&#x1e5d;" horiz-adv-x="714" d="M741 866q-68 18 -139.5 -36t-133.5 -154.5t-107.5 -219t-65.5 -225.5l-43 -231h-172l102 530q27 139 48.5 257t41.5 231h170q-14 -74 -39.5 -165t-68.5 -218l4 -2q49 104 94 180t97.5 131t114 80t132.5 12zM798 1268h-502l25 129h502zM228 -315q0 -53 -35 -89t-84 -36 t-81 33.5t-32 80.5q0 53 36 88t85 35t80 -33.5t31 -78.5z" />
<glyph unicode="&#x1e60;" horiz-adv-x="1011" d="M938 1217q-53 16 -117.5 26t-124.5 10q-76 0 -134 -19.5t-97 -51t-57.5 -72.5t-18.5 -86q0 -59 34 -103t71.5 -70t129 -79t144.5 -97t87 -107.5t34 -151.5q0 -86 -35 -164t-104.5 -139.5t-173 -96t-232.5 -34.5q-86 0 -169 10t-148 28l49 170q66 -27 140.5 -41t158.5 -14 q156 0 243 74t87 184q0 61 -34 108.5t-76 76t-129 80t-138.5 93.5t-85 104.5t-33.5 145.5q0 80 33.5 152t100.5 128t164 88t218 32q61 0 130 -7.5t128 -19.5zM825 1610q0 -49 -33 -81t-78 -32t-73.5 28.5t-28.5 71.5q0 49 33 81t78 32q43 0 72.5 -29.5t29.5 -70.5z" />
<glyph unicode="&#x1e61;" horiz-adv-x="802" d="M705 877q-82 25 -166 24q-98 0 -152.5 -41t-54.5 -108q0 -39 22.5 -72t48 -53.5t87 -64.5t96.5 -77.5t57.5 -80t22.5 -103.5q0 -63 -27 -120.5t-81 -102.5t-136 -70.5t-189 -25.5q-119 0 -215 22l37 154q98 -35 205 -35q106 0 165.5 42t59.5 122q0 39 -22.5 71.5t-47 53 t-86 64.5t-96 78t-57 80t-22.5 103q0 59 26.5 113.5t77.5 96.5t126 65.5t169 23.5q43 0 89 -4t93 -12zM659 1354q0 -53 -35.5 -88t-85.5 -35q-49 0 -79.5 31.5t-30.5 76.5q0 51 35.5 86t85.5 35q47 0 78.5 -31.5t31.5 -74.5z" />
<glyph unicode="&#x1e62;" horiz-adv-x="927" d="M938 1217q-53 16 -117.5 26t-124.5 10q-76 0 -134 -19.5t-97 -51t-57.5 -72.5t-18.5 -86q0 -59 34 -103t71.5 -70t129 -79t144.5 -97t87 -107.5t34 -151.5q0 -86 -35 -164t-104.5 -139.5t-173 -96t-232.5 -34.5q-86 0 -169 10t-148 28l49 170q66 -27 140.5 -41t158.5 -14 q156 0 243 74t87 184q0 61 -34 108.5t-76 76t-129 80t-138.5 93.5t-85 104.5t-33.5 145.5q0 80 33.5 152t100.5 128t164 88t218 32q61 0 130 -7.5t128 -19.5zM478 -317q0 -53 -35 -89t-84 -36t-81 33.5t-32 80.5q0 53 36 88t85 35t80 -33.5t31 -78.5z" />
<glyph unicode="&#x1e63;" horiz-adv-x="782" d="M705 877q-82 25 -166 24q-98 0 -152.5 -41t-54.5 -108q0 -39 22.5 -72t48 -53.5t87 -64.5t96.5 -77.5t57.5 -80t22.5 -103.5q0 -63 -27 -120.5t-81 -102.5t-136 -70.5t-189 -25.5q-119 0 -215 22l37 154q98 -35 205 -35q106 0 165.5 42t59.5 122q0 39 -22.5 71.5t-47 53 t-86 64.5t-96 78t-57 80t-22.5 103q0 59 26.5 113.5t77.5 96.5t126 65.5t169 23.5q43 0 89 -4t93 -12zM371 -315q0 -53 -35 -89t-84 -36t-81 33.5t-32 80.5q0 53 36 88t85 35t80 -33.5t31 -78.5z" />
<glyph unicode="&#x1e6a;" horiz-adv-x="1038" d="M1143 1233h-395l-234 -1233h-174l233 1233h-395l29 149h964zM838 1606q0 -49 -33 -81t-78 -32t-73.5 28.5t-28.5 71.5q0 49 33 81t78 32q43 0 72.5 -29.5t29.5 -70.5z" />
<glyph unicode="&#x1e6b;" horiz-adv-x="745" d="M743 883h-282l-105 -549q-23 -117 -2 -159t99 -42q41 0 74.5 4t64.5 13l-8 -146q-45 -10 -95.5 -15t-93.5 -5q-78 0 -127 19.5t-74.5 58t-28.5 99t13 148.5l111 574h-209l24 135h211l64 334l178 41l-72 -375h283zM619 1606q0 -49 -33 -81t-78 -32t-73.5 28.5t-28.5 71.5 q0 49 33 81t78 32q43 0 72.5 -29.5t29.5 -70.5z" />
<glyph unicode="&#x1e6c;" horiz-adv-x="1036" d="M1143 1233h-395l-234 -1233h-174l233 1233h-395l29 149h964zM484 -315q0 -53 -35 -89t-84 -36t-81 33.5t-32 80.5q0 53 36 88t85 35t80 -33.5t31 -78.5z" />
<glyph unicode="&#x1e6d;" horiz-adv-x="745" d="M743 883h-282l-105 -549q-23 -117 -2 -159t99 -42q41 0 74.5 4t64.5 13l-8 -146q-45 -10 -95.5 -15t-93.5 -5q-78 0 -127 19.5t-74.5 58t-28.5 99t13 148.5l111 574h-209l24 135h211l64 334l178 41l-72 -375h283zM390 -315q0 -53 -35 -89t-84 -36t-81 33.5t-32 80.5 q0 53 36 88t85 35t80 -33.5t31 -78.5z" />
<glyph unicode="&#x1e80;" horiz-adv-x="1916" d="M1391 0h-215l-89 928q-8 117 -2 209h-4q-63 -170 -82 -209l-432 -928h-225l-100 1382h184l63 -913q4 -76 5.5 -145.5t-0.5 -147.5h2q27 76 54.5 146.5t57.5 136.5l434 923h177l88 -938q4 -63 7 -133.5t3 -134.5h2q20 61 43.5 122.5t48.5 125.5l430 958h174zM1243 1487 l-354 119l74 133l331 -152z" />
<glyph unicode="&#x1e81;" horiz-adv-x="1589" d="M1143 0h-195l-86 623q-6 49 -9 101t-5 103h-2q-29 -66 -59.5 -131t-61.5 -131l-279 -565h-198l-113 1018h187l51 -578q6 -70 10 -135t8 -121h2q25 61 54.5 128t58.5 128l289 578h190l70 -578q10 -92 14 -148t6 -110h4q25 59 51.5 119.5t63.5 138.5l297 621l162 -55z M946 1167l-227 269l119 100l209 -287z" />
<glyph unicode="&#x1e82;" horiz-adv-x="1916" d="M1391 0h-215l-89 928q-8 117 -2 209h-4q-63 -170 -82 -209l-432 -928h-225l-100 1382h184l63 -913q4 -76 5.5 -145.5t-0.5 -147.5h2q27 76 54.5 146.5t57.5 136.5l434 923h177l88 -938q4 -63 7 -133.5t3 -134.5h2q20 61 43.5 122.5t48.5 125.5l430 958h174zM1059 1487 l-16 104l385 148l27 -140z" />
<glyph unicode="&#x1e83;" horiz-adv-x="1589" d="M1143 0h-195l-86 623q-6 49 -9 101t-5 103h-2q-29 -66 -59.5 -131t-61.5 -131l-279 -565h-198l-113 1018h187l51 -578q6 -70 10 -135t8 -121h2q25 61 54.5 128t58.5 128l289 578h190l70 -578q10 -92 14 -148t6 -110h4q25 59 51.5 119.5t63.5 138.5l297 621l162 -55z M874 1167l-69 88l301 281l92 -111z" />
<glyph unicode="&#x1e84;" horiz-adv-x="1916" d="M1391 0h-215l-89 928q-8 117 -2 209h-4q-63 -170 -82 -209l-432 -928h-225l-100 1382h184l63 -913q4 -76 5.5 -145.5t-0.5 -147.5h2q27 76 54.5 146.5t57.5 136.5l434 923h177l88 -938q4 -63 7 -133.5t3 -134.5h2q20 61 43.5 122.5t48.5 125.5l430 958h174zM1487 1602 q0 -45 -32 -77t-75 -32t-70.5 28.5t-27.5 71.5q0 45 30.5 77t73.5 32t72 -29.5t29 -70.5zM1059 1602q0 -45 -31 -77t-74 -32t-71.5 29.5t-28.5 70.5q0 45 30.5 77t73.5 32t72 -28.5t29 -71.5z" />
<glyph unicode="&#x1e85;" horiz-adv-x="1589" d="M1143 0h-195l-86 623q-6 49 -9 101t-5 103h-2q-29 -66 -59.5 -131t-61.5 -131l-279 -565h-198l-113 1018h187l51 -578q6 -70 10 -135t8 -121h2q25 61 54.5 128t58.5 128l289 578h190l70 -578q10 -92 14 -148t6 -110h4q25 59 51.5 119.5t63.5 138.5l297 621l162 -55z M864 1346q0 -47 -31.5 -79t-76.5 -32q-43 0 -73 29.5t-30 72.5q0 47 32 79t77 32q43 0 72.5 -29.5t29.5 -72.5zM1247 1346q0 -47 -31.5 -79t-76.5 -32q-43 0 -73 29.5t-30 72.5q0 47 32 79t77 32q43 0 72.5 -29.5t29.5 -72.5z" />
<glyph unicode="&#x1ef2;" horiz-adv-x="1071" d="M629 535l-101 -535h-174l101 535l-279 847h186l150 -458q20 -72 33.5 -123t25.5 -105h2q37 61 77 121t77 115l317 450h193zM712 1487l-354 119l74 133l331 -152z" />
<glyph unicode="&#x1ef3;" horiz-adv-x="956" d="M1012 1010q-96 -227 -194.5 -430t-195 -375t-192.5 -308.5t-190 -230.5q-98 -98 -191.5 -143t-204.5 -45h-26.5t-22.5 2q-12 2 -22 4l28 151q12 -2 25 -4q10 -2 24.5 -3t30.5 -1q59 0 112.5 27t106.5 78q39 39 67 80t46 88t26.5 104t8.5 129q0 166 -36 399.5t-97 485.5 h190q20 -98 40 -202.5t33 -202t21.5 -180.5t8.5 -136q0 -72 -6.5 -122t-16.5 -95h4q23 45 46.5 90t45.5 88q92 174 180.5 367.5t186.5 433.5zM571 1167l-227 269l119 100l209 -287z" />
<glyph unicode="&#x2012;" d="M1036 535h-932l29 151h932z" />
<glyph unicode="&#x2013;" d="M1133 535h-1127l29 151h1126z" />
<glyph unicode="&#x2014;" horiz-adv-x="2048" d="M1810 535h-1560l29 151h1562z" />
<glyph unicode="&#x2015;" horiz-adv-x="2048" d="M1810 535h-1560l29 151h1562z" />
<glyph unicode="&#x2018;" horiz-adv-x="483" d="M586 1456q-117 -98 -143.5 -167.5t1.5 -123.5q16 -27 16.5 -56.5t-14 -54t-39 -40t-57.5 -15.5q-55 0 -90 45.5t-24.5 119t76 170t208.5 198.5z" />
<glyph unicode="&#x2019;" horiz-adv-x="483" d="M186 1063q117 98 143.5 169t-1.5 124q-16 27 -15.5 55.5t14 53t38 40t57.5 15.5q55 0 90 -45t24.5 -119t-76 -170t-208.5 -199z" />
<glyph unicode="&#x201a;" horiz-adv-x="483" d="M-55 -233q117 98 143.5 167.5t-4.5 122.5q-14 27 -14 55.5t13 53t37.5 41t59.5 16.5q55 0 90 -45t25 -118.5t-75.5 -170t-209.5 -198.5z" />
<glyph unicode="&#x201c;" horiz-adv-x="856" d="M965 1458q-117 -98 -143.5 -167.5t3.5 -123.5q14 -27 14.5 -56.5t-13 -54t-38 -40t-57.5 -15.5q-57 0 -91 45.5t-23.5 119t76 170t208.5 198.5zM584 1458q-117 -98 -143.5 -167.5t3.5 -123.5q14 -27 14.5 -56.5t-13 -54t-38 -40t-57.5 -15.5q-57 0 -91 45.5t-23.5 119 t76 170t208.5 198.5z" />
<glyph unicode="&#x201d;" horiz-adv-x="856" d="M565 1063q117 98 143.5 169t-1.5 124q-16 27 -15.5 55.5t14 53t38 40t57.5 15.5q57 0 91 -45t23.5 -119t-76 -170t-208.5 -199zM186 1063q117 98 143.5 169t-1.5 124q-16 27 -15.5 55.5t14 53t38 40t57.5 15.5q55 0 90 -45t24.5 -119t-76 -170t-208.5 -199z" />
<glyph unicode="&#x201e;" horiz-adv-x="856" d="M317 -233q57 49 92 91t50.5 77.5t13.5 65.5t-16 56q-14 27 -14.5 55.5t13 53t38 41t57.5 16.5q55 0 89 -45t22.5 -118.5t-76 -170t-205.5 -198.5zM-57 -233q57 49 92 91t50 77.5t13 65.5t-16 56q-14 27 -14 55.5t13 53t37.5 41t57.5 16.5q55 0 89 -45t24 -118.5t-76 -170 t-207 -198.5z" />
<glyph unicode="&#x2020;" horiz-adv-x="897" d="M924 1147h-283l-6 -203l-135 -512h-127l61 512l72 203h-283l27 135h282l21 281h201l-86 -281h282z" />
<glyph unicode="&#x2021;" horiz-adv-x="897" d="M926 1159h-281l-8 -209l-70 -207h281l-27 -135h-280l-21 -268h-201l84 268h-280l27 135h280l6 207l72 209h-281l25 135h283l18 269h201l-82 -269h280z" />
<glyph unicode="&#x2022;" horiz-adv-x="860" d="M692 618q0 -51 -19.5 -97t-53 -80.5t-78.5 -53t-95 -18.5q-49 0 -92 18.5t-74.5 50t-49 73.5t-17.5 87q0 51 19.5 97t53 81t79 53.5t94.5 18.5q47 0 90 -18.5t75.5 -50t50 -74t17.5 -87.5z" />
<glyph unicode="&#x2026;" horiz-adv-x="1320" d="M264 106q0 -53 -35.5 -88.5t-85.5 -35.5q-47 0 -79.5 33.5t-32.5 78.5q0 55 36.5 91t86.5 36q47 0 78.5 -34t31.5 -81zM692 106q0 -53 -37 -88.5t-86 -35.5q-47 0 -78.5 33.5t-31.5 78.5q0 55 36.5 91t86.5 36q47 0 78.5 -34t31.5 -81zM1118 106q0 -53 -35.5 -88.5 t-85.5 -35.5q-47 0 -79.5 33.5t-32.5 78.5q0 55 36.5 91t86.5 36q47 0 78.5 -34t31.5 -81z" />
<glyph unicode="&#x2030;" horiz-adv-x="2056" d="M1915 389q0 -82 -24.5 -155.5t-70.5 -130t-108.5 -89t-138.5 -32.5q-106 0 -164.5 51t-58.5 162q0 78 24.5 151.5t70.5 131t109.5 91t139.5 33.5q104 0 162.5 -51t58.5 -162zM766 1188q0 -82 -24.5 -156t-70.5 -130t-108.5 -89t-138.5 -33q-104 0 -162.5 52.5 t-58.5 160.5q0 78 24.5 152t69.5 131t108.5 91t139.5 34q104 0 162.5 -51t58.5 -162zM123 -33l-90 88l1321 1358l90 -88zM1278 389q0 -82 -24.5 -155.5t-70.5 -130t-109.5 -89t-139.5 -32.5q-106 0 -163.5 51t-57.5 162q0 78 24.5 151.5t69.5 131t108.5 91t139.5 33.5 q104 0 163.5 -51t59.5 -162zM1778 377q0 55 -24.5 81.5t-76.5 26.5q-47 0 -84 -26.5t-59.5 -69.5t-33.5 -91t-11 -91q0 -109 100 -109q47 0 84 27t59.5 69t34 90t11.5 93zM629 1176q0 109 -101 108q-47 0 -83.5 -26.5t-59.5 -68.5t-34 -90t-11 -93q0 -109 100 -109 q49 0 85 26.5t59.5 68.5t34 90.5t10.5 93.5zM1139 377q0 109 -101 108q-47 0 -83.5 -26.5t-59.5 -69.5t-34 -91t-11 -91q0 -109 100 -109q49 0 85 27t59.5 69t34 90t10.5 93z" />
<glyph unicode="&#x2039;" horiz-adv-x="628" d="M301 600l143 -289l-137 -71l-176 368l307 361l117 -76z" />
<glyph unicode="&#x203a;" horiz-adv-x="628" d="M233 240l-116 75l254 293l-142 289l140 72l172 -369z" />
<glyph unicode="&#x203d;" horiz-adv-x="1026" d="M338 340l143 842q-53 -2 -119.5 -9.5t-146.5 -23.5l25 147q72 14 138 20.5t126 10.5l18 117h195l-25 -117q90 -8 153.5 -33.5t104.5 -62.5t60.5 -83t19.5 -97q0 -88 -34.5 -149.5t-90 -110t-121 -91.5t-126 -93t-108.5 -113.5t-67 -153.5h-145zM557 690q49 49 100.5 87 t94.5 75t70.5 79t27.5 103q0 51 -39 93t-149 55zM479 102q0 -53 -35.5 -86.5t-85.5 -33.5q-51 0 -82.5 32.5t-31.5 79.5q0 53 35.5 88t85.5 35q51 0 82.5 -34t31.5 -81z" />
<glyph unicode="&#x2044;" horiz-adv-x="417" d="M-498 -287l-98 80l1632 1852l97 -80z" />
<glyph unicode="&#x2070;" horiz-adv-x="876" d="M932 1327q0 -82 -20.5 -181t-70.5 -193.5t-140.5 -157t-219.5 -62.5q-139 0 -208.5 75t-69.5 212q0 51 8 112.5t27.5 128t53.5 129t84 113.5t120.5 81t158.5 30q137 0 207 -75t70 -212zM504 856q78 0 130 52.5t81.5 130t41 152.5t11.5 124q0 88 -34 132t-101 44 q-78 0 -130 -52.5t-82 -130t-41 -152.5t-11 -124q0 -176 135 -176z" />
<glyph unicode="&#x2074;" horiz-adv-x="776" d="M678 938l-37 -190h-152l39 190h-391l10 115l428 546h230l-100 -530h133l-25 -131h-135zM631 1487l-330 -422q25 2 58.5 3t69.5 1h64.5h59.5z" />
<glyph unicode="&#x2075;" horiz-adv-x="684" d="M180 874q33 -10 71 -17t77 -7q94 0 152.5 55.5t58.5 136.5q0 53 -41 82t-125 29q-31 0 -62.5 -1t-60.5 -5l88 452h434l-27 -131h-284l-39 -198q61 2 113.5 -8.5t91.5 -35t61.5 -64.5t22.5 -99q0 -66 -26 -125t-76 -105.5t-123.5 -73t-168.5 -26.5q-47 0 -90 5t-75 14z " />
<glyph unicode="&#x2076;" horiz-adv-x="804" d="M831 1079q0 -74 -27.5 -137t-78.5 -110.5t-120.5 -73t-149.5 -25.5q-127 0 -189.5 66.5t-62.5 191.5q0 55 10 121t34.5 135.5t64.5 135t99.5 117.5t141.5 83t184 31q29 0 64 -2t59 -6l-29 -119q-57 10 -114 10q-133 0 -219 -86q-23 -23 -40.5 -51.5t-29.5 -53t-26.5 -56 t-18.5 -40.5q33 35 91 56.5t116 21.5q115 0 177 -58.5t64 -150.5zM475 848q88 0 142.5 61.5t54.5 153.5q0 51 -31 82t-92 31q-49 0 -87 -17.5t-62.5 -46.5t-36 -62.5t-11.5 -66.5q0 -135 123 -135z" />
<glyph unicode="&#x2077;" horiz-adv-x="653" d="M780 1475q-51 -76 -104 -165t-104.5 -186.5t-97.5 -192.5t-81 -183h-182q43 96 95 199.5t107.5 201.5t105.5 179t91 136q-10 0 -51 -1t-96 -1h-107.5h-115.5l24 137h539z" />
<glyph unicode="&#x2078;" horiz-adv-x="782" d="M791 1006q0 -53 -21.5 -102.5t-66 -88.5t-112 -61.5t-155.5 -22.5q-129 0 -197.5 50t-68.5 137q0 80 53 142t160 122q-61 39 -88 80t-27 94q0 47 19.5 93t60.5 84t105.5 60.5t150.5 22.5q123 0 188.5 -49t65.5 -133q0 -70 -49 -129.5t-147 -116.5q68 -39 98.5 -82 t30.5 -100zM539 1247q88 47 127 87t39 85q0 41 -32 63.5t-89 22.5q-82 0 -122 -39t-40 -88q0 -72 117 -131zM459 842q86 0 131 42t45 95q0 80 -131 141q-102 -49 -141 -94t-39 -90q0 -43 33.5 -68.5t101.5 -25.5z" />
<glyph unicode="&#x2079;" horiz-adv-x="802" d="M864 1360q0 -51 -10 -115.5t-32.5 -134.5t-61.5 -137.5t-98.5 -121.5t-142.5 -86t-187 -32q-41 0 -85 4t-71 11l29 120q29 -8 67.5 -13t71.5 -5q76 0 128 20.5t95 65.5q23 23 40.5 51.5t28.5 54t25.5 59.5t18.5 42q-31 -37 -88 -60.5t-115 -23.5q-117 0 -177 57.5 t-60 151.5q0 66 23.5 128t70.5 111t117.5 78t158.5 29q125 0 189.5 -65.5t64.5 -188.5zM516 1171q49 0 87 18.5t62.5 47.5t36 63.5t11.5 65.5q0 131 -123 131q-88 0 -140.5 -62.5t-52.5 -154.5q0 -49 30 -79t89 -30z" />
<glyph unicode="&#x207a;" horiz-adv-x="802" d="M584 1096l-47 -244h-134l46 244h-242l22 116h242l47 244h135l-47 -244h244l-25 -116h-241z" />
<glyph unicode="&#x207b;" horiz-adv-x="802" d="M825 1096h-618l22 116h621z" />
<glyph unicode="&#x207c;" horiz-adv-x="802" d="M176 936l23 115h618l-20 -115h-621zM240 1257l20 117h621l-23 -117h-618z" />
<glyph unicode="&#x207d;" horiz-adv-x="610" d="M352 451q-41 106 -63.5 216.5t-22.5 223.5q0 111 19.5 227.5t60.5 240.5t107.5 249t156.5 245l140 -41q-166 -219 -245 -458.5t-79 -462.5q0 -211 70 -406z" />
<glyph unicode="&#x207e;" horiz-adv-x="610" d="M510 1853q41 -106 63.5 -216.5t22.5 -223.5q0 -111 -19.5 -227.5t-60.5 -240.5t-107.5 -249t-156.5 -245l-139 41q84 113 145 231.5t101 237t58.5 232.5t18.5 220q0 207 -71 406z" />
<glyph unicode="&#x207f;" horiz-adv-x="858" d="M625 748l84 440q29 141 -66 141q-43 0 -87 -34.5t-82 -93t-65.5 -126t-37.5 -129.5l-37 -198h-152l131 684h148q-8 -41 -22.5 -91.5t-39.5 -121.5l2 -2q23 47 53.5 88t68.5 73.5t86 51t102 18.5q92 0 134 -55.5t21 -165.5l-90 -479h-151z" />
<glyph unicode="&#x2080;" horiz-adv-x="876" d="M750 366q0 -82 -20.5 -181t-70.5 -193.5t-140.5 -157t-219.5 -62.5q-139 0 -208.5 75t-69.5 212q0 51 8 112.5t27.5 128t53.5 129t84 113.5t120.5 81t158.5 30q137 0 207 -75t70 -212zM322 -105q78 0 130 52.5t81.5 130t41 152.5t11.5 124q0 88 -34 132t-101 44 q-78 0 -130 -52.5t-82 -130t-41 -152.5t-11 -124q0 -176 135 -176z" />
<glyph unicode="&#x2081;" horiz-adv-x="550" d="M105 -213l135 700l-195 -72v137l248 86h137l-161 -851h-164z" />
<glyph unicode="&#x2082;" horiz-adv-x="712" d="M-53 -213l23 124l233 197q113 92 162 166t49 139q0 51 -27.5 81t-87.5 30q-47 0 -93 -13.5t-91 -35.5l-8 125q49 23 111.5 38t123.5 15q123 0 185.5 -53.5t62.5 -155.5q0 -96 -56.5 -186.5t-170.5 -190.5l-174 -145q57 2 133 3t207 1l-27 -139h-555z" />
<glyph unicode="&#x2083;" horiz-adv-x="692" d="M516 81q0 -66 -29.5 -123t-84 -99t-127 -64.5t-154.5 -22.5q-45 0 -90 4t-82 13l31 124q29 -10 69.5 -15t77.5 -5q100 0 160.5 45t60.5 123q0 51 -47 78.5t-141 27.5q-18 0 -36.5 -1t-53.5 -3l20 115q143 0 224.5 43t81.5 121q0 92 -115 92q-41 0 -87 -9t-85 -26l2 117 q45 16 104.5 26.5t108.5 10.5q119 0 178 -47t59 -129q0 -84 -50 -147.5t-132 -90.5q59 -12 98 -56.5t39 -101.5z" />
<glyph unicode="&#x2084;" horiz-adv-x="776" d="M496 -23l-37 -190h-152l39 190h-391l10 115l428 546h230l-100 -530h133l-25 -131h-135zM449 526l-330 -422q25 2 58.5 3t69.5 1h64.5h59.5z" />
<glyph unicode="&#x2085;" horiz-adv-x="684" d="M-2 -87q33 -10 71 -17t77 -7q94 0 152.5 55.5t58.5 136.5q0 53 -41 82t-125 29q-31 0 -62.5 -1t-60.5 -5l88 452h434l-27 -131h-284l-39 -198q61 2 113.5 -8.5t91.5 -35t61.5 -64.5t22.5 -99q0 -66 -26 -125t-76 -105.5t-123.5 -73t-168.5 -26.5q-47 0 -90 5t-75 14z" />
<glyph unicode="&#x2086;" horiz-adv-x="804" d="M649 118q0 -74 -27.5 -137t-78.5 -110.5t-120.5 -73t-149.5 -25.5q-127 0 -189.5 66.5t-62.5 191.5q0 55 10 121t34.5 135.5t64.5 135t99.5 117.5t141.5 83t184 31q29 0 64 -2t59 -6l-29 -119q-57 10 -114 10q-133 0 -219 -86q-23 -23 -40.5 -51.5t-29.5 -53t-26.5 -56 t-18.5 -40.5q33 35 91 56.5t116 21.5q115 0 177 -58.5t64 -150.5zM293 -113q88 0 142.5 61.5t54.5 153.5q0 51 -31 82t-92 31q-49 0 -87 -17.5t-62.5 -46.5t-36 -62.5t-11.5 -66.5q0 -135 123 -135z" />
<glyph unicode="&#x2087;" horiz-adv-x="653" d="M598 514q-51 -76 -104 -165t-104.5 -186.5t-97.5 -192.5t-81 -183h-182q43 96 95 199.5t107.5 201.5t105.5 179t91 136q-10 0 -51 -1t-96 -1h-107.5h-115.5l24 137h539z" />
<glyph unicode="&#x2088;" horiz-adv-x="782" d="M609 45q0 -53 -21.5 -102.5t-66 -88.5t-112 -61.5t-155.5 -22.5q-129 0 -197.5 50t-68.5 137q0 80 53 142t160 122q-61 39 -88 80t-27 94q0 47 19.5 93t60.5 84t105.5 60.5t150.5 22.5q123 0 188.5 -49t65.5 -133q0 -70 -49 -129.5t-147 -116.5q68 -39 98.5 -82 t30.5 -100zM357 286q88 47 127 87t39 85q0 41 -32 63.5t-89 22.5q-82 0 -122 -39t-40 -88q0 -72 117 -131zM277 -119q86 0 131 42t45 95q0 80 -131 141q-102 -49 -141 -94t-39 -90q0 -43 33.5 -68.5t101.5 -25.5z" />
<glyph unicode="&#x2089;" horiz-adv-x="802" d="M682 399q0 -51 -10 -115.5t-32.5 -134.5t-61.5 -137.5t-98.5 -121.5t-142.5 -86t-187 -32q-41 0 -85 4t-71 11l29 120q29 -8 67.5 -13t71.5 -5q76 0 128 20.5t95 65.5q23 23 40.5 51.5t28.5 54t25.5 59.5t18.5 42q-31 -37 -88 -60.5t-115 -23.5q-117 0 -177 57.5 t-60 151.5q0 66 23.5 128t70.5 111t117.5 78t158.5 29q125 0 189.5 -65.5t64.5 -188.5zM334 210q49 0 87 18.5t62.5 47.5t36 63.5t11.5 65.5q0 131 -123 131q-88 0 -140.5 -62.5t-52.5 -154.5q0 -49 30 -79t89 -30z" />
<glyph unicode="&#x208a;" horiz-adv-x="802" d="M404 135l-47 -244h-134l46 244h-242l22 116h242l47 244h135l-47 -244h244l-25 -116h-241z" />
<glyph unicode="&#x208b;" horiz-adv-x="802" d="M645 135h-618l22 116h621z" />
<glyph unicode="&#x208c;" horiz-adv-x="802" d="M-6 -25l23 115h618l-20 -115h-621zM58 296l20 117h621l-23 -117h-618z" />
<glyph unicode="&#x208d;" horiz-adv-x="610" d="M170 -510q-41 106 -63.5 216.5t-22.5 223.5q0 111 19.5 227.5t60.5 240.5t107.5 249t156.5 245l140 -41q-166 -219 -245 -458.5t-79 -462.5q0 -211 70 -406z" />
<glyph unicode="&#x208e;" horiz-adv-x="610" d="M328 892q41 -106 63.5 -216.5t22.5 -223.5q0 -111 -19.5 -227.5t-60.5 -240.5t-107.5 -249t-156.5 -245l-139 41q84 113 145 231.5t101 237t58.5 232.5t18.5 220q0 207 -71 406z" />
<glyph unicode="&#x20a1;" horiz-adv-x="1245" d="M1274 1352l-35 -162q-39 14 -75 23.5t-72 17.5l-326 -1094q84 4 164 24.5t143 51.5l-24 -158q-76 -27 -154 -46t-166 -23l-88 -295h-119l88 293q-33 0 -66.5 4t-64.5 12l-90 -309h-117l101 342q-125 51 -192.5 164.5t-67.5 277.5q0 70 12 158t42 179t78 182t120.5 168 t171 134.5t227.5 83.5l70 242h116l-67 -229q33 4 67.5 4t67.5 -4l67 229h117l-69 -240q39 -4 71.5 -12t69.5 -18zM846 1243l-324 -1085q57 -16 127 -23l328 1108q-27 2 -64.5 3t-66.5 -3zM420 209l301 1003q-88 -23 -152.5 -71.5t-111.5 -113t-79 -138.5t-49.5 -144.5 t-25.5 -134t-8 -106.5q0 -100 31 -175t94 -120z" />
<glyph unicode="&#x20a2;" horiz-adv-x="1232" d="M1178 1208q-39 14 -96.5 24.5t-116.5 14.5l-103 -493q135 -39 200.5 -110t65.5 -181q0 -150 -111.5 -268.5t-305.5 -176.5l-68 -327h-119l64 303q-70 -14 -150 -14l-59 -289h-119l59 293q-70 4 -139 13t-125 23l43 170q49 -18 115 -30.5t139 -18.5l107 516 q-59 18 -105.5 42t-81 59t-54 83t-19.5 113q0 72 24.5 137.5t74.5 121t128 96.5t180 65l51 248h119l-47 -229q35 4 70 6t78 2l47 221h118l-47 -225q63 -4 123 -13.5t96 -19.5zM848 1255q-84 4 -148 -6l-90 -430q23 -8 72 -20.5t68 -18.5zM578 1225q-94 -31 -145.5 -91.5 t-51.5 -142.5q0 -51 29.5 -86t87.5 -61zM940 420q0 51 -30.5 88t-86.5 61l-80 -389q90 35 143.5 95.5t53.5 144.5zM713 596q-29 8 -69 19.5t-71 19.5l-104 -500q41 0 79 3t70 12z" />
<glyph unicode="&#x20a3;" d="M1116 1237h-522l-64 -330h418l-26 -133h-416l-33 -172h416l-25 -133h-418l-88 -469h-176l88 469h-198l26 133h197l33 172h-197l23 133h200l90 475h701z" />
<glyph unicode="&#x20a4;" d="M1038 1214q-49 18 -105 29.5t-108 11.5q-137 0 -202.5 -93t-73.5 -281h344l-23 -117h-331l-11 -158h312l-23 -117h-301q-4 -51 -16.5 -93t-36 -82t-61 -80.5t-97.5 -83.5q43 2 80 3t80 1h453l-31 -154h-830l23 121q78 57 127 104t76.5 88t40 83t16.5 93h-227l22 117h217 l10 158h-196l22 117h185q20 264 134 390t343 126q57 0 123.5 -9.5t120.5 -25.5z" />
<glyph unicode="&#x20a7;" horiz-adv-x="2492" d="M899 1032q0 102 -61.5 157.5t-200.5 55.5q-47 0 -80 -1t-65 -5l-105 -551q27 -4 55.5 -7t57.5 -3q78 0 150.5 26.5t129 74.5t88 113.5t31.5 139.5zM2367 879q-37 12 -75.5 18t-79.5 6q-100 0 -154.5 -43t-54.5 -112q0 -39 21.5 -71t47 -53.5t82 -64.5t89 -75.5t54 -75.5 t21.5 -97q0 -66 -28.5 -125t-84 -105t-138 -72.5t-185.5 -26.5q-72 0 -133 11t-111 32q-141 -41 -266 -41q-78 0 -128 18t-75.5 58t-27.5 101.5t14 149.5l109 572h-217q-29 -78 -86.5 -143.5t-134 -111.5t-168 -72t-187.5 -26q-45 0 -115 5l-100 -535h-174l262 1382 q76 4 158 5.5t170 1.5q211 0 317.5 -97.5t89.5 -273.5h211l66 334l178 47l-72 -381h283l-27 -135h-282l-103 -543q-23 -121 -3 -164t97 -43q57 0 116 11.5t134 35.5q51 -25 113.5 -39t116.5 -14q106 0 168.5 42t62.5 122q0 39 -21.5 69.5t-44 50t-81 62.5t-91 76t-54 78 t-21.5 102q0 66 25.5 121t76.5 97t126 65.5t171 23.5q51 0 92 -4t82 -12z" />
<glyph unicode="&#x20ac;" horiz-adv-x="1187" d="M442 780q-18 -59 -39 -190h467l-20 -115h-461q-10 -168 69 -258t236 -90q86 0 170 25.5t162 72.5l35 -131q-96 -55 -194.5 -83.5t-215.5 -28.5q-231 0 -342.5 124.5t-99.5 368.5h-184l20 115h172q8 49 17.5 97t19.5 93h-172l22 115h181q43 117 104.5 209t143 158.5 t186 102.5t229.5 36q92 0 178 -23.5t140 -58.5l-68 -137q-51 33 -124 55.5t-154 22.5q-158 0 -268.5 -97.5t-172.5 -267.5h453l-23 -115h-467z" />
<glyph unicode="&#x2105;" horiz-adv-x="1482" d="M1247 416q0 139 -125 139q-53 0 -93 -27.5t-66.5 -73.5t-39 -100.5t-12.5 -107.5q0 -141 125 -142q51 0 92 28t67 73t39 100.5t13 110.5zM1397 430q0 -82 -23.5 -161t-71 -143.5t-119 -102t-163.5 -37.5q-125 0 -191.5 62.5t-66.5 184.5q0 82 23.5 160t70.5 141.5 t120 101.5t165 38q123 0 189.5 -61.5t66.5 -182.5zM180 -43l-104 82l1224 1386l105 -82zM686 1245q-27 12 -56.5 19.5t-64.5 7.5q-61 0 -107 -29t-74 -76t-41 -101t-13 -105q0 -63 30.5 -97.5t104.5 -34.5q68 0 143 29l4 -119q-43 -14 -92 -24t-98 -10q-53 0 -97 12 t-77 38.5t-51.5 71.5t-18.5 109q0 82 23.5 163t73 147.5t124 106.5t172.5 40q78 0 146 -23z" />
<glyph unicode="&#x2113;" horiz-adv-x="995" d="M811 1272q0 94 -86 94q-63 0 -111.5 -54.5t-70.5 -172.5l-60 -318q100 90 164 154.5t99.5 115t50 92.5t14.5 89zM989 1298q0 -70 -21.5 -129t-77.5 -131.5t-162.5 -173t-283.5 -250.5l-49 -254q-12 -63 -12 -106q0 -72 29.5 -100.5t85.5 -28.5q76 0 134 62.5t109 199.5 l144 -35q-70 -199 -166 -285.5t-246 -86.5q-264 0 -264 233q0 41 10 113l27 145l-187 -170l-43 135l269 240l90 469q31 170 128 266t249 96q117 0 177 -54.5t60 -154.5z" />
<glyph unicode="&#x2116;" horiz-adv-x="1984" d="M1835 1137q0 61 -28.5 99t-94.5 38q-57 0 -100 -28.5t-69.5 -75t-39 -98.5t-12.5 -101q0 -66 29.5 -101.5t89.5 -35.5q49 0 90 23.5t71.5 65.5t47 97.5t16.5 116.5zM985 0h-182l-234 766q-35 117 -60.5 216t-43.5 194q-8 -55 -22.5 -144.5t-33 -194l-37 -209 t-34.5 -186.5l-86 -442h-168l262 1382h221l224 -741q35 -117 57 -194.5t37 -145.5q12 76 27.5 164t32 184t32.5 191.5t33 177.5l69 364h168zM1829 459h-559l28 133h560zM1989 1157q0 -109 -33 -193.5t-90.5 -142t-130 -86t-148.5 -28.5q-123 0 -186.5 59t-63.5 178 q0 90 27 172t79 146.5t123.5 100.5t159.5 36q137 0 200 -63.5t63 -178.5z" />
<glyph unicode="&#x2117;" horiz-adv-x="1515" d="M1135 846q0 -59 -27 -113.5t-77 -96.5t-118.5 -65.5t-150.5 -23.5q-39 0 -57.5 1t-34.5 3l-41 -225h-137l135 714q80 2 131 3t94 1q70 0 124 -14t89 -41.5t52.5 -63.5t17.5 -79zM989 838q0 45 -41 71.5t-121 26.5h-50t-34 -2l-51 -272q18 -2 38 -3.5t42 -1.5 q96 0 156.5 47.5t60.5 133.5zM1477 721q0 -152 -56.5 -284t-157 -229t-229.5 -151.5t-270 -54.5t-263 50t-211 139.5t-137.5 208t-48.5 253.5q0 150 56.5 282t157 229.5t230.5 151.5t271 54q139 0 260 -50t210 -139t138.5 -208t49.5 -252zM1339 715q0 106 -38.5 202.5 t-111.5 170t-169 114.5t-207 41q-113 0 -216 -44t-183 -123t-125 -186.5t-45 -227.5q0 -109 39 -206.5t111.5 -171t168.5 -114.5t207 -41q115 0 218.5 44t182 124t123.5 187.5t45 230.5z" />
<glyph unicode="&#x2120;" horiz-adv-x="1404" d="M1358 807h-133l14 309l6 111l-41 -97l-157 -323h-132l-30 328l-6 92l-21 -76l-113 -344h-124l194 575h164l31 -323l4 -94l35 86l161 331h168zM580 1286q-23 6 -47.5 9t-45.5 3q-53 0 -80.5 -21.5t-27.5 -51.5q0 -29 19.5 -46.5t67.5 -46t71.5 -58.5t23.5 -75 q0 -88 -71.5 -145t-186.5 -57q-31 0 -65.5 3t-57.5 9l29 104q20 -8 48 -13t54 -5q57 0 87 22.5t30 61.5q0 29 -18.5 44t-65.5 44t-70.5 57.5t-23.5 75.5q0 39 14.5 73t45 61.5t76.5 43t108 15.5q63 0 110 -9z" />
<glyph unicode="&#x2122;" horiz-adv-x="1404" d="M672 1274h-148l-88 -467h-133l90 467h-151l20 108h430zM1358 807h-133l14 309l6 111l-41 -97l-157 -323h-132l-30 328l-6 92l-21 -76l-113 -344h-124l194 575h164l31 -323l6 -94l33 86l161 331h168z" />
<glyph unicode="&#x2126;" horiz-adv-x="1445" d="M782 0l29 147q207 141 303 326.5t96 411.5q0 172 -84 267t-249 95q-129 0 -233.5 -63.5t-177.5 -168t-111 -228t-38 -240.5q0 -121 44.5 -214t144.5 -186l-27 -147h-483l29 150h297q-90 74 -140.5 176t-50.5 231q0 92 22.5 190.5t68.5 193.5t111.5 178t152.5 146.5 t193.5 99.5t227.5 36q233 0 364.5 -126t131.5 -366q0 -236 -105.5 -433t-296.5 -326h293l-30 -150h-482z" />
<glyph unicode="&#x212e;" horiz-adv-x="1652" d="M1212 1049q0 53 -15 84.5t-54 60.5q-61 45 -146.5 73.5t-181.5 28.5t-181 -28.5t-147 -73.5q-39 -29 -54 -60.5t-15 -84.5v-271h794v271zM418 324q0 -53 15.5 -85t53.5 -61q61 -45 146.5 -73.5t181.5 -28.5q162 0 299 78.5t229 228.5l89 -53q-102 -170 -266.5 -259 t-354.5 -89q-147 0 -275 53t-223.5 149.5t-148.5 225.5t-53 276t54 276.5t151.5 225.5t226.5 149.5t276 53.5t275.5 -53.5t223.5 -149.5t148.5 -225t53.5 -277h-1102v-362z" />
<glyph unicode="&#x2153;" horiz-adv-x="1687" d="M1489 81q0 -66 -29.5 -123t-84 -99t-127 -64.5t-154.5 -22.5q-45 0 -90 4t-82 13l31 124q29 -10 69.5 -15t77.5 -5q100 0 160.5 45t60.5 123q0 51 -47 78.5t-141 27.5q-18 0 -36.5 -1t-53.5 -3l20 115q143 0 224.5 43t81.5 121q0 92 -115 92q-41 0 -87 -9t-85 -26l2 117 q45 16 104.5 26.5t108.5 10.5q119 0 178 -47t59 -129q0 -84 -50 -147.5t-132 -90.5q59 -12 98 -56.5t39 -101.5zM287 748l135 700l-195 -72v137l248 86h137l-161 -851h-164zM45 -287l-98 80l1632 1852l97 -80z" />
<glyph unicode="&#x2154;" horiz-adv-x="1845" d="M129 748l23 124l233 197q113 92 162 166t49 139q0 51 -27.5 81t-87.5 30q-47 0 -93 -13.5t-91 -35.5l-8 125q49 23 111.5 38t123.5 15q123 0 185.5 -53.5t62.5 -155.5q0 -96 -56.5 -186.5t-170.5 -190.5l-174 -145q57 2 133 3t207 1l-27 -139h-555zM204 -287l-98 80 l1632 1852l97 -80zM1644 81q0 -66 -29.5 -123t-84 -99t-127 -64.5t-154.5 -22.5q-45 0 -90 4t-82 13l31 124q29 -10 69.5 -15t77.5 -5q100 0 160.5 45t60.5 123q0 51 -47 78.5t-141 27.5q-18 0 -36.5 -1t-53.5 -3l20 115q143 0 224.5 43t81.5 121q0 92 -115 92q-41 0 -87 -9 t-85 -26l2 117q45 16 104.5 26.5t108.5 10.5q119 0 178 -47t59 -129q0 -84 -50 -147.5t-132 -90.5q59 -12 98 -56.5t39 -101.5z" />
<glyph unicode="&#x215b;" horiz-adv-x="1730" d="M287 748l135 700l-195 -72v137l248 86h137l-161 -851h-164zM1524 45q0 -53 -21.5 -102.5t-66 -88.5t-112 -61.5t-155.5 -22.5q-129 0 -197.5 50t-68.5 137q0 80 53 142t160 122q-61 39 -88 80t-27 94q0 47 19.5 93t60.5 84t105.5 60.5t150.5 22.5q123 0 188.5 -49 t65.5 -133q0 -70 -49 -129.5t-147 -116.5q68 -39 98.5 -82t30.5 -100zM1272 286q88 47 127 87t39 85q0 41 -32 63.5t-89 22.5q-82 0 -122 -39t-40 -88q0 -72 117 -131zM1192 -119q86 0 131 42t45 95q0 80 -131 141q-102 -49 -141 -94t-39 -90q0 -43 33.5 -68.5t101.5 -25.5z M45 -287l-98 80l1632 1852l97 -80z" />
<glyph unicode="&#x215c;" horiz-adv-x="1773" d="M698 1042q0 -66 -29.5 -123t-84 -99t-127 -64.5t-154.5 -22.5q-45 0 -90 4t-82 13l31 124q29 -10 69.5 -15t77.5 -5q100 0 160.5 45t60.5 123q0 51 -47 78.5t-141 27.5q-18 0 -36.5 -1t-53.5 -3l20 115q143 0 224.5 43t81.5 121q0 92 -115 92q-41 0 -87 -9t-85 -26l2 117 q45 16 104.5 26.5t108.5 10.5q119 0 178 -47t59 -129q0 -84 -50 -147.5t-132 -90.5q59 -12 98 -56.5t39 -101.5zM86 -287l-98 80l1632 1852l97 -80zM1567 45q0 -53 -21.5 -102.5t-66 -88.5t-112 -61.5t-155.5 -22.5q-129 0 -197.5 50t-68.5 137q0 80 53 142t160 122 q-61 39 -88 80t-27 94q0 47 19.5 93t60.5 84t105.5 60.5t150.5 22.5q123 0 188.5 -49t65.5 -133q0 -70 -49 -129.5t-147 -116.5q68 -39 98.5 -82t30.5 -100zM1315 286q88 47 127 87t39 85q0 41 -32 63.5t-89 22.5q-82 0 -122 -39t-40 -88q0 -72 117 -131zM1235 -119 q86 0 131 42t45 95q0 80 -131 141q-102 -49 -141 -94t-39 -90q0 -43 33.5 -68.5t101.5 -25.5z" />
<glyph unicode="&#x215d;" horiz-adv-x="1826" d="M180 874q33 -10 71 -17t77 -7q94 0 152.5 55.5t58.5 136.5q0 53 -41 82t-125 29q-31 0 -62.5 -1t-60.5 -5l88 452h434l-27 -131h-284l-39 -198q61 2 113.5 -8.5t91.5 -35t61.5 -64.5t22.5 -99q0 -66 -26 -125t-76 -105.5t-123.5 -73t-168.5 -26.5q-47 0 -90 5t-75 14z M1620 45q0 -53 -21.5 -102.5t-66 -88.5t-112 -61.5t-155.5 -22.5q-129 0 -197.5 50t-68.5 137q0 80 53 142t160 122q-61 39 -88 80t-27 94q0 47 19.5 93t60.5 84t105.5 60.5t150.5 22.5q123 0 188.5 -49t65.5 -133q0 -70 -49 -129.5t-147 -116.5q68 -39 98.5 -82t30.5 -100z M1368 286q88 47 127 87t39 85q0 41 -32 63.5t-89 22.5q-82 0 -122 -39t-40 -88q0 -72 117 -131zM1288 -119q86 0 131 42t45 95q0 80 -131 141q-102 -49 -141 -94t-39 -90q0 -43 33.5 -68.5t101.5 -25.5zM141 -287l-98 80l1632 1852l97 -80z" />
<glyph unicode="&#x215e;" horiz-adv-x="1708" d="M782 1475q-51 -76 -104 -165t-104.5 -186.5t-97.5 -192.5t-81 -183h-182q43 96 95 199.5t107.5 201.5t105.5 179t91 136q-10 0 -51 -1t-96 -1h-107.5h-115.5l24 137h539zM1504 45q0 -53 -21.5 -102.5t-66 -88.5t-112 -61.5t-155.5 -22.5q-129 0 -197.5 50t-68.5 137 q0 80 53 142t160 122q-61 39 -88 80t-27 94q0 47 19.5 93t60.5 84t105.5 60.5t150.5 22.5q123 0 188.5 -49t65.5 -133q0 -70 -49 -129.5t-147 -116.5q68 -39 98.5 -82t30.5 -100zM1252 286q88 47 127 87t39 85q0 41 -32 63.5t-89 22.5q-82 0 -122 -39t-40 -88 q0 -72 117 -131zM1172 -119q86 0 131 42t45 95q0 80 -131 141q-102 -49 -141 -94t-39 -90q0 -43 33.5 -68.5t101.5 -25.5zM20 -287l-98 80l1632 1852l97 -80z" />
<glyph unicode="&#x2190;" horiz-adv-x="2048" d="M373 535l647 -629l-113 -111l-815 815l815 815l113 -110l-647 -629h1675v-151h-1675z" />
<glyph unicode="&#x2191;" horiz-adv-x="2048" d="M1729 680l-629 647v-1675h-152v1675l-629 -647l-110 113l815 815l815 -815z" />
<glyph unicode="&#x2192;" horiz-adv-x="2048" d="M0 535v151h1675l-647 629l113 110l815 -815l-815 -815l-113 111l647 629h-1675z" />
<glyph unicode="&#x2193;" horiz-adv-x="2048" d="M1839 428l-815 -815l-815 815l110 113l629 -647v1675h152v-1675l629 647z" />
<glyph unicode="&#x2194;" horiz-adv-x="2764" d="M2062 31l-112 110l442 424h-2019l442 -424l-113 -110l-610 610l610 610l113 -110l-442 -424h2019l-442 424l112 110l611 -610z" />
<glyph unicode="&#x2195;" horiz-adv-x="1560" d="M780 -528l-610 610l111 113l424 -443v1716l-424 -442l-111 113l610 610l611 -610l-111 -113l-424 442v-1716l424 443l111 -113z" />
<glyph unicode="&#x2196;" horiz-adv-x="1658" d="M1499 -55l-1184 1185l15 -903h-160v1155h1155v-159l-903 14l1186 -1184z" />
<glyph unicode="&#x2197;" horiz-adv-x="1658" d="M51 53l1186 1184l-903 -14v159h1155v-1155h-160l14 903l-1183 -1185z" />
<glyph unicode="&#x2198;" horiz-adv-x="1658" d="M160 1278l1183 -1186l-14 903h160v-1155h-1155v160l903 -14l-1186 1183z" />
<glyph unicode="&#x2199;" horiz-adv-x="1658" d="M1608 1169l-1186 -1183l903 14v-160h-1155v1155h160l-15 -903l1184 1186z" />
<glyph unicode="&#x219e;" horiz-adv-x="2048" d="M805 535l276 -261l-112 -110l-371 371h-238l277 -261l-113 -110l-446 446l446 447l113 -111l-277 -260h238l371 371l112 -111l-276 -260h1100v-151h-1100z" />
<glyph unicode="&#x219f;" horiz-adv-x="1222" d="M537 868l-261 -276l-112 113l373 370v238l-261 -277l-112 113l448 446l447 -446l-113 -113l-260 277v-238l373 -370l-113 -113l-260 276v-1099h-149v1099z" />
<glyph unicode="&#x21a0;" horiz-adv-x="2048" d="M143 535v151h1100l-276 260l112 111l371 -371h238l-277 260l113 111l446 -447l-446 -446l-113 110l277 261h-238l-371 -371l-112 110l276 261h-1100z" />
<glyph unicode="&#x21a1;" horiz-adv-x="1222" d="M537 1534h149v-1100l260 277l113 -113l-373 -373v-235l260 276l113 -112l-447 -449l-448 449l112 112l261 -276v235l-373 373l112 113l261 -277v1100z" />
<glyph unicode="&#x21a2;" horiz-adv-x="2048" d="M1919 274l-113 -110l-372 371h-1074l277 -261l-113 -110l-446 446l446 447l113 -111l-277 -260h1074l372 371l113 -111l-346 -336z" />
<glyph unicode="&#x21a3;" horiz-adv-x="2048" d="M475 610l-346 336l113 111l372 -371h1074l-277 260l113 111l446 -447l-446 -446l-113 110l277 261h-1074l-372 -371l-113 110z" />
<glyph unicode="&#x21a4;" horiz-adv-x="2048" d="M1905 176h-162v359h-1383l277 -261l-113 -110l-446 446l446 447l113 -111l-277 -260h1383v358h162v-868z" />
<glyph unicode="&#x21a5;" horiz-adv-x="1187" d="M160 -231v161h358v1383l-260 -277l-111 113l447 446l446 -446l-110 -113l-260 277v-1383h358v-161h-868z" />
<glyph unicode="&#x21a6;" horiz-adv-x="2048" d="M143 1044h162v-358h1383l-277 260l113 111l446 -447l-446 -446l-113 110l277 261h-1383v-359h-162v868z" />
<glyph unicode="&#x21a7;" horiz-adv-x="1187" d="M1028 1534v-162h-358v-1382l260 276l110 -112l-446 -447l-447 447l111 112l260 -276v1382h-358v162h868z" />
<glyph unicode="&#x21a8;" horiz-adv-x="1560" d="M780 -287l-569 572l111 112l383 -403v1497l-383 -401l-111 112l569 570l570 -570l-111 -112l-383 401v-1497l383 403l111 -112zM217 -494v140h1126v-140h-1126z" />
<glyph unicode="&#x21a9;" horiz-adv-x="2398" d="M78 383l563 565l113 -112l-394 -377q113 -4 244 -8q113 -4 259.5 -5.5t310.5 -1.5q250 0 418.5 33t270 90.5t143.5 137t42 176.5q0 86 -33 150.5t-104.5 106.5t-182 63.5t-264.5 21.5q-55 0 -110.5 -2t-100.5 -7q-53 -4 -100 -6v150q51 4 109 8q47 4 107.5 6t119.5 2 q195 0 336 -34.5t232 -98t136 -152t45 -198.5q0 -135 -58 -245.5t-187 -188.5t-335 -121t-503 -43q-154 0 -297 1t-254 5q-129 4 -244 8l394 -377l-113 -112z" />
<glyph unicode="&#x21aa;" horiz-adv-x="2398" d="M1720 -182l-112 112l393 377q-102 -4 -229 -8q-109 -4 -254.5 -5t-317.5 -1q-295 0 -498.5 40t-331.5 113.5t-186.5 178t-58.5 233.5q0 117 46 212t141.5 162.5t241.5 104.5t351 37q51 0 106.5 -2t98.5 -6q51 -4 100 -6v-154q-53 4 -108 8q-47 4 -108.5 6.5t-123.5 2.5 q-143 0 -247.5 -22.5t-173 -65.5t-102.5 -107.5t-34 -150.5q0 -92 44 -172t149.5 -137.5t283 -90.5t443.5 -33q152 0 291 1t245 6q123 4 232 8l-393 377l112 112l566 -565z" />
<glyph unicode="&#x21d0;" horiz-adv-x="2048" d="M586 319l270 -264l-113 -112l-665 667l665 668l113 -113l-270 -264h1319v-153h-1471l-137 -138l137 -137h1471v-154h-1319z" />
<glyph unicode="&#x21d1;" horiz-adv-x="1673" d="M547 1018l-266 -270l-111 112l666 668l667 -668l-112 -112l-265 270v-1319h-151v1470l-139 140l-138 -140v-1470h-151v1319z" />
<glyph unicode="&#x21d2;" horiz-adv-x="2048" d="M143 319v154h1471l137 137l-137 138h-1471v153h1319l-270 264l113 113l665 -668l-665 -667l-113 112l270 264h-1319z" />
<glyph unicode="&#x21d3;" horiz-adv-x="1673" d="M547 1522h151v-1471l138 -139l139 139v1471h151v-1319l265 270l112 -113l-667 -667l-666 667l111 113l266 -270v1319z" />
<glyph unicode="&#x21d4;" horiz-adv-x="2867" d="M2433 748h-1999l-137 -138l137 -137h1999l137 137zM2124 -57l-113 112l270 264h-1695l270 -264l-113 -112l-665 667l665 668l113 -113l-270 -264h1695l-270 264l113 113l665 -668z" />
<glyph unicode="&#x21d5;" horiz-adv-x="1673" d="M975 -297v1946l-139 139l-138 -139v-1946l138 -139zM170 12l111 113l266 -270v1642l-266 -270l-111 112l666 668l667 -668l-112 -112l-265 270v-1642l265 270l112 -113l-667 -667z" />
<glyph unicode="&#x21d6;" horiz-adv-x="1794" d="M332 766l4 -379h-160v944h944v-160l-379 5l934 -932l-108 -107l-1041 1039h-194v-195l1038 -1040l-106 -109z" />
<glyph unicode="&#x21d7;" horiz-adv-x="1794" d="M530 -168l-106 109l1038 1040v195h-194l-1041 -1039l-108 107l934 932l-379 -5v160h944v-944h-160l4 379z" />
<glyph unicode="&#x21d8;" horiz-adv-x="1794" d="M1462 457l-4 379h160v-945h-944v160l379 -4l-934 932l108 106l1041 -1038h194v195l-1038 1040l106 109z" />
<glyph unicode="&#x21d9;" horiz-adv-x="1794" d="M1264 1391l106 -109l-1038 -1040v-195h194l1041 1038l108 -106l-934 -932l379 4v-160h-944v945h160l-4 -379z" />
<glyph unicode="&#x21dd;" horiz-adv-x="2048" d="M143 686h101l129 139l198 -219l199 219l199 -219l198 219l199 -219l70 80h252l-275 262l111 109l446 -447l-446 -446l-111 108l275 263h-191l-131 -140l-199 219l-198 -219l-199 219l-199 -219l-198 219l-68 -79h-162v151z" />
<glyph unicode="&#x21e6;" horiz-adv-x="2048" d="M1753 819h-1014v240l-446 -449l446 -448v239h1014v209v209zM1905 248h-1012v-301h-154l-661 663l661 664h154v-301h1012v-363v-362z" />
<glyph unicode="&#x21e7;" horiz-adv-x="1693" d="M1057 -147v1011h237l-448 449l-447 -449h238v-1011h209h211zM485 -301v1012h-301v153l662 664l663 -664v-153h-301v-1012h-362h-361z" />
<glyph unicode="&#x21e8;" horiz-adv-x="2048" d="M295 610v-209h1014v-239l446 448l-446 449v-240h-1014v-209zM143 610v363h1012v301h154l661 -664l-661 -663h-154v301h-1012v362z" />
<glyph unicode="&#x21e9;" horiz-adv-x="1693" d="M846 1368h-209v-1012h-238l447 -448l448 448h-237v1012h-211zM846 1522h362v-1012h301v-154l-663 -663l-662 663v154h301v1012h361z" />
<glyph unicode="&#x21f3;" horiz-adv-x="1693" d="M1208 381h301v-154l-663 -663l-662 663v154h301v459h-301v153l662 664l663 -664v-153h-301v-459zM1057 993h237l-448 449l-447 -449h238v-766h-238l447 -448l448 448h-237v766z" />
<glyph unicode="&#x2202;" horiz-adv-x="1280" d="M662 1509q129 -6 226 -49t161.5 -116.5t97.5 -172t33 -213.5q0 -104 -19.5 -214.5t-56.5 -213t-87 -193.5t-112 -159q-74 -86 -179 -140t-228 -54q-94 0 -162 27.5t-112 75.5t-65.5 111.5t-21.5 137.5q0 115 42 216t115 178t171 122t213 45q119 0 195.5 -53t103.5 -135 q2 37 16.5 100t12.5 162q-4 88 -31 159.5t-76 124t-121.5 81t-165.5 28.5zM893 528q0 43 -13.5 83t-41 71t-72.5 50.5t-107 19.5q-78 0 -142 -33t-110.5 -87t-71 -123t-24.5 -142q0 -109 55.5 -170.5t159.5 -61.5q86 0 154 37t116 93.5t72.5 125.5t24.5 137z" />
<glyph unicode="&#x2205;" horiz-adv-x="1888" d="M1530 1157l10 -12q74 -94 115 -209t41 -244q0 -156 -58.5 -291t-159 -235t-235.5 -157.5t-289 -57.5q-129 0 -244.5 42t-209.5 116l-11 8l-415 -414l-109 109l414 415l-10 13q-74 94 -115 208.5t-41 243.5q0 154 57.5 289t157.5 235.5t235.5 159t290.5 58.5 q129 0 245 -41t210 -117l10 -8l416 413l109 -108zM1294 1143l-4 2q-70 55 -154.5 86t-181.5 31q-121 0 -224 -44t-180 -121t-121 -181.5t-44 -223.5q0 -96 30.5 -181t84.5 -155l4 -4zM614 242l4 -4q70 -53 155 -84t181 -31q119 0 223.5 44t181.5 121t121 180t44 224 q0 96 -31 181t-84 155l-4 4z" />
<glyph unicode="&#x2206;" horiz-adv-x="1232" d="M-70 0l754 1382h203l231 -1382h-1188zM760 1065q-4 37 -7 73t-3 66h-2q-14 -35 -32 -70.5t-38 -74.5l-483 -901h710z" />
<glyph unicode="&#x220f;" horiz-adv-x="1572" d="M1645 1346h-213l-353 -1852h-164l351 1852h-631l-352 -1852h-166l352 1852h-215l29 149h1388z" />
<glyph unicode="&#x2211;" horiz-adv-x="1222" d="M1243 1346h-768l428 -844l-772 -852h819l-30 -156h-1037l27 133l792 885l-426 848l27 135h969z" />
<glyph unicode="&#x2212;" d="M1047 535h-953l27 149h952z" />
<glyph unicode="&#x2219;" horiz-adv-x="460" d="M377 612q0 -53 -38 -92t-91 -39q-49 0 -84 37t-35 86q0 55 38 93t91 38q51 0 85 -36t34 -87z" />
<glyph unicode="&#x221a;" horiz-adv-x="1218" d="M594 0h-197l-135 885h-184l26 133h318l80 -600q10 -76 16 -130.5t8 -105.5h4q29 68 51.5 117t47.5 102l540 1151h189z" />
<glyph unicode="&#x221b;" horiz-adv-x="1218" d="M594 0h-197l-135 885h-184l26 133h318l80 -600q10 -76 16 -130.5t8 -105.5h4q29 68 51.5 117t47.5 102l540 1151h189zM463 1239q27 -10 61.5 -14t69.5 -4q45 0 75.5 10t50 27.5t29 39t9.5 42.5q0 20 -10.5 37.5t-37 29t-72.5 15.5t-116 -4l19 96q147 0 207.5 37t60.5 88 q0 27 -23.5 44t-74.5 17q-39 0 -78 -7t-72 -21l-2 102q41 14 92 23.5t105 9.5q57 0 97 -13.5t63.5 -34t33.5 -47t8 -55.5q-4 -68 -51 -115t-115 -65q68 -10 95.5 -51t23.5 -84q-2 -47 -24.5 -88t-64.5 -72t-100.5 -49t-129.5 -18q-18 0 -40 2t-43.5 4t-42 4t-34.5 6z" />
<glyph unicode="&#x221c;" horiz-adv-x="1218" d="M594 0h-197l-135 885h-184l26 133h318l80 -600q10 -76 16 -130.5t8 -105.5h4q29 68 51.5 117t47.5 102l540 1151h189zM753 1264l-24 -135h-142l25 135h-318l11 102l336 426h215l-80 -413h104l-22 -115h-105zM694 1688h-4l-244 -313q18 0 44 1t52.5 2t50 1h41.5z" />
<glyph unicode="&#x221e;" horiz-adv-x="1955" d="M1870 684q0 -74 -29 -146.5t-83 -132t-134 -96.5t-182 -37q-63 0 -122.5 19.5t-116 52.5t-111 75t-105.5 87q-70 -45 -139.5 -87t-139 -75t-136 -52.5t-128.5 -19.5q-164 0 -237.5 76t-73.5 191q0 88 35 163.5t93 131t134 86t160 30.5q63 0 123.5 -19.5t119 -52 t113 -75.5t107.5 -88q70 45 140.5 88t139 75.5t134 52t127.5 19.5q82 0 141 -20.5t97 -57t55.5 -85t17.5 -103.5zM1696 659q0 59 -39 99.5t-119 40.5q-78 0 -181.5 -57.5t-217.5 -133.5q82 -74 160.5 -128t158.5 -54q51 0 95 18.5t76 50t49.5 73.5t17.5 91zM862 614 q-82 74 -160.5 129.5t-160.5 55.5q-51 0 -94.5 -18.5t-74 -50.5t-48 -74t-17.5 -89q0 -59 37 -100t115 -41q80 0 183 56t220 132z" />
<glyph unicode="&#x221f;" horiz-adv-x="1495" d="M221 0v1382h152v-1232h1054v-150h-1206z" />
<glyph unicode="&#x2229;" horiz-adv-x="1445" d="M1171 0h-157l168 860q16 82 0.5 153.5t-58.5 125t-109.5 83t-150.5 29.5q-88 0 -164.5 -28.5t-136 -82t-99.5 -125t-56 -155.5l-168 -860h-158l168 860q23 119 81 219.5t143 172t190.5 110.5t220.5 39q113 0 207 -42t157.5 -116t87 -173t2.5 -210z" />
<glyph unicode="&#x222b;" horiz-adv-x="677" d="M893 1841q-20 6 -47 11.5t-51 5.5q-41 0 -71 -14.5t-54.5 -50.5t-45 -103.5t-40.5 -176.5t-51 -283.5t-86.5 -497t-91.5 -530.5t-64 -354q-27 -145 -65 -242.5t-86 -154.5t-108.5 -81.5t-140.5 -24.5q-25 0 -52 3t-50 9l31 154q43 -14 94 -15q41 0 70.5 13.5t54 49 t46 101.5t42.5 170q18 100 42 234.5t84 494t98 578.5t67 366q29 145 66.5 242.5t87 155t110.5 82t141 24.5q55 0 101 -12z" />
<glyph unicode="&#x2245;" d="M1114 954q-53 -51 -122.5 -81.5t-147.5 -30.5q-76 0 -125 18.5t-91 42t-84 42t-106 18.5q-66 0 -117 -25t-96 -61l-43 124q57 43 127 76t148 33q70 0 120 -19.5t94 -43t88 -43t101 -19.5q55 0 105.5 21.5t105.5 66.5zM1018 535h-897l26 143h897zM952 188h-897l29 146h897 z" />
<glyph unicode="&#x2248;" d="M1016 410q-55 -49 -126 -81t-145 -32q-68 0 -112.5 15.5t-98 46t-90 45t-90.5 14.5q-57 0 -110.5 -24.5t-98.5 -61.5l-61 123q61 49 130 80.5t142 31.5q61 0 106.5 -16t100.5 -47t94 -46.5t95 -15.5q51 0 101 21.5t105 66.5zM1083 762q-55 -51 -123.5 -83t-146.5 -32 q-63 0 -107 15.5t-97.5 46t-92.5 46t-94 15.5t-107.5 -24.5t-103.5 -61.5l-57 121q61 49 131.5 82t144.5 33q61 0 107.5 -16.5t102.5 -48.5t92 -47t85 -15q51 0 100.5 23.5t106.5 68.5z" />
<glyph unicode="&#x2260;" d="M1051 709h-332l-119 -201h414l-29 -143h-469l-170 -289h-158l172 289h-272l29 143h327l117 201h-407l26 145h465l174 293h158l-174 -293h274z" />
<glyph unicode="&#x2261;" d="M186 883l29 145h897l-29 -145h-897zM57 195l27 143h897l-27 -143h-897zM121 539l29 143h897l-29 -143h-897z" />
<glyph unicode="&#x2264;" d="M895 0h-852l29 147h850zM414 762l532 -385l-115 -123l-663 516l825 498l86 -125z" />
<glyph unicode="&#x2265;" d="M893 0h-850l29 147h850zM229 254l-88 125l668 383l-535 387l115 119l666 -516z" />
<glyph unicode="&#x2297;" horiz-adv-x="1783" d="M152 692q0 152 58 287t157.5 236.5t235.5 160t292 58.5t290 -57.5t234.5 -159t157.5 -235.5t57 -288q0 -156 -58 -290t-159.5 -235t-237 -159.5t-288.5 -58.5q-154 0 -288 57.5t-234.5 156.5t-158.5 234t-58 293zM1004 696v-2l354 -356q57 74 89 163t32 191 q0 100 -33 190.5t-90 164.5zM897 801l352 354q-76 57 -166 90t-192 33q-100 0 -189.5 -32t-162.5 -89zM539 231q74 -59 164 -92t192 -33q98 0 187 32t165 91l-356 355zM307 692q0 -102 33 -192t92 -164l352 352v2l-356 354q-57 -72 -89 -162t-32 -190z" />
<glyph unicode="&#x22a0;" horiz-adv-x="1783" d="M205 0v1382h1374v-1382h-1374zM446 143h889l-444 445zM897 797l442 442h-886zM358 1120v-860l430 428v2zM1425 268v854l-428 -426v-2z" />
<glyph unicode="&#x22c5;" horiz-adv-x="471" d="M379 608q0 -53 -37 -90t-90 -37t-90 37t-37 90t37 90t90 37t90 -37t37 -90z" />
<glyph unicode="&#x22c6;" horiz-adv-x="1785" d="M1108 502l227 -645l-442 518l-444 -518l229 645l-672 123l672 123l-227 645l442 -519l444 519l-229 -645l672 -123z" />
<glyph unicode="&#x22ee;" horiz-adv-x="522" d="M535 1307q0 -51 -36 -86t-87 -35t-87 34.5t-36 86.5q0 51 35.5 87t87.5 36q51 0 87 -36t36 -87zM418 705q0 -49 -36 -85t-87 -36t-86 35.5t-35 85.5q0 51 35 86.5t86 35.5t87 -35.5t36 -86.5zM303 104q0 -51 -36 -86.5t-87 -35.5t-86 35.5t-35 86.5t35 86t86 35t87 -35 t36 -86z" />
<glyph unicode="&#x2300;" horiz-adv-x="1888" d="M1530 1157l10 -12q74 -94 115 -209t41 -244q0 -156 -58.5 -291t-159 -235t-234.5 -157.5t-290 -57.5q-129 0 -244.5 42t-209.5 116l-11 8l-301 -301l-110 110l301 301l-10 13q-74 94 -115 208.5t-41 243.5q0 156 57.5 290t157.5 234.5t235.5 159t290.5 58.5 q129 0 245 -41t210 -117l10 -8l301 301l111 -111zM1294 1143l-4 2q-70 55 -154.5 86t-181.5 31q-121 0 -224 -44t-180 -121t-121 -181.5t-44 -223.5q0 -96 30.5 -181t84.5 -155l4 -4zM614 242l4 -4q70 -53 155 -84t181 -31q119 0 223.5 44t181.5 121t121 180t44 224 q0 96 -31 181t-84 155l-4 4z" />
<glyph unicode="&#x2302;" horiz-adv-x="2048" d="M1896 721l-147 182l-172 -903h-1294l168 889l-209 -174l-88 108l1110 934l755 -934zM1231 1544l-598 -504l-172 -890h993l172 905z" />
<glyph unicode="&#x2310;" d="M1047 537h-746l-61 -324h-154l90 469h897z" />
<glyph unicode="&#x2320;" horiz-adv-x="710" d="M682 1341q-23 8 -51.5 13.5t-52.5 5.5q-43 0 -71 -14.5t-46.5 -51.5t-27.5 -104.5t-9 -175.5v-1520h-166v1483q0 145 20.5 246.5t60.5 164t99.5 91t139.5 28.5q25 0 51 -4t53 -10v-152z" />
<glyph unicode="&#x2321;" horiz-adv-x="710" d="M424 6q0 -145 -20.5 -246.5t-60.5 -164t-99.5 -91t-137.5 -28.5q-27 0 -54 3t-50 9v154q20 -8 49 -13.5t55 -5.5q41 0 69 14.5t46.5 51.5t27.5 104.5t9 175.5v1784h166v-1747z" />
<glyph unicode="&#x2349;" horiz-adv-x="1888" d="M1833 -297l-416 416l-8 -10q-94 -74 -210 -116t-245 -42q-154 0 -289 58.5t-235 158.5t-158.5 235.5t-58.5 288.5q0 129 41 243t115 210l12 10l-416 416l111 110l413 -415l11 10q94 74 209.5 116t244.5 42q156 0 290 -58.5t234.5 -159t159 -235.5t58.5 -289 q0 -129 -42 -243.5t-114 -208.5l-12 -13l416 -413zM1524 692q0 117 -45 221.5t-122 181t-181.5 122t-221.5 45.5q-96 0 -181 -31t-155 -84l-4 -4l791 -791l4 4q53 70 84 155t31 181zM504 1032l-4 -4q-53 -70 -84 -155t-31 -181q0 -119 45 -222t122 -180t180.5 -122 t221.5 -45q96 0 181.5 30.5t154.5 84.5l4 4z" />
<glyph unicode="&#x25a0;" horiz-adv-x="1433" d="M1405 1382v-1382h-1376v1382h1376z" />
<glyph unicode="&#x25a1;" horiz-adv-x="1783" d="M205 0v1382h1374v-1382h-1374zM1409 1223h-1034v-1063h1034v1063z" />
<glyph unicode="&#x25aa;" horiz-adv-x="860" d="M641 395h-422v426h422v-426z" />
<glyph unicode="&#x25ab;" horiz-adv-x="860" d="M696 340h-532v537h532v-537zM276 764v-311h308v311h-308z" />
<glyph unicode="&#x25ac;" horiz-adv-x="2048" d="M0 317v388h2048v-388h-2048z" />
<glyph unicode="&#x25ae;" horiz-adv-x="1452" d="M-23 -621v2485h1498v-2485h-1498z" />
<glyph unicode="&#x25b2;" horiz-adv-x="1966" d="M983 1434l717 -1434h-1434z" />
<glyph unicode="&#x25b6;" horiz-adv-x="1966" d="M389 0v1434l1434 -717z" />
</font>
</defs>
</svg>
