<?xml version="1.0" standalone="no"?>
<!DOCTYPE svg PUBLIC "-//W3C//DTD SVG 1.1//EN" "http://www.w3.org/Graphics/SVG/1.1/DTD/svg11.dtd" >
<svg xmlns="http://www.w3.org/2000/svg">
<metadata>
Copyright   : Copyright 2014 Luc(as) de Groot. All rights reserved. Published by LucasFonts.com
Designer    : Luc(as) de Groot
Foundry     : LucasFonts
Foundry URL : http://lucasfonts.com
</metadata>
<defs>
<font id="TheSansUHH_BoldItalic" horiz-adv-x="1126" >
<font-face units-per-em="2048" ascent="1516" descent="-532" />
<missing-glyph horiz-adv-x="446" />
<glyph unicode=" "  horiz-adv-x="446" />
<glyph unicode="&#x09;" horiz-adv-x="446" />
<glyph unicode="&#xa0;" horiz-adv-x="446" />
<glyph unicode="!" horiz-adv-x="645" d="M436 141q0 -72 -49 -118t-119 -46q-66 0 -108.5 43t-42.5 103q0 72 49 119t119 47q66 0 108.5 -44.5t42.5 -103.5zM436 385h-221l162 1065h301z" />
<glyph unicode="&#x22;" horiz-adv-x="813" d="M399 918h-190l65 520h258zM778 918h-190l65 520h256z" />
<glyph unicode="#" horiz-adv-x="1169" d="M1186 842h-176l-86 -293h159l-34 -184h-179l-106 -365h-205l107 365h-265l-106 -365h-205l107 365h-160l35 184h178l86 293h-162l37 182h178l107 358h204l-106 -358h264l107 358h204l-108 -358h158zM541 842l-86 -293h264l86 293h-264z" />
<glyph unicode="$" horiz-adv-x="991" d="M909 504q0 -82 -29.5 -156t-86 -134t-134 -103t-170.5 -64l-47 -244h-184l45 236q-66 2 -127 9t-110 18l63 237q27 -10 56.5 -18.5t61.5 -13.5t63.5 -8t62.5 -3q59 0 106 13.5t79 37t48.5 55t16.5 70.5q0 43 -30 74t-89.5 59.5t-114.5 55t-102 61.5t-78 88t-31 129 q0 82 30 153.5t84 129t127 95.5t156 54l37 201h185l-37 -193q53 -2 105.5 -8t95.5 -16l-60 -223q-55 16 -109.5 25t-107.5 9q-55 0 -97 -12t-72 -33.5t-44 -50t-14 -61.5q0 -41 29.5 -71t88 -58.5t118 -56t107.5 -62.5t78.5 -90t30.5 -131z" />
<glyph unicode="%" horiz-adv-x="1525" d="M1237 373q0 49 -19.5 70.5t-60.5 21.5q-33 0 -62.5 -18.5t-51 -50t-34 -73.5t-12.5 -87q0 -51 19.5 -73t60.5 -22q33 0 62.5 18.5t51 50.5t34 74t12.5 89zM621 1149q0 94 -82 94q-33 0 -63 -18.5t-51.5 -51t-33.5 -74.5t-12 -87q0 -51 20.5 -72.5t61.5 -21.5 q33 0 62.5 18t51 50t34 74t12.5 89zM1432 393q0 -98 -32 -176t-86 -131t-120 -81t-133 -28q-127 0 -192.5 62.5t-65.5 177.5q0 96 32.5 174t86 131t119 81t130.5 28q125 0 193 -60.5t68 -177.5zM242 -45l-140 125l1266 1345l139 -127zM815 1169q0 -98 -32.5 -176t-87 -131 t-120 -80.5t-133.5 -27.5q-127 0 -192.5 62.5t-65.5 176.5q0 96 33 174t87 131.5t119.5 81t131.5 27.5q125 0 192.5 -60.5t67.5 -177.5z" />
<glyph unicode="&#x26;" horiz-adv-x="1599" d="M856 309q-92 92 -171 179t-136 165q-96 -72 -148.5 -136t-52.5 -140q0 -78 49 -127t144 -49q78 0 159.5 26.5t155.5 81.5zM825 1212q0 47 -26.5 75t-79.5 28q-66 0 -109 -45t-43 -113q0 -37 17.5 -84t50.5 -104q47 35 77.5 59.5t56.5 53t41 61t15 69.5zM1522 938 q-23 -170 -101 -329.5t-192 -286.5q57 -51 116.5 -99.5t116.5 -89.5l-180 -180q-66 47 -127 97t-121 104q-119 -84 -259 -130.5t-288 -46.5q-104 0 -183 27t-129 75t-74.5 111.5t-24.5 137.5q0 80 28.5 151.5t77.5 132t108.5 110.5t135.5 103q-51 80 -84 159t-33 146 q0 74 32 142.5t90 123t139 85t175 30.5q172 0 255 -70.5t83 -195.5q0 -66 -25.5 -125t-69.5 -113.5t-99 -102.5t-131 -103q59 -78 134 -161t161 -165q80 92 137 213t78 250h254z" />
<glyph unicode="'" horiz-adv-x="432" d="M399 918h-190l65 520h258z" />
<glyph unicode="(" horiz-adv-x="614" d="M797 1520q-98 -125 -181.5 -280t-143.5 -321.5t-94 -331.5t-34 -313q0 -182 23.5 -333.5t74.5 -292.5l-206 -88q-72 164 -108 339t-36 363q0 164 34 336t100.5 345t164.5 342t227 325z" />
<glyph unicode=")" horiz-adv-x="614" d="M573 907q0 -164 -33.5 -335t-99 -345t-164 -343t-227.5 -324l-178 90q98 125 181 279.5t143.5 321.5t94.5 333t34 311q0 182 -25 333.5t-76 293.5l209 88q70 -164 105.5 -338.5t35.5 -364.5z" />
<glyph unicode="*" horiz-adv-x="772" d="M639 1159l186 -96l-120 -152l-146 152l-16 -225l-183 24l78 209l-192 -123l-62 168l222 66l-189 98l123 150l145 -152l15 227l182 -24l-78 -211l195 125l61 -168z" />
<glyph unicode="+" d="M1053 500h-361l-74 -381h-247l73 381h-358l41 219h358l72 379h250l-74 -379h361z" />
<glyph unicode="," horiz-adv-x="518" d="M199 305q72 0 120 -56t41.5 -148.5t-85 -210t-257.5 -244.5l-94 110q61 51 98 94.5t52.5 80t11.5 69.5t-25 63q-23 35 -22 76q0 43 18.5 80t55.5 61.5t86 24.5z" />
<glyph unicode="-" horiz-adv-x="669" d="M582 463h-492l41 211h492z" />
<glyph unicode="." horiz-adv-x="524" d="M367 152q0 -74 -51.5 -124.5t-120.5 -50.5q-66 0 -113 48.5t-47 111.5q0 74 51 124t121 50q66 0 113 -48t47 -111z" />
<glyph unicode="/" horiz-adv-x="929" d="M82 -330h-262l1067 1880h260z" />
<glyph unicode="0" horiz-adv-x="1179" d="M909 956q0 225 -161 226q-70 0 -128.5 -39t-101.5 -103.5t-72.5 -145.5t-49 -166t-28 -163t-8.5 -137q0 -225 166 -225q90 0 162 70.5t121 186t74.5 246.5t25.5 250zM1180 954q0 -166 -42 -337t-126 -316t-215 -232t-301 -87q-201 0 -303.5 112.5t-102.5 335.5 q0 182 46 356.5t135 313.5t216 220t281 81q106 0 185 -31t129.5 -89t74 -140.5t23.5 -186.5z" />
<glyph unicode="1" horiz-adv-x="720" d="M487 0h-266l211 1110l-246 -94v250l355 116h211z" />
<glyph unicode="2" horiz-adv-x="999" d="M993 1087q0 -94 -32.5 -183t-86 -167t-115 -144.5t-143.5 -141.5l-206 -203l2 -2q90 4 191.5 5t277.5 1l-52 -252h-819l45 227l279 273q102 94 171.5 168.5t111.5 136t60.5 113t18.5 100.5q0 68 -42 106.5t-119 38.5q-59 0 -127 -19.5t-136 -56.5v238q78 37 170.5 57.5 t180.5 20.5q180 0 275 -84.5t95 -231.5z" />
<glyph unicode="3" horiz-adv-x="948" d="M934 1124q0 -131 -81 -230t-204 -144v-2q49 -16 89 -42t70 -67t39 -74t11 -82q-4 -127 -60.5 -218t-143.5 -156.5t-195.5 -97t-218.5 -31.5q-70 0 -125.5 6t-116.5 22l70 228q82 -29 184 -29q72 0 130 18.5t102 49t69 77.5t27 103q0 31 -14.5 60.5t-57.5 55t-117 34.5 t-211 -7l41 211q111 -2 191 17.5t132 52t79.5 79t27.5 99.5q0 49 -34.5 87t-118.5 38q-68 0 -126.5 -16.5t-109.5 -41.5l12 222q66 25 147 41t161 16q102 0 171.5 -25.5t111.5 -69.5t55.5 -93.5t13.5 -90.5z" />
<glyph unicode="4" horiz-adv-x="1112" d="M752 1137l-453 -602q39 2 103.5 3t122 1h114.5l115 600zM1044 303h-200l-60 -303h-252l58 303h-567l22 223l645 856h359l-162 -839h205z" />
<glyph unicode="5" horiz-adv-x="931" d="M924 1133l-422 2l-56 -275q96 -2 176 -22.5t136.5 -61.5t87.5 -104.5t31 -147.5q0 -104 -42 -202.5t-123 -176t-195 -123t-251 -45.5q-70 0 -138.5 7.5t-127.5 21.5l68 234q49 -14 100 -23.5t119 -9.5q70 0 127 20.5t98 57.5t63.5 86t22.5 106t-29.5 96t-93 57.5 t-149.5 18.5t-162 -8l141 741h666z" />
<glyph unicode="6" horiz-adv-x="1159" d="M819 502q0 76 -42 121t-126 45q-53 0 -103 -20.5t-89 -59.5t-61.5 -93.5t-22.5 -117.5q0 -33 9 -64.5t28.5 -56.5t49.5 -40t70 -15q59 0 111.5 22.5t92.5 63.5t61.5 96.5t21.5 118.5zM1092 1161q-72 14 -158 15q-158 0 -276.5 -85t-192.5 -251q-8 -18 -14.5 -36 t-12.5 -30v-2q57 55 134 84t167 29q88 0 155 -24.5t112 -70t67.5 -104.5t22.5 -127q0 -131 -50.5 -239.5t-136.5 -185.5t-194.5 -117t-225.5 -40q-184 0 -282 104.5t-98 303.5q0 100 21.5 213t66.5 227.5t115.5 218t168 184.5t223 127t277.5 46q41 0 78 -3t78 -7z" />
<glyph unicode="7" horiz-adv-x="921" d="M1006 1157q-82 -127 -164 -273.5t-159 -300t-142.5 -302t-116.5 -281.5h-293q57 147 130 307t152 312.5t153.5 284.5t135.5 226q-20 0 -65 -1t-104.5 -1t-125 -1t-128 -1h-109.5l49 256h828z" />
<glyph unicode="8" horiz-adv-x="1118" d="M737 377q0 61 -41 111.5t-131 105.5q-121 -63 -181 -129t-60 -148q0 -57 44 -90.5t126 -33.5q47 0 91 13t78.5 38.5t54 59.5t19.5 73zM856 1077q0 55 -41 89t-119 34q-98 0 -157.5 -53t-59.5 -131q0 -51 39 -93t113 -92q115 61 170 117.5t55 128.5zM1126 1112 q0 -68 -24.5 -125t-67.5 -103t-96 -84t-121 -77q96 -66 146.5 -141.5t50.5 -178.5q0 -94 -44 -173.5t-123 -136t-181.5 -87.5t-214.5 -31q-199 0 -301.5 83t-102.5 225q0 133 84 233t244 186q-86 63 -128 132t-42 159q0 80 35.5 156t105.5 135t168 93t217 34 q100 0 175 -22.5t124 -63.5t72.5 -95.5t23.5 -117.5z" />
<glyph unicode="9" horiz-adv-x="1165" d="M866 1014q0 72 -43 120t-118 48q-59 0 -109.5 -27t-86.5 -71t-55.5 -99t-19.5 -115q0 -68 34 -112.5t120 -44.5q66 0 118 24.5t87.5 66.5t54 96.5t18.5 113.5zM1147 1001q0 -90 -17.5 -200.5t-57.5 -224t-105.5 -221t-165 -191.5t-232.5 -134t-309 -50q-59 0 -101 4 t-77 8l45 239q68 -23 166 -22q96 0 172 27.5t133 71.5t97 101.5t65 114.5q10 18 18 38t17 36v4q-53 -55 -130 -88t-163 -33q-88 0 -153.5 28t-106.5 74t-61.5 108.5t-20.5 129.5q0 119 43 225.5t120.5 186.5t184 126t235.5 46q201 0 302.5 -111t101.5 -293z" />
<glyph unicode=":" horiz-adv-x="604" d="M430 152q0 -72 -50 -123.5t-120 -51.5q-68 0 -117 48.5t-49 111.5q0 72 52.5 123t121.5 51q68 0 115 -48t47 -111zM541 731q0 -72 -50.5 -123t-119.5 -51q-68 0 -117 48t-49 112q0 72 52 123t122 51q68 0 115 -48.5t47 -111.5z" />
<glyph unicode=";" horiz-adv-x="604" d="M266 305q72 0 120 -56t42 -148.5t-85 -210t-257 -244.5l-94 110q61 51 98 94.5t52.5 80t11.5 69.5t-25 63q-23 35 -23 76q0 43 18.5 80t55.5 61.5t86 24.5zM541 731q0 -74 -51.5 -124t-118.5 -50q-70 0 -117 48t-47 112q0 74 51 124t121 50q68 0 115 -48.5t47 -111.5z " />
<glyph unicode="&#x3c;" d="M496 612l407 -434l-190 -166l-555 619l749 588l154 -181z" />
<glyph unicode="=" d="M985 307h-907l41 211h907zM1061 698h-909l41 211h907z" />
<glyph unicode="&#x3e;" d="M274 12l-151 181l565 425l-409 435l192 166l553 -621z" />
<glyph unicode="?" horiz-adv-x="1005" d="M334 385q-14 102 12.5 179t73.5 137.5t106.5 108.5t110.5 94t87 95.5t36 112.5q0 53 -36 91t-136 38q-68 0 -138.5 -11t-144.5 -34l8 223q78 23 163 37t171 14q199 0 299.5 -83.5t100.5 -219.5q0 -102 -37 -175.5t-91.5 -132t-116 -108t-113.5 -102.5t-83 -115.5 t-22 -148.5h-250zM578 141q0 -72 -49.5 -118t-118.5 -46q-68 0 -109 43t-41 103q0 72 49 119t117 47q70 0 111 -44.5t41 -103.5z" />
<glyph unicode="@" horiz-adv-x="1947" d="M1145 913q-33 12 -80 13q-55 0 -103.5 -35t-83 -91.5t-53 -122t-18.5 -126.5q0 -92 59 -92q29 0 62 23.5t66.5 69.5t65.5 115.5t60 161.5zM1831 918q0 -135 -36 -255t-104.5 -210.5t-170 -140.5t-228.5 -50q-109 0 -159 54.5t-39 142.5h-7q-23 -41 -53 -77t-68 -62.5 t-82 -42t-91 -15.5q-92 0 -149.5 67.5t-57.5 184.5q0 100 26.5 202.5t88 192.5t165 145.5t246.5 55.5q76 0 153.5 -11.5t137.5 -31.5l-115 -397q-33 -111 -17.5 -163t77.5 -52q59 0 109 34.5t87 96t56.5 141.5t19.5 168q0 86 -24.5 162t-81 136t-148.5 94t-221 34 q-166 0 -306.5 -68.5t-240.5 -186.5t-153.5 -264.5t-53.5 -295.5q0 -238 131 -363t396 -125q193 0 380 60l15 -178q-102 -33 -213 -50.5t-213 -17.5q-170 0 -302 45t-221.5 130t-134.5 203t-45 261q0 195 69 380t198 333.5t310 234.5t398 86q162 0 289 -44t212 -124 t128 -187t43 -232z" />
<glyph unicode="A" horiz-adv-x="1255" d="M885 0l-37 295h-510l-150 -295h-270l715 1382h340l192 -1382h-280zM770 938q-4 47 -8 103.5t-6 103.5h-4q-18 -45 -44 -104.5t-46 -100.5l-226 -434h391z" />
<glyph unicode="B" horiz-adv-x="1167" d="M805 457q0 152 -244 151q-102 0 -131 -2l-74 -391q18 -2 54 -4t75 -2q80 0 141.5 20.5t100.5 55t58.5 79t19.5 93.5zM877 1047q0 61 -45.5 97t-149.5 36q-35 0 -71 -1t-72 -3l-70 -367q31 -2 100 -2q156 0 232 69t76 171zM1157 1100q0 -131 -71.5 -227.5t-188.5 -143.5 v-2q88 -23 139 -89.5t51 -156.5q0 -92 -38.5 -178t-117.5 -155.5t-198 -110.5t-274 -41q-35 0 -93.5 2t-148.5 2h-164l262 1380q55 2 157.5 6.5t143.5 4.5h99q229 0 335.5 -78t106.5 -213z" />
<glyph unicode="C" horiz-adv-x="1136" d="M1137 1112q-125 45 -244 45q-133 0 -230.5 -58.5t-157 -153.5t-87 -206.5t-27.5 -220.5q0 -68 17.5 -121t53.5 -92t94 -60.5t138 -21.5q72 0 146.5 16.5t138.5 43.5l2 -240q-80 -27 -178 -43t-185 -16q-152 0 -255 43t-160.5 114.5t-81 154.5t-23.5 171q0 168 47.5 331 t146.5 299t257 217t369 81q82 0 153.5 -10.5t136.5 -30.5z" />
<glyph unicode="D" horiz-adv-x="1339" d="M1047 864q0 72 -17.5 127.5t-56.5 94t-104.5 60t-161.5 21.5q-109 0 -170 -6l-179 -932q27 -4 62 -7t63 -3q150 0 258.5 59.5t176 156.5t98.5 210t31 219zM1329 891q0 -178 -55 -340t-167 -288t-280 -198.5t-383 -72.5q-100 0 -210.5 4t-180.5 6l262 1378q49 2 98.5 4 t105.5 3.5t114.5 2.5t114.5 1q291 0 436 -127t145 -373z" />
<glyph unicode="E" horiz-adv-x="1024" d="M1040 1159h-505l-66 -340h463l-41 -217h-461l-72 -373h506l-43 -229h-506h-262l262 1382h263h505z" />
<glyph unicode="F" horiz-adv-x="946" d="M1016 1155h-481l-68 -360h446l-43 -217h-446l-109 -578h-262l262 1382h744z" />
<glyph unicode="G" horiz-adv-x="1353" d="M1288 1102q-82 31 -168 47t-168 16q-143 0 -252.5 -54t-180 -146.5t-104.5 -202t-34 -221.5q0 -74 19.5 -132.5t60.5 -101.5t106.5 -65.5t153.5 -22.5q55 0 103 6t94 21l90 479h262l-127 -664q-106 -39 -230.5 -60t-238.5 -21q-145 0 -255 36.5t-180.5 105t-105.5 165 t-35 219.5q0 170 58.5 330.5t171 288.5t279.5 203t374 75q100 0 196.5 -14.5t188.5 -40.5z" />
<glyph unicode="H" horiz-adv-x="1378" d="M1151 0h-262l115 600h-574l-115 -600h-262l262 1382h263l-107 -553h576l104 553h262z" />
<glyph unicode="I" horiz-adv-x="542" d="M315 0h-262l262 1382h263z" />
<glyph unicode="J" horiz-adv-x="696" d="M543 379q-18 -90 -52 -163t-87.5 -125t-131 -80.5t-178.5 -28.5q-45 0 -95 5t-85 11l41 229q55 -20 133 -20q80 0 130 45t71 149l186 981h260z" />
<glyph unicode="K" horiz-adv-x="1198" d="M707 700l376 -700h-325l-316 664l-127 -664h-262l262 1382h263l-119 -622l549 622h331z" />
<glyph unicode="L" horiz-adv-x="860" d="M754 0h-701l262 1382h263l-220 -1153h439z" />
<glyph unicode="M" horiz-adv-x="1798" d="M1649 0h-267l48 680q10 127 24 243.5t31 206.5h-6q-78 -199 -172 -385l-387 -745h-242l-103 717q-12 115 -21 225.5t-9 187.5h-4q-20 -96 -50 -215.5t-65 -240.5l-197 -674h-252l424 1382h355l100 -716q8 -61 12 -136t4 -145h5q31 82 59.5 152.5t56.5 128.5l377 716h375z " />
<glyph unicode="N" horiz-adv-x="1376" d="M1149 0h-311l-277 776q-23 66 -41 135.5t-31 135.5q-12 -90 -47.5 -297t-64.5 -361l-74 -389h-250l262 1382h338l267 -743q20 -66 36.5 -128t28.5 -124q10 94 43 281.5t68 365.5l65 348h250z" />
<glyph unicode="O" horiz-adv-x="1421" d="M1137 858q0 143 -72 225t-217 82q-109 0 -198 -54t-150.5 -146.5t-94 -207t-32.5 -233.5q0 -143 71.5 -225t217.5 -82q109 0 197.5 54.5t150 146.5t94.5 206.5t33 233.5zM1419 903q0 -184 -57 -352t-163.5 -297t-256 -203t-328.5 -74q-262 0 -393 135.5t-131 368.5 q0 184 56.5 351t164 297.5t257 203t327.5 72.5q262 0 393 -135.5t131 -366.5z" />
<glyph unicode="P" horiz-adv-x="1110" d="M887 987q0 84 -56.5 134t-177.5 50q-61 0 -116 -2l-95 -497q16 -2 49 -6t66 -4q84 0 147.5 28.5t103.5 76.5t59.5 105.5t19.5 114.5zM1163 1028q0 -109 -41 -213t-121.5 -188t-203.5 -134.5t-279 -50.5q-39 0 -71.5 2t-47.5 2l-84 -446h-262l262 1382q51 2 159 5.5 t218 3.5q231 0 351 -99.5t120 -263.5z" />
<glyph unicode="Q" horiz-adv-x="1421" d="M1010 125q31 0 65.5 -8t72.5 -18.5t85 -13.5t110 5l-45 -225q-78 -12 -138 -9t-105 15t-86 28.5t-92.5 37t-101.5 30.5t-113 10h-48q-262 0 -393 135.5t-131 366.5q0 184 56.5 352t164 297t257 203t327.5 74q262 0 393 -135t131 -367q0 -139 -31.5 -266t-88 -229.5 t-131 -175t-158.5 -107.5zM1137 858q0 143 -72 225t-217 82q-109 0 -198 -54t-150.5 -146.5t-94 -207t-32.5 -233.5q0 -143 71.5 -225t217.5 -82q109 0 197.5 54.5t150 146.5t94.5 206.5t33 233.5z" />
<glyph unicode="R" horiz-adv-x="1153" d="M866 1020q0 72 -51 113t-160 41q-35 0 -68.5 -2.5t-49.5 -4.5l-78 -409q12 0 42.5 -1t65.5 -1q80 0 138.5 23.5t93.5 61.5t51 84t16 95zM1147 1071q0 -78 -22.5 -152.5t-69.5 -139t-121 -111.5t-172 -72q10 -16 30.5 -56t41.5 -87l208 -453h-313l-235 557h-74l-105 -557 h-262l262 1382q49 2 157 5.5t228 3.5q219 0 333 -84t114 -236z" />
<glyph unicode="S" horiz-adv-x="1009" d="M946 1145q-55 18 -119.5 28.5t-124.5 10.5q-57 0 -103 -13.5t-76.5 -38t-46 -56.5t-15.5 -66q0 -49 30.5 -86t92 -75t121 -74t108.5 -80t81 -108.5t32 -150.5q0 -88 -38 -171t-112 -147.5t-184.5 -102.5t-249.5 -38q-84 0 -168 10.5t-158 28.5l70 254q70 -29 146.5 -45 t156.5 -16q123 0 188.5 54t65.5 136q0 51 -30.5 90t-94 79t-119 74t-103.5 78t-80 106.5t-32 146.5q0 88 38 166t111 138t178 94t237 34q61 0 131.5 -7t130.5 -20z" />
<glyph unicode="T" horiz-adv-x="1024" d="M1126 1155h-350l-221 -1155h-260l219 1155h-350l43 227h481h481z" />
<glyph unicode="U" horiz-adv-x="1366" d="M1235 508q-51 -268 -216 -399.5t-431 -131.5q-152 0 -249 40t-145.5 111t-57.5 166t14 212l165 876h263l-172 -897q-29 -145 22 -215.5t197 -70.5q156 0 239.5 77.5t116.5 253.5l164 852h258z" />
<glyph unicode="V" horiz-adv-x="1261" d="M715 0h-340l-193 1382h281l100 -827q8 -74 15.5 -156t9.5 -151h2q29 70 66.5 152.5t74.5 158.5l420 823h279z" />
<glyph unicode="W" horiz-adv-x="1923" d="M1450 0h-320l-63 756q-4 55 -2 122.5t8 129.5h-6q-53 -164 -90 -252l-346 -756h-330l-76 1382h275l35 -755q2 -100 -0.5 -184.5t-8.5 -159.5h6q31 90 62 173t68 167l348 759h264l61 -768q6 -80 8.5 -166t-0.5 -165h5q35 106 60.5 181t53.5 146l326 772h260z" />
<glyph unicode="X" horiz-adv-x="1261" d="M838 702l309 -702h-316l-194 508l-389 -508h-318l572 713l-279 669h293l184 -479l363 479h307z" />
<glyph unicode="Y" d="M700 510l-96 -510h-260l96 508l-268 874h279l114 -389q25 -88 51 -219h2q35 59 73 119.5t77 118.5l252 370h285z" />
<glyph unicode="Z" horiz-adv-x="1077" d="M1116 1167l-661 -829q-35 -41 -48.5 -58.5t-31.5 -37.5q33 4 291 4h282l-45 -246h-901l39 205l633 811q25 31 50.5 60.5t61.5 70.5q-45 -2 -97 -3t-142 -1h-309l45 239h874z" />
<glyph unicode="[" horiz-adv-x="657" d="M760 1384h-199l-305 -1593h201l-39 -211h-203h-238l383 2011h240h201z" />
<glyph unicode="\" horiz-adv-x="962" d="M571 -330l-348 1880h244l350 -1880h-246z" />
<glyph unicode="]" horiz-adv-x="657" d="M348 -420h-244h-198l39 211h200l304 1593h-201l41 207h198h244z" />
<glyph unicode="^" d="M860 690l-174 506l-354 -506l-160 92l446 600h205l236 -598z" />
<glyph unicode="_" d="M942 -504h-1126l41 211h1124z" />
<glyph unicode="`" horiz-adv-x="702" d="M590 1143l-279 272l160 148l254 -299z" />
<glyph unicode="a" horiz-adv-x="1110" d="M784 817q-27 6 -55.5 10t-58.5 4q-84 0 -149.5 -44t-108.5 -116.5t-64.5 -157.5t-21.5 -169q0 -72 20.5 -106.5t56.5 -34.5q51 0 109.5 53t112 138t91.5 180.5t54 177.5zM1075 1006q-20 -104 -57 -299t-57.5 -301.5t-39 -208t-32.5 -197.5h-254q14 59 37.5 138t58.5 186 h-4q-35 -66 -77 -124.5t-95 -109.5t-117.5 -82t-136.5 -31q-119 0 -179.5 78t-60.5 240q0 147 40 280.5t122 238t206 163.5t286 59q98 0 188 -7t172 -23z" />
<glyph unicode="b" horiz-adv-x="1110" d="M803 674q0 74 -19.5 107.5t-58.5 33.5q-51 0 -109.5 -53t-111.5 -137t-91 -179.5t-55 -175.5l-12 -69q27 -6 54.5 -10.5t60.5 -4.5q84 0 149.5 44t107.5 117t63.5 158t21.5 169zM1069 723q0 -147 -40 -280.5t-122 -238t-207 -163.5t-286 -59q-195 0 -359 36l281 1477h256 l-82 -430q-6 -35 -16.5 -73t-23.5 -81t-30.5 -95t-42.5 -122h4q39 78 86.5 141.5t100.5 109.5t114.5 70.5t126.5 24.5q119 0 179.5 -77.5t60.5 -239.5z" />
<glyph unicode="c" horiz-adv-x="827" d="M805 786q-78 31 -160 31q-76 0 -134 -38t-97 -101.5t-58.5 -139t-19.5 -149.5q0 -39 9 -70.5t29.5 -56t55.5 -39t86 -14.5q49 0 97.5 10t91.5 27l-17 -226q-57 -20 -120.5 -31.5t-127.5 -11.5q-100 0 -172.5 25t-118 72t-67 111.5t-21.5 146.5q0 145 42 274t121 226.5 t189.5 151.5t245.5 54q55 0 106.5 -7t100.5 -19z" />
<glyph unicode="d" horiz-adv-x="1110" d="M784 817q-27 6 -55.5 10t-58.5 4q-84 0 -149.5 -44t-108.5 -116.5t-64.5 -157.5t-21.5 -169q0 -72 20.5 -106.5t56.5 -34.5q51 0 109.5 53t112 138t91.5 180.5t54 177.5zM954 367q-4 -27 -15 -88.5t-19.5 -102.5t-15.5 -86t-15 -90h-252q10 55 31.5 128t62.5 196h-4 q-35 -66 -77 -124.5t-95 -109.5t-117.5 -82t-136.5 -31q-119 0 -179.5 78t-60.5 240q0 147 40 280.5t122 238t206 163.5t286 59q27 0 52.5 -2t55.5 -6l88 467h258z" />
<glyph unicode="e" horiz-adv-x="989" d="M713 756q0 43 -29 65.5t-78 22.5t-89 -20.5t-71.5 -55.5t-54 -81t-37.5 -97q184 6 271.5 47t87.5 119zM967 791q0 -90 -43 -159t-126 -115t-202 -71.5t-270 -29.5q-2 -14 -4.5 -37t-2.5 -43q0 -86 40 -118t147 -32q72 0 147.5 15.5t147.5 44.5l4 -201q-86 -33 -183.5 -49 t-199.5 -16q-190 0 -275.5 85t-85.5 259q0 156 44.5 287.5t124 228t184 147.5t223.5 51q90 0 154.5 -20.5t102.5 -55t55.5 -78.5t17.5 -93z" />
<glyph unicode="f" horiz-adv-x="710" d="M889 1282q-27 8 -60.5 12t-60.5 4q-88 0 -135 -50t-70 -171l-12 -59h233l-39 -203h-233l-160 -852q-45 -244 -163.5 -357.5t-313.5 -113.5q-98 0 -170 16l57 216q29 -6 61 -10.5t56 -4.5q43 0 76 11.5t59.5 40t46 77.5t33.5 125l162 852h-174l41 203h172l14 76 q41 211 153.5 314t321.5 103q39 0 82 -4t80 -12z" />
<glyph unicode="g" horiz-adv-x="1110" d="M784 817q-27 6 -55.5 10t-58.5 4q-84 0 -149.5 -44t-108.5 -116.5t-64.5 -157.5t-21.5 -169q0 -72 20.5 -106.5t56.5 -34.5q51 0 109.5 53t112 138t91.5 180.5t54 177.5zM870 -63q-20 -109 -64 -191t-117 -139.5t-180.5 -87t-248.5 -29.5q-84 0 -159.5 10.5t-139.5 28.5 l64 235q61 -25 136 -39t142 -14q141 0 218 60.5t104 195.5q8 43 18 84t22.5 82t28 86t35.5 98l-4 2q-35 -63 -76 -121.5t-94 -108.5t-117.5 -81t-136.5 -31q-119 0 -179.5 78t-60.5 240q0 147 40 280.5t122 238t206 163.5t286 59q92 0 180 -8t180 -22z" />
<glyph unicode="h" horiz-adv-x="1144" d="M920 0h-256l120 639q18 92 3 134t-64 42t-105.5 -51t-109.5 -136t-93 -183.5t-57 -186.5l-49 -258h-256l283 1495h256l-82 -430q-12 -72 -38 -156t-71 -207h5q37 72 81.5 132.5t98 106.5t116 72.5t132.5 26.5q72 0 121 -24.5t75.5 -69.5t31.5 -107.5t-9 -138.5z" />
<glyph unicode="i" horiz-adv-x="534" d="M307 0h-254l193 1018h254zM594 1339q0 -72 -50 -121t-120 -49q-68 0 -111 44t-43 106q0 35 14.5 65.5t38 54t55.5 36t64 12.5q66 0 109 -44.5t43 -103.5z" />
<glyph unicode="j" horiz-adv-x="542" d="M295 -100q-18 -98 -52 -174t-87.5 -128.5t-128 -79t-172.5 -26.5q-92 0 -158 16l53 224q25 -10 55.5 -15.5t65.5 -5.5q74 0 111.5 43t58.5 154l213 1110h256zM602 1339q0 -72 -51 -121t-121 -49q-66 0 -108.5 44t-42.5 106q0 35 13 65.5t37.5 54t55.5 36t64 12.5 q66 0 109.5 -44.5t43.5 -103.5z" />
<glyph unicode="k" horiz-adv-x="1038" d="M662 555l272 -555h-309l-219 516l-99 -516h-256l285 1495h254l-168 -887l444 469l201 -133z" />
<glyph unicode="l" horiz-adv-x="534" d="M307 0h-254l283 1495h254z" />
<glyph unicode="m" horiz-adv-x="1740" d="M1513 0h-256l123 639q16 92 2 135t-61 43q-45 0 -99.5 -48t-107.5 -129t-95 -181.5t-61 -200.5l-47 -258h-256l123 639q16 94 2 136t-61 42q-45 0 -99.5 -48t-107.5 -129t-95 -181.5t-61 -200.5l-49 -258h-256l103 532q14 70 24 129.5t21.5 119t21.5 120t21 117.5h252 q-10 -51 -33 -129t-60 -187h5q37 72 79.5 132.5t95 106.5t115 72.5t131.5 26.5q96 0 151.5 -50t55.5 -148q0 -29 -7 -60.5t-23 -87.5h4q37 74 81 136.5t97 109.5t115.5 73.5t132.5 26.5q139 0 192 -91t23 -247z" />
<glyph unicode="n" horiz-adv-x="1144" d="M920 0h-258l122 639q18 92 3 134t-64 42t-106.5 -51t-110.5 -136t-93 -183.5t-57 -186.5l-49 -258h-256l103 532q14 70 24 129.5t21.5 119t21.5 120t21 117.5h252q-10 -53 -32 -129t-61 -187h5q37 72 80.5 132.5t97 106.5t117 72.5t133.5 26.5q72 0 121 -24.5t75.5 -69.5 t31.5 -106.5t-9 -137.5z" />
<glyph unicode="o" horiz-adv-x="1110" d="M799 631q0 84 -42 135t-126 51q-76 0 -133.5 -40t-95 -104.5t-55 -139t-17.5 -146.5q0 -84 42 -134t128 -50q76 0 133 39t94 103.5t54.5 139t17.5 146.5zM1069 670q0 -141 -44 -266t-125 -221.5t-193.5 -149.5t-245.5 -53q-205 0 -303.5 101t-98.5 267q0 141 44 266 t125 221.5t194 149.5t246 53q104 0 181 -27.5t126 -77.5t71.5 -116.5t22.5 -146.5z" />
<glyph unicode="p" horiz-adv-x="1110" d="M805 674q0 72 -20.5 106.5t-57.5 34.5q-51 0 -109.5 -53t-111.5 -137t-91 -179.5t-55 -175.5l-12 -65q27 -8 57.5 -13.5t57.5 -5.5q84 0 148.5 44t107.5 117t64.5 158t21.5 169zM1069 723q0 -147 -40 -280.5t-122 -238t-205.5 -163.5t-285.5 -59q-29 0 -54.5 2t-56.5 6 l-90 -484h-258l197 1024q8 43 22 118t24.5 133.5t20.5 119t21 117.5h252q-6 -31 -14.5 -61.5t-18.5 -67.5t-24.5 -82t-35.5 -109l5 -2q39 78 84 140.5t99 108.5t114.5 70.5t125.5 24.5q119 0 179.5 -77.5t60.5 -239.5z" />
<glyph unicode="q" horiz-adv-x="1110" d="M784 817q-27 6 -55.5 10t-58.5 4q-84 0 -149.5 -44t-108.5 -116.5t-64.5 -157.5t-21.5 -169q0 -72 20.5 -106.5t56.5 -34.5q51 0 109.5 53t112 138t91.5 180.5t54 177.5zM791 -494h-256l77 420q10 47 20.5 91t25 90.5t32 98.5t41.5 118h-4q-35 -66 -77 -124.5t-95 -109.5 t-117.5 -82t-136.5 -31q-119 0 -179.5 78t-60.5 240q0 147 40 280.5t122 238t206 163.5t286 59q94 0 185 -8t175 -24z" />
<glyph unicode="r" horiz-adv-x="718" d="M745 786q-55 16 -114.5 -19.5t-114.5 -115.5t-99 -191.5t-67 -238.5l-43 -221h-256l103 532q14 70 24 129.5t21.5 119t21.5 120t21 117.5h247q-10 -61 -31.5 -134t-56.5 -173h5q43 88 84.5 150.5t89 106.5t102.5 62.5t119 7.5z" />
<glyph unicode="s" horiz-adv-x="794" d="M707 821q-39 10 -78 16.5t-72 6.5q-76 0 -116 -29t-40 -78q0 -43 27 -70.5t104.5 -90t115.5 -120t38 -139.5q0 -68 -28.5 -129t-86 -108t-145.5 -73.5t-203 -26.5q-123 0 -213 22l49 215q39 -14 92.5 -24.5t96.5 -10.5q82 0 125 30t43 85q0 43 -27 70.5t-103.5 90 t-114.5 120t-38 139.5q0 66 28.5 124t85 103t139.5 70.5t187 25.5q84 0 177 -16z" />
<glyph unicode="t" horiz-adv-x="751" d="M750 815h-242l-88 -463q-16 -90 0 -121.5t80 -31.5q33 0 62.5 4t62.5 10l-21 -207q-51 -12 -107.5 -19t-103.5 -7q-164 0 -217 81.5t-18 266.5l94 487h-174l39 203h174l59 313l266 53l-69 -366h239z" />
<glyph unicode="u" horiz-adv-x="1142" d="M1008 485q-12 -59 -22.5 -119.5t-22 -122t-21.5 -122t-20 -121.5h-252q12 57 32.5 132t59.5 183h-4q-37 -72 -82 -132t-98.5 -106t-116 -73t-131.5 -27q-72 0 -121 25t-76 70t-32 106.5t10 136.5l133 703h256l-121 -639q-18 -92 -3 -134t64 -42t105.5 51t110 136 t93 183.5t56.5 186.5l49 258h256z" />
<glyph unicode="v" horiz-adv-x="1015" d="M573 0h-307l-149 1018h268l68 -492q6 -61 10 -129.5t4 -124.5h4l377 791l248 -76z" />
<glyph unicode="w" horiz-adv-x="1597" d="M1671 989l-489 -989h-283l-53 463q-6 57 -8 118.5t-4 118.5q-74 -182 -157 -354t-163 -346h-283l-104 1018h276l37 -451q0 -8 1 -29.5t2 -50t2 -59.5t2.5 -57.5t2.5 -45t3 -22.5q37 100 81 199.5t87 191.5l155 324h258l47 -440q2 -27 4 -47.5t3.5 -48t2.5 -58.5t2 -76 t1 -46t4 -1q35 96 54 144.5t62 148.5l213 469z" />
<glyph unicode="x" horiz-adv-x="1058" d="M721 514l229 -514h-313l-129 344l-338 -405l-221 127l430 452l-232 500h297l134 -336l331 395l203 -123z" />
<glyph unicode="y" horiz-adv-x="1007" d="M825 1061l248 -70q-102 -240 -200.5 -440.5t-192.5 -364t-184 -288.5t-181 -213q-98 -100 -195 -147.5t-222 -47.5h-33t-29 2q-16 2 -31 4l41 225q14 -4 31 -6q12 -4 28.5 -5t35.5 -1q61 0 116.5 27.5t95.5 79t62.5 128t22.5 175.5q0 86 -8.5 189.5t-25 218t-41 239.5 t-54.5 252h280q16 -78 31.5 -164t26 -168t16.5 -152.5t6 -117.5q0 -68 -5 -117t-15 -92q8 10 18 30.5t21.5 45t21.5 47t16 39.5q39 74 75 154.5t72 165.5t73.5 178.5t78.5 193.5v0z" />
<glyph unicode="z" horiz-adv-x="894" d="M862 831l-481 -593q41 2 217 2h160l-45 -240h-709l35 186l491 600q-35 -2 -87 -3t-119 -1h-160l45 236h688z" />
<glyph unicode="{" horiz-adv-x="727" d="M842 1384q-49 0 -84 -10t-59.5 -36.5t-42 -73.5t-31.5 -121l-33 -176q-16 -84 -41 -143.5t-56.5 -98.5t-69.5 -58.5t-81 -25.5v-4q78 -12 116 -89t5 -239l-53 -274q-14 -74 -15.5 -122t13 -74.5t45 -37t80.5 -10.5l-41 -211h-41q-197 0 -261.5 112.5t-17.5 344.5l53 276 q27 129 -17 176.5t-140 53.5l39 196q51 2 91 13.5t69.5 36t50 65.5t32.5 107l33 178q41 223 145.5 337.5t305.5 114.5h45z" />
<glyph unicode="|" horiz-adv-x="577" d="M205 -494h-205l391 2048h205z" />
<glyph unicode="}" horiz-adv-x="727" d="M696 543q-53 -4 -93 -15.5t-69.5 -37t-50 -68.5t-32.5 -109l-54 -274q-23 -121 -59.5 -207t-90.5 -141.5t-128 -82t-172 -26.5h-43l39 209q49 0 83.5 10.5t59.5 38t41 75.5t31 122l53 272q33 170 98.5 246t151.5 86v4q-41 6 -71 26.5t-47 58.5t-19 96.5t14 140.5l35 176 q14 74 14 121t-14.5 73.5t-44 36.5t-78.5 10l39 207h41q199 0 262 -112.5t18 -339.5l-37 -178q-12 -66 -7 -107t25.5 -65.5t56.5 -36t85 -13.5z" />
<glyph unicode="~" d="M1169 1196q-8 -174 -97 -269.5t-234 -95.5q-55 0 -96.5 14.5t-69 38t-51 52.5t-45 54.5t-42 39.5t-47.5 14q-49 0 -77.5 -41.5t-38.5 -121.5h-195q8 174 97 269t235 95q80 0 129 -28.5t99 -91t67.5 -79t54.5 -16.5q49 0 78 42t39 124h194z" />
<glyph unicode="&#xa1;" horiz-adv-x="645" d="M285 -432h-299l239 1065h221zM545 895q0 -72 -49.5 -119t-118.5 -47q-66 0 -109 44t-43 104q0 72 49.5 117.5t118.5 45.5q66 0 109 -43t43 -102z" />
<glyph unicode="&#xa2;" horiz-adv-x="911" d="M780 254q-43 -16 -90 -27.5t-96 -15.5l-51 -260h-193l49 264q-70 10 -125 39t-92 74t-56.5 107.5t-19.5 137.5q0 117 35 221.5t99.5 187.5t152.5 138.5t195 75.5l43 225h192l-39 -213q43 -4 87 -12t83 -22l-65 -222q-39 23 -84 33t-96 10q-66 0 -124.5 -24.5 t-103.5 -72.5t-69.5 -114.5t-24.5 -148.5q0 -45 12.5 -83t37 -64.5t64.5 -42t93 -15.5t107.5 13.5t105.5 37.5z" />
<glyph unicode="&#xa3;" horiz-adv-x="956" d="M825 817l-39 -201h-241q-16 -145 -61.5 -235t-141.5 -166q92 12 213 12h307l-43 -227h-823l35 182q70 45 113.5 84t72.5 87t45.5 110.5t22.5 152.5h-197l39 201h170q0 84 9 158t30.5 139.5t57.5 119.5t89.5 93t129 59.5t171.5 20.5q66 0 121.5 -7t104.5 -24l-72 -215 q-35 14 -78 22.5t-80 8.5q-41 0 -72.5 -9t-55 -26.5t-40 -43.5t-28 -56.5t-17.5 -68.5t-9 -79t-3 -92h270z" />
<glyph unicode="&#xa4;" d="M788 752q0 63 -33.5 99t-105.5 36q-51 0 -94 -22.5t-73.5 -62.5t-46 -89t-15.5 -103q0 -68 32.5 -106.5t100.5 -38.5q57 0 101 25.5t74 68.5t45 93.5t15 99.5zM995 918q12 -23 19.5 -55t7.5 -68q0 -98 -32 -186.5t-101 -170.5l123 -200l-224 -142l-116 211 q-82 -33 -158 -33q-33 0 -60.5 5.5t-50.5 13.5l-178 -195l-180 150l174 176q-33 53 -33 147q0 96 34 186.5t104 166.5l-113 188l221 137l109 -198q74 27 151 26q37 0 69 -5t58 -17l182 196l175 -151z" />
<glyph unicode="&#xa5;" horiz-adv-x="1206" d="M825 633h250l-33 -166h-311l-22 -119h311l-31 -170h-311l-33 -178h-260l33 178h-312l33 170h312l22 119h-311l33 166h249l-223 749h277l104 -376q16 -57 28.5 -113.5t24.5 -118.5h2q33 63 74 128t88 130l240 350h282z" />
<glyph unicode="&#xa6;" horiz-adv-x="577" d="M205 -494h-205l150 775h202zM451 801h-203l143 753h205z" />
<glyph unicode="&#xa7;" horiz-adv-x="1062" d="M692 512q0 35 -13 69.5t-38 69.5t-50.5 64.5t-98.5 113.5q-49 -33 -73 -77.5t-24 -98.5q0 -63 45 -125.5t158 -185.5q47 33 70.5 78t23.5 92zM936 1278q-70 20 -139 20q-53 0 -91 -14t-59.5 -37.5t-31 -50.5t-9.5 -55q0 -47 58.5 -115t118 -132.5t103.5 -147t44 -189.5 q0 -102 -56.5 -195.5t-154.5 -156.5q18 -29 29.5 -68t11.5 -82q0 -94 -42 -168.5t-115 -125t-162 -77t-183 -26.5q-53 0 -101 5t-87 15l55 222q43 -12 80 -19.5t71 -7.5q57 0 97.5 15.5t64 40t33.5 52t10 54.5q0 37 -21.5 73.5t-63.5 82t-84 89.5t-75.5 92t-56 106.5 t-22.5 125.5q0 109 55 202t158 163q-23 41 -34 78.5t-11 80.5q0 59 26.5 125t84 125.5t151.5 96t223 36.5q47 0 92 -4t86 -12z" />
<glyph unicode="&#xa8;" horiz-adv-x="944" d="M575 1333q0 -61 -43 -104t-102 -43q-57 0 -96 41t-39 96q0 61 43 103t102 42q57 0 96 -40t39 -95zM981 1333q0 -61 -43 -104t-102 -43q-57 0 -96.5 41t-39.5 98q0 61 43 102t103 41q57 0 96 -40t39 -95z" />
<glyph unicode="&#xa9;" horiz-adv-x="1529" d="M999 846q-43 33 -120 33q-53 0 -90 -25t-59.5 -62.5t-34 -83.5t-11.5 -92q0 -115 111 -114q35 0 73.5 6t73.5 22l6 -168q-49 -23 -102 -31.5t-103 -8.5q-131 0 -201.5 69.5t-70.5 194.5q0 90 28.5 174t82 148.5t131.5 102.5t174 38q59 0 101 -8.5t73 -22.5zM1309 709 q0 98 -37 186t-101.5 153.5t-152.5 103.5t-189 38q-104 0 -199 -40t-167 -111.5t-115 -169t-43 -212.5q0 -98 37 -186t102.5 -153.5t152.5 -103.5t189 -38q104 0 198.5 40t166.5 111.5t115 169t43 212.5zM1509 721q0 -160 -60 -295t-161.5 -233.5t-233.5 -153.5t-278 -55 q-143 0 -266 52t-212 141t-140.5 210t-51.5 260q0 156 59.5 291t161 233.5t234.5 154.5t279 56q141 0 263 -51t213 -141t142 -211t51 -258z" />
<glyph unicode="&#xaa;" horiz-adv-x="833" d="M647 1225q-35 8 -80 8q-49 0 -91 -26.5t-69.5 -71.5t-43 -99.5t-15.5 -109.5q0 -49 12.5 -70.5t38.5 -21.5q35 0 72 28.5t70.5 78.5t58.5 111.5t37 125.5zM731 360h-643l37 191h641zM879 1376q-10 -53 -35 -182t-41.5 -216t-30.5 -170t-22 -142h-203q8 37 21.5 83 t33.5 99h-2q-55 -96 -126 -147.5t-155 -51.5q-184 0 -184 230q0 104 31 198t91 168t149.5 115t201.5 41q63 0 133 -6.5t138 -18.5z" />
<glyph unicode="&#xab;" horiz-adv-x="1071" d="M358 598l117 -307l-213 -90l-151 411l288 389l189 -98zM797 598l131 -295l-209 -92l-172 399l307 381l182 -98z" />
<glyph unicode="&#xac;" d="M950 195h-233l59 305h-690l41 219h922z" />
<glyph unicode="&#xad;" horiz-adv-x="669" d="M582 463h-492l41 211h492z" />
<glyph unicode="&#xae;" horiz-adv-x="1132" d="M750 1192q0 35 -48 35h-34l-19 -105h21q37 0 58.5 19.5t21.5 50.5zM887 1217q0 -113 -119 -154q14 -25 25 -59l41 -140h-142l-43 174h-18l-33 -174h-119l86 457h119h57q78 0 112 -27.5t34 -76.5zM997 1106q0 61 -22.5 116.5t-62.5 98.5t-94 67.5t-118 24.5 q-66 0 -125 -25.5t-105 -71.5t-72.5 -108.5t-26.5 -136.5q0 -63 22.5 -119.5t62.5 -99.5t94 -67.5t118 -24.5q63 0 123.5 26.5t105.5 72.5t72.5 109.5t27.5 137.5zM1157 1112q0 -109 -42 -200t-110.5 -157.5t-158.5 -103.5t-187 -37q-96 0 -178 34t-141 93.5t-94 140.5 t-35 175q0 111 41 203t109.5 158.5t158.5 103.5t187 37q94 0 177 -34t143 -93.5t95 -141.5t35 -178z" />
<glyph unicode="&#xaf;" horiz-adv-x="804" d="M819 1229h-540l34 188h543z" />
<glyph unicode="&#xb0;" horiz-adv-x="778" d="M639 1251q0 25 -6 43.5t-19.5 32.5t-31 21.5t-39.5 7.5q-53 0 -88 -41t-35 -101q0 -47 25.5 -75.5t70.5 -28.5q53 0 88 41t35 100zM831 1272q0 -72 -25.5 -132.5t-72.5 -103.5t-107.5 -66.5t-129.5 -23.5q-129 0 -199 66.5t-70 181.5q0 72 26 132t72 103.5t107.5 67 t130.5 23.5q66 0 116 -17.5t84 -50.5t51 -79t17 -101z" />
<glyph unicode="&#xb1;" d="M950 0h-952l41 219h950zM1090 709h-359l-69 -375h-250l71 375h-358l41 217h358l72 372h250l-72 -372h359z" />
<glyph unicode="&#xb2;" horiz-adv-x="745" d="M123 733l33 187l182 151q63 53 107 95t70 76t37 61.5t11 54.5q0 39 -22.5 60.5t-73.5 21.5q-43 0 -89 -12.5t-87 -30.5l-4 184q25 10 55.5 19.5t65 16.5t69.5 10t68 3q141 0 211.5 -56t70.5 -163q0 -51 -15 -99t-44 -93t-70 -90.5t-98 -96.5l-121 -104q51 2 114.5 3 t170.5 1l-39 -199h-602z" />
<glyph unicode="&#xb3;" horiz-adv-x="731" d="M756 1049q0 -76 -34 -137.5t-95.5 -105.5t-140 -66.5t-169.5 -22.5q-49 0 -103 5t-93 13l43 168q31 -10 73 -15t80 -5q86 0 138.5 34.5t52.5 98.5q0 45 -46 67.5t-130 22.5q-18 0 -41 -1t-51 -3l22 153q66 0 120 8.5t94 26t61.5 44t21.5 63.5t-26.5 54t-75.5 17 q-43 0 -90.5 -9t-87.5 -25l4 157q25 8 55.5 15.5t64 12.5t67.5 8t62 3q131 0 201 -48t70 -134q0 -41 -13.5 -80t-38 -70.5t-56 -55t-66.5 -36.5q55 -14 91 -58t36 -99z" />
<glyph unicode="&#xb4;" horiz-adv-x="702" d="M379 1143l-94 129l350 291l117 -160z" />
<glyph unicode="&#xb5;" horiz-adv-x="1167" d="M1051 -6q-29 -6 -59.5 -9t-55.5 -3q-104 0 -151.5 37.5t-47.5 123.5q0 31 7.5 73t27.5 99h-2q-35 -72 -75 -132t-86 -105t-94 -69.5t-97 -24.5q-117 0 -135 96q-2 -35 -2 -72t-5 -65q-16 -102 -24 -207t-6 -230h-258q6 170 25.5 314.5t46 278.5t57 264.5t57.5 271.5 l72 383h256l-109 -572q-14 -72 -17 -118.5t4 -74.5t23.5 -39t40.5 -11q49 0 106.5 53t109 136t91.5 180.5t56 187.5l49 258h256l-108 -576q-12 -63 -17.5 -107t-5.5 -71q0 -37 11.5 -51t39.5 -14h15q8 0 20 4z" />
<glyph unicode="&#xb6;" horiz-adv-x="1193" d="M590 473q-102 0 -178 25.5t-125 74t-74 116t-25 149.5q0 104 38 201.5t112 174t180.5 122.5t243.5 46zM1227 1174h-131l-260 -1371h-218h-139l39 209h139l263 1370h217h129z" />
<glyph unicode="&#xb7;" horiz-adv-x="540" d="M465 614q0 -37 -13.5 -68.5t-37 -55t-55 -37t-66.5 -13.5q-70 0 -116 48.5t-46 115.5q0 37 13.5 69t38 56.5t56 37.5t66.5 13t64.5 -13t51 -36.5t33 -53.5t11.5 -63z" />
<glyph unicode="&#xb8;" horiz-adv-x="559" d="M258 -82q55 -106 29.5 -205.5t-121.5 -191.5h-209q90 92 109.5 166.5t-33.5 165.5z" />
<glyph unicode="&#xb9;" horiz-adv-x="595" d="M276 733l127 664l-178 -62v195l252 84h213l-168 -881h-246z" />
<glyph unicode="&#xba;" horiz-adv-x="854" d="M682 1106q0 55 -25.5 86t-83.5 31q-45 0 -80.5 -23.5t-59 -64.5t-35 -89.5t-11.5 -97.5q0 -57 26.5 -88t82.5 -31q45 0 80.5 25t59 64.5t35 89t11.5 98.5zM729 360h-639l35 191h639zM893 1135q0 -96 -28.5 -183.5t-84 -156t-136.5 -107.5t-183 -39q-141 0 -213 73 t-72 198q0 96 28.5 183t84 155.5t136.5 107.5t183 39q72 0 126 -19.5t89 -55.5t52.5 -85t17.5 -110z" />
<glyph unicode="&#xbb;" horiz-adv-x="1071" d="M270 211l-184 98l242 295l-131 295l209 92l172 -399zM723 201l-188 98l231 305l-115 307l213 90l150 -411z" />
<glyph unicode="&#xbc;" horiz-adv-x="1703" d="M278 733l127 664l-178 -62v195l252 84h213l-168 -881h-246zM71 -307l-137 110l1659 1854l135 -113zM1424 -43l-35 -185h-217l34 185h-393l17 167l391 529h336l-99 -512h125l-35 -184h-124zM1309 509l-270 -372q18 0 45.5 1t55.5 1h51.5h47.5z" />
<glyph unicode="&#xbd;" horiz-adv-x="1722" d="M71 -307l-137 110l1659 1854l135 -113zM278 733l127 664l-178 -62v195l252 84h213l-168 -881h-246zM903 -228l33 187l182 151q63 53 107 95t70 76t37 61.5t11 54.5q0 39 -22.5 60.5t-73.5 21.5q-43 0 -89 -12.5t-87 -30.5l-4 184q25 10 55.5 19.5t65 16.5t69.5 10t68 3 q141 0 211.5 -56t70.5 -163q0 -51 -15 -99t-44 -93t-70 -90.5t-98 -96.5l-121 -104q51 2 114.5 3t170.5 1l-39 -199h-602z" />
<glyph unicode="&#xbe;" horiz-adv-x="1742" d="M108 -307l-137 110l1659 1854l135 -113zM758 1049q0 -76 -34 -137.5t-95.5 -105.5t-140 -66.5t-169.5 -22.5q-49 0 -103 5t-93 13l43 168q31 -10 73 -15t80 -5q86 0 138.5 34.5t52.5 98.5q0 45 -46 67.5t-130 22.5q-18 0 -41 -1t-51 -3l22 153q66 0 120 8.5t94 26 t61.5 44t21.5 63.5t-26.5 54t-75.5 17q-43 0 -90.5 -9t-87.5 -25l4 157q25 8 55.5 15.5t64 12.5t67.5 8t62 3q131 0 201 -48t70 -134q0 -41 -13.5 -80t-38 -70.5t-56 -55t-66.5 -36.5q55 -14 91 -58t36 -99zM1461 -43l-35 -185h-217l34 185h-393l17 167l391 529h336 l-99 -512h125l-35 -184h-124zM1346 509l-270 -372q18 0 45.5 1t55.5 1h51.5h47.5z" />
<glyph unicode="&#xbf;" horiz-adv-x="1005" d="M672 633q14 -102 -12.5 -179t-73.5 -137.5t-106.5 -108.5t-111 -94t-87 -96.5t-35.5 -111.5q0 -53 35.5 -91t136.5 -38q68 0 138.5 11t143.5 34l-8 -223q-78 -23 -163 -37.5t-171 -14.5q-199 0 -299 84t-100 219q0 102 37 176t91 132.5t115.5 107.5t114 102.5t83 116 t22.5 148.5h250zM428 877q0 72 49 117.5t119 45.5q68 0 108.5 -43t40.5 -102q0 -72 -49 -119t-116 -47q-70 0 -111 44.5t-41 103.5z" />
<glyph unicode="&#xc0;" horiz-adv-x="1255" d="M885 0l-37 295h-510l-150 -295h-270l715 1382h340l192 -1382h-280zM770 938q-4 47 -8 103.5t-6 103.5h-4q-18 -45 -44 -104.5t-46 -100.5l-226 -434h391zM938 1466l-414 113l92 184l389 -155z" />
<glyph unicode="&#xc1;" horiz-adv-x="1255" d="M885 0l-37 295h-510l-150 -295h-270l715 1382h340l192 -1382h-280zM770 938q-4 47 -8 103.5t-6 103.5h-4q-18 -45 -44 -104.5t-46 -100.5l-226 -434h391zM682 1466l-19 148l443 149l26 -192z" />
<glyph unicode="&#xc2;" horiz-adv-x="1255" d="M885 0l-37 295h-510l-150 -295h-270l715 1382h340l192 -1382h-280zM770 938q-4 47 -8 103.5t-6 103.5h-4q-18 -45 -44 -104.5t-46 -100.5l-226 -434h391zM1088 1464l-250 113l-295 -113l-37 138l367 170l299 -173z" />
<glyph unicode="&#xc3;" horiz-adv-x="1255" d="M885 0l-37 295h-510l-150 -295h-270l715 1382h340l192 -1382h-280zM770 938q-4 47 -8 103.5t-6 103.5h-4q-18 -45 -44 -104.5t-46 -100.5l-226 -434h391zM1223 1659q-49 -82 -113.5 -125t-142.5 -43q-47 0 -81 13.5t-73 39t-56 34.5t-44 9q-63 0 -121 -88l-123 90 q47 82 112.5 125t145.5 43q47 0 81 -13t72 -39t55.5 -35t43.5 -9q66 0 121 86z" />
<glyph unicode="&#xc4;" horiz-adv-x="1255" d="M885 0l-37 295h-510l-150 -295h-270l715 1382h340l192 -1382h-280zM770 938q-4 47 -8 103.5t-6 103.5h-4q-18 -45 -44 -104.5t-46 -100.5l-226 -434h391zM757 1614q0 -59 -40.5 -100t-98.5 -41q-55 0 -92 36.5t-37 89.5q0 61 42 102.5t97 41.5t92 -38t37 -91zM1190 1614 q0 -59 -41 -100t-99 -41q-55 0 -92 36.5t-37 89.5q0 61 42 102.5t98 41.5q55 0 92 -38t37 -91z" />
<glyph unicode="&#xc5;" horiz-adv-x="1255" d="M885 0l-37 295h-510l-150 -295h-270l715 1382h340l192 -1382h-280zM770 938q-4 47 -8 103.5t-6 103.5h-4q-18 -45 -44 -104.5t-46 -100.5l-226 -434h391zM1134 1737q0 -63 -23.5 -116.5t-65.5 -91.5t-99.5 -58.5t-124.5 -20.5q-106 0 -169 50t-63 136q0 63 24 116.5 t65.5 91.5t99 58.5t125.5 20.5q106 0 168.5 -50t62.5 -136zM843 1579q53 0 85 38t32 97q0 39 -21.5 59.5t-58.5 20.5q-53 0 -85 -38t-32 -97q0 -39 21.5 -59.5t58.5 -20.5z" />
<glyph unicode="&#xc6;" horiz-adv-x="1605" d="M657 0l58 305h-400l-198 -305h-281l924 1382h158h258h485l-45 -223h-483l-66 -340h446l-43 -217h-444l-72 -373h490l-43 -229h-492h-252zM877 1161h-13q-41 -72 -84 -138.5t-98 -152.5l-242 -356h314z" />
<glyph unicode="&#xc7;" horiz-adv-x="1136" d="M1137 1112q-125 45 -244 45q-133 0 -230.5 -58.5t-157 -153.5t-87 -206.5t-27.5 -220.5q0 -68 17.5 -121t53.5 -92t94 -60.5t138 -21.5q72 0 146.5 16.5t138.5 43.5l2 -240q-80 -27 -178 -43t-185 -16q-152 0 -255 43t-160.5 114.5t-81 154.5t-23.5 171q0 168 47.5 331 t146.5 299t257 217t369 81q82 0 153.5 -10.5t136.5 -30.5zM623 -82q55 -106 29.5 -205.5t-121.5 -191.5h-209q90 92 109.5 166.5t-33.5 165.5z" />
<glyph unicode="&#xc8;" horiz-adv-x="1024" d="M1040 1159h-505l-66 -340h463l-41 -217h-461l-72 -373h506l-43 -229h-506h-262l262 1382h263h505zM836 1466l-414 113l92 184l389 -155z" />
<glyph unicode="&#xc9;" horiz-adv-x="1024" d="M1040 1159h-505l-66 -340h463l-41 -217h-461l-72 -373h506l-43 -229h-506h-262l262 1382h263h505zM578 1466l-19 148l443 149l26 -192z" />
<glyph unicode="&#xca;" horiz-adv-x="1024" d="M1040 1159h-505l-66 -340h463l-41 -217h-461l-72 -373h506l-43 -229h-506h-262l262 1382h263h505zM981 1464l-250 113l-295 -113l-37 138l367 170l299 -173z" />
<glyph unicode="&#xcb;" horiz-adv-x="1024" d="M1040 1159h-505l-66 -340h463l-41 -217h-461l-72 -373h506l-43 -229h-506h-262l262 1382h263h505zM647 1614q0 -59 -40.5 -100t-98.5 -41q-55 0 -92 36.5t-37 89.5q0 61 42 102.5t97 41.5t92 -38t37 -91zM1080 1614q0 -59 -41 -100t-99 -41q-55 0 -92 36.5t-37 89.5 q0 61 42 102.5t98 41.5q55 0 92 -38t37 -91z" />
<glyph unicode="&#xcc;" horiz-adv-x="542" d="M315 0h-262l262 1382h263zM592 1466l-414 113l92 184l389 -155z" />
<glyph unicode="&#xcd;" horiz-adv-x="542" d="M315 0h-262l262 1382h263zM342 1466l-19 148l443 149l26 -192z" />
<glyph unicode="&#xce;" horiz-adv-x="542" d="M315 0h-262l262 1382h263zM735 1464l-250 113l-295 -113l-37 138l367 170l299 -173z" />
<glyph unicode="&#xcf;" horiz-adv-x="542" d="M315 0h-262l262 1382h263zM407 1614q0 -59 -40.5 -100t-98.5 -41q-55 0 -92 36.5t-37 89.5q0 61 42 102.5t97 41.5t92 -38t37 -91zM840 1614q0 -59 -41 -100t-99 -41q-55 0 -92 36.5t-37 89.5q0 61 42 102.5t98 41.5q55 0 92 -38t37 -91z" />
<glyph unicode="&#xd0;" horiz-adv-x="1357" d="M1063 864q0 72 -17.5 127.5t-56.5 94t-104.5 60t-161.5 21.5q-43 0 -172 -6l-70 -352h248l-39 -203h-246l-71 -377q25 -4 61.5 -7t65.5 -3q147 0 256.5 58.5t177 154.5t98.5 208.5t31 223.5zM1346 891q0 -176 -55.5 -338t-167 -289t-279.5 -199.5t-383 -72.5 q-106 0 -196.5 3t-192.5 7l116 604h-151l39 203h149l107 571q70 2 137.5 4t145 4.5t149.5 2.5q291 0 436.5 -127t145.5 -373z" />
<glyph unicode="&#xd1;" horiz-adv-x="1376" d="M1149 0h-311l-277 776q-23 66 -41 135.5t-31 135.5q-12 -90 -47.5 -297t-64.5 -361l-74 -389h-250l262 1382h338l267 -743q20 -66 36.5 -128t28.5 -124q10 94 43 281.5t68 365.5l65 348h250zM1290 1659q-49 -82 -113.5 -125t-142.5 -43q-47 0 -81 13.5t-73 39t-56 34.5 t-44 9q-63 0 -121 -88l-123 90q47 82 112.5 125t145.5 43q47 0 81 -13t72 -39t55.5 -35t43.5 -9q66 0 121 86z" />
<glyph unicode="&#xd2;" horiz-adv-x="1421" d="M1137 858q0 143 -72 225t-217 82q-109 0 -198 -54t-150.5 -146.5t-94 -207t-32.5 -233.5q0 -143 71.5 -225t217.5 -82q109 0 197.5 54.5t150 146.5t94.5 206.5t33 233.5zM1419 903q0 -184 -57 -352t-163.5 -297t-256 -203t-328.5 -74q-262 0 -393 135.5t-131 368.5 q0 184 56.5 351t164 297.5t257 203t327.5 72.5q262 0 393 -135.5t131 -366.5zM1026 1466l-414 113l92 184l389 -155z" />
<glyph unicode="&#xd3;" horiz-adv-x="1421" d="M1137 858q0 143 -72 225t-217 82q-109 0 -198 -54t-150.5 -146.5t-94 -207t-32.5 -233.5q0 -143 71.5 -225t217.5 -82q109 0 197.5 54.5t150 146.5t94.5 206.5t33 233.5zM1419 903q0 -184 -57 -352t-163.5 -297t-256 -203t-328.5 -74q-262 0 -393 135.5t-131 368.5 q0 184 56.5 351t164 297.5t257 203t327.5 72.5q262 0 393 -135.5t131 -366.5zM797 1466l-19 148l443 149l26 -192z" />
<glyph unicode="&#xd4;" horiz-adv-x="1421" d="M1137 858q0 143 -72 225t-217 82q-109 0 -198 -54t-150.5 -146.5t-94 -207t-32.5 -233.5q0 -143 71.5 -225t217.5 -82q109 0 197.5 54.5t150 146.5t94.5 206.5t33 233.5zM1419 903q0 -184 -57 -352t-163.5 -297t-256 -203t-328.5 -74q-262 0 -393 135.5t-131 368.5 q0 184 56.5 351t164 297.5t257 203t327.5 72.5q262 0 393 -135.5t131 -366.5zM1190 1464l-250 113l-295 -113l-37 138l367 170l299 -173z" />
<glyph unicode="&#xd5;" horiz-adv-x="1421" d="M1137 858q0 143 -72 225t-217 82q-109 0 -198 -54t-150.5 -146.5t-94 -207t-32.5 -233.5q0 -143 71.5 -225t217.5 -82q109 0 197.5 54.5t150 146.5t94.5 206.5t33 233.5zM1419 903q0 -184 -57 -352t-163.5 -297t-256 -203t-328.5 -74q-262 0 -393 135.5t-131 368.5 q0 184 56.5 351t164 297.5t257 203t327.5 72.5q262 0 393 -135.5t131 -366.5zM1309 1659q-49 -82 -113.5 -125t-142.5 -43q-47 0 -81 13.5t-73 39t-56 34.5t-44 9q-63 0 -121 -88l-123 90q47 82 112.5 125t145.5 43q47 0 81 -13t72 -39t55.5 -35t43.5 -9q66 0 121 86z" />
<glyph unicode="&#xd6;" horiz-adv-x="1421" d="M1137 858q0 143 -72 225t-217 82q-109 0 -198 -54t-150.5 -146.5t-94 -207t-32.5 -233.5q0 -143 71.5 -225t217.5 -82q109 0 197.5 54.5t150 146.5t94.5 206.5t33 233.5zM1419 903q0 -184 -57 -352t-163.5 -297t-256 -203t-328.5 -74q-262 0 -393 135.5t-131 368.5 q0 184 56.5 351t164 297.5t257 203t327.5 72.5q262 0 393 -135.5t131 -366.5zM852 1614q0 -59 -40.5 -100t-98.5 -41q-55 0 -92 36.5t-37 89.5q0 61 42 102.5t97 41.5t92 -38t37 -91zM1285 1614q0 -59 -41 -100t-99 -41q-55 0 -92 36.5t-37 89.5q0 61 42 102.5t98 41.5 q55 0 92 -38t37 -91z" />
<glyph unicode="&#xd7;" d="M741 604l258 -321l-176 -142l-256 318l-377 -318l-131 156l381 319l-256 320l176 141l254 -315l373 315l131 -155z" />
<glyph unicode="&#xd8;" horiz-adv-x="1421" d="M184 -145l109 200q-102 63 -152.5 170t-50.5 256q0 184 56.5 351t163 295t255 203t330.5 75q33 0 60.5 -2t54.5 -8l102 190l184 -65l-98 -183q102 -59 161.5 -164.5t59.5 -269.5q0 -186 -56 -353t-162.5 -295t-255 -203t-331.5 -75q-41 0 -72.5 4.5t-60.5 10.5l-110 -207 zM600 221q14 -4 31.5 -8t44.5 -4q100 0 186 52t149.5 141.5t99.5 208t36 251.5q0 74 -21.5 135.5t-54.5 96.5zM891 1165q-14 4 -30.5 6.5t-37.5 2.5q-98 0 -182 -53.5t-145.5 -142.5t-98.5 -208t-37 -250q0 -66 16.5 -121t49.5 -90z" />
<glyph unicode="&#xd9;" horiz-adv-x="1366" d="M1235 508q-51 -268 -216 -399.5t-431 -131.5q-152 0 -249 40t-145.5 111t-57.5 166t14 212l165 876h263l-172 -897q-29 -145 22 -215.5t197 -70.5q156 0 239.5 77.5t116.5 253.5l164 852h258zM957 1466l-414 113l92 184l389 -155z" />
<glyph unicode="&#xda;" horiz-adv-x="1366" d="M1235 508q-51 -268 -216 -399.5t-431 -131.5q-152 0 -249 40t-145.5 111t-57.5 166t14 212l165 876h263l-172 -897q-29 -145 22 -215.5t197 -70.5q156 0 239.5 77.5t116.5 253.5l164 852h258zM832 1466l-19 148l443 149l26 -192z" />
<glyph unicode="&#xdb;" horiz-adv-x="1366" d="M1235 508q-51 -268 -216 -399.5t-431 -131.5q-152 0 -249 40t-145.5 111t-57.5 166t14 212l165 876h263l-172 -897q-29 -145 22 -215.5t197 -70.5q156 0 239.5 77.5t116.5 253.5l164 852h258zM1151 1464l-250 113l-295 -113l-37 138l367 170l299 -173z" />
<glyph unicode="&#xdc;" horiz-adv-x="1366" d="M1235 508q-51 -268 -216 -399.5t-431 -131.5q-152 0 -249 40t-145.5 111t-57.5 166t14 212l165 876h263l-172 -897q-29 -145 22 -215.5t197 -70.5q156 0 239.5 77.5t116.5 253.5l164 852h258zM817 1614q0 -59 -40.5 -100t-98.5 -41q-55 0 -92 36.5t-37 89.5 q0 61 42 102.5t97 41.5t92 -38t37 -91zM1250 1614q0 -59 -41 -100t-99 -41q-55 0 -92 36.5t-37 89.5q0 61 42 102.5t98 41.5q55 0 92 -38t37 -91z" />
<glyph unicode="&#xdd;" d="M700 510l-96 -510h-260l96 508l-268 874h279l114 -389q25 -88 51 -219h2q35 59 73 119.5t77 118.5l252 370h285zM699 1466l-19 148l443 149l26 -192z" />
<glyph unicode="&#xde;" horiz-adv-x="1093" d="M850 795q0 84 -56.5 134t-179.5 50q-39 0 -70.5 -1t-45.5 -3l-95 -498q63 -8 115 -8q84 0 147.5 28.5t104.5 77t60.5 106t19.5 114.5zM1124 836q0 -109 -41 -213.5t-121.5 -188.5t-203.5 -134t-279 -50q-39 0 -70.5 2t-46.5 2l-47 -254h-262l262 1382h263l-35 -186 q18 0 52 1t60 1q231 0 350 -99t119 -263z" />
<glyph unicode="&#xdf;" horiz-adv-x="1206" d="M1163 1237q0 -68 -20.5 -118t-52 -86t-67.5 -65.5t-78 -64.5t-62.5 -67.5t-20.5 -73.5q0 -45 23.5 -78t81 -99.5t87 -122.5t29.5 -130q0 -70 -28.5 -133.5t-87 -112.5t-144.5 -77.5t-196 -28.5q-49 0 -91 4t-85 10l45 219q74 -29 151 -29q78 0 121 33t43 92 q0 47 -23.5 82t-79 98.5t-84 118t-28.5 125.5q0 88 39 147.5t114.5 125t109.5 104.5t34 100q0 43 -33 70t-94 27q-100 0 -168 -70t-94 -213l-203 -1063q-47 -246 -158.5 -358.5t-314.5 -112.5q-29 0 -64.5 3t-52.5 5l58 213q10 -2 30.5 -5t42.5 -3q43 0 75 14.5t55.5 44 t41 78.5t31.5 123l199 1049q47 250 192.5 373.5t362.5 123.5q168 0 266 -72.5t98 -199.5z" />
<glyph unicode="&#xe0;" horiz-adv-x="1110" d="M784 817q-27 6 -55.5 10t-58.5 4q-84 0 -149.5 -44t-108.5 -116.5t-64.5 -157.5t-21.5 -169q0 -72 20.5 -106.5t56.5 -34.5q51 0 109.5 53t112 138t91.5 180.5t54 177.5zM1075 1006q-20 -104 -57 -299t-57.5 -301.5t-39 -208t-32.5 -197.5h-254q14 59 37.5 138t58.5 186 h-4q-35 -66 -77 -124.5t-95 -109.5t-117.5 -82t-136.5 -31q-119 0 -179.5 78t-60.5 240q0 147 40 280.5t122 238t206 163.5t286 59q98 0 188 -7t172 -23zM746 1143l-279 272l160 148l254 -299z" />
<glyph unicode="&#xe1;" horiz-adv-x="1110" d="M784 817q-27 6 -55.5 10t-58.5 4q-84 0 -149.5 -44t-108.5 -116.5t-64.5 -157.5t-21.5 -169q0 -72 20.5 -106.5t56.5 -34.5q51 0 109.5 53t112 138t91.5 180.5t54 177.5zM1075 1006q-20 -104 -57 -299t-57.5 -301.5t-39 -208t-32.5 -197.5h-254q14 59 37.5 138t58.5 186 h-4q-35 -66 -77 -124.5t-95 -109.5t-117.5 -82t-136.5 -31q-119 0 -179.5 78t-60.5 240q0 147 40 280.5t122 238t206 163.5t286 59q98 0 188 -7t172 -23zM709 1143l-94 129l350 291l117 -160z" />
<glyph unicode="&#xe2;" horiz-adv-x="1110" d="M784 817q-27 6 -55.5 10t-58.5 4q-84 0 -149.5 -44t-108.5 -116.5t-64.5 -157.5t-21.5 -169q0 -72 20.5 -106.5t56.5 -34.5q51 0 109.5 53t112 138t91.5 180.5t54 177.5zM1075 1006q-20 -104 -57 -299t-57.5 -301.5t-39 -208t-32.5 -197.5h-254q14 59 37.5 138t58.5 186 h-4q-35 -66 -77 -124.5t-95 -109.5t-117.5 -82t-136.5 -31q-119 0 -179.5 78t-60.5 240q0 147 40 280.5t122 238t206 163.5t286 59q98 0 188 -7t172 -23zM915 1147l-176 166l-242 -166l-77 121l360 276l256 -278z" />
<glyph unicode="&#xe3;" horiz-adv-x="1110" d="M784 817q-27 6 -55.5 10t-58.5 4q-84 0 -149.5 -44t-108.5 -116.5t-64.5 -157.5t-21.5 -169q0 -72 20.5 -106.5t56.5 -34.5q51 0 109.5 53t112 138t91.5 180.5t54 177.5zM1075 1006q-20 -104 -57 -299t-57.5 -301.5t-39 -208t-32.5 -197.5h-254q14 59 37.5 138t58.5 186 h-4q-35 -66 -77 -124.5t-95 -109.5t-117.5 -82t-136.5 -31q-119 0 -179.5 78t-60.5 240q0 147 40 280.5t122 238t206 163.5t286 59q98 0 188 -7t172 -23zM1110 1364q-96 -182 -256 -182q-45 0 -76.5 14t-68.5 42t-54.5 38t-42.5 10q-66 0 -118 -92l-121 96 q47 88 112.5 135.5t141.5 47.5q45 0 77.5 -14.5t70.5 -42t55.5 -38t41.5 -10.5q63 0 117 92z" />
<glyph unicode="&#xe4;" horiz-adv-x="1110" d="M784 817q-27 6 -55.5 10t-58.5 4q-84 0 -149.5 -44t-108.5 -116.5t-64.5 -157.5t-21.5 -169q0 -72 20.5 -106.5t56.5 -34.5q51 0 109.5 53t112 138t91.5 180.5t54 177.5zM1075 1006q-20 -104 -57 -299t-57.5 -301.5t-39 -208t-32.5 -197.5h-254q14 59 37.5 138t58.5 186 h-4q-35 -66 -77 -124.5t-95 -109.5t-117.5 -82t-136.5 -31q-119 0 -179.5 78t-60.5 240q0 147 40 280.5t122 238t206 163.5t286 59q98 0 188 -7t172 -23zM681 1333q0 -61 -43 -104t-102 -43q-57 0 -96 41t-39 96q0 61 43 103t102 42q57 0 96 -40t39 -95zM1087 1333 q0 -61 -43 -104t-102 -43q-57 0 -96.5 41t-39.5 98q0 61 43 102t103 41q57 0 96 -40t39 -95z" />
<glyph unicode="&#xe5;" horiz-adv-x="1110" d="M784 817q-27 6 -55.5 10t-58.5 4q-84 0 -149.5 -44t-108.5 -116.5t-64.5 -157.5t-21.5 -169q0 -72 20.5 -106.5t56.5 -34.5q51 0 109.5 53t112 138t91.5 180.5t54 177.5zM1075 1006q-20 -104 -57 -299t-57.5 -301.5t-39 -208t-32.5 -197.5h-254q14 59 37.5 138t58.5 186 h-4q-35 -66 -77 -124.5t-95 -109.5t-117.5 -82t-136.5 -31q-119 0 -179.5 78t-60.5 240q0 147 40 280.5t122 238t206 163.5t286 59q98 0 188 -7t172 -23zM1018 1421q0 -63 -23 -118.5t-66 -96.5t-100 -63.5t-127 -22.5q-104 0 -163.5 52t-59.5 141q0 63 23.5 119.5 t65.5 96.5t100.5 62.5t127.5 22.5q104 0 163 -52.5t59 -140.5zM727 1255q53 0 86 40t33 99q0 39 -18.5 61.5t-55.5 22.5q-53 0 -86 -39.5t-33 -99.5q0 -39 18.5 -61.5t55.5 -22.5z" />
<glyph unicode="&#xe6;" horiz-adv-x="1560" d="M641 434q-86 -2 -150.5 -10t-110.5 -26.5t-70.5 -49.5t-24.5 -76q0 -39 25.5 -65.5t72.5 -26.5q45 0 87 20.5t77 57.5t59.5 82t34.5 94zM1284 756q0 43 -28.5 65.5t-77.5 22.5q-47 0 -88 -19.5t-73 -53.5t-54.5 -78t-36.5 -95q88 2 155.5 12.5t112.5 29.5t67.5 48 t22.5 68zM1536 791q0 -84 -39 -150t-118 -113t-199.5 -73.5t-282.5 -28.5q-6 -39 -6 -90q0 -88 39 -119t147 -31q72 0 147.5 15.5t145.5 44.5l4 -201q-86 -33 -182 -49t-199 -16q-150 0 -222.5 49t-98.5 151q-57 -90 -159.5 -146.5t-219.5 -56.5q-63 0 -112.5 18.5t-82 52.5 t-49 80t-16.5 99q0 96 45 167t130 116t201.5 68.5t264.5 25.5l10 51q23 96 -11 140.5t-136 44.5q-76 0 -154 -18.5t-150 -49.5l-18 199q84 31 182.5 50t190.5 19q117 0 183.5 -33.5t102.5 -93.5q57 53 146.5 89t185.5 36q92 0 155.5 -20.5t102.5 -55t55.5 -78.5t16.5 -93z " />
<glyph unicode="&#xe7;" horiz-adv-x="827" d="M805 786q-78 31 -160 31q-76 0 -134 -38t-97 -101.5t-58.5 -139t-19.5 -149.5q0 -39 9 -70.5t29.5 -56t55.5 -39t86 -14.5q49 0 97.5 10t91.5 27l-17 -226q-57 -20 -120.5 -31.5t-127.5 -11.5q-100 0 -172.5 25t-118 72t-67 111.5t-21.5 146.5q0 145 42 274t121 226.5 t189.5 151.5t245.5 54q55 0 106.5 -7t100.5 -19zM436 -82q55 -106 29.5 -205.5t-121.5 -191.5h-209q90 92 109.5 166.5t-33.5 165.5z" />
<glyph unicode="&#xe8;" horiz-adv-x="989" d="M713 756q0 43 -29 65.5t-78 22.5t-89 -20.5t-71.5 -55.5t-54 -81t-37.5 -97q184 6 271.5 47t87.5 119zM967 791q0 -90 -43 -159t-126 -115t-202 -71.5t-270 -29.5q-2 -14 -4.5 -37t-2.5 -43q0 -86 40 -118t147 -32q72 0 147.5 15.5t147.5 44.5l4 -201q-86 -33 -183.5 -49 t-199.5 -16q-190 0 -275.5 85t-85.5 259q0 156 44.5 287.5t124 228t184 147.5t223.5 51q90 0 154.5 -20.5t102.5 -55t55.5 -78.5t17.5 -93zM670 1143l-279 272l160 148l254 -299z" />
<glyph unicode="&#xe9;" horiz-adv-x="989" d="M713 756q0 43 -29 65.5t-78 22.5t-89 -20.5t-71.5 -55.5t-54 -81t-37.5 -97q184 6 271.5 47t87.5 119zM967 791q0 -90 -43 -159t-126 -115t-202 -71.5t-270 -29.5q-2 -14 -4.5 -37t-2.5 -43q0 -86 40 -118t147 -32q72 0 147.5 15.5t147.5 44.5l4 -201q-86 -33 -183.5 -49 t-199.5 -16q-190 0 -275.5 85t-85.5 259q0 156 44.5 287.5t124 228t184 147.5t223.5 51q90 0 154.5 -20.5t102.5 -55t55.5 -78.5t17.5 -93zM604 1143l-94 129l350 291l117 -160z" />
<glyph unicode="&#xea;" horiz-adv-x="989" d="M713 756q0 43 -29 65.5t-78 22.5t-89 -20.5t-71.5 -55.5t-54 -81t-37.5 -97q184 6 271.5 47t87.5 119zM967 791q0 -90 -43 -159t-126 -115t-202 -71.5t-270 -29.5q-2 -14 -4.5 -37t-2.5 -43q0 -86 40 -118t147 -32q72 0 147.5 15.5t147.5 44.5l4 -201q-86 -33 -183.5 -49 t-199.5 -16q-190 0 -275.5 85t-85.5 259q0 156 44.5 287.5t124 228t184 147.5t223.5 51q90 0 154.5 -20.5t102.5 -55t55.5 -78.5t17.5 -93zM854 1147l-176 166l-242 -166l-77 121l360 276l256 -278z" />
<glyph unicode="&#xeb;" horiz-adv-x="989" d="M713 756q0 43 -29 65.5t-78 22.5t-89 -20.5t-71.5 -55.5t-54 -81t-37.5 -97q184 6 271.5 47t87.5 119zM967 791q0 -90 -43 -159t-126 -115t-202 -71.5t-270 -29.5q-2 -14 -4.5 -37t-2.5 -43q0 -86 40 -118t147 -32q72 0 147.5 15.5t147.5 44.5l4 -201q-86 -33 -183.5 -49 t-199.5 -16q-190 0 -275.5 85t-85.5 259q0 156 44.5 287.5t124 228t184 147.5t223.5 51q90 0 154.5 -20.5t102.5 -55t55.5 -78.5t17.5 -93zM624 1333q0 -61 -43 -104t-102 -43q-57 0 -96 41t-39 96q0 61 43 103t102 42q57 0 96 -40t39 -95zM1030 1333q0 -61 -43 -104 t-102 -43q-57 0 -96.5 41t-39.5 98q0 61 43 102t103 41q57 0 96 -40t39 -95z" />
<glyph unicode="&#xec;" horiz-adv-x="534" d="M307 0h-254l193 1018h254zM378 1135l-163 348l196 94l127 -363z" />
<glyph unicode="&#xed;" horiz-adv-x="534" d="M307 0h-254l193 1018h254zM406 1141l-125 104l284 328l154 -123z" />
<glyph unicode="&#xee;" horiz-adv-x="534" d="M307 0h-254l193 1018h254zM577 1147l-147 166l-215 -166l-72 121l328 274l223 -278z" />
<glyph unicode="&#xef;" horiz-adv-x="534" d="M307 0h-254l193 1018h254zM387 1333q0 -61 -42 -104t-102 -43q-59 0 -98 40t-39 97q0 61 43 103t105 42q57 0 95 -40t38 -95zM758 1333q0 -61 -42 -104t-102 -43q-57 0 -96 41t-39 98q0 61 43 102t102 41q57 0 95.5 -40t38.5 -95z" />
<glyph unicode="&#xf0;" horiz-adv-x="1114" d="M799 637q0 82 -42 131t-122 49q-68 0 -125 -33.5t-97 -92t-60.5 -132.5t-20.5 -151q0 -98 43 -151.5t123 -53.5q82 0 141 46t94 115.5t50.5 143.5t15.5 129zM932 1292q74 -119 109.5 -248t35.5 -266q0 -186 -48 -335.5t-133 -253t-194.5 -156.5t-230.5 -53 q-197 0 -303.5 92t-106.5 284q0 143 45.5 267.5t127 217.5t188 143t225.5 50q57 0 100.5 -15t61.5 -48q-2 10 -33 84q-18 41 -36.5 75.5t-41.5 65.5l-209 -88l-79 129l186 78q-25 29 -53.5 54.5t-69.5 57.5l252 109q31 -27 60.5 -57.5t54.5 -61.5l202 84l78 -129z" />
<glyph unicode="&#xf1;" horiz-adv-x="1144" d="M920 0h-258l122 639q18 92 3 134t-64 42t-106.5 -51t-110.5 -136t-93 -183.5t-57 -186.5l-49 -258h-256l103 532q14 70 24 129.5t21.5 119t21.5 120t21 117.5h252q-10 -53 -32 -129t-61 -187h5q37 72 80.5 132.5t97 106.5t117 72.5t133.5 26.5q72 0 121 -24.5t75.5 -69.5 t31.5 -106.5t-9 -137.5zM1108 1364q-96 -182 -256 -182q-45 0 -76.5 14t-68.5 42t-54.5 38t-42.5 10q-66 0 -118 -92l-121 96q47 88 112.5 135.5t141.5 47.5q45 0 77.5 -14.5t70.5 -42t55.5 -38t41.5 -10.5q63 0 117 92z" />
<glyph unicode="&#xf2;" horiz-adv-x="1110" d="M799 631q0 84 -42 135t-126 51q-76 0 -133.5 -40t-95 -104.5t-55 -139t-17.5 -146.5q0 -84 42 -134t128 -50q76 0 133 39t94 103.5t54.5 139t17.5 146.5zM1069 670q0 -141 -44 -266t-125 -221.5t-193.5 -149.5t-245.5 -53q-205 0 -303.5 101t-98.5 267q0 141 44 266 t125 221.5t194 149.5t246 53q104 0 181 -27.5t126 -77.5t71.5 -116.5t22.5 -146.5zM727 1143l-279 272l160 148l254 -299z" />
<glyph unicode="&#xf3;" horiz-adv-x="1110" d="M799 631q0 84 -42 135t-126 51q-76 0 -133.5 -40t-95 -104.5t-55 -139t-17.5 -146.5q0 -84 42 -134t128 -50q76 0 133 39t94 103.5t54.5 139t17.5 146.5zM1069 670q0 -141 -44 -266t-125 -221.5t-193.5 -149.5t-245.5 -53q-205 0 -303.5 101t-98.5 267q0 141 44 266 t125 221.5t194 149.5t246 53q104 0 181 -27.5t126 -77.5t71.5 -116.5t22.5 -146.5zM658 1143l-94 129l350 291l117 -160z" />
<glyph unicode="&#xf4;" horiz-adv-x="1110" d="M799 631q0 84 -42 135t-126 51q-76 0 -133.5 -40t-95 -104.5t-55 -139t-17.5 -146.5q0 -84 42 -134t128 -50q76 0 133 39t94 103.5t54.5 139t17.5 146.5zM1069 670q0 -141 -44 -266t-125 -221.5t-193.5 -149.5t-245.5 -53q-205 0 -303.5 101t-98.5 267q0 141 44 266 t125 221.5t194 149.5t246 53q104 0 181 -27.5t126 -77.5t71.5 -116.5t22.5 -146.5zM907 1147l-176 166l-242 -166l-77 121l360 276l256 -278z" />
<glyph unicode="&#xf5;" horiz-adv-x="1110" d="M799 631q0 84 -42 135t-126 51q-76 0 -133.5 -40t-95 -104.5t-55 -139t-17.5 -146.5q0 -84 42 -134t128 -50q76 0 133 39t94 103.5t54.5 139t17.5 146.5zM1069 670q0 -141 -44 -266t-125 -221.5t-193.5 -149.5t-245.5 -53q-205 0 -303.5 101t-98.5 267q0 141 44 266 t125 221.5t194 149.5t246 53q104 0 181 -27.5t126 -77.5t71.5 -116.5t22.5 -146.5zM1102 1364q-96 -182 -256 -182q-45 0 -76.5 14t-68.5 42t-54.5 38t-42.5 10q-66 0 -118 -92l-121 96q47 88 112.5 135.5t141.5 47.5q45 0 77.5 -14.5t70.5 -42t55.5 -38t41.5 -10.5 q63 0 117 92z" />
<glyph unicode="&#xf6;" horiz-adv-x="1110" d="M799 631q0 84 -42 135t-126 51q-76 0 -133.5 -40t-95 -104.5t-55 -139t-17.5 -146.5q0 -84 42 -134t128 -50q76 0 133 39t94 103.5t54.5 139t17.5 146.5zM1069 670q0 -141 -44 -266t-125 -221.5t-193.5 -149.5t-245.5 -53q-205 0 -303.5 101t-98.5 267q0 141 44 266 t125 221.5t194 149.5t246 53q104 0 181 -27.5t126 -77.5t71.5 -116.5t22.5 -146.5zM667 1333q0 -61 -43 -104t-102 -43q-57 0 -96 41t-39 96q0 61 43 103t102 42q57 0 96 -40t39 -95zM1073 1333q0 -61 -43 -104t-102 -43q-57 0 -96.5 41t-39.5 98q0 61 43 102t103 41 q57 0 96 -40t39 -95z" />
<glyph unicode="&#xf7;" d="M668 205q0 -35 -13.5 -65.5t-36 -53.5t-52 -35t-62.5 -12q-66 0 -110 45t-44 109q0 35 13.5 65.5t36 53t52 34.5t62.5 12q66 0 110 -45t44 -108zM1053 500h-967l41 219h967zM827 1026q0 -35 -13 -65.5t-35.5 -53t-53.5 -35t-63 -12.5q-66 0 -110 46t-44 110 q0 35 13.5 64.5t36 53t52 36t62.5 12.5q66 0 110.5 -46.5t44.5 -109.5z" />
<glyph unicode="&#xf8;" horiz-adv-x="1110" d="M1069 670q0 -141 -44 -266t-125 -221.5t-193.5 -149.5t-245.5 -53q-31 0 -58.5 3t-54.5 7l-117 -207l-141 67l111 195q-66 45 -104 122t-38 181q0 141 44 266t125 221.5t194 149.5t246 53q53 0 96 -6l119 211l139 -65l-111 -195q78 -47 118 -127t40 -186zM827 639 q0 39 -11 70.5t-34 60.5l-327 -580q33 -8 75 -6q76 8 133.5 55.5t93.5 117t53 144.5t17 138zM657 834q-33 2 -61 0q-66 -6 -121 -46t-93 -105t-58.5 -141.5t-20.5 -152.5q0 -72 35 -121z" />
<glyph unicode="&#xf9;" horiz-adv-x="1142" d="M1008 485q-12 -59 -22.5 -119.5t-22 -122t-21.5 -122t-20 -121.5h-252q12 57 32.5 132t59.5 183h-4q-37 -72 -82 -132t-98.5 -106t-116 -73t-131.5 -27q-72 0 -121 25t-76 70t-32 106.5t10 136.5l133 703h256l-121 -639q-18 -92 -3 -134t64 -42t105.5 51t110 136 t93 183.5t56.5 186.5l49 258h256zM723 1143l-279 272l160 148l254 -299z" />
<glyph unicode="&#xfa;" horiz-adv-x="1142" d="M1008 485q-12 -59 -22.5 -119.5t-22 -122t-21.5 -122t-20 -121.5h-252q12 57 32.5 132t59.5 183h-4q-37 -72 -82 -132t-98.5 -106t-116 -73t-131.5 -27q-72 0 -121 25t-76 70t-32 106.5t10 136.5l133 703h256l-121 -639q-18 -92 -3 -134t64 -42t105.5 51t110 136 t93 183.5t56.5 186.5l49 258h256zM684 1143l-94 129l350 291l117 -160z" />
<glyph unicode="&#xfb;" horiz-adv-x="1142" d="M1008 485q-12 -59 -22.5 -119.5t-22 -122t-21.5 -122t-20 -121.5h-252q12 57 32.5 132t59.5 183h-4q-37 -72 -82 -132t-98.5 -106t-116 -73t-131.5 -27q-72 0 -121 25t-76 70t-32 106.5t10 136.5l133 703h256l-121 -639q-18 -92 -3 -134t64 -42t105.5 51t110 136 t93 183.5t56.5 186.5l49 258h256zM911 1147l-176 166l-242 -166l-77 121l360 276l256 -278z" />
<glyph unicode="&#xfc;" horiz-adv-x="1142" d="M1008 485q-12 -59 -22.5 -119.5t-22 -122t-21.5 -122t-20 -121.5h-252q12 57 32.5 132t59.5 183h-4q-37 -72 -82 -132t-98.5 -106t-116 -73t-131.5 -27q-72 0 -121 25t-76 70t-32 106.5t10 136.5l133 703h256l-121 -639q-18 -92 -3 -134t64 -42t105.5 51t110 136 t93 183.5t56.5 186.5l49 258h256zM673 1333q0 -61 -43 -104t-102 -43q-57 0 -96 41t-39 96q0 61 43 103t102 42q57 0 96 -40t39 -95zM1079 1333q0 -61 -43 -104t-102 -43q-57 0 -96.5 41t-39.5 98q0 61 43 102t103 41q57 0 96 -40t39 -95z" />
<glyph unicode="&#xfd;" horiz-adv-x="1007" d="M825 1061l248 -70q-102 -240 -200.5 -440.5t-192.5 -364t-184 -288.5t-181 -213q-98 -100 -195 -147.5t-222 -47.5h-33t-29 2q-16 2 -31 4l41 225q14 -4 31 -6q12 -4 28.5 -5t35.5 -1q61 0 116.5 27.5t95.5 79t62.5 128t22.5 175.5q0 86 -8.5 189.5t-25 218t-41 239.5 t-54.5 252h280q16 -78 31.5 -164t26 -168t16.5 -152.5t6 -117.5q0 -68 -5 -117t-15 -92q8 10 18 30.5t21.5 45t21.5 47t16 39.5q39 74 75 154.5t72 165.5t73.5 178.5t78.5 193.5v0zM637 1143l-94 129l350 291l117 -160z" />
<glyph unicode="&#xfe;" horiz-adv-x="1110" d="M803 674q0 74 -19.5 107.5t-58.5 33.5q-51 0 -109.5 -53t-111.5 -137t-91 -179.5t-55 -175.5l-12 -65q27 -8 57.5 -13.5t57.5 -5.5q84 0 148.5 44t107.5 117t64.5 158t21.5 169zM1069 723q0 -147 -40 -280.5t-122 -238t-207 -163.5t-286 -59q-29 0 -53.5 2t-55.5 6 l-92 -484h-256l379 1989h260l-66 -338q-12 -59 -23 -110.5t-25.5 -103.5t-33 -109.5t-45.5 -126.5l5 -2q39 74 85 135t99 106t113.5 69.5t125.5 24.5q119 0 178.5 -77.5t59.5 -239.5z" />
<glyph unicode="&#xff;" horiz-adv-x="1007" d="M825 1061l248 -70q-102 -240 -200.5 -440.5t-192.5 -364t-184 -288.5t-181 -213q-98 -100 -195 -147.5t-222 -47.5h-33t-29 2q-16 2 -31 4l41 225q14 -4 31 -6q12 -4 28.5 -5t35.5 -1q61 0 116.5 27.5t95.5 79t62.5 128t22.5 175.5q0 86 -8.5 189.5t-25 218t-41 239.5 t-54.5 252h280q16 -78 31.5 -164t26 -168t16.5 -152.5t6 -117.5q0 -68 -5 -117t-15 -92q8 10 18 30.5t21.5 45t21.5 47t16 39.5q39 74 75 154.5t72 165.5t73.5 178.5t78.5 193.5v0zM612 1333q0 -61 -43 -104t-102 -43q-57 0 -96 41t-39 96q0 61 43 103t102 42q57 0 96 -40 t39 -95zM1018 1333q0 -61 -43 -104t-102 -43q-57 0 -96.5 41t-39.5 98q0 61 43 102t103 41q57 0 96 -40t39 -95z" />
<glyph unicode="&#x100;" horiz-adv-x="1255" d="M885 0l-37 295h-510l-150 -295h-270l715 1382h340l192 -1382h-280zM770 938q-4 47 -8 103.5t-6 103.5h-4q-18 -45 -44 -104.5t-46 -100.5l-226 -434h391zM1117 1518h-590l33 165h587z" />
<glyph unicode="&#x101;" horiz-adv-x="1110" d="M784 817q-27 6 -55.5 10t-58.5 4q-84 0 -149.5 -44t-108.5 -116.5t-64.5 -157.5t-21.5 -169q0 -72 20.5 -106.5t56.5 -34.5q51 0 109.5 53t112 138t91.5 180.5t54 177.5zM1075 1006q-20 -104 -57 -299t-57.5 -301.5t-39 -208t-32.5 -197.5h-254q14 59 37.5 138t58.5 186 h-4q-35 -66 -77 -124.5t-95 -109.5t-117.5 -82t-136.5 -31q-119 0 -179.5 78t-60.5 240q0 147 40 280.5t122 238t206 163.5t286 59q98 0 188 -7t172 -23zM987 1229h-540l34 188h543z" />
<glyph unicode="&#x102;" horiz-adv-x="1255" d="M885 0l-37 295h-510l-150 -295h-270l715 1382h340l192 -1382h-280zM770 938q-4 47 -8 103.5t-6 103.5h-4q-18 -45 -44 -104.5t-46 -100.5l-226 -434h391zM1151 1759q-10 -57 -35.5 -107t-65.5 -89t-96.5 -60.5t-127.5 -21.5q-70 0 -121 22.5t-82 61.5t-41 89t0 105h151 q-10 -51 20 -84t89 -33q63 0 103 31t51 86h155z" />
<glyph unicode="&#x103;" horiz-adv-x="1110" d="M784 817q-27 6 -55.5 10t-58.5 4q-84 0 -149.5 -44t-108.5 -116.5t-64.5 -157.5t-21.5 -169q0 -72 20.5 -106.5t56.5 -34.5q51 0 109.5 53t112 138t91.5 180.5t54 177.5zM1075 1006q-20 -104 -57 -299t-57.5 -301.5t-39 -208t-32.5 -197.5h-254q14 59 37.5 138t58.5 186 h-4q-35 -66 -77 -124.5t-95 -109.5t-117.5 -82t-136.5 -31q-119 0 -179.5 78t-60.5 240q0 147 40 280.5t122 238t206 163.5t286 59q98 0 188 -7t172 -23zM1038 1475q-10 -63 -35.5 -120t-66.5 -101t-97.5 -68.5t-125.5 -24.5q-72 0 -121 25.5t-75.5 71t-33 100.5t6.5 117 h161q-10 -55 11.5 -90t72.5 -35t86 31.5t47 93.5h170z" />
<glyph unicode="&#x104;" horiz-adv-x="1255" d="M770 938q-4 47 -8 103.5t-6 103.5h-4q-18 -45 -44 -104.5t-46 -100.5l-226 -434h391zM848 295h-510l-150 -295h-270l715 1382h340l192 -1382q-129 -61 -186 -125.5t-57 -118.5q0 -47 57 -47q31 0 65.5 12.5t73.5 36.5l47 -149q-66 -49 -130 -71.5t-136 -22.5 q-106 0 -166.5 52t-60.5 128q0 88 55 166t158 147z" />
<glyph unicode="&#x105;" horiz-adv-x="1110" d="M1075 1006q-55 -285 -90 -470.5t-52.5 -289t-23.5 -151.5t-10 -95q-109 -63 -163 -125.5t-54 -116.5q0 -49 53 -49q33 0 68 13.5t69 35.5l58 -145q-57 -45 -128 -71.5t-138 -26.5q-113 0 -172.5 53t-59.5 137q0 82 56.5 163t170.5 157q16 139 72 299h-4 q-35 -66 -77 -124.5t-95 -109.5t-117.5 -82t-136.5 -31q-119 0 -179.5 78t-60.5 240q0 147 40 280.5t122 238t206 163.5t286 59q98 0 188 -7t172 -23zM403 203q51 0 109.5 53t112 138t91.5 180.5t54 177.5l14 65q-27 6 -55.5 10t-58.5 4q-84 0 -149.5 -44t-108.5 -116.5 t-64.5 -157.5t-21.5 -169q0 -72 20 -106.5t57 -34.5z" />
<glyph unicode="&#x106;" horiz-adv-x="1136" d="M1137 1112q-125 45 -244 45q-133 0 -230.5 -58.5t-157 -153.5t-87 -206.5t-27.5 -220.5q0 -68 17.5 -121t53.5 -92t94 -60.5t138 -21.5q72 0 146.5 16.5t138.5 43.5l2 -240q-80 -27 -178 -43t-185 -16q-152 0 -255 43t-160.5 114.5t-81 154.5t-23.5 171q0 168 47.5 331 t146.5 299t257 217t369 81q82 0 153.5 -10.5t136.5 -30.5zM764 1466l-19 148l443 149l26 -192z" />
<glyph unicode="&#x107;" horiz-adv-x="827" d="M805 786q-78 31 -160 31q-76 0 -134 -38t-97 -101.5t-58.5 -139t-19.5 -149.5q0 -39 9 -70.5t29.5 -56t55.5 -39t86 -14.5q49 0 97.5 10t91.5 27l-17 -226q-57 -20 -120.5 -31.5t-127.5 -11.5q-100 0 -172.5 25t-118 72t-67 111.5t-21.5 146.5q0 145 42 274t121 226.5 t189.5 151.5t245.5 54q55 0 106.5 -7t100.5 -19zM625 1141l-125 104l284 328l154 -123z" />
<glyph unicode="&#x108;" horiz-adv-x="1136" d="M1137 1112q-125 45 -244 45q-133 0 -230.5 -58.5t-157 -153.5t-87 -206.5t-27.5 -220.5q0 -68 17.5 -121t53.5 -92t94 -60.5t138 -21.5q72 0 146.5 16.5t138.5 43.5l2 -240q-80 -27 -178 -43t-185 -16q-152 0 -255 43t-160.5 114.5t-81 154.5t-23.5 171q0 168 47.5 331 t146.5 299t257 217t369 81q82 0 153.5 -10.5t136.5 -30.5zM1147 1464l-250 113l-295 -113l-37 138l367 170l299 -173z" />
<glyph unicode="&#x109;" horiz-adv-x="827" d="M805 786q-78 31 -160 31q-76 0 -134 -38t-97 -101.5t-58.5 -139t-19.5 -149.5q0 -39 9 -70.5t29.5 -56t55.5 -39t86 -14.5q49 0 97.5 10t91.5 27l-17 -226q-57 -20 -120.5 -31.5t-127.5 -11.5q-100 0 -172.5 25t-118 72t-67 111.5t-21.5 146.5q0 145 42 274t121 226.5 t189.5 151.5t245.5 54q55 0 106.5 -7t100.5 -19zM821 1147l-176 166l-242 -166l-77 121l360 276l256 -278z" />
<glyph unicode="&#x10a;" horiz-adv-x="1136" d="M1137 1112q-125 45 -244 45q-133 0 -230.5 -58.5t-157 -153.5t-87 -206.5t-27.5 -220.5q0 -68 17.5 -121t53.5 -92t94 -60.5t138 -21.5q72 0 146.5 16.5t138.5 43.5l2 -240q-80 -27 -178 -43t-185 -16q-152 0 -255 43t-160.5 114.5t-81 154.5t-23.5 171q0 168 47.5 331 t146.5 299t257 217t369 81q82 0 153.5 -10.5t136.5 -30.5zM1053 1620q0 -66 -44 -109t-106 -43q-57 0 -96 39t-39 92q0 66 45 109t107 43q57 0 95 -39t38 -92z" />
<glyph unicode="&#x10b;" horiz-adv-x="827" d="M805 786q-78 31 -160 31q-76 0 -134 -38t-97 -101.5t-58.5 -139t-19.5 -149.5q0 -39 9 -70.5t29.5 -56t55.5 -39t86 -14.5q49 0 97.5 10t91.5 27l-17 -226q-57 -20 -120.5 -31.5t-127.5 -11.5q-100 0 -172.5 25t-118 72t-67 111.5t-21.5 146.5q0 145 42 274t121 226.5 t189.5 151.5t245.5 54q55 0 106.5 -7t100.5 -19zM821 1339q0 -72 -50 -121t-119 -49q-68 0 -111 44t-43 106q0 35 14.5 65.5t38 54t55 36t64.5 12.5q66 0 108.5 -44.5t42.5 -103.5z" />
<glyph unicode="&#x10c;" horiz-adv-x="1136" d="M1137 1112q-125 45 -244 45q-133 0 -230.5 -58.5t-157 -153.5t-87 -206.5t-27.5 -220.5q0 -68 17.5 -121t53.5 -92t94 -60.5t138 -21.5q72 0 146.5 16.5t138.5 43.5l2 -240q-80 -27 -178 -43t-185 -16q-152 0 -255 43t-160.5 114.5t-81 154.5t-23.5 171q0 168 47.5 331 t146.5 299t257 217t369 81q82 0 153.5 -10.5t136.5 -30.5zM876 1464l-301 174l82 134l250 -113l297 113l39 -138z" />
<glyph unicode="&#x10d;" horiz-adv-x="827" d="M805 786q-78 31 -160 31q-76 0 -134 -38t-97 -101.5t-58.5 -139t-19.5 -149.5q0 -39 9 -70.5t29.5 -56t55.5 -39t86 -14.5q49 0 97.5 10t91.5 27l-17 -226q-57 -20 -120.5 -31.5t-127.5 -11.5q-100 0 -172.5 25t-118 72t-67 111.5t-21.5 146.5q0 145 42 274t121 226.5 t189.5 151.5t245.5 54q55 0 106.5 -7t100.5 -19zM616 1147l-256 276l121 121l174 -168l244 168l78 -123z" />
<glyph unicode="&#x10e;" horiz-adv-x="1339" d="M1047 864q0 72 -17.5 127.5t-56.5 94t-104.5 60t-161.5 21.5q-109 0 -170 -6l-179 -932q27 -4 62 -7t63 -3q150 0 258.5 59.5t176 156.5t98.5 210t31 219zM1329 891q0 -178 -55 -340t-167 -288t-280 -198.5t-383 -72.5q-100 0 -210.5 4t-180.5 6l262 1378q49 2 98.5 4 t105.5 3.5t114.5 2.5t114.5 1q291 0 436 -127t145 -373zM780 1464l-301 174l82 134l250 -113l297 113l39 -138z" />
<glyph unicode="&#x10f;" horiz-adv-x="1216" d="M784 817q-27 6 -55.5 10t-58.5 4q-84 0 -149.5 -44t-108.5 -116.5t-64.5 -157.5t-21.5 -169q0 -72 20.5 -106.5t56.5 -34.5q51 0 109.5 53t112 138t91.5 180.5t54 177.5zM954 367q-4 -27 -15 -88.5t-19.5 -102.5t-15.5 -86t-15 -90h-252q10 55 31.5 128t62.5 196h-4 q-35 -66 -77 -124.5t-95 -109.5t-117.5 -82t-136.5 -31q-119 0 -179.5 78t-60.5 240q0 147 40 280.5t122 238t206 163.5t286 59q27 0 52.5 -2t55.5 -6l88 467h258zM1554 1542l-215 -409l-162 41l176 415z" />
<glyph unicode="&#x110;" horiz-adv-x="1357" d="M1063 864q0 72 -17.5 127.5t-56.5 94t-104.5 60t-161.5 21.5q-43 0 -172 -6l-70 -352h248l-39 -203h-246l-71 -377q25 -4 61.5 -7t65.5 -3q147 0 256.5 58.5t177 154.5t98.5 208.5t31 223.5zM1346 891q0 -176 -55.5 -338t-167 -289t-279.5 -199.5t-383 -72.5 q-106 0 -196.5 3t-192.5 7l116 604h-151l39 203h149l107 571q70 2 137.5 4t145 4.5t149.5 2.5q291 0 436.5 -127t145.5 -373z" />
<glyph unicode="&#x111;" horiz-adv-x="1110" d="M784 817q-27 6 -55.5 10t-58.5 4q-84 0 -149.5 -44t-108.5 -116.5t-64.5 -157.5t-21.5 -169q0 -72 20.5 -106.5t56.5 -34.5q51 0 109.5 53t112 138t91.5 180.5t54 177.5zM1233 1192h-123l-156 -825q-14 -82 -33.5 -184.5t-31.5 -182.5h-252q10 55 31.5 128t62.5 196h-4 q-35 -66 -77 -124.5t-95 -109.5t-117.5 -82t-136.5 -31q-119 0 -179.5 78t-60.5 240q0 147 40 280.5t122 238t206 163.5t286 59q27 0 52.5 -2t55.5 -6l31 164h-209l31 166h209l26 137h258l-26 -137h123z" />
<glyph unicode="&#x112;" horiz-adv-x="1024" d="M1040 1159h-505l-66 -340h463l-41 -217h-461l-72 -373h506l-43 -229h-506h-262l262 1382h263h505zM1010 1518h-590l33 165h587z" />
<glyph unicode="&#x113;" horiz-adv-x="989" d="M713 756q0 43 -29 65.5t-78 22.5t-89 -20.5t-71.5 -55.5t-54 -81t-37.5 -97q184 6 271.5 47t87.5 119zM967 791q0 -90 -43 -159t-126 -115t-202 -71.5t-270 -29.5q-2 -14 -4.5 -37t-2.5 -43q0 -86 40 -118t147 -32q72 0 147.5 15.5t147.5 44.5l4 -201q-86 -33 -183.5 -49 t-199.5 -16q-190 0 -275.5 85t-85.5 259q0 156 44.5 287.5t124 228t184 147.5t223.5 51q90 0 154.5 -20.5t102.5 -55t55.5 -78.5t17.5 -93zM919 1229h-540l34 188h543z" />
<glyph unicode="&#x114;" horiz-adv-x="1024" d="M1040 1159h-505l-66 -340h463l-41 -217h-461l-72 -373h506l-43 -229h-506h-262l262 1382h263h505zM1054 1759q-10 -57 -35.5 -107t-65.5 -89t-96.5 -60.5t-127.5 -21.5q-70 0 -121 22.5t-82 61.5t-41 89t0 105h151q-10 -51 20 -84t89 -33q63 0 103 31t51 86h155z" />
<glyph unicode="&#x115;" horiz-adv-x="989" d="M713 756q0 43 -29 65.5t-78 22.5t-89 -20.5t-71.5 -55.5t-54 -81t-37.5 -97q184 6 271.5 47t87.5 119zM967 791q0 -90 -43 -159t-126 -115t-202 -71.5t-270 -29.5q-2 -14 -4.5 -37t-2.5 -43q0 -86 40 -118t147 -32q72 0 147.5 15.5t147.5 44.5l4 -201q-86 -33 -183.5 -49 t-199.5 -16q-190 0 -275.5 85t-85.5 259q0 156 44.5 287.5t124 228t184 147.5t223.5 51q90 0 154.5 -20.5t102.5 -55t55.5 -78.5t17.5 -93zM972 1475q-10 -63 -35.5 -120t-66.5 -101t-97.5 -68.5t-125.5 -24.5q-72 0 -121 25.5t-75.5 71t-33 100.5t6.5 117h161 q-10 -55 11.5 -90t72.5 -35t86 31.5t47 93.5h170z" />
<glyph unicode="&#x116;" horiz-adv-x="1024" d="M1040 1159h-505l-66 -340h463l-41 -217h-461l-72 -373h506l-43 -229h-506h-262l262 1382h263h505zM879 1620q0 -66 -44 -109t-106 -43q-57 0 -96 39t-39 92q0 66 45 109t107 43q57 0 95 -39t38 -92z" />
<glyph unicode="&#x117;" horiz-adv-x="989" d="M713 756q0 43 -29 65.5t-78 22.5t-89 -20.5t-71.5 -55.5t-54 -81t-37.5 -97q184 6 271.5 47t87.5 119zM967 791q0 -90 -43 -159t-126 -115t-202 -71.5t-270 -29.5q-2 -14 -4.5 -37t-2.5 -43q0 -86 40 -118t147 -32q72 0 147.5 15.5t147.5 44.5l4 -201q-86 -33 -183.5 -49 t-199.5 -16q-190 0 -275.5 85t-85.5 259q0 156 44.5 287.5t124 228t184 147.5t223.5 51q90 0 154.5 -20.5t102.5 -55t55.5 -78.5t17.5 -93zM835 1351q0 -72 -50 -121t-119 -49q-68 0 -111 44t-43 106q0 35 14.5 65.5t38 54t55 36t64.5 12.5q66 0 108.5 -44.5t42.5 -103.5z " />
<glyph unicode="&#x118;" horiz-adv-x="1024" d="M807 -391q-66 -49 -131.5 -71.5t-136.5 -22.5q-106 0 -166 52t-60 128q0 88 54.5 166t152.5 139h-205h-262l262 1382h260h508l-43 -223h-505l-66 -340h463l-41 -217h-461l-72 -373h506l-43 -223q-133 -57 -196.5 -126.5t-63.5 -123.5q0 -47 57 -47q33 0 68 12.5t72 36.5z " />
<glyph unicode="&#x119;" horiz-adv-x="989" d="M805 47q-154 -82 -222.5 -159.5t-68.5 -131.5q0 -20 12.5 -33.5t42.5 -13.5q63 0 142 49l47 -149q-66 -49 -130.5 -71.5t-135.5 -22.5q-111 0 -169.5 54t-58.5 126q0 90 51.5 161.5t126.5 125.5h-36q-164 0 -254.5 77.5t-90.5 264.5q0 160 45.5 292t124 225t183 145 t223.5 52q94 0 157.5 -21.5t101.5 -56t54.5 -79.5t16.5 -90q0 -102 -51.5 -172t-139.5 -114t-203.5 -64.5t-246.5 -24.5q-4 -16 -5.5 -39t-1.5 -41q0 -88 40 -119t147 -31q72 0 147.5 15.5t147.5 44.5zM713 756q0 43 -29 65.5t-78 22.5t-90 -20.5t-71.5 -56.5t-53 -82 t-37.5 -95q178 6 268.5 45t90.5 121z" />
<glyph unicode="&#x11a;" horiz-adv-x="1024" d="M1040 1159h-505l-66 -340h463l-41 -217h-461l-72 -373h506l-43 -229h-506h-262l262 1382h263h505zM704 1464l-301 174l82 134l250 -113l297 113l39 -138z" />
<glyph unicode="&#x11b;" horiz-adv-x="989" d="M713 756q0 43 -29 65.5t-78 22.5t-89 -20.5t-71.5 -55.5t-54 -81t-37.5 -97q184 6 271.5 47t87.5 119zM967 791q0 -90 -43 -159t-126 -115t-202 -71.5t-270 -29.5q-2 -14 -4.5 -37t-2.5 -43q0 -86 40 -118t147 -32q72 0 147.5 15.5t147.5 44.5l4 -201q-86 -33 -183.5 -49 t-199.5 -16q-190 0 -275.5 85t-85.5 259q0 156 44.5 287.5t124 228t184 147.5t223.5 51q90 0 154.5 -20.5t102.5 -55t55.5 -78.5t17.5 -93zM635 1147l-256 276l121 121l174 -168l244 168l78 -123z" />
<glyph unicode="&#x11c;" horiz-adv-x="1353" d="M1288 1102q-82 31 -168 47t-168 16q-143 0 -252.5 -54t-180 -146.5t-104.5 -202t-34 -221.5q0 -74 19.5 -132.5t60.5 -101.5t106.5 -65.5t153.5 -22.5q55 0 103 6t94 21l90 479h262l-127 -664q-106 -39 -230.5 -60t-238.5 -21q-145 0 -255 36.5t-180.5 105t-105.5 165 t-35 219.5q0 170 58.5 330.5t171 288.5t279.5 203t374 75q100 0 196.5 -14.5t188.5 -40.5zM1227 1464l-250 113l-295 -113l-37 138l367 170l299 -173z" />
<glyph unicode="&#x11d;" horiz-adv-x="1110" d="M784 817q-27 6 -55.5 10t-58.5 4q-84 0 -149.5 -44t-108.5 -116.5t-64.5 -157.5t-21.5 -169q0 -72 20.5 -106.5t56.5 -34.5q51 0 109.5 53t112 138t91.5 180.5t54 177.5zM870 -63q-20 -109 -64 -191t-117 -139.5t-180.5 -87t-248.5 -29.5q-84 0 -159.5 10.5t-139.5 28.5 l64 235q61 -25 136 -39t142 -14q141 0 218 60.5t104 195.5q8 43 18 84t22.5 82t28 86t35.5 98l-4 2q-35 -63 -76 -121.5t-94 -108.5t-117.5 -81t-136.5 -31q-119 0 -179.5 78t-60.5 240q0 147 40 280.5t122 238t206 163.5t286 59q92 0 180 -8t180 -22zM911 1147l-176 166 l-242 -166l-77 121l360 276l256 -278z" />
<glyph unicode="&#x11e;" horiz-adv-x="1353" d="M1288 1102q-82 31 -168 47t-168 16q-143 0 -252.5 -54t-180 -146.5t-104.5 -202t-34 -221.5q0 -74 19.5 -132.5t60.5 -101.5t106.5 -65.5t153.5 -22.5q55 0 103 6t94 21l90 479h262l-127 -664q-106 -39 -230.5 -60t-238.5 -21q-145 0 -255 36.5t-180.5 105t-105.5 165 t-35 219.5q0 170 58.5 330.5t171 288.5t279.5 203t374 75q100 0 196.5 -14.5t188.5 -40.5zM1313 1759q-10 -57 -35.5 -107t-65.5 -89t-96.5 -60.5t-127.5 -21.5q-70 0 -121 22.5t-82 61.5t-41 89t0 105h151q-10 -51 20 -84t89 -33q63 0 103 31t51 86h155z" />
<glyph unicode="&#x11f;" horiz-adv-x="1110" d="M784 817q-27 6 -55.5 10t-58.5 4q-84 0 -149.5 -44t-108.5 -116.5t-64.5 -157.5t-21.5 -169q0 -72 20.5 -106.5t56.5 -34.5q51 0 109.5 53t112 138t91.5 180.5t54 177.5zM870 -63q-20 -109 -64 -191t-117 -139.5t-180.5 -87t-248.5 -29.5q-84 0 -159.5 10.5t-139.5 28.5 l64 235q61 -25 136 -39t142 -14q141 0 218 60.5t104 195.5q8 43 18 84t22.5 82t28 86t35.5 98l-4 2q-35 -63 -76 -121.5t-94 -108.5t-117.5 -81t-136.5 -31q-119 0 -179.5 78t-60.5 240q0 147 40 280.5t122 238t206 163.5t286 59q92 0 180 -8t180 -22zM1022 1475 q-10 -63 -35.5 -120t-66.5 -101t-97.5 -68.5t-125.5 -24.5q-72 0 -121 25.5t-75.5 71t-33 100.5t6.5 117h161q-10 -55 11.5 -90t72.5 -35t86 31.5t47 93.5h170z" />
<glyph unicode="&#x120;" horiz-adv-x="1353" d="M1288 1102q-82 31 -168 47t-168 16q-143 0 -252.5 -54t-180 -146.5t-104.5 -202t-34 -221.5q0 -74 19.5 -132.5t60.5 -101.5t106.5 -65.5t153.5 -22.5q55 0 103 6t94 21l90 479h262l-127 -664q-106 -39 -230.5 -60t-238.5 -21q-145 0 -255 36.5t-180.5 105t-105.5 165 t-35 219.5q0 170 58.5 330.5t171 288.5t279.5 203t374 75q100 0 196.5 -14.5t188.5 -40.5zM1131 1632q0 -66 -44 -109t-106 -43q-57 0 -96 39t-39 92q0 66 45 109t107 43q57 0 95 -39t38 -92z" />
<glyph unicode="&#x121;" horiz-adv-x="1110" d="M784 817q-27 6 -55.5 10t-58.5 4q-84 0 -149.5 -44t-108.5 -116.5t-64.5 -157.5t-21.5 -169q0 -72 20.5 -106.5t56.5 -34.5q51 0 109.5 53t112 138t91.5 180.5t54 177.5zM870 -63q-20 -109 -64 -191t-117 -139.5t-180.5 -87t-248.5 -29.5q-84 0 -159.5 10.5t-139.5 28.5 l64 235q61 -25 136 -39t142 -14q141 0 218 60.5t104 195.5q8 43 18 84t22.5 82t28 86t35.5 98l-4 2q-35 -63 -76 -121.5t-94 -108.5t-117.5 -81t-136.5 -31q-119 0 -179.5 78t-60.5 240q0 147 40 280.5t122 238t206 163.5t286 59q92 0 180 -8t180 -22zM911 1339 q0 -72 -50 -121t-119 -49q-68 0 -111 44t-43 106q0 35 14.5 65.5t38 54t55 36t64.5 12.5q66 0 108.5 -44.5t42.5 -103.5z" />
<glyph unicode="&#x122;" horiz-adv-x="1353" d="M1288 1102q-82 31 -168 47t-168 16q-143 0 -252.5 -54t-180 -146.5t-104.5 -202t-34 -221.5q0 -74 19.5 -132.5t60.5 -101.5t106.5 -65.5t153.5 -22.5q55 0 103 6t94 21l90 479h262l-127 -664q-106 -39 -230.5 -60t-238.5 -21q-145 0 -255 36.5t-180.5 105t-105.5 165 t-35 219.5q0 170 58.5 330.5t171 288.5t279.5 203t374 75q100 0 196.5 -14.5t188.5 -40.5zM639 -96q66 0 99.5 -51.5t15 -124t-97.5 -135t-218 -87.5l-33 101q80 31 106.5 69.5t14.5 85.5q-12 57 20 99.5t93 42.5z" />
<glyph unicode="&#x123;" horiz-adv-x="1110" d="M784 817q-27 6 -55.5 10t-58.5 4q-84 0 -149.5 -44t-108.5 -116.5t-64.5 -157.5t-21.5 -169q0 -72 20.5 -106.5t56.5 -34.5q51 0 109.5 53t112 138t91.5 180.5t54 177.5zM870 -63q-20 -109 -64 -191t-117 -139.5t-180.5 -87t-248.5 -29.5q-84 0 -159.5 10.5t-139.5 28.5 l64 235q61 -25 136 -39t142 -14q141 0 218 60.5t104 195.5q8 43 18 84t22.5 82t28 86t35.5 98l-4 2q-35 -63 -76 -121.5t-94 -108.5t-117.5 -81t-136.5 -31q-119 0 -179.5 78t-60.5 240q0 147 40 280.5t122 238t206 163.5t286 59q92 0 180 -8t180 -22zM928 1446 q-80 -29 -106.5 -69t-12.5 -87q10 -57 -20.5 -99t-93.5 -42q-43 0 -73 23.5t-41 63.5t0 87t49 92t105.5 80t161.5 51z" />
<glyph unicode="&#x124;" horiz-adv-x="1378" d="M1151 0h-262l115 600h-574l-115 -600h-262l262 1382h263l-107 -553h576l104 553h262zM1155 1464l-250 113l-295 -113l-37 138l367 170l299 -173z" />
<glyph unicode="&#x125;" horiz-adv-x="1144" d="M920 0h-256l120 639q18 92 3 134t-64 42t-105.5 -51t-109.5 -136t-93 -183.5t-57 -186.5l-49 -258h-256l283 1495h256l-82 -430q-12 -72 -38 -156t-71 -207h5q37 72 81.5 132.5t98 106.5t116 72.5t132.5 26.5q72 0 121 -24.5t75.5 -69.5t31.5 -107.5t-9 -138.5z M1039 1538l-250 113l-295 -113l-37 138l367 170l299 -173z" />
<glyph unicode="&#x126;" horiz-adv-x="1417" d="M522 987l-39 -203h574l39 203h-574zM1530 1204l-41 -217h-131l-187 -987h-262l107 567h-576l-104 -567h-262l188 987h-131l39 217h131l35 178h262l-35 -178h574l34 178h263l-35 -178h131z" />
<glyph unicode="&#x127;" horiz-adv-x="1157" d="M815 1354l-37 -203h-241l-23 -121q-12 -55 -34.5 -132t-63.5 -196h2q37 72 81 131.5t97 104.5t115.5 70.5t130.5 25.5q74 0 124 -24.5t75.5 -69.5t30.5 -106.5t-9 -139.5l-131 -694h-258l123 639q16 90 0.5 131t-62.5 41q-49 0 -106.5 -51t-110.5 -135t-93 -181.5 t-56 -185.5l-47 -258h-259l218 1151h-150l39 203h149l27 141h258l-26 -141h237z" />
<glyph unicode="&#x128;" horiz-adv-x="542" d="M315 0h-262l262 1382h263zM871 1659q-49 -82 -113.5 -125t-142.5 -43q-47 0 -81 13.5t-73 39t-56 34.5t-44 9q-63 0 -121 -88l-123 90q47 82 112.5 125t145.5 43q47 0 81 -13t72 -39t55.5 -35t43.5 -9q66 0 121 86z" />
<glyph unicode="&#x129;" horiz-adv-x="534" d="M307 0h-254l193 1018h254zM755 1366q-39 -88 -97 -134t-136 -46q-35 0 -62.5 13t-50 30.5t-46 35t-40.5 17.5q-55 0 -96 -86l-115 90q76 182 234 182q35 0 62.5 -13t50 -30.5t47 -35t38.5 -17.5q29 0 52.5 23.5t46.5 62.5z" />
<glyph unicode="&#x12a;" horiz-adv-x="542" d="M315 0h-262l262 1382h263zM770 1518h-590l33 165h587z" />
<glyph unicode="&#x12b;" horiz-adv-x="534" d="M307 0h-254l193 1018h254zM158 1229l39 188h512l-37 -188h-514z" />
<glyph unicode="&#x12c;" horiz-adv-x="542" d="M315 0h-262l262 1382h263zM803 1759q-10 -57 -35.5 -107t-65.5 -89t-96.5 -60.5t-127.5 -21.5q-70 0 -121 22.5t-82 61.5t-41 89t0 105h151q-10 -51 20 -84t89 -33q63 0 103 31t51 86h155z" />
<glyph unicode="&#x12d;" horiz-adv-x="534" d="M307 0h-254l193 1018h254zM721 1475q-29 -152 -105.5 -233t-201.5 -81t-180 83t-29 231h164q-10 -53 7.5 -89t62.5 -36q41 0 72.5 33.5t41.5 91.5h168z" />
<glyph unicode="&#x12e;" horiz-adv-x="542" d="M315 0q-53 -35 -92 -68.5t-62.5 -65.5t-33.5 -59.5t-10 -50.5q0 -47 57 -47q31 0 65.5 12.5t73.5 36.5l49 -149q-66 -49 -131 -71.5t-137 -22.5q-106 0 -166.5 52t-60.5 128q0 43 12 84t36 79t59.5 74.5t80.5 71.5l260 1378h263z" />
<glyph unicode="&#x12f;" horiz-adv-x="534" d="M113 -244q0 -47 57 -47q33 0 67.5 12.5t71.5 36.5l49 -149q-66 -49 -131 -71.5t-137 -22.5q-106 0 -165.5 52t-59.5 128q0 82 45 153.5t143 155.5l193 1014h254l-193 -1018q-53 -41 -91 -77t-60.5 -66.5t-32.5 -55.5t-10 -45zM594 1339q0 -72 -50 -121t-120 -49 q-68 0 -111 44t-43 106q0 35 14.5 65.5t38 54t55.5 36t64 12.5q66 0 109 -44.5t43 -103.5z" />
<glyph unicode="&#x130;" horiz-adv-x="542" d="M315 0h-262l262 1382h263zM633 1620q0 -66 -44 -109t-106 -43q-57 0 -96 39t-39 92q0 66 45 109t107 43q57 0 95 -39t38 -92z" />
<glyph unicode="&#x131;" horiz-adv-x="534" d="M307 0h-254l193 1018h254z" />
<glyph unicode="&#x132;" horiz-adv-x="1239" d="M315 0h-262l262 1382h263zM1086 379q-18 -90 -52 -163t-87.5 -125t-131 -80.5t-178.5 -28.5q-45 0 -95 5t-85 11l41 229q55 -20 133 -20q80 0 130 45t71 149l186 981h260z" />
<glyph unicode="&#x133;" horiz-adv-x="1077" d="M307 0h-254l193 1018h254zM594 1339q0 -72 -50 -121t-120 -49q-68 0 -111 44t-43 106q0 35 14.5 65.5t38 54t55.5 36t64 12.5q66 0 109 -44.5t43 -103.5zM830 -100q-18 -98 -52 -174t-87.5 -128.5t-128 -79t-172.5 -26.5q-92 0 -158 16l53 224q25 -10 55.5 -15.5 t65.5 -5.5q74 0 111.5 43t58.5 154l213 1110h256zM1137 1339q0 -72 -51 -121t-121 -49q-66 0 -108.5 44t-42.5 106q0 35 13 65.5t37.5 54t55.5 36t64 12.5q66 0 109.5 -44.5t43.5 -103.5z" />
<glyph unicode="&#x134;" horiz-adv-x="696" d="M543 379q-18 -90 -52 -163t-87.5 -125t-131 -80.5t-178.5 -28.5q-45 0 -95 5t-85 11l41 229q55 -20 133 -20q80 0 130 45t71 149l186 981h260zM889 1464l-250 113l-295 -113l-37 138l367 170l299 -173z" />
<glyph unicode="&#x135;" horiz-adv-x="542" d="M295 -100q-18 -98 -52 -174t-87.5 -128.5t-128 -79t-172.5 -26.5q-92 0 -158 16l53 224q25 -10 55.5 -15.5t65.5 -5.5q74 0 111.5 43t58.5 154l213 1110h256zM590 1147l-147 166l-215 -166l-72 121l328 274l223 -278z" />
<glyph unicode="&#x136;" horiz-adv-x="1198" d="M707 700l376 -700h-325l-316 664l-127 -664h-262l262 1382h263l-119 -622l549 622h331zM473 -96q66 0 99.5 -51.5t15 -124t-97.5 -135t-218 -87.5l-33 101q80 31 106.5 69.5t14.5 85.5q-12 57 20 99.5t93 42.5z" />
<glyph unicode="&#x137;" horiz-adv-x="1038" d="M662 555l272 -555h-309l-219 516l-99 -516h-256l285 1495h254l-168 -887l444 469l201 -133zM408 -96q66 0 99.5 -51.5t15 -124t-97.5 -135t-218 -87.5l-33 101q80 31 106.5 69.5t14.5 85.5q-12 57 20 99.5t93 42.5z" />
<glyph unicode="&#x138;" horiz-adv-x="1038" d="M657 541l271 -541h-312l-213 502l-96 -502h-256l195 1018h256l-82 -426l452 485l201 -133z" />
<glyph unicode="&#x139;" horiz-adv-x="860" d="M754 0h-701l262 1382h263l-220 -1153h439zM441 1466l-19 148l443 149l26 -192z" />
<glyph unicode="&#x13a;" horiz-adv-x="534" d="M307 0h-254l283 1495h254zM392 1589l-19 148l443 149l26 -192z" />
<glyph unicode="&#x13b;" horiz-adv-x="860" d="M754 0h-701l262 1382h263l-220 -1153h439zM375 -96q66 0 99.5 -51.5t15 -124t-97.5 -135t-218 -87.5l-33 101q80 31 106.5 69.5t14.5 85.5q-12 57 20 99.5t93 42.5z" />
<glyph unicode="&#x13c;" horiz-adv-x="534" d="M307 0h-254l283 1495h254zM144 -96q66 0 99.5 -51.5t15 -124t-97.5 -135t-218 -87.5l-33 101q80 31 106.5 69.5t14.5 85.5q-12 57 20 99.5t93 42.5z" />
<glyph unicode="&#x13d;" horiz-adv-x="872" d="M754 0h-701l262 1382h263l-220 -1153h439zM1102 1559l-307 -355l-137 84l274 373z" />
<glyph unicode="&#x13e;" horiz-adv-x="641" d="M307 0h-254l283 1495h254zM977 1542l-215 -409l-162 41l176 415z" />
<glyph unicode="&#x13f;" horiz-adv-x="1142" d="M754 0h-701l262 1382h263l-220 -1153h439zM1081 716q0 -37 -13.5 -68.5t-37 -55t-55 -37t-66.5 -13.5q-70 0 -116 48.5t-46 115.5q0 37 13.5 69t38 56.5t56 37.5t66.5 13t64.5 -13t51 -36.5t33 -53.5t11.5 -63z" />
<glyph unicode="&#x140;" horiz-adv-x="864" d="M307 0h-254l283 1495h254zM885 614q0 -37 -13.5 -68.5t-37 -55t-55 -37t-66.5 -13.5q-70 0 -116 48.5t-46 115.5q0 37 13.5 69t38 56.5t56 37.5t66.5 13t64.5 -13t51 -36.5t33 -53.5t11.5 -63z" />
<glyph unicode="&#x141;" horiz-adv-x="878" d="M772 0h-700l123 643l-140 -61l-14 211l197 84l96 505h260l-72 -383l209 91l14 -211l-268 -113l-102 -537h440z" />
<glyph unicode="&#x142;" horiz-adv-x="602" d="M496 805l-152 -805h-254l123 668l-113 -60l-12 195l168 86l117 606h254l-88 -469l120 64l15 -195z" />
<glyph unicode="&#x143;" horiz-adv-x="1376" d="M1149 0h-311l-277 776q-23 66 -41 135.5t-31 135.5q-12 -90 -47.5 -297t-64.5 -361l-74 -389h-250l262 1382h338l267 -743q20 -66 36.5 -128t28.5 -124q10 94 43 281.5t68 365.5l65 348h250zM822 1466l-19 148l443 149l26 -192z" />
<glyph unicode="&#x144;" horiz-adv-x="1144" d="M920 0h-258l122 639q18 92 3 134t-64 42t-106.5 -51t-110.5 -136t-93 -183.5t-57 -186.5l-49 -258h-256l103 532q14 70 24 129.5t21.5 119t21.5 120t21 117.5h252q-10 -53 -32 -129t-61 -187h5q37 72 80.5 132.5t97 106.5t117 72.5t133.5 26.5q72 0 121 -24.5t75.5 -69.5 t31.5 -106.5t-9 -137.5zM711 1143l-94 129l350 291l117 -160z" />
<glyph unicode="&#x145;" horiz-adv-x="1376" d="M1149 0h-311l-277 776q-23 66 -41 135.5t-31 135.5q-12 -90 -47.5 -297t-64.5 -361l-74 -389h-250l262 1382h338l267 -743q20 -66 36.5 -128t28.5 -124q10 94 43 281.5t68 365.5l65 348h250zM568 -96q66 0 99.5 -51.5t15 -124t-97.5 -135t-218 -87.5l-33 101 q80 31 106.5 69.5t14.5 85.5q-12 57 20 99.5t93 42.5z" />
<glyph unicode="&#x146;" horiz-adv-x="1144" d="M920 0h-258l122 639q18 92 3 134t-64 42t-106.5 -51t-110.5 -136t-93 -183.5t-57 -186.5l-49 -258h-256l103 532q14 70 24 129.5t21.5 119t21.5 120t21 117.5h252q-10 -53 -32 -129t-61 -187h5q37 72 80.5 132.5t97 106.5t117 72.5t133.5 26.5q72 0 121 -24.5t75.5 -69.5 t31.5 -106.5t-9 -137.5zM449 -96q66 0 99.5 -51.5t15 -124t-97.5 -135t-218 -87.5l-33 101q80 31 106.5 69.5t14.5 85.5q-12 57 20 99.5t93 42.5z" />
<glyph unicode="&#x147;" horiz-adv-x="1376" d="M1149 0h-311l-277 776q-23 66 -41 135.5t-31 135.5q-12 -90 -47.5 -297t-64.5 -361l-74 -389h-250l262 1382h338l267 -743q20 -66 36.5 -128t28.5 -124q10 94 43 281.5t68 365.5l65 348h250zM886 1464l-301 174l82 134l250 -113l297 113l39 -138z" />
<glyph unicode="&#x148;" horiz-adv-x="1144" d="M920 0h-258l122 639q18 92 3 134t-64 42t-106.5 -51t-110.5 -136t-93 -183.5t-57 -186.5l-49 -258h-256l103 532q14 70 24 129.5t21.5 119t21.5 120t21 117.5h252q-10 -53 -32 -129t-61 -187h5q37 72 80.5 132.5t97 106.5t117 72.5t133.5 26.5q72 0 121 -24.5t75.5 -69.5 t31.5 -106.5t-9 -137.5zM694 1147l-256 276l121 121l174 -168l244 168l78 -123z" />
<glyph unicode="&#x149;" horiz-adv-x="1366" d="M141 1038q82 76 115 128.5t33 93.5q0 16 -5 27t-12.5 24.5t-12.5 30t-5 38.5q0 63 40 106.5t105 43.5q61 0 95 -41t34 -107q0 -94 -78.5 -205.5t-226.5 -226.5zM1141 0h-258l122 639q18 92 3 134t-64 42t-106.5 -51t-110.5 -136t-93 -183.5t-57 -186.5l-49 -258h-256 l103 532q14 70 24 129.5t21.5 119t21.5 120t21 117.5h252q-10 -53 -32 -129t-61 -187h5q37 72 80.5 132.5t97 106.5t117 72.5t133.5 26.5q72 0 121 -24.5t75.5 -69.5t31.5 -106.5t-9 -137.5z" />
<glyph unicode="&#x14a;" horiz-adv-x="1376" d="M1149 -2q-25 -123 -67 -212t-104.5 -149.5t-146 -96.5t-194.5 -54l-16 209q115 20 179 78.5t89 183.5l-322 795q-25 59 -46 126.5t-40 139.5q-6 -55 -18 -133t-26.5 -166t-31 -177t-30.5 -169l-72 -373h-250l262 1382h295l301 -733q27 -70 82 -237q6 61 17.5 138t26 161 t29.5 167t30 156l65 348h250z" />
<glyph unicode="&#x14b;" horiz-adv-x="1144" d="M997 360q-31 -160 -59.5 -271.5t-56 -183t-56 -117.5t-63.5 -81q-53 -53 -127 -89t-186 -67l-43 207q55 14 95 34t64 46q25 25 44.5 55.5t40 85t42 142.5t45.5 217q27 137 38 218t11 130q0 72 -19 101.5t-60 29.5q-47 0 -100.5 -49t-103.5 -130t-88 -176t-55 -181 l-53 -281h-256l103 532q25 131 47 252t41 234h252q-6 -33 -13.5 -61.5t-17.5 -62.5t-24.5 -76t-32.5 -95h2q82 162 184 239.5t213 77.5q121 0 179 -75.5t58 -239.5q0 -68 -10 -153t-35 -212z" />
<glyph unicode="&#x14c;" horiz-adv-x="1421" d="M1137 858q0 143 -72 225t-217 82q-109 0 -198 -54t-150.5 -146.5t-94 -207t-32.5 -233.5q0 -143 71.5 -225t217.5 -82q109 0 197.5 54.5t150 146.5t94.5 206.5t33 233.5zM1419 903q0 -184 -57 -352t-163.5 -297t-256 -203t-328.5 -74q-262 0 -393 135.5t-131 368.5 q0 184 56.5 351t164 297.5t257 203t327.5 72.5q262 0 393 -135.5t131 -366.5zM1211 1518h-590l33 165h587z" />
<glyph unicode="&#x14d;" horiz-adv-x="1110" d="M799 631q0 84 -42 135t-126 51q-76 0 -133.5 -40t-95 -104.5t-55 -139t-17.5 -146.5q0 -84 42 -134t128 -50q76 0 133 39t94 103.5t54.5 139t17.5 146.5zM1069 670q0 -141 -44 -266t-125 -221.5t-193.5 -149.5t-245.5 -53q-205 0 -303.5 101t-98.5 267q0 141 44 266 t125 221.5t194 149.5t246 53q104 0 181 -27.5t126 -77.5t71.5 -116.5t22.5 -146.5zM985 1229h-540l34 188h543z" />
<glyph unicode="&#x14e;" horiz-adv-x="1421" d="M1137 858q0 143 -72 225t-217 82q-109 0 -198 -54t-150.5 -146.5t-94 -207t-32.5 -233.5q0 -143 71.5 -225t217.5 -82q109 0 197.5 54.5t150 146.5t94.5 206.5t33 233.5zM1419 903q0 -184 -57 -352t-163.5 -297t-256 -203t-328.5 -74q-262 0 -393 135.5t-131 368.5 q0 184 56.5 351t164 297.5t257 203t327.5 72.5q262 0 393 -135.5t131 -366.5zM1245 1759q-10 -57 -35.5 -107t-65.5 -89t-96.5 -60.5t-127.5 -21.5q-70 0 -121 22.5t-82 61.5t-41 89t0 105h151q-10 -51 20 -84t89 -33q63 0 103 31t51 86h155z" />
<glyph unicode="&#x14f;" horiz-adv-x="1110" d="M799 631q0 84 -42 135t-126 51q-76 0 -133.5 -40t-95 -104.5t-55 -139t-17.5 -146.5q0 -84 42 -134t128 -50q76 0 133 39t94 103.5t54.5 139t17.5 146.5zM1069 670q0 -141 -44 -266t-125 -221.5t-193.5 -149.5t-245.5 -53q-205 0 -303.5 101t-98.5 267q0 141 44 266 t125 221.5t194 149.5t246 53q104 0 181 -27.5t126 -77.5t71.5 -116.5t22.5 -146.5zM1024 1475q-10 -63 -35.5 -120t-66.5 -101t-97.5 -68.5t-125.5 -24.5q-72 0 -121 25.5t-75.5 71t-33 100.5t6.5 117h161q-10 -55 11.5 -90t72.5 -35t86 31.5t47 93.5h170z" />
<glyph unicode="&#x150;" horiz-adv-x="1421" d="M1137 858q0 143 -72 225t-217 82q-109 0 -198 -54t-150.5 -146.5t-94 -207t-32.5 -233.5q0 -143 71.5 -225t217.5 -82q109 0 197.5 54.5t150 146.5t94.5 206.5t33 233.5zM1419 903q0 -184 -57 -352t-163.5 -297t-256 -203t-328.5 -74q-262 0 -393 135.5t-131 368.5 q0 184 56.5 351t164 297.5t257 203t327.5 72.5q262 0 393 -135.5t131 -366.5zM735 1460l-102 111l303 301l127 -133zM1120 1460l-94 113l338 285l113 -142z" />
<glyph unicode="&#x151;" horiz-adv-x="1110" d="M799 631q0 84 -42 135t-126 51q-76 0 -133.5 -40t-95 -104.5t-55 -139t-17.5 -146.5q0 -84 42 -134t128 -50q76 0 133 39t94 103.5t54.5 139t17.5 146.5zM1069 670q0 -141 -44 -266t-125 -221.5t-193.5 -149.5t-245.5 -53q-205 0 -303.5 101t-98.5 267q0 141 44 266 t125 221.5t194 149.5t246 53q104 0 181 -27.5t126 -77.5t71.5 -116.5t22.5 -146.5zM545 1147l-114 104l299 318l137 -127zM930 1147l-108 104l321 301l129 -137z" />
<glyph unicode="&#x152;" horiz-adv-x="1744" d="M1024 1141q-70 25 -176 24q-109 0 -198 -54t-150.5 -146.5t-94 -207t-32.5 -233.5q0 -143 71.5 -225t217.5 -82q94 0 192 25zM1763 1159h-475l-63 -340h452l-43 -217h-450l-72 -373h475l-43 -229h-696q-123 -23 -234 -23q-262 0 -393 135.5t-131 368.5q0 184 56.5 351 t164 297.5t257 203t327.5 72.5q57 0 116.5 -6t114.5 -17h682z" />
<glyph unicode="&#x153;" horiz-adv-x="1695" d="M799 631q0 84 -42 135t-126 51q-76 0 -133.5 -40t-95 -104.5t-55 -139t-17.5 -146.5q0 -84 42 -134t128 -50q76 0 133 39t94 103.5t54.5 139t17.5 146.5zM1419 756q0 43 -28.5 65.5t-77.5 22.5t-89 -20.5t-73 -55.5t-55.5 -81t-36.5 -97q184 6 272 47t88 119zM1671 791 q0 -90 -43 -159t-126 -115t-200.5 -71.5t-269.5 -29.5q-2 -14 -4 -37t-2 -43q0 -88 39 -119t145 -31q72 0 149 15.5t146 44.5l4 -201q-86 -33 -183 -49t-198 -16q-125 0 -198.5 37.5t-102.5 117.5q-70 -76 -163 -115.5t-203 -39.5q-205 0 -303.5 101t-98.5 267q0 141 44 266 t125 221.5t194 149.5t246 53q117 0 199.5 -42t123.5 -117q57 72 151.5 115.5t198.5 43.5q92 0 156 -20.5t102.5 -55t55 -78.5t16.5 -93z" />
<glyph unicode="&#x154;" horiz-adv-x="1153" d="M866 1020q0 72 -51 113t-160 41q-35 0 -68.5 -2.5t-49.5 -4.5l-78 -409q12 0 42.5 -1t65.5 -1q80 0 138.5 23.5t93.5 61.5t51 84t16 95zM1147 1071q0 -78 -22.5 -152.5t-69.5 -139t-121 -111.5t-172 -72q10 -16 30.5 -56t41.5 -87l208 -453h-313l-235 557h-74l-105 -557 h-262l262 1382q49 2 157 5.5t228 3.5q219 0 333 -84t114 -236zM637 1466l-19 148l443 149l26 -192z" />
<glyph unicode="&#x155;" horiz-adv-x="718" d="M745 786q-55 16 -114.5 -19.5t-114.5 -115.5t-99 -191.5t-67 -238.5l-43 -221h-256l103 532q14 70 24 129.5t21.5 119t21.5 120t21 117.5h247q-10 -61 -31.5 -134t-56.5 -173h5q43 88 84.5 150.5t89 106.5t102.5 62.5t119 7.5zM524 1143l-94 129l350 291l117 -160z" />
<glyph unicode="&#x156;" horiz-adv-x="1153" d="M866 1020q0 72 -51 113t-160 41q-35 0 -68.5 -2.5t-49.5 -4.5l-78 -409q12 0 42.5 -1t65.5 -1q80 0 138.5 23.5t93.5 61.5t51 84t16 95zM1147 1071q0 -78 -22.5 -152.5t-69.5 -139t-121 -111.5t-172 -72q10 -16 30.5 -56t41.5 -87l208 -453h-313l-235 557h-74l-105 -557 h-262l262 1382q49 2 157 5.5t228 3.5q219 0 333 -84t114 -236zM451 -96q66 0 99.5 -51.5t15 -124t-97.5 -135t-218 -87.5l-33 101q80 31 106.5 69.5t14.5 85.5q-12 57 20 99.5t93 42.5z" />
<glyph unicode="&#x157;" horiz-adv-x="718" d="M745 786q-55 16 -114.5 -19.5t-114.5 -115.5t-99 -191.5t-67 -238.5l-43 -221h-256l103 532q14 70 24 129.5t21.5 119t21.5 120t21 117.5h247q-10 -61 -31.5 -134t-56.5 -173h5q43 88 84.5 150.5t89 106.5t102.5 62.5t119 7.5zM166 -96q66 0 99.5 -51.5t15 -124 t-97.5 -135t-218 -87.5l-33 101q80 31 106.5 69.5t14.5 85.5q-12 57 20 99.5t93 42.5z" />
<glyph unicode="&#x158;" horiz-adv-x="1153" d="M866 1020q0 72 -51 113t-160 41q-35 0 -68.5 -2.5t-49.5 -4.5l-78 -409q12 0 42.5 -1t65.5 -1q80 0 138.5 23.5t93.5 61.5t51 84t16 95zM1147 1071q0 -78 -22.5 -152.5t-69.5 -139t-121 -111.5t-172 -72q10 -16 30.5 -56t41.5 -87l208 -453h-313l-235 557h-74l-105 -557 h-262l262 1382q49 2 157 5.5t228 3.5q219 0 333 -84t114 -236zM725 1464l-301 174l82 134l250 -113l297 113l39 -138z" />
<glyph unicode="&#x159;" horiz-adv-x="718" d="M745 786q-55 16 -114.5 -19.5t-114.5 -115.5t-99 -191.5t-67 -238.5l-43 -221h-256l103 532q14 70 24 129.5t21.5 119t21.5 120t21 117.5h247q-10 -61 -31.5 -134t-56.5 -173h5q43 88 84.5 150.5t89 106.5t102.5 62.5t119 7.5zM542 1147l-256 276l121 121l174 -168 l244 168l78 -123z" />
<glyph unicode="&#x15a;" horiz-adv-x="1009" d="M946 1145q-55 18 -119.5 28.5t-124.5 10.5q-57 0 -103 -13.5t-76.5 -38t-46 -56.5t-15.5 -66q0 -49 30.5 -86t92 -75t121 -74t108.5 -80t81 -108.5t32 -150.5q0 -88 -38 -171t-112 -147.5t-184.5 -102.5t-249.5 -38q-84 0 -168 10.5t-158 28.5l70 254q70 -29 146.5 -45 t156.5 -16q123 0 188.5 54t65.5 136q0 51 -30.5 90t-94 79t-119 74t-103.5 78t-80 106.5t-32 146.5q0 88 38 166t111 138t178 94t237 34q61 0 131.5 -7t130.5 -20zM617 1466l-19 148l443 149l26 -192z" />
<glyph unicode="&#x15b;" horiz-adv-x="794" d="M707 821q-39 10 -78 16.5t-72 6.5q-76 0 -116 -29t-40 -78q0 -43 27 -70.5t104.5 -90t115.5 -120t38 -139.5q0 -68 -28.5 -129t-86 -108t-145.5 -73.5t-203 -26.5q-123 0 -213 22l49 215q39 -14 92.5 -24.5t96.5 -10.5q82 0 125 30t43 85q0 43 -27 70.5t-103.5 90 t-114.5 120t-38 139.5q0 66 28.5 124t85 103t139.5 70.5t187 25.5q84 0 177 -16zM508 1141l-125 104l284 328l154 -123z" />
<glyph unicode="&#x15c;" horiz-adv-x="1009" d="M946 1145q-55 18 -119.5 28.5t-124.5 10.5q-57 0 -103 -13.5t-76.5 -38t-46 -56.5t-15.5 -66q0 -49 30.5 -86t92 -75t121 -74t108.5 -80t81 -108.5t32 -150.5q0 -88 -38 -171t-112 -147.5t-184.5 -102.5t-249.5 -38q-84 0 -168 10.5t-158 28.5l70 254q70 -29 146.5 -45 t156.5 -16q123 0 188.5 54t65.5 136q0 51 -30.5 90t-94 79t-119 74t-103.5 78t-80 106.5t-32 146.5q0 88 38 166t111 138t178 94t237 34q61 0 131.5 -7t130.5 -20zM991 1464l-250 113l-295 -113l-37 138l367 170l299 -173z" />
<glyph unicode="&#x15d;" horiz-adv-x="794" d="M707 821q-39 10 -78 16.5t-72 6.5q-76 0 -116 -29t-40 -78q0 -43 27 -70.5t104.5 -90t115.5 -120t38 -139.5q0 -68 -28.5 -129t-86 -108t-145.5 -73.5t-203 -26.5q-123 0 -213 22l49 215q39 -14 92.5 -24.5t96.5 -10.5q82 0 125 30t43 85q0 43 -27 70.5t-103.5 90 t-114.5 120t-38 139.5q0 66 28.5 124t85 103t139.5 70.5t187 25.5q84 0 177 -16zM721 1147l-176 166l-242 -166l-77 121l360 276l256 -278z" />
<glyph unicode="&#x15e;" horiz-adv-x="1009" d="M946 1145q-55 18 -119.5 28.5t-124.5 10.5q-57 0 -103 -13.5t-76.5 -38t-46 -56.5t-15.5 -66q0 -49 30.5 -86t92 -75t121 -74t108.5 -80t81 -108.5t32 -150.5q0 -88 -38 -171t-112 -147.5t-184.5 -102.5t-249.5 -38q-84 0 -168 10.5t-158 28.5l70 254q70 -29 146.5 -45 t156.5 -16q123 0 188.5 54t65.5 136q0 51 -30.5 90t-94 79t-119 74t-103.5 78t-80 106.5t-32 146.5q0 88 38 166t111 138t178 94t237 34q61 0 131.5 -7t130.5 -20zM465 -82q55 -106 29.5 -205.5t-121.5 -191.5h-209q90 92 109.5 166.5t-33.5 165.5z" />
<glyph unicode="&#x15f;" horiz-adv-x="794" d="M707 821q-39 10 -78 16.5t-72 6.5q-76 0 -116 -29t-40 -78q0 -43 27 -70.5t104.5 -90t115.5 -120t38 -139.5q0 -68 -28.5 -129t-86 -108t-145.5 -73.5t-203 -26.5q-123 0 -213 22l49 215q39 -14 92.5 -24.5t96.5 -10.5q82 0 125 30t43 85q0 43 -27 70.5t-103.5 90 t-114.5 120t-38 139.5q0 66 28.5 124t85 103t139.5 70.5t187 25.5q84 0 177 -16zM362 -82q55 -106 29.5 -205.5t-121.5 -191.5h-209q90 92 109.5 166.5t-33.5 165.5z" />
<glyph unicode="&#x160;" horiz-adv-x="1009" d="M946 1145q-55 18 -119.5 28.5t-124.5 10.5q-57 0 -103 -13.5t-76.5 -38t-46 -56.5t-15.5 -66q0 -49 30.5 -86t92 -75t121 -74t108.5 -80t81 -108.5t32 -150.5q0 -88 -38 -171t-112 -147.5t-184.5 -102.5t-249.5 -38q-84 0 -168 10.5t-158 28.5l70 254q70 -29 146.5 -45 t156.5 -16q123 0 188.5 54t65.5 136q0 51 -30.5 90t-94 79t-119 74t-103.5 78t-80 106.5t-32 146.5q0 88 38 166t111 138t178 94t237 34q61 0 131.5 -7t130.5 -20zM702 1464l-301 174l82 134l250 -113l297 113l39 -138z" />
<glyph unicode="&#x161;" horiz-adv-x="794" d="M707 821q-39 10 -78 16.5t-72 6.5q-76 0 -116 -29t-40 -78q0 -43 27 -70.5t104.5 -90t115.5 -120t38 -139.5q0 -68 -28.5 -129t-86 -108t-145.5 -73.5t-203 -26.5q-123 0 -213 22l49 215q39 -14 92.5 -24.5t96.5 -10.5q82 0 125 30t43 85q0 43 -27 70.5t-103.5 90 t-114.5 120t-38 139.5q0 66 28.5 124t85 103t139.5 70.5t187 25.5q84 0 177 -16zM524 1147l-256 276l121 121l174 -168l244 168l78 -123z" />
<glyph unicode="&#x162;" horiz-adv-x="1024" d="M1126 1155h-350l-221 -1155h-260l219 1155h-350l43 227h481h481zM494 -82q55 -106 29.5 -205.5t-121.5 -191.5h-209q90 92 109.5 166.5t-33.5 165.5z" />
<glyph unicode="&#x163;" horiz-adv-x="751" d="M750 815h-242l-88 -463q-16 -90 0 -121.5t80 -31.5q33 0 62.5 4t62.5 10l-21 -207q-51 -12 -107.5 -19t-103.5 -7q-164 0 -217 81.5t-18 266.5l94 487h-174l39 203h174l59 313l266 53l-69 -366h239zM414 -82q55 -106 29.5 -205.5t-121.5 -191.5h-209q90 92 109.5 166.5 t-33.5 165.5z" />
<glyph unicode="&#x164;" horiz-adv-x="1024" d="M1126 1155h-350l-221 -1155h-260l219 1155h-350l43 227h481h481zM696 1464l-301 174l82 134l250 -113l297 113l39 -138z" />
<glyph unicode="&#x165;" horiz-adv-x="761" d="M750 815h-242l-88 -463q-16 -90 0 -121.5t80 -31.5q33 0 62.5 4t62.5 10l-21 -207q-51 -12 -107.5 -19t-103.5 -7q-164 0 -217 81.5t-18 266.5l94 487h-174l39 203h174l59 313l266 53l-69 -366h239zM1032 1542l-215 -409l-162 41l176 415z" />
<glyph unicode="&#x166;" horiz-adv-x="1024" d="M514 1155h-350l43 227h352h258h352l-43 -227h-350l-65 -336h211l-43 -217h-209l-115 -602h-260l115 602h-211l41 217h211z" />
<glyph unicode="&#x167;" horiz-adv-x="802" d="M707 616l-37 -190h-221l-15 -82q-14 -84 3.5 -116.5t78.5 -32.5q49 0 123 16l-18 -205q-51 -12 -107.5 -19t-101.5 -7q-164 0 -218.5 81.5t-19.5 264.5l21 100h-154l35 190h155l39 207h-174l39 195h172l60 313l266 53l-70 -366h240l-37 -195h-240l-41 -207h222z" />
<glyph unicode="&#x168;" horiz-adv-x="1366" d="M1235 508q-51 -268 -216 -399.5t-431 -131.5q-152 0 -249 40t-145.5 111t-57.5 166t14 212l165 876h263l-172 -897q-29 -145 22 -215.5t197 -70.5q156 0 239.5 77.5t116.5 253.5l164 852h258zM1280 1659q-49 -82 -113.5 -125t-142.5 -43q-47 0 -81 13.5t-73 39t-56 34.5 t-44 9q-63 0 -121 -88l-123 90q47 82 112.5 125t145.5 43q47 0 81 -13t72 -39t55.5 -35t43.5 -9q66 0 121 86z" />
<glyph unicode="&#x169;" horiz-adv-x="1142" d="M1008 485q-12 -59 -22.5 -119.5t-22 -122t-21.5 -122t-20 -121.5h-252q12 57 32.5 132t59.5 183h-4q-37 -72 -82 -132t-98.5 -106t-116 -73t-131.5 -27q-72 0 -121 25t-76 70t-32 106.5t10 136.5l133 703h256l-121 -639q-18 -92 -3 -134t64 -42t105.5 51t110 136 t93 183.5t56.5 186.5l49 258h256zM1102 1364q-96 -182 -256 -182q-45 0 -76.5 14t-68.5 42t-54.5 38t-42.5 10q-66 0 -118 -92l-121 96q47 88 112.5 135.5t141.5 47.5q45 0 77.5 -14.5t70.5 -42t55.5 -38t41.5 -10.5q63 0 117 92z" />
<glyph unicode="&#x16a;" horiz-adv-x="1366" d="M1235 508q-51 -268 -216 -399.5t-431 -131.5q-152 0 -249 40t-145.5 111t-57.5 166t14 212l165 876h263l-172 -897q-29 -145 22 -215.5t197 -70.5q156 0 239.5 77.5t116.5 253.5l164 852h258zM1182 1518h-590l33 165h587z" />
<glyph unicode="&#x16b;" horiz-adv-x="1142" d="M1008 485q-12 -59 -22.5 -119.5t-22 -122t-21.5 -122t-20 -121.5h-252q12 57 32.5 132t59.5 183h-4q-37 -72 -82 -132t-98.5 -106t-116 -73t-131.5 -27q-72 0 -121 25t-76 70t-32 106.5t10 136.5l133 703h256l-121 -639q-18 -92 -3 -134t64 -42t105.5 51t110 136 t93 183.5t56.5 186.5l49 258h256zM989 1229h-540l34 188h543z" />
<glyph unicode="&#x16c;" horiz-adv-x="1366" d="M1235 508q-51 -268 -216 -399.5t-431 -131.5q-152 0 -249 40t-145.5 111t-57.5 166t14 212l165 876h263l-172 -897q-29 -145 22 -215.5t197 -70.5q156 0 239.5 77.5t116.5 253.5l164 852h258zM1216 1759q-10 -57 -35.5 -107t-65.5 -89t-96.5 -60.5t-127.5 -21.5 q-70 0 -121 22.5t-82 61.5t-41 89t0 105h151q-10 -51 20 -84t89 -33q63 0 103 31t51 86h155z" />
<glyph unicode="&#x16d;" horiz-adv-x="1142" d="M1008 485q-12 -59 -22.5 -119.5t-22 -122t-21.5 -122t-20 -121.5h-252q12 57 32.5 132t59.5 183h-4q-37 -72 -82 -132t-98.5 -106t-116 -73t-131.5 -27q-72 0 -121 25t-76 70t-32 106.5t10 136.5l133 703h256l-121 -639q-18 -92 -3 -134t64 -42t105.5 51t110 136 t93 183.5t56.5 186.5l49 258h256zM1040 1475q-10 -63 -35.5 -120t-66.5 -101t-97.5 -68.5t-125.5 -24.5q-72 0 -121 25.5t-75.5 71t-33 100.5t6.5 117h161q-10 -55 11.5 -90t72.5 -35t86 31.5t47 93.5h170z" />
<glyph unicode="&#x16e;" horiz-adv-x="1366" d="M1235 508q-51 -268 -216 -399.5t-431 -131.5q-152 0 -249 40t-145.5 111t-57.5 166t14 212l165 876h263l-172 -897q-29 -145 22 -215.5t197 -70.5q156 0 239.5 77.5t116.5 253.5l164 852h258zM1184 1710q0 -63 -23.5 -116.5t-65.5 -91.5t-99.5 -58.5t-124.5 -20.5 q-106 0 -169 50t-63 136q0 63 24 116.5t65.5 91.5t99 58.5t125.5 20.5q106 0 168.5 -50t62.5 -136zM893 1552q53 0 85 38t32 97q0 39 -21.5 59.5t-58.5 20.5q-53 0 -85 -38t-32 -97q0 -39 21.5 -59.5t58.5 -20.5z" />
<glyph unicode="&#x16f;" horiz-adv-x="1142" d="M1008 485q-12 -59 -22.5 -119.5t-22 -122t-21.5 -122t-20 -121.5h-252q12 57 32.5 132t59.5 183h-4q-37 -72 -82 -132t-98.5 -106t-116 -73t-131.5 -27q-72 0 -121 25t-76 70t-32 106.5t10 136.5l133 703h256l-121 -639q-18 -92 -3 -134t64 -42t105.5 51t110 136 t93 183.5t56.5 186.5l49 258h256zM1010 1411q0 -63 -23 -118.5t-66 -96.5t-100 -63.5t-127 -22.5q-104 0 -163.5 52t-59.5 141q0 63 23.5 119.5t65.5 96.5t100.5 62.5t127.5 22.5q104 0 163 -52.5t59 -140.5zM719 1245q53 0 86 40t33 99q0 39 -18.5 61.5t-55.5 22.5 q-53 0 -86 -39.5t-33 -99.5q0 -39 18.5 -61.5t55.5 -22.5z" />
<glyph unicode="&#x170;" horiz-adv-x="1366" d="M1235 508q-51 -268 -216 -399.5t-431 -131.5q-152 0 -249 40t-145.5 111t-57.5 166t14 212l165 876h263l-172 -897q-29 -145 22 -215.5t197 -70.5q156 0 239.5 77.5t116.5 253.5l164 852h258zM684 1460l-102 111l303 301l127 -133zM1069 1460l-94 113l338 285l113 -142z " />
<glyph unicode="&#x171;" horiz-adv-x="1142" d="M1008 485q-12 -59 -22.5 -119.5t-22 -122t-21.5 -122t-20 -121.5h-252q12 57 32.5 132t59.5 183h-4q-37 -72 -82 -132t-98.5 -106t-116 -73t-131.5 -27q-72 0 -121 25t-76 70t-32 106.5t10 136.5l133 703h256l-121 -639q-18 -92 -3 -134t64 -42t105.5 51t110 136 t93 183.5t56.5 186.5l49 258h256zM547 1147l-114 104l299 318l137 -127zM932 1147l-108 104l321 301l129 -137z" />
<glyph unicode="&#x172;" horiz-adv-x="1366" d="M1235 508q-23 -117 -66 -208t-112 -161q-53 -53 -167 -124.5t-161 -118.5q-41 -41 -59.5 -77t-18.5 -63q0 -47 58 -47q33 0 67.5 12.5t73.5 36.5l47 -149q-66 -49 -131.5 -71.5t-136.5 -22.5q-106 0 -166 52t-60 128q0 88 52.5 161.5t136.5 125.5h-35q-121 0 -209 31.5 t-141 97t-68.5 165t11.5 230.5l165 876h263l-172 -897q-29 -145 22 -215.5t197 -70.5q156 0 239.5 77.5t116.5 253.5l164 852h258z" />
<glyph unicode="&#x173;" horiz-adv-x="1142" d="M723 -244q0 -47 57 -47q31 0 66 12.5t74 36.5l49 -149q-66 -49 -131.5 -71.5t-137.5 -22.5q-106 0 -166.5 52t-60.5 128q0 88 57.5 168t169.5 157q6 70 18.5 134.5t43.5 160.5h-4q-37 -72 -81 -132t-97.5 -106t-117 -73t-132.5 -27q-72 0 -121 25t-76 70t-32 106.5 t10 136.5l135 703h256l-123 -639q-16 -94 -2 -135t63 -41t106.5 51t111 136t93.5 183.5t56 186.5l49 258h256l-131 -680q-20 -111 -29.5 -197t-11.5 -141q-113 -68 -165 -131.5t-52 -112.5z" />
<glyph unicode="&#x174;" horiz-adv-x="1923" d="M1450 0h-320l-63 756q-4 55 -2 122.5t8 129.5h-6q-53 -164 -90 -252l-346 -756h-330l-76 1382h275l35 -755q2 -100 -0.5 -184.5t-8.5 -159.5h6q31 90 62 173t68 167l348 759h264l61 -768q6 -80 8.5 -166t-0.5 -165h5q35 106 60.5 181t53.5 146l326 772h260zM1430 1464 l-250 113l-295 -113l-37 138l367 170l299 -173z" />
<glyph unicode="&#x175;" horiz-adv-x="1597" d="M1671 989l-489 -989h-283l-53 463q-6 57 -8 118.5t-4 118.5q-74 -182 -157 -354t-163 -346h-283l-104 1018h276l37 -451q0 -8 1 -29.5t2 -50t2 -59.5t2.5 -57.5t2.5 -45t3 -22.5q37 100 81 199.5t87 191.5l155 324h258l47 -440q2 -27 4 -47.5t3.5 -48t2.5 -58.5t2 -76 t1 -46t4 -1q35 96 54 144.5t62 148.5l213 469zM1134 1147l-176 166l-242 -166l-77 121l360 276l256 -278z" />
<glyph unicode="&#x176;" d="M700 510l-96 -510h-260l96 508l-268 874h279l114 -389q25 -88 51 -219h2q35 59 73 119.5t77 118.5l252 370h285zM1018 1464l-250 113l-295 -113l-37 138l367 170l299 -173z" />
<glyph unicode="&#x177;" horiz-adv-x="1007" d="M825 1061l248 -70q-102 -240 -200.5 -440.5t-192.5 -364t-184 -288.5t-181 -213q-98 -100 -195 -147.5t-222 -47.5h-33t-29 2q-16 2 -31 4l41 225q14 -4 31 -6q12 -4 28.5 -5t35.5 -1q61 0 116.5 27.5t95.5 79t62.5 128t22.5 175.5q0 86 -8.5 189.5t-25 218t-41 239.5 t-54.5 252h280q16 -78 31.5 -164t26 -168t16.5 -152.5t6 -117.5q0 -68 -5 -117t-15 -92q8 10 18 30.5t21.5 45t21.5 47t16 39.5q39 74 75 154.5t72 165.5t73.5 178.5t78.5 193.5v0zM841 1147l-176 166l-242 -166l-77 121l360 276l256 -278z" />
<glyph unicode="&#x178;" d="M700 510l-96 -510h-260l96 508l-268 874h279l114 -389q25 -88 51 -219h2q35 59 73 119.5t77 118.5l252 370h285zM694 1614q0 -59 -40.5 -100t-98.5 -41q-55 0 -92 36.5t-37 89.5q0 61 42 102.5t97 41.5t92 -38t37 -91zM1127 1614q0 -59 -41 -100t-99 -41q-55 0 -92 36.5 t-37 89.5q0 61 42 102.5t98 41.5q55 0 92 -38t37 -91z" />
<glyph unicode="&#x179;" horiz-adv-x="1077" d="M1116 1167l-661 -829q-35 -41 -48.5 -58.5t-31.5 -37.5q33 4 291 4h282l-45 -246h-901l39 205l633 811q25 31 50.5 60.5t61.5 70.5q-45 -2 -97 -3t-142 -1h-309l45 239h874zM637 1466l-19 148l443 149l26 -192z" />
<glyph unicode="&#x17a;" horiz-adv-x="894" d="M862 831l-481 -593q41 2 217 2h160l-45 -240h-709l35 186l491 600q-35 -2 -87 -3t-119 -1h-160l45 236h688zM561 1143l-94 129l350 291l117 -160z" />
<glyph unicode="&#x17b;" horiz-adv-x="1077" d="M1116 1167l-661 -829q-35 -41 -48.5 -58.5t-31.5 -37.5q33 4 291 4h282l-45 -246h-901l39 205l633 811q25 31 50.5 60.5t61.5 70.5q-45 -2 -97 -3t-142 -1h-309l45 239h874zM901 1620q0 -66 -44 -109t-106 -43q-57 0 -96 39t-39 92q0 66 45 109t107 43q57 0 95 -39 t38 -92z" />
<glyph unicode="&#x17c;" horiz-adv-x="894" d="M862 831l-481 -593q41 2 217 2h160l-45 -240h-709l35 186l491 600q-35 -2 -87 -3t-119 -1h-160l45 236h688zM770 1339q0 -72 -50 -121t-119 -49q-68 0 -111 44t-43 106q0 35 14.5 65.5t38 54t55 36t64.5 12.5q66 0 108.5 -44.5t42.5 -103.5z" />
<glyph unicode="&#x17d;" horiz-adv-x="1077" d="M1116 1167l-661 -829q-35 -41 -48.5 -58.5t-31.5 -37.5q33 4 291 4h282l-45 -246h-901l39 205l633 811q25 31 50.5 60.5t61.5 70.5q-45 -2 -97 -3t-142 -1h-309l45 239h874zM735 1464l-301 174l82 134l250 -113l297 113l39 -138z" />
<glyph unicode="&#x17e;" horiz-adv-x="894" d="M862 831l-481 -593q41 2 217 2h160l-45 -240h-709l35 186l491 600q-35 -2 -87 -3t-119 -1h-160l45 236h688zM575 1147l-256 276l121 121l174 -168l244 168l78 -123z" />
<glyph unicode="&#x17f;" horiz-adv-x="538" d="M782 1290q-33 8 -71 8q-80 0 -127 -52t-70 -167l-219 -1155q-43 -225 -155.5 -329.5t-311.5 -104.5q-29 0 -62.5 2t-56.5 4l64 217q18 -4 35.5 -7t33.5 -3q41 0 72 12.5t55.5 39t41 67.5t28.5 100l219 1155q43 225 156.5 329.5t312.5 104.5q29 0 61.5 -2t57.5 -4z" />
<glyph unicode="&#x192;" horiz-adv-x="911" d="M412 203q-45 -156 -96.5 -259.5t-115 -165t-143.5 -89t-186 -27.5q-39 0 -77 5t-66 14l65 227q27 -12 58.5 -19.5t62.5 -7.5q41 0 73.5 15.5t59.5 49.5t51.5 88t46.5 136l144 494h-223l38 200h242l62 213q66 225 185.5 332t315.5 107q37 0 76 -4.5t66 -10.5l-52 -215 q-55 16 -116 17q-80 0 -132.5 -53.5t-88.5 -174.5l-60 -211h291l-39 -200h-307z" />
<glyph unicode="&#x1e6;" horiz-adv-x="1353" d="M1288 1102q-82 31 -168 47t-168 16q-143 0 -252.5 -54t-180 -146.5t-104.5 -202t-34 -221.5q0 -74 19.5 -132.5t60.5 -101.5t106.5 -65.5t153.5 -22.5q55 0 103 6t94 21l90 479h262l-127 -664q-106 -39 -230.5 -60t-238.5 -21q-145 0 -255 36.5t-180.5 105t-105.5 165 t-35 219.5q0 170 58.5 330.5t171 288.5t279.5 203t374 75q100 0 196.5 -14.5t188.5 -40.5zM944 1464l-301 174l82 134l250 -113l297 113l39 -138z" />
<glyph unicode="&#x1e7;" horiz-adv-x="1110" d="M784 817q-27 6 -55.5 10t-58.5 4q-84 0 -149.5 -44t-108.5 -116.5t-64.5 -157.5t-21.5 -169q0 -72 20.5 -106.5t56.5 -34.5q51 0 109.5 53t112 138t91.5 180.5t54 177.5zM870 -63q-20 -109 -64 -191t-117 -139.5t-180.5 -87t-248.5 -29.5q-84 0 -159.5 10.5t-139.5 28.5 l64 235q61 -25 136 -39t142 -14q141 0 218 60.5t104 195.5q8 43 18 84t22.5 82t28 86t35.5 98l-4 2q-35 -63 -76 -121.5t-94 -108.5t-117.5 -81t-136.5 -31q-119 0 -179.5 78t-60.5 240q0 147 40 280.5t122 238t206 163.5t286 59q92 0 180 -8t180 -22zM694 1147l-256 276 l121 121l174 -168l244 168l78 -123z" />
<glyph unicode="&#x1fa;" horiz-adv-x="1255" d="M885 0l-37 295h-510l-150 -295h-270l715 1382h340l192 -1382h-280zM770 938q-4 47 -8 103.5t-6 103.5h-4q-18 -45 -44 -104.5t-46 -100.5l-226 -434h391zM779 1796l-17 105l377 106l27 -133zM1065 1630q0 -49 -21.5 -89t-58 -67.5t-82.5 -42t-98 -14.5q-84 0 -134 39 t-50 107q0 49 21.5 89t58.5 67.5t83 42t97 14.5q84 0 134 -39t50 -107zM828 1516q43 0 71.5 26.5t28.5 73.5q0 29 -17.5 45t-51.5 16q-43 0 -72 -26.5t-29 -73.5q0 -61 70 -61z" />
<glyph unicode="&#x1fb;" horiz-adv-x="1110" d="M784 817q-27 6 -55.5 10t-58.5 4q-84 0 -149.5 -44t-108.5 -116.5t-64.5 -157.5t-21.5 -169q0 -72 20.5 -106.5t56.5 -34.5q51 0 109.5 53t112 138t91.5 180.5t54 177.5zM1075 1006q-20 -104 -57 -299t-57.5 -301.5t-39 -208t-32.5 -197.5h-254q14 59 37.5 138t58.5 186 h-4q-35 -66 -77 -124.5t-95 -109.5t-117.5 -82t-136.5 -31q-119 0 -179.5 78t-60.5 240q0 147 40 280.5t122 238t206 163.5t286 59q98 0 188 -7t172 -23zM700 1591l-20 125l419 133l31 -161zM1005 1370q0 -57 -20.5 -106.5t-59.5 -85t-91 -55t-113 -19.5q-94 0 -150.5 47 t-56.5 125q0 57 21.5 105.5t60.5 85t91 56t113 19.5q94 0 149.5 -47t55.5 -125zM741 1221q51 0 81 36.5t30 92.5q0 33 -19.5 54t-52.5 21q-51 0 -81 -36.5t-30 -92.5q0 -33 19.5 -54t52.5 -21z" />
<glyph unicode="&#x1fc;" horiz-adv-x="1605" d="M657 0l58 305h-400l-198 -305h-281l924 1382h158h258h485l-45 -223h-483l-66 -340h446l-43 -217h-444l-72 -373h490l-43 -229h-492h-252zM877 1161h-13q-41 -72 -84 -138.5t-98 -152.5l-242 -356h314zM1102 1466l-19 148l443 149l26 -192z" />
<glyph unicode="&#x1fd;" horiz-adv-x="1560" d="M641 434q-86 -2 -150.5 -10t-110.5 -26.5t-70.5 -49.5t-24.5 -76q0 -39 25.5 -65.5t72.5 -26.5q45 0 87 20.5t77 57.5t59.5 82t34.5 94zM1284 756q0 43 -28.5 65.5t-77.5 22.5q-47 0 -88 -19.5t-73 -53.5t-54.5 -78t-36.5 -95q88 2 155.5 12.5t112.5 29.5t67.5 48 t22.5 68zM1536 791q0 -84 -39 -150t-118 -113t-199.5 -73.5t-282.5 -28.5q-6 -39 -6 -90q0 -88 39 -119t147 -31q72 0 147.5 15.5t145.5 44.5l4 -201q-86 -33 -182 -49t-199 -16q-150 0 -222.5 49t-98.5 151q-57 -90 -159.5 -146.5t-219.5 -56.5q-63 0 -112.5 18.5t-82 52.5 t-49 80t-16.5 99q0 96 45 167t130 116t201.5 68.5t264.5 25.5l10 51q23 96 -11 140.5t-136 44.5q-76 0 -154 -18.5t-150 -49.5l-18 199q84 31 182.5 50t190.5 19q117 0 183.5 -33.5t102.5 -93.5q57 53 146.5 89t185.5 36q92 0 155.5 -20.5t102.5 -55t55.5 -78.5t16.5 -93z M938 1143l-94 129l350 291l117 -160z" />
<glyph unicode="&#x1fe;" horiz-adv-x="1421" d="M184 -145l109 200q-102 63 -152.5 170t-50.5 256q0 184 56.5 351t163 295t255 203t330.5 75q33 0 60.5 -2t54.5 -8l102 190l184 -65l-98 -183q102 -59 161.5 -164.5t59.5 -269.5q0 -186 -56 -353t-162.5 -295t-255 -203t-331.5 -75q-41 0 -72.5 4.5t-60.5 10.5l-110 -207 zM600 221q14 -4 31.5 -8t44.5 -4q100 0 186 52t149.5 141.5t99.5 208t36 251.5q0 74 -21.5 135.5t-54.5 96.5zM891 1165q-14 4 -30.5 6.5t-37.5 2.5q-98 0 -182 -53.5t-145.5 -142.5t-98.5 -208t-37 -250q0 -66 16.5 -121t49.5 -90zM738 1568l-19 148l443 149l26 -192z" />
<glyph unicode="&#x1ff;" horiz-adv-x="1110" d="M1069 670q0 -141 -44 -266t-125 -221.5t-193.5 -149.5t-245.5 -53q-31 0 -58.5 3t-54.5 7l-117 -207l-141 67l111 195q-66 45 -104 122t-38 181q0 141 44 266t125 221.5t194 149.5t246 53q53 0 96 -6l119 211l139 -65l-111 -195q78 -47 118 -127t40 -186zM827 639 q0 39 -11 70.5t-34 60.5l-327 -580q33 -8 75 -6q76 8 133.5 55.5t93.5 117t53 144.5t17 138zM657 834q-33 2 -61 0q-66 -6 -121 -46t-93 -105t-58.5 -141.5t-20.5 -152.5q0 -72 35 -121zM649 1168l-94 129l350 291l117 -160z" />
<glyph unicode="&#x218;" horiz-adv-x="1009" d="M946 1145q-55 18 -119.5 28.5t-124.5 10.5q-57 0 -103 -13.5t-76.5 -38t-46 -56.5t-15.5 -66q0 -49 30.5 -86t92 -75t121 -74t108.5 -80t81 -108.5t32 -150.5q0 -88 -38 -171t-112 -147.5t-184.5 -102.5t-249.5 -38q-84 0 -168 10.5t-158 28.5l70 254q70 -29 146.5 -45 t156.5 -16q123 0 188.5 54t65.5 136q0 51 -30.5 90t-94 79t-119 74t-103.5 78t-80 106.5t-32 146.5q0 88 38 166t111 138t178 94t237 34q61 0 131.5 -7t130.5 -20zM375 -96q66 0 99.5 -51.5t15 -124t-97.5 -135t-218 -87.5l-33 101q80 31 106.5 69.5t14.5 85.5 q-12 57 20 99.5t93 42.5z" />
<glyph unicode="&#x219;" horiz-adv-x="794" d="M707 821q-39 10 -78 16.5t-72 6.5q-76 0 -116 -29t-40 -78q0 -43 27 -70.5t104.5 -90t115.5 -120t38 -139.5q0 -68 -28.5 -129t-86 -108t-145.5 -73.5t-203 -26.5q-123 0 -213 22l49 215q39 -14 92.5 -24.5t96.5 -10.5q82 0 125 30t43 85q0 43 -27 70.5t-103.5 90 t-114.5 120t-38 139.5q0 66 28.5 124t85 103t139.5 70.5t187 25.5q84 0 177 -16zM262 -96q66 0 99.5 -51.5t15 -124t-97.5 -135t-218 -87.5l-33 101q80 31 106.5 69.5t14.5 85.5q-12 57 20 99.5t93 42.5z" />
<glyph unicode="&#x21a;" horiz-adv-x="1024" d="M1126 1155h-350l-221 -1155h-260l219 1155h-350l43 227h481h481zM394 -96q66 0 99.5 -51.5t15 -124t-97.5 -135t-218 -87.5l-33 101q80 31 106.5 69.5t14.5 85.5q-12 57 20 99.5t93 42.5z" />
<glyph unicode="&#x21b;" horiz-adv-x="751" d="M750 815h-242l-88 -463q-16 -90 0 -121.5t80 -31.5q33 0 62.5 4t62.5 10l-21 -207q-51 -12 -107.5 -19t-103.5 -7q-164 0 -217 81.5t-18 266.5l94 487h-174l39 203h174l59 313l266 53l-69 -366h239zM316 -96q66 0 99.5 -51.5t15 -124t-97.5 -135t-218 -87.5l-33 101 q80 31 106.5 69.5t14.5 85.5q-12 57 20 99.5t93 42.5z" />
<glyph unicode="&#x237;" horiz-adv-x="542" d="M295 -100q-18 -98 -52 -174t-87.5 -128.5t-128 -79t-172.5 -26.5q-92 0 -158 16l53 224q25 -10 55.5 -15.5t65.5 -5.5q74 0 111.5 43t58.5 154l213 1110h256z" />
<glyph unicode="&#x2bc;" horiz-adv-x="221" d="M141 1038q82 76 115 128.5t33 93.5q0 16 -5 27t-12.5 24.5t-12.5 30t-5 38.5q0 63 40 106.5t105 43.5q61 0 95 -41t34 -107q0 -94 -78.5 -205.5t-226.5 -226.5z" />
<glyph unicode="&#x2c6;" horiz-adv-x="876" d="M780 1147l-176 166l-242 -166l-77 121l360 276l256 -278z" />
<glyph unicode="&#x2c7;" horiz-adv-x="876" d="M569 1147l-256 276l121 121l174 -168l244 168l78 -123z" />
<glyph unicode="&#x2d8;" horiz-adv-x="808" d="M872 1475q-10 -63 -35.5 -120t-66.5 -101t-97.5 -68.5t-125.5 -24.5q-72 0 -121 25.5t-75.5 71t-33 100.5t6.5 117h161q-10 -55 11.5 -90t72.5 -35t86 31.5t47 93.5h170z" />
<glyph unicode="&#x2d9;" horiz-adv-x="581" d="M618 1339q0 -72 -50 -121t-119 -49q-68 0 -111 44t-43 106q0 35 14.5 65.5t38 54t55 36t64.5 12.5q66 0 108.5 -44.5t42.5 -103.5z" />
<glyph unicode="&#x2da;" horiz-adv-x="788" d="M834 1411q0 -63 -23 -118.5t-66 -96.5t-100 -63.5t-127 -22.5q-104 0 -163.5 52t-59.5 141q0 63 23.5 119.5t65.5 96.5t100.5 62.5t127.5 22.5q104 0 163 -52.5t59 -140.5zM543 1245q53 0 86 40t33 99q0 39 -18.5 61.5t-55.5 22.5q-53 0 -86 -39.5t-33 -99.5 q0 -39 18.5 -61.5t55.5 -22.5z" />
<glyph unicode="&#x2db;" horiz-adv-x="774" d="M457 0q-113 -68 -166 -131.5t-53 -112.5q0 -47 57 -47q31 0 65.5 12.5t73.5 36.5l49 -149q-66 -49 -131 -71.5t-137 -22.5q-106 0 -166.5 52t-60.5 128q0 90 57 169t168 154z" />
<glyph unicode="&#x2dc;" horiz-adv-x="987" d="M1026 1364q-96 -182 -256 -182q-45 0 -76.5 14t-68.5 42t-54.5 38t-42.5 10q-66 0 -118 -92l-121 96q47 88 112.5 135.5t141.5 47.5q45 0 77.5 -14.5t70.5 -42t55.5 -38t41.5 -10.5q63 0 117 92z" />
<glyph unicode="&#x2dd;" horiz-adv-x="1075" d="M395 1147l-114 104l299 318l137 -127zM780 1147l-108 104l321 301l129 -137z" />
<glyph unicode="&#x312;" horiz-adv-x="585" d="M643 1446q-80 -29 -106.5 -69t-12.5 -87q10 -57 -20.5 -99t-93.5 -42q-43 0 -73 23.5t-41 63.5t0 87t49 92t105.5 80t161.5 51z" />
<glyph unicode="&#x315;" horiz-adv-x="569" d="M643 1542l-215 -409l-162 41l176 415z" />
<glyph unicode="&#x323;" horiz-adv-x="0" d="M-565 -301q0 -72 -46 -118t-112 -46t-106.5 46t-40.5 106q0 72 46 116.5t111 44.5q66 0 107 -45t41 -104z" />
<glyph unicode="&#x326;" horiz-adv-x="585" d="M201 -96q66 0 99.5 -51.5t15 -124t-97.5 -135t-218 -87.5l-33 101q80 31 106.5 69.5t14.5 85.5q-12 57 20 99.5t93 42.5z" />
<glyph unicode="&#x37e;" horiz-adv-x="604" d="M266 305q72 0 120 -56t42 -148.5t-85 -210t-257 -244.5l-94 110q61 51 98 94.5t52.5 80t11.5 69.5t-25 63q-23 35 -23 76q0 43 18.5 80t55.5 61.5t86 24.5zM541 731q0 -74 -51.5 -124t-118.5 -50q-70 0 -117 48t-47 112q0 74 51 124t121 50q68 0 115 -48.5t47 -111.5z " />
<glyph unicode="&#x384;" horiz-adv-x="528" d="M442 1128l-180 23l113 377l221 -23z" />
<glyph unicode="&#x385;" horiz-adv-x="1058" d="M1090 1329q0 -57 -37 -94t-88 -37q-49 0 -83 34t-34 83q0 55 37 92t88 37q49 0 83 -34t34 -81zM535 1329q0 -57 -37 -94t-88 -37q-49 0 -83 34t-34 83q0 55 37 92t88 37q49 0 83 -34t34 -81zM717 1126l-152 13l72 370l194 -12z" />
<glyph unicode="&#x386;" horiz-adv-x="1314" d="M940 0l-37 295h-510l-150 -295h-270l715 1382h340l192 -1382h-280zM825 938q-4 47 -8 103.5t-6 103.5h-4q-18 -45 -44 -104.5t-46 -100.5l-226 -434h391zM346 1128l-180 23l113 377l221 -23z" />
<glyph unicode="&#x387;" horiz-adv-x="579" d="M553 1024q0 -72 -48 -120t-116 -48q-66 0 -108.5 47t-42.5 109q0 72 48 120t115 48q68 0 110 -47.5t42 -108.5z" />
<glyph unicode="&#x388;" horiz-adv-x="1204" d="M1220 1159h-505l-66 -340h463l-41 -217h-461l-72 -373h506l-43 -229h-506h-262l262 1382h263h505zM311 1128l-180 23l113 377l221 -23z" />
<glyph unicode="&#x389;" horiz-adv-x="1556" d="M1329 0h-262l115 600h-574l-115 -600h-262l262 1382h263l-107 -553h576l104 553h262zM311 1128l-180 23l113 377l221 -23z" />
<glyph unicode="&#x38a;" horiz-adv-x="720" d="M495 0h-262l262 1382h263zM311 1128l-180 23l113 377l221 -23z" />
<glyph unicode="&#x38c;" horiz-adv-x="1517" d="M1233 858q0 143 -72 225t-217 82q-109 0 -198 -54t-150.5 -146.5t-94 -207t-32.5 -233.5q0 -143 71.5 -225t217.5 -82q109 0 197.5 54.5t150 146.5t94.5 206.5t33 233.5zM1515 903q0 -184 -57 -352t-163.5 -297t-256 -203t-328.5 -74q-262 0 -393 135.5t-131 368.5 q0 184 56.5 351t164 297.5t257 203t327.5 72.5q262 0 393 -135.5t131 -366.5zM311 1128l-180 23l113 377l221 -23z" />
<glyph unicode="&#x38e;" horiz-adv-x="1396" d="M1585 1382q-162 -205 -273.5 -357.5t-190.5 -279.5t-126 -238.5t-68 -215.5l-55 -291h-262l55 291q20 104 14 215.5t-36.5 237.5t-79.5 273.5t-131 364.5h278q49 -123 81 -226t50.5 -185t24.5 -144.5t6 -113.5h4q18 57 49 121.5t80 146.5t121 182.5t166 218.5h293z M292 1128l-180 23l113 377l221 -23z" />
<glyph unicode="&#x38f;" horiz-adv-x="1521" d="M831 0l41 211q88 59 153.5 135t108.5 162t63.5 179t20.5 190q0 141 -66.5 215.5t-203.5 74.5q-111 0 -198 -56t-146 -149.5t-89 -202t-30 -210.5q0 -104 38 -183t122 -155l-39 -211h-530l43 215h256q-78 61 -121 149.5t-43 208.5q0 135 50 281.5t149.5 271.5t248 202 t334.5 77q115 0 208 -29.5t160.5 -89t104.5 -152t37 -214.5q0 -106 -23.5 -209t-68.5 -196t-112.5 -169t-151.5 -131h254l-43 -215h-527zM311 1128l-180 23l113 377l221 -23z" />
<glyph unicode="&#x390;" horiz-adv-x="557" d="M430 -6q-27 -6 -53.5 -9t-52.5 -3q-115 0 -169.5 46t-54.5 160q0 35 5.5 79t17.5 106l125 645h254l-115 -604q-10 -53 -15 -89t-5 -57q0 -70 55 -69q8 0 19.5 1t21.5 3zM852 1329q0 -57 -37 -94t-88 -37q-49 0 -83 34t-34 83q0 55 37 92t88 37q49 0 83 -34t34 -81z M297 1329q0 -57 -37 -94t-88 -37q-49 0 -83 34t-34 83q0 55 37 92t88 37q49 0 83 -34t34 -81zM479 1126l-152 13l72 370l194 -12z" />
<glyph unicode="&#x391;" horiz-adv-x="1255" d="M885 0l-37 295h-510l-150 -295h-270l715 1382h340l192 -1382h-280zM770 938q-4 47 -8 103.5t-6 103.5h-4q-18 -45 -44 -104.5t-46 -100.5l-226 -434h391z" />
<glyph unicode="&#x392;" horiz-adv-x="1167" d="M805 457q0 152 -244 151q-102 0 -131 -2l-74 -391q18 -2 54 -4t75 -2q80 0 141.5 20.5t100.5 55t58.5 79t19.5 93.5zM877 1047q0 61 -45.5 97t-149.5 36q-35 0 -71 -1t-72 -3l-70 -367q31 -2 100 -2q156 0 232 69t76 171zM1157 1100q0 -131 -71.5 -227.5t-188.5 -143.5 v-2q88 -23 139 -89.5t51 -156.5q0 -92 -38.5 -178t-117.5 -155.5t-198 -110.5t-274 -41q-35 0 -93.5 2t-148.5 2h-164l262 1380q55 2 157.5 6.5t143.5 4.5h99q229 0 335.5 -78t106.5 -213z" />
<glyph unicode="&#x393;" horiz-adv-x="876" d="M535 1155l-220 -1155h-262l262 1382h717l-43 -227h-454z" />
<glyph unicode="&#x394;" horiz-adv-x="1232" d="M752 922q-6 61 -10.5 109t-2.5 99h-4q-20 -53 -44.5 -107t-49.5 -108l-352 -675h561zM-35 0l39 201l623 1181h321l180 -1181l-34 -201h-1129z" />
<glyph unicode="&#x395;" horiz-adv-x="1024" d="M1040 1159h-505l-66 -340h463l-41 -217h-461l-72 -373h506l-43 -229h-506h-262l262 1382h263h505z" />
<glyph unicode="&#x396;" horiz-adv-x="1077" d="M1116 1167l-661 -829q-35 -41 -48.5 -58.5t-31.5 -37.5q33 4 291 4h282l-45 -246h-901l39 205l633 811q25 31 50.5 60.5t61.5 70.5q-45 -2 -97 -3t-142 -1h-309l45 239h874z" />
<glyph unicode="&#x397;" horiz-adv-x="1378" d="M1151 0h-262l115 600h-574l-115 -600h-262l262 1382h263l-107 -553h576l104 553h262z" />
<glyph unicode="&#x398;" horiz-adv-x="1411" d="M1128 868q0 139 -68.5 218t-205.5 79q-106 0 -195.5 -52t-154 -142t-98 -206t-33.5 -239q0 -147 68.5 -227t197.5 -80q102 0 192.5 51.5t157 141.5t103 207.5t36.5 248.5zM1409 899q0 -195 -62.5 -364.5t-174 -294.5t-259 -194t-311.5 -69q-256 0 -384 131.5t-128 372.5 q0 184 61.5 352t172 297.5t259 202t316.5 72.5q248 0 379 -131t131 -375zM518 608l39 205h432l-39 -205h-432z" />
<glyph unicode="&#x399;" horiz-adv-x="542" d="M315 0h-262l262 1382h263z" />
<glyph unicode="&#x39a;" horiz-adv-x="1198" d="M707 700l376 -700h-325l-316 664l-127 -664h-262l262 1382h263l-119 -622l549 622h331z" />
<glyph unicode="&#x39b;" horiz-adv-x="1259" d="M877 0l-101 809q-12 96 -19 154.5t-9 119.5h-3q-29 -70 -64.5 -143.5t-74.5 -146.5l-403 -793h-275l721 1382h314l194 -1382h-280z" />
<glyph unicode="&#x39c;" horiz-adv-x="1798" d="M1649 0h-267l48 680q10 127 24 243.5t31 206.5h-6q-78 -199 -172 -385l-387 -745h-242l-103 717q-12 115 -21 225.5t-9 187.5h-4q-20 -96 -50 -215.5t-65 -240.5l-197 -674h-252l424 1382h355l100 -716q8 -61 12 -136t4 -145h5q31 82 59.5 152.5t56.5 128.5l377 716h375z " />
<glyph unicode="&#x39d;" horiz-adv-x="1376" d="M1149 0h-311l-277 776q-23 66 -41 135.5t-31 135.5q-12 -90 -47.5 -297t-64.5 -361l-74 -389h-250l262 1382h338l267 -743q20 -66 36.5 -128t28.5 -124q10 94 43 281.5t68 365.5l65 348h250z" />
<glyph unicode="&#x39e;" horiz-adv-x="1091" d="M915 0h-913l47 244h912zM897 598h-653l41 225h653zM1118 1143h-882l45 239h882z" />
<glyph unicode="&#x39f;" horiz-adv-x="1421" d="M1137 858q0 143 -72 225t-217 82q-109 0 -198 -54t-150.5 -146.5t-94 -207t-32.5 -233.5q0 -143 71.5 -225t217.5 -82q109 0 197.5 54.5t150 146.5t94.5 206.5t33 233.5zM1419 903q0 -184 -57 -352t-163.5 -297t-256 -203t-328.5 -74q-262 0 -393 135.5t-131 368.5 q0 184 56.5 351t164 297.5t257 203t327.5 72.5q262 0 393 -135.5t131 -366.5z" />
<glyph unicode="&#x3a0;" horiz-adv-x="1327" d="M838 0l219 1155h-522l-220 -1155h-262l262 1382h1047l-262 -1382h-262z" />
<glyph unicode="&#x3a1;" horiz-adv-x="1110" d="M887 987q0 84 -56.5 134t-177.5 50q-61 0 -116 -2l-95 -497q16 -2 49 -6t66 -4q84 0 147.5 28.5t103.5 76.5t59.5 105.5t19.5 114.5zM1163 1028q0 -109 -41 -213t-121.5 -188t-203.5 -134.5t-279 -50.5q-39 0 -71.5 2t-47.5 2l-84 -446h-262l262 1382q51 2 159 5.5 t218 3.5q231 0 351 -99.5t120 -263.5z" />
<glyph unicode="&#x3a3;" horiz-adv-x="1036" d="M2 0l45 227l504 486l-301 471l37 198h850l-43 -233h-531l293 -451l-483 -458h563l-45 -240h-889z" />
<glyph unicode="&#x3a4;" horiz-adv-x="1024" d="M1126 1155h-350l-221 -1155h-260l219 1155h-350l43 227h481h481z" />
<glyph unicode="&#x3a5;" d="M1315 1382q-162 -205 -273.5 -357.5t-190.5 -279.5t-126 -238.5t-68 -215.5l-55 -291h-262l55 291q20 104 14 215.5t-36.5 237.5t-79.5 273.5t-131 364.5h278q49 -123 81 -226t50.5 -185t24.5 -144.5t6 -113.5h4q18 57 49 121.5t80 146.5t121 182.5t166 218.5h293z" />
<glyph unicode="&#x3a6;" horiz-adv-x="1652" d="M821 1122q-111 -14 -197.5 -64t-145 -128t-87.5 -171t-29 -192q0 -135 75 -215t220 -92zM1370 815q0 135 -74.5 215t-220.5 94l-164 -864q111 14 198 64.5t145.5 128t87 171t28.5 191.5zM838 -115h-252l30 150q-254 12 -391 143t-137 352q0 150 51 290.5t151.5 254 t246 185t327.5 88.5l29 145h252l-29 -145q254 -12 390 -143.5t136 -352.5q0 -150 -51 -290t-150.5 -253.5t-245.5 -185.5t-329 -88z" />
<glyph unicode="&#x3a7;" horiz-adv-x="1261" d="M838 702l309 -702h-316l-194 508l-389 -508h-318l572 713l-279 669h293l184 -479l363 479h307z" />
<glyph unicode="&#x3a8;" horiz-adv-x="1599" d="M1554 825q-45 -246 -211.5 -388t-451.5 -169l-49 -268h-260l49 268q-158 14 -258.5 61.5t-148.5 121t-55 169t17 214.5l41 202q20 94 30.5 179t8.5 167h260q2 -78 -8 -159.5t-29 -173.5l-40 -218q-14 -76 -11.5 -134t27 -100t77 -66.5t134.5 -30.5l168 882h260l-166 -882 q156 16 246 105t125 272l28 155q18 106 40 186t53 164h256q-33 -80 -53.5 -160.5t-39.5 -181.5z" />
<glyph unicode="&#x3a9;" horiz-adv-x="1431" d="M741 0l41 211q88 59 153.5 135t108.5 162t63.5 179t20.5 190q0 141 -66.5 215.5t-203.5 74.5q-111 0 -198 -56t-146 -149.5t-89 -202t-30 -210.5q0 -104 38 -183t122 -155l-39 -211h-530l43 215h256q-78 61 -121 149.5t-43 208.5q0 135 50 281.5t149.5 271.5t248 202 t334.5 77q115 0 208 -29.5t160.5 -89t104.5 -152t37 -214.5q0 -106 -23.5 -209t-68.5 -196t-112.5 -169t-151.5 -131h254l-43 -215h-527z" />
<glyph unicode="&#x3aa;" horiz-adv-x="542" d="M315 0h-262l262 1382h263zM407 1614q0 -59 -40.5 -100t-98.5 -41q-55 0 -92 36.5t-37 89.5q0 61 42 102.5t97 41.5t92 -38t37 -91zM840 1614q0 -59 -41 -100t-99 -41q-55 0 -92 36.5t-37 89.5q0 61 42 102.5t98 41.5q55 0 92 -38t37 -91z" />
<glyph unicode="&#x3ab;" d="M1315 1382q-162 -205 -273.5 -357.5t-190.5 -279.5t-126 -238.5t-68 -215.5l-55 -291h-262l55 291q20 104 14 215.5t-36.5 237.5t-79.5 273.5t-131 364.5h278q49 -123 81 -226t50.5 -185t24.5 -144.5t6 -113.5h4q18 57 49 121.5t80 146.5t121 182.5t166 218.5h293z M694 1614q0 -59 -40.5 -100t-98.5 -41q-55 0 -92 36.5t-37 89.5q0 61 42 102.5t97 41.5t92 -38t37 -91zM1127 1614q0 -59 -41 -100t-99 -41q-55 0 -92 36.5t-37 89.5q0 61 42 102.5t98 41.5q55 0 92 -38t37 -91z" />
<glyph unicode="&#x3ac;" horiz-adv-x="1204" d="M723 543q0 156 -29.5 215t-93.5 59q-63 0 -113.5 -43t-85 -110.5t-53 -148.5t-18.5 -157q0 -82 25.5 -118.5t68.5 -36.5q61 0 137 60.5t162 195.5v84zM754 207q-104 -131 -207 -179t-207 -48q-133 0 -205 76.5t-72 246.5q0 141 39 273.5t113 235.5t178.5 164.5 t233.5 61.5t200.5 -64.5t85.5 -203.5q23 53 46.5 111.5t46.5 136.5h237q-61 -176 -133 -323.5t-137 -256.5v-63q0 -57 5 -93t16.5 -55.5t26.5 -25.5t36 -6h28t31 4l-39 -207q-16 -4 -46 -8t-60 -4q-102 0 -157.5 50t-59.5 177zM780 1128l-180 23l113 377l221 -23z" />
<glyph unicode="&#x3ad;" horiz-adv-x="892" d="M768 25q-180 -45 -348 -45q-205 0 -301 64.5t-96 176.5q0 102 64.5 183t170.5 116v2q-106 45 -106 162q0 66 27.5 129.5t88 114.5t154.5 81.5t221 30.5q72 0 148.5 -9t132.5 -23l-76 -189q-51 16 -108.5 25.5t-121.5 9.5q-59 0 -101 -13.5t-67.5 -35t-37 -48t-11.5 -52.5 q0 -45 36 -70t108 -25h235l-35 -178h-239q-51 0 -90 -13t-65.5 -36t-39 -50.5t-12.5 -56.5q0 -49 45 -77.5t137 -28.5q61 0 133 12.5t144 32.5zM735 1128l-180 23l113 377l221 -23z" />
<glyph unicode="&#x3ae;" horiz-adv-x="1161" d="M451 1018q-4 -98 -13.5 -178t-27.5 -152h2q37 76 83 139.5t101 111.5t119.5 74.5t134.5 26.5q72 0 121 -24.5t75.5 -69.5t31.5 -106.5t-9 -137.5l-139 -729q-29 -150 -40 -258t-9 -209h-252q-4 102 5 203t34 230l133 700q18 92 2.5 134t-64.5 42t-106.5 -51t-110.5 -136 t-93 -183.5t-56 -186.5l-49 -258h-256l94 485q23 129 34 274.5t5 258.5h250zM866 1128l-180 23l113 377l221 -23z" />
<glyph unicode="&#x3af;" horiz-adv-x="557" d="M430 -6q-27 -6 -53.5 -9t-52.5 -3q-115 0 -169.5 46t-54.5 160q0 35 5.5 79t17.5 106l125 645h254l-115 -604q-10 -53 -15 -89t-5 -57q0 -70 55 -69q8 0 19.5 1t21.5 3zM489 1128l-180 23l113 377l221 -23z" />
<glyph unicode="&#x3b0;" horiz-adv-x="1144" d="M479 -20q-94 0 -159.5 21.5t-105.5 61t-57.5 96t-17.5 124.5q0 63 11.5 126.5t25.5 122t25.5 112.5t11.5 101q0 74 -61 74h-23q-12 0 -25 -2l41 205q39 8 67 11t62 3q92 0 151.5 -49t59.5 -162q0 -74 -13 -139t-28.5 -125.5t-28 -119t-12.5 -115.5q0 -70 27 -101.5 t92 -31.5q82 0 141.5 66.5t96.5 180t54 263t20 315.5h264q-4 -256 -50.5 -450.5t-127 -324.5t-193.5 -196.5t-248 -66.5zM1127 1329q0 -57 -37 -94t-88 -37q-49 0 -83 34t-34 83q0 55 37 92t88 37q49 0 83 -34t34 -81zM572 1329q0 -57 -37 -94t-88 -37q-49 0 -83 34t-34 83 q0 55 37 92t88 37q49 0 83 -34t34 -81zM754 1126l-152 13l72 370l194 -12z" />
<glyph unicode="&#x3b1;" horiz-adv-x="1204" d="M723 543q0 156 -29.5 215t-93.5 59q-63 0 -113.5 -43t-85 -110.5t-53 -148.5t-18.5 -157q0 -82 25.5 -118.5t68.5 -36.5q61 0 137 60.5t162 195.5v84zM754 207q-104 -131 -207 -179t-207 -48q-133 0 -205 76.5t-72 246.5q0 141 39 273.5t113 235.5t178.5 164.5 t233.5 61.5t200.5 -64.5t85.5 -203.5q23 53 46.5 111.5t46.5 136.5h237q-61 -176 -133 -323.5t-137 -256.5v-63q0 -57 5 -93t16.5 -55.5t26.5 -25.5t36 -6h28t31 4l-39 -207q-16 -4 -46 -8t-60 -4q-102 0 -157.5 50t-59.5 177z" />
<glyph unicode="&#x3b2;" horiz-adv-x="1118" d="M801 580q0 84 -28 134t-87 79q-63 -25 -139 -49.5t-156 -47.5q-16 -84 -25.5 -161.5t-9.5 -124.5q0 -61 11.5 -102.5t32 -64t49 -31.5t67.5 -9q72 0 126 35.5t89 93t52.5 123.5t17.5 125zM864 1208q0 39 -24.5 65.5t-71.5 26.5q-63 0 -115.5 -31.5t-91.5 -85t-67.5 -121 t-53.5 -147.5q123 35 205 68t130 67.5t68.5 72.5t20.5 85zM1133 1243q0 -113 -60.5 -197.5t-165.5 -142.5q82 -33 125 -108.5t43 -182.5q0 -106 -38 -217.5t-114.5 -206t-192.5 -151.5t-265 -57q-182 0 -278.5 93t-96.5 296q0 86 13.5 199.5t45 241.5t86 253t134.5 226.5 t190.5 161.5t249.5 60q158 0 241 -70.5t83 -197.5z" />
<glyph unicode="&#x3b3;" horiz-adv-x="1011" d="M1034 1012q-10 -125 -45 -244t-89 -232.5t-123.5 -221t-158.5 -222.5q-35 -43 -58 -83t-39.5 -75.5t-28 -72.5t-19.5 -80l-53 -275h-256l41 211q18 86 26.5 189.5t8.5 197.5q0 182 -36 415t-102 499h281q23 -94 41 -189.5t31.5 -185.5t19.5 -168t6 -137q0 -25 -2 -48.5 t-6 -45.5h4q16 33 75.5 125t103.5 179t77 211t35 277z" />
<glyph unicode="&#x3b4;" horiz-adv-x="1089" d="M770 582q0 80 -36 138t-107 111q-59 -6 -113.5 -40.5t-95.5 -95t-63.5 -138.5t-22.5 -166q0 -188 160 -188q57 0 108 29.5t89 83t59.5 122t21.5 144.5zM762 1513q98 0 180 -20t141 -57l-118 -187q-53 33 -104.5 50.5t-100.5 17.5q-68 0 -97.5 -25.5t-29.5 -66.5 q0 -16 7 -32.5t25.5 -37t52.5 -49.5t91 -76q121 -94 175 -193.5t54 -218.5q0 -133 -44 -249.5t-125 -204.5t-189.5 -136t-230.5 -48q-90 0 -162 21.5t-122 65.5t-78 114.5t-28 164.5q0 106 27 208.5t80 191t128 153t169 96.5q-51 49 -78 97.5t-27 105.5q0 68 25 125t74 100 t126 66.5t179 23.5z" />
<glyph unicode="&#x3b5;" horiz-adv-x="892" d="M768 25q-180 -45 -348 -45q-205 0 -301 64.5t-96 176.5q0 102 64.5 183t170.5 116v2q-106 45 -106 162q0 66 27.5 129.5t88 114.5t154.5 81.5t221 30.5q72 0 148.5 -9t132.5 -23l-76 -189q-51 16 -108.5 25.5t-121.5 9.5q-59 0 -101 -13.5t-67.5 -35t-37 -48t-11.5 -52.5 q0 -45 36 -70t108 -25h235l-35 -178h-239q-51 0 -90 -13t-65.5 -36t-39 -50.5t-12.5 -56.5q0 -49 45 -77.5t137 -28.5q61 0 133 12.5t144 32.5z" />
<glyph unicode="&#x3b6;" horiz-adv-x="829" d="M301 -332q88 90 126 153.5t38 108.5q0 37 -26.5 55.5t-96.5 26.5q-156 23 -225.5 85.5t-69.5 193.5q0 92 25.5 191.5t70.5 198.5t103.5 192.5t123 173t129 141t119.5 96.5h-366l39 211h686l-37 -197q-72 -45 -146.5 -113.5t-145 -151.5t-130 -172t-104.5 -177t-70 -168 t-25 -143t40 -94t145 -46q121 -20 176 -74.5t55 -146.5q0 -51 -13 -100t-44 -104.5t-84 -118t-133 -135.5z" />
<glyph unicode="&#x3b7;" horiz-adv-x="1161" d="M451 1018q-4 -98 -13.5 -178t-27.5 -152h2q37 76 83 139.5t101 111.5t119.5 74.5t134.5 26.5q72 0 121 -24.5t75.5 -69.5t31.5 -106.5t-9 -137.5l-139 -729q-29 -150 -40 -258t-9 -209h-252q-4 102 5 203t34 230l133 700q18 92 2.5 134t-64.5 42t-106.5 -51t-110.5 -136 t-93 -183.5t-56 -186.5l-49 -258h-256l94 485q23 129 34 274.5t5 258.5h250z" />
<glyph unicode="&#x3b8;" horiz-adv-x="1167" d="M840 1018q12 145 -21 220t-110 75q-70 0 -114 -49.5t-44 -122.5q0 -63 48 -93t155 -30h86zM387 774q-23 -90 -34 -179t-11 -169q0 -115 28.5 -170t98.5 -55q72 0 129 51t99 137t70 191.5t44 220.5h-80q-203 0 -315.5 75.5t-112.5 221.5q0 78 27.5 151.5t83 134 t138.5 96.5t191 36q178 0 268.5 -102.5t90.5 -309.5v-30.5t-1 -27t-1 -28.5h30q39 0 76 -3t64 -9l-41 -213q-35 4 -74 6t-86 2q-27 -182 -82 -333t-136 -260.5t-186.5 -168.5t-230.5 -59q-182 0 -270 103t-88 306q0 90 15 189.5t42 195.5h254z" />
<glyph unicode="&#x3b9;" horiz-adv-x="557" d="M430 -6q-27 -6 -53.5 -9t-52.5 -3q-115 0 -169.5 46t-54.5 160q0 35 5.5 79t17.5 106l125 645h254l-115 -604q-10 -53 -15 -89t-5 -57q0 -70 55 -69q8 0 19.5 1t21.5 3z" />
<glyph unicode="&#x3ba;" horiz-adv-x="1050" d="M621 0l-218 502l-96 -502h-256l195 1018h256l-80 -426l448 483l201 -133l-412 -401l271 -541h-309z" />
<glyph unicode="&#x3bb;" horiz-adv-x="1005" d="M852 307q6 -37 11 -58.5t13.5 -32.5t17.5 -14t24 -3q8 0 19 1t21 3l-38 -209q-25 -6 -52.5 -9t-54.5 -3q-102 0 -151.5 42t-61.5 148l-61 504h-2q-51 -150 -142.5 -338t-206.5 -379l-241 98q152 236 285 479.5t251 497.5l-14 107q-12 90 -48 123.5t-91 33.5 q-14 0 -30.5 -1t-35.5 -3l29 205q66 12 121 12q63 0 111 -13t87 -46t67 -96.5t42 -159.5z" />
<glyph unicode="&#x3bc;" horiz-adv-x="1167" d="M1051 -6q-29 -6 -59.5 -9t-55.5 -3q-104 0 -151.5 37.5t-47.5 123.5q0 31 7.5 73t27.5 99h-2q-35 -72 -75 -132t-86 -105t-94 -69.5t-97 -24.5q-117 0 -135 96q-2 -35 -2 -72t-5 -65q-16 -102 -24 -207t-6 -230h-258q6 170 25.5 314.5t46 278.5t57 264.5t57.5 271.5 l72 383h256l-109 -572q-14 -72 -17 -118.5t4 -74.5t23.5 -39t40.5 -11q49 0 106.5 53t109 136t91.5 180.5t56 187.5l49 258h256l-108 -576q-12 -63 -17.5 -107t-5.5 -71q0 -37 11.5 -51t39.5 -14h15q8 0 20 4z" />
<glyph unicode="&#x3bd;" horiz-adv-x="1015" d="M481 426q0 -57 -6 -117h2q57 76 109.5 166t98.5 188.5t83 196.5t63 193l259 -64q-51 -137 -108.5 -264t-128.5 -251t-159 -243.5t-192 -230.5h-273v674q0 84 -27.5 115.5t-76.5 31.5q-8 0 -18.5 -1t-26.5 -3l37 205q39 6 74.5 10t68.5 4q106 0 163.5 -66.5t57.5 -221.5 v-322z" />
<glyph unicode="&#x3be;" horiz-adv-x="825" d="M731 12q0 -49 -13 -99t-44 -105.5t-84 -118t-133 -135.5l-160 114q88 90 126 153.5t38 108.5q0 37 -26.5 55.5t-104.5 26.5q-156 23 -227.5 85.5t-71.5 191.5q0 86 24.5 163.5t70.5 140t109.5 106.5t139.5 65q-78 16 -117 68.5t-39 128.5q0 51 18.5 103t53.5 97t83 79 t103 48q-27 -2 -55.5 -3t-52.5 -1h-136l41 211h680l-41 -211h-32q-98 0 -176 -26.5t-128.5 -69.5t-75 -93.5t-24.5 -95.5q0 -53 38 -87.5t122 -34.5h156l-39 -209h-80q-106 0 -180 -26t-115 -69t-58.5 -94t-17.5 -104q0 -63 41 -94t145 -48q129 -20 185.5 -73.5t56.5 -147.5 z" />
<glyph unicode="&#x3bf;" horiz-adv-x="1110" d="M799 631q0 84 -42 135t-126 51q-76 0 -133.5 -40t-95 -104.5t-55 -139t-17.5 -146.5q0 -84 42 -134t128 -50q76 0 133 39t94 103.5t54.5 139t17.5 146.5zM1069 670q0 -141 -44 -266t-125 -221.5t-193.5 -149.5t-245.5 -53q-205 0 -303.5 101t-98.5 267q0 141 44 266 t125 221.5t194 149.5t246 53q104 0 181 -27.5t126 -77.5t71.5 -116.5t22.5 -146.5z" />
<glyph unicode="&#x3c0;" horiz-adv-x="1263" d="M1057 803q-31 -156 -45.5 -275.5t-14.5 -195.5q0 -74 17.5 -103.5t52.5 -29.5q12 0 25.5 2l40.5 6l-15 -209q-29 -8 -66.5 -12t-74.5 -4q-133 0 -189.5 65.5t-56.5 222.5q0 84 17.5 216t50.5 317h-254q-41 -221 -108.5 -433t-170.5 -403l-254 66q57 104 101.5 199.5 t80 188.5t61.5 188.5t42 193.5h-209l43 215h1180l-43 -215h-211z" />
<glyph unicode="&#x3c1;" horiz-adv-x="1089" d="M776 651q0 168 -133 168q-72 0 -126 -48t-92 -130t-62.5 -182.5t-43.5 -218.5q31 -23 65 -36.5t77 -13.5q80 0 139 39t98 105.5t58.5 148.5t19.5 168zM436 -18q-49 0 -83 8t-62 26q-12 -109 -20.5 -238.5t-12.5 -271.5h-256q4 106 16.5 316.5t33 376.5t63.5 317.5 t114.5 269t184 185t266.5 67.5q180 0 273.5 -92t93.5 -268q0 -125 -35 -247t-110 -224.5t-191.5 -163.5t-274.5 -61z" />
<glyph unicode="&#x3c2;" horiz-adv-x="851" d="M715 12q0 -49 -13.5 -99t-44 -105.5t-84 -118t-133.5 -135.5l-159 114q88 90 125.5 153.5t37.5 108.5q0 37 -25.5 55.5t-90.5 26.5q-135 20 -201 102.5t-66 221.5q0 127 38 251t114 227.5t189.5 163.5t259.5 60q66 0 112.5 -7t93.5 -21l-63 -228q-39 14 -79 23.5t-81 9.5 q-78 0 -137 -40t-98 -103.5t-57.5 -138t-18.5 -144.5t34.5 -107.5t112.5 -48.5q123 -20 178.5 -74.5t55.5 -146.5z" />
<glyph unicode="&#x3c3;" horiz-adv-x="1163" d="M803 637q0 104 -51 180q-18 2 -39 2h-39q-86 0 -149.5 -39t-106.5 -100.5t-64.5 -139t-21.5 -155.5q0 -84 37 -133t129 -49q80 0 138 42t95 106.5t54.5 141t17.5 144.5zM1196 803q-51 0 -99 1t-83 5q18 -33 30.5 -78t12.5 -102q0 -129 -44 -247t-122 -207t-188.5 -142 t-241.5 -53q-213 0 -305.5 96t-92.5 270q0 162 51.5 291t139.5 218t208 136t257 47q100 0 229 -10t289 -10z" />
<glyph unicode="&#x3c4;" horiz-adv-x="727" d="M524 803l-84 -447q-16 -94 -2.5 -124.5t64.5 -30.5h28q16 0 33 4l-20 -207q-29 -6 -66 -12t-71 -6q-82 0 -134.5 19t-79 61t-28.5 110t16 166l90 467h-194l43 215h674l-41 -215h-228z" />
<glyph unicode="&#x3c5;" horiz-adv-x="1144" d="M479 -20q-94 0 -159.5 21.5t-105.5 61t-57.5 96t-17.5 124.5q0 63 11.5 126.5t25.5 122t25.5 112.5t11.5 101q0 74 -61 74h-23q-12 0 -25 -2l41 205q39 8 67 11t62 3q92 0 151.5 -49t59.5 -162q0 -74 -13 -139t-28.5 -125.5t-28 -119t-12.5 -115.5q0 -70 27 -101.5 t92 -31.5q82 0 141.5 66.5t96.5 180t54 263t20 315.5h264q-4 -256 -50.5 -450.5t-127 -324.5t-193.5 -196.5t-248 -66.5z" />
<glyph unicode="&#x3c6;" horiz-adv-x="1443" d="M1135 635q0 84 -29 136t-78 52q-61 0 -99 -66.5t-71 -234.5l-59 -311q84 14 147.5 55t105.5 100.5t62.5 128t20.5 140.5zM659 -516h-249l96 500q-111 8 -194 40.5t-136 88t-78.5 127t-25.5 157.5q0 102 28.5 205t88 195t152.5 162.5t218 107.5l49 -207q-66 -20 -116 -62 t-83.5 -99.5t-51 -122t-17.5 -132.5q0 -205 207 -235l57 293q29 152 73 255t101.5 164.5t130 89t164.5 27.5q152 0 241 -97t89 -265q0 -131 -44 -249t-129 -210t-206 -151.5t-268 -75.5z" />
<glyph unicode="&#x3c7;" horiz-adv-x="1009" d="M819 -496q-57 -10 -108 -10q-57 0 -99.5 11.5t-74 44t-53 92t-40.5 155.5l-47 252l-331 -561l-254 63l505 758l-75 353q-20 102 -46 131.5t-67 29.5h-14t-21 -2l27 203q25 4 53.5 7t52.5 3q55 0 98.5 -11t75 -42t54 -85t37.5 -140l40 -228l314 531l248 -70l-484 -721 l86 -374q12 -61 23.5 -98.5t25 -57t28.5 -26.5t36 -7h14q10 0 23 2z" />
<glyph unicode="&#x3c8;" horiz-adv-x="1591" d="M750 -494h-256l92 476q-133 8 -219 37.5t-135.5 75.5t-69 107.5t-19.5 135.5q0 51 11.5 105.5t23.5 108.5t23.5 103.5t11.5 89.5q0 74 -61 74h-23q-12 0 -25 -2l41 205q39 8 67 11t62 3q92 0 149.5 -49t57.5 -162q0 -66 -11 -128t-25.5 -119.5t-25.5 -108.5t-11 -92 t10 -74t34.5 -55.5t66.5 -35.5t108 -17l225 1187h254l-225 -1187q92 8 164.5 47t124 131t82 246.5t36.5 398.5h260q-8 -266 -53 -454.5t-132 -311.5t-217 -187.5t-306 -82.5z" />
<glyph unicode="&#x3c9;" horiz-adv-x="1589" d="M995 -23q-127 0 -188.5 55.5t-65.5 147.5q-47 -90 -130 -146.5t-189 -56.5q-70 0 -131.5 21.5t-110.5 70t-76.5 124t-27.5 180.5q0 80 15 164t51 172t96.5 177t146.5 173l221 -88q-74 -68 -125 -139.5t-80.5 -142.5t-43 -137.5t-13.5 -125.5q0 -92 38 -146.5t101 -54.5 q68 0 117 54.5t70 173.5l65 335h246l-66 -344q-4 -31 -7 -53t-3 -41q0 -63 29 -94t78 -31q61 0 112.5 41t86 108.5t52 147.5t17.5 158q0 152 -92 295l246 84q53 -78 81.5 -165t28.5 -200q0 -162 -46 -296t-125 -228t-177.5 -143.5t-200.5 -49.5z" />
<glyph unicode="&#x3ca;" horiz-adv-x="557" d="M430 -6q-27 -6 -53.5 -9t-52.5 -3q-115 0 -169.5 46t-54.5 160q0 35 5.5 79t17.5 106l125 645h254l-115 -604q-10 -53 -15 -89t-5 -57q0 -70 55 -69q8 0 19.5 1t21.5 3zM395 1333q0 -61 -42 -104t-102 -43q-59 0 -98 40t-39 97q0 61 43 103t105 42q57 0 95 -40t38 -95z M766 1333q0 -61 -42 -104t-102 -43q-57 0 -96 41t-39 98q0 61 43 102t102 41q57 0 95.5 -40t38.5 -95z" />
<glyph unicode="&#x3cb;" horiz-adv-x="1144" d="M479 -20q-94 0 -159.5 21.5t-105.5 61t-57.5 96t-17.5 124.5q0 63 11.5 126.5t25.5 122t25.5 112.5t11.5 101q0 74 -61 74h-23q-12 0 -25 -2l41 205q39 8 67 11t62 3q92 0 151.5 -49t59.5 -162q0 -74 -13 -139t-28.5 -125.5t-28 -119t-12.5 -115.5q0 -70 27 -101.5 t92 -31.5q82 0 141.5 66.5t96.5 180t54 263t20 315.5h264q-4 -256 -50.5 -450.5t-127 -324.5t-193.5 -196.5t-248 -66.5zM655 1333q0 -61 -43 -104t-102 -43q-57 0 -96 41t-39 96q0 61 43 103t102 42q57 0 96 -40t39 -95zM1061 1333q0 -61 -43 -104t-102 -43q-57 0 -96.5 41 t-39.5 98q0 61 43 102t103 41q57 0 96 -40t39 -95z" />
<glyph unicode="&#x3cc;" horiz-adv-x="1110" d="M799 631q0 84 -42 135t-126 51q-76 0 -133.5 -40t-95 -104.5t-55 -139t-17.5 -146.5q0 -84 42 -134t128 -50q76 0 133 39t94 103.5t54.5 139t17.5 146.5zM1069 670q0 -141 -44 -266t-125 -221.5t-193.5 -149.5t-245.5 -53q-205 0 -303.5 101t-98.5 267q0 141 44 266 t125 221.5t194 149.5t246 53q104 0 181 -27.5t126 -77.5t71.5 -116.5t22.5 -146.5zM772 1128l-180 23l113 377l221 -23z" />
<glyph unicode="&#x3cd;" horiz-adv-x="1144" d="M479 -20q-94 0 -159.5 21.5t-105.5 61t-57.5 96t-17.5 124.5q0 63 11.5 126.5t25.5 122t25.5 112.5t11.5 101q0 74 -61 74h-23q-12 0 -25 -2l41 205q39 8 67 11t62 3q92 0 151.5 -49t59.5 -162q0 -74 -13 -139t-28.5 -125.5t-28 -119t-12.5 -115.5q0 -70 27 -101.5 t92 -31.5q82 0 141.5 66.5t96.5 180t54 263t20 315.5h264q-4 -256 -50.5 -450.5t-127 -324.5t-193.5 -196.5t-248 -66.5zM780 1128l-180 23l113 377l221 -23z" />
<glyph unicode="&#x3ce;" horiz-adv-x="1589" d="M995 -23q-127 0 -188.5 55.5t-65.5 147.5q-47 -90 -130 -146.5t-189 -56.5q-70 0 -131.5 21.5t-110.5 70t-76.5 124t-27.5 180.5q0 80 15 164t51 172t96.5 177t146.5 173l221 -88q-74 -68 -125 -139.5t-80.5 -142.5t-43 -137.5t-13.5 -125.5q0 -92 38 -146.5t101 -54.5 q68 0 117 54.5t70 173.5l65 335h246l-66 -344q-4 -31 -7 -53t-3 -41q0 -63 29 -94t78 -31q61 0 112.5 41t86 108.5t52 147.5t17.5 158q0 152 -92 295l246 84q53 -78 81.5 -165t28.5 -200q0 -162 -46 -296t-125 -228t-177.5 -143.5t-200.5 -49.5zM1007 1128l-180 23l113 377 l221 -23z" />
<glyph unicode="&#x3d1;" horiz-adv-x="1167" d="M840 1018q12 145 -21 220t-110 75q-70 0 -114 -49.5t-44 -122.5q0 -63 48 -93t155 -30h86zM387 774q-23 -90 -34 -179t-11 -169q0 -115 28.5 -170t98.5 -55q72 0 129 51t99 137t70 191.5t44 220.5h-80q-203 0 -315.5 75.5t-112.5 221.5q0 78 27.5 151.5t83 134 t138.5 96.5t191 36q178 0 268.5 -102.5t90.5 -309.5v-30.5t-1 -27t-1 -28.5h30q39 0 76 -3t64 -9l-41 -213q-35 4 -74 6t-86 2q-27 -182 -82 -333t-136 -260.5t-186.5 -168.5t-230.5 -59q-182 0 -270 103t-88 306q0 90 15 189.5t42 195.5h254z" />
<glyph unicode="&#x3d5;" horiz-adv-x="1443" d="M1135 635q0 84 -29 136t-78 52q-61 0 -99 -66.5t-71 -234.5l-59 -311q84 14 147.5 55t105.5 100.5t62.5 128t20.5 140.5zM659 -516h-249l96 500q-111 8 -194 40.5t-136 88t-78.5 127t-25.5 157.5q0 102 28.5 205t88 195t152.5 162.5t218 107.5l49 -207q-66 -20 -116 -62 t-83.5 -99.5t-51 -122t-17.5 -132.5q0 -205 207 -235l57 293q29 152 73 255t101.5 164.5t130 89t164.5 27.5q152 0 241 -97t89 -265q0 -131 -44 -249t-129 -210t-206 -151.5t-268 -75.5z" />
<glyph unicode="&#x1e02;" horiz-adv-x="1167" d="M805 457q0 152 -244 151q-102 0 -131 -2l-74 -391q18 -2 54 -4t75 -2q80 0 141.5 20.5t100.5 55t58.5 79t19.5 93.5zM877 1047q0 61 -45.5 97t-149.5 36q-35 0 -71 -1t-72 -3l-70 -367q31 -2 100 -2q156 0 232 69t76 171zM1157 1100q0 -131 -71.5 -227.5t-188.5 -143.5 v-2q88 -23 139 -89.5t51 -156.5q0 -92 -38.5 -178t-117.5 -155.5t-198 -110.5t-274 -41q-35 0 -93.5 2t-148.5 2h-164l262 1380q55 2 157.5 6.5t143.5 4.5h99q229 0 335.5 -78t106.5 -213zM912 1620q0 -66 -44 -109t-106 -43q-57 0 -96 39t-39 92q0 66 45 109t107 43 q57 0 95 -39t38 -92z" />
<glyph unicode="&#x1e03;" horiz-adv-x="1110" d="M803 674q0 74 -19.5 107.5t-58.5 33.5q-51 0 -109.5 -53t-111.5 -137t-91 -179.5t-55 -175.5l-12 -69q27 -6 54.5 -10.5t60.5 -4.5q84 0 149.5 44t107.5 117t63.5 158t21.5 169zM1069 723q0 -147 -40 -280.5t-122 -238t-207 -163.5t-286 -59q-195 0 -359 36l281 1477h256 l-82 -430q-6 -35 -16.5 -73t-23.5 -81t-30.5 -95t-42.5 -122h4q39 78 86.5 141.5t100.5 109.5t114.5 70.5t126.5 24.5q119 0 179.5 -77.5t60.5 -239.5zM653 1757q0 -66 -44 -109t-106 -43q-57 0 -96 39t-39 92q0 66 45 109t107 43q57 0 95 -39t38 -92z" />
<glyph unicode="&#x1e0a;" horiz-adv-x="1339" d="M1047 864q0 72 -17.5 127.5t-56.5 94t-104.5 60t-161.5 21.5q-109 0 -170 -6l-179 -932q27 -4 62 -7t63 -3q150 0 258.5 59.5t176 156.5t98.5 210t31 219zM1329 891q0 -178 -55 -340t-167 -288t-280 -198.5t-383 -72.5q-100 0 -210.5 4t-180.5 6l262 1378q49 2 98.5 4 t105.5 3.5t114.5 2.5t114.5 1q291 0 436 -127t145 -373zM948 1620q0 -66 -44 -109t-106 -43q-57 0 -96 39t-39 92q0 66 45 109t107 43q57 0 95 -39t38 -92z" />
<glyph unicode="&#x1e0b;" horiz-adv-x="1110" d="M784 817q-27 6 -55.5 10t-58.5 4q-84 0 -149.5 -44t-108.5 -116.5t-64.5 -157.5t-21.5 -169q0 -72 20.5 -106.5t56.5 -34.5q51 0 109.5 53t112 138t91.5 180.5t54 177.5zM954 367q-4 -27 -15 -88.5t-19.5 -102.5t-15.5 -86t-15 -90h-252q10 55 31.5 128t62.5 196h-4 q-35 -66 -77 -124.5t-95 -109.5t-117.5 -82t-136.5 -31q-119 0 -179.5 78t-60.5 240q0 147 40 280.5t122 238t206 163.5t286 59q27 0 52.5 -2t55.5 -6l88 467h258zM1225 1757q0 -66 -44 -109t-106 -43q-57 0 -96 39t-39 92q0 66 45 109t107 43q57 0 95 -39t38 -92z" />
<glyph unicode="&#x1e0c;" horiz-adv-x="1339" d="M1047 864q0 72 -17.5 127.5t-56.5 94t-104.5 60t-161.5 21.5q-109 0 -170 -6l-179 -932q27 -4 62 -7t63 -3q150 0 258.5 59.5t176 156.5t98.5 210t31 219zM1329 891q0 -178 -55 -340t-167 -288t-280 -198.5t-383 -72.5q-100 0 -210.5 4t-180.5 6l262 1378q49 2 98.5 4 t105.5 3.5t114.5 2.5t114.5 1q291 0 436 -127t145 -373zM641 -301q0 -72 -46 -118t-112 -46t-106.5 46t-40.5 106q0 72 46 116.5t111 44.5q66 0 107 -45t41 -104z" />
<glyph unicode="&#x1e0d;" horiz-adv-x="1110" d="M784 817q-27 6 -55.5 10t-58.5 4q-84 0 -149.5 -44t-108.5 -116.5t-64.5 -157.5t-21.5 -169q0 -72 20.5 -106.5t56.5 -34.5q51 0 109.5 53t112 138t91.5 180.5t54 177.5zM954 367q-4 -27 -15 -88.5t-19.5 -102.5t-15.5 -86t-15 -90h-252q10 55 31.5 128t62.5 196h-4 q-35 -66 -77 -124.5t-95 -109.5t-117.5 -82t-136.5 -31q-119 0 -179.5 78t-60.5 240q0 147 40 280.5t122 238t206 163.5t286 59q27 0 52.5 -2t55.5 -6l88 467h258zM592 -301q0 -72 -46 -118t-112 -46t-106.5 46t-40.5 106q0 72 46 116.5t111 44.5q66 0 107 -45t41 -104z" />
<glyph unicode="&#x1e1e;" horiz-adv-x="946" d="M1016 1155h-481l-68 -360h446l-43 -217h-446l-109 -578h-262l262 1382h744zM862 1620q0 -66 -44 -109t-106 -43q-57 0 -96 39t-39 92q0 66 45 109t107 43q57 0 95 -39t38 -92z" />
<glyph unicode="&#x1e1f;" horiz-adv-x="710" d="M889 1282q-27 8 -60.5 12t-60.5 4q-88 0 -135 -50t-70 -171l-12 -59h233l-39 -203h-233l-160 -852q-45 -244 -163.5 -357.5t-313.5 -113.5q-98 0 -170 16l57 216q29 -6 61 -10.5t56 -4.5q43 0 76 11.5t59.5 40t46 77.5t33.5 125l162 852h-174l41 203h172l14 76 q41 211 153.5 314t321.5 103q39 0 82 -4t80 -12zM875 1757q0 -66 -44 -109t-106 -43q-57 0 -96 39t-39 92q0 66 45 109t107 43q57 0 95 -39t38 -92z" />
<glyph unicode="&#x1e24;" horiz-adv-x="1378" d="M1151 0h-262l115 600h-574l-115 -600h-262l262 1382h263l-107 -553h576l104 553h262zM709 -301q0 -72 -46 -118t-112 -46t-106.5 46t-40.5 106q0 72 46 116.5t111 44.5q66 0 107 -45t41 -104z" />
<glyph unicode="&#x1e25;" horiz-adv-x="1144" d="M920 0h-256l120 639q18 92 3 134t-64 42t-105.5 -51t-109.5 -136t-93 -183.5t-57 -186.5l-49 -258h-256l283 1495h256l-82 -430q-12 -72 -38 -156t-71 -207h5q37 72 81.5 132.5t98 106.5t116 72.5t132.5 26.5q72 0 121 -24.5t75.5 -69.5t31.5 -107.5t-9 -138.5zM598 -301 q0 -72 -46 -118t-112 -46t-106.5 46t-40.5 106q0 72 46 116.5t111 44.5q66 0 107 -45t41 -104z" />
<glyph unicode="&#x1e36;" horiz-adv-x="860" d="M754 0h-701l262 1382h263l-220 -1153h439zM529 -301q0 -72 -46 -118t-112 -46t-106.5 46t-40.5 106q0 72 46 116.5t111 44.5q66 0 107 -45t41 -104z" />
<glyph unicode="&#x1e37;" horiz-adv-x="534" d="M307 0h-254l283 1495h254zM283 -301q0 -72 -46 -118t-112 -46t-106.5 46t-40.5 106q0 72 46 116.5t111 44.5q66 0 107 -45t41 -104z" />
<glyph unicode="&#x1e38;" horiz-adv-x="860" d="M754 0h-701l262 1382h263l-220 -1153h439zM973 1518h-590l33 165h587zM529 -301q0 -72 -46 -118t-112 -46t-106.5 46t-40.5 106q0 72 46 116.5t111 44.5q66 0 107 -45t41 -104z" />
<glyph unicode="&#x1e39;" horiz-adv-x="534" d="M307 0h-254l283 1495h254zM789 1633h-590l33 165h587zM283 -301q0 -72 -46 -118t-112 -46t-106.5 46t-40.5 106q0 72 46 116.5t111 44.5q66 0 107 -45t41 -104z" />
<glyph unicode="&#x1e40;" horiz-adv-x="1798" d="M1649 0h-267l48 680q10 127 24 243.5t31 206.5h-6q-78 -199 -172 -385l-387 -745h-242l-103 717q-12 115 -21 225.5t-9 187.5h-4q-20 -96 -50 -215.5t-65 -240.5l-197 -674h-252l424 1382h355l100 -716q8 -61 12 -136t4 -145h5q31 82 59.5 152.5t56.5 128.5l377 716h375z M1262 1620q0 -66 -44 -109t-106 -43q-57 0 -96 39t-39 92q0 66 45 109t107 43q57 0 95 -39t38 -92z" />
<glyph unicode="&#x1e41;" horiz-adv-x="1740" d="M1513 0h-256l123 639q16 92 2 135t-61 43q-45 0 -99.5 -48t-107.5 -129t-95 -181.5t-61 -200.5l-47 -258h-256l123 639q16 94 2 136t-61 42q-45 0 -99.5 -48t-107.5 -129t-95 -181.5t-61 -200.5l-49 -258h-256l103 532q14 70 24 129.5t21.5 119t21.5 120t21 117.5h252 q-10 -51 -33 -129t-60 -187h5q37 72 79.5 132.5t95 106.5t115 72.5t131.5 26.5q96 0 151.5 -50t55.5 -148q0 -29 -7 -60.5t-23 -87.5h4q37 74 81 136.5t97 109.5t115.5 73.5t132.5 26.5q139 0 192 -91t23 -247zM1193 1351q0 -72 -50 -121t-119 -49q-68 0 -111 44t-43 106 q0 35 14.5 65.5t38 54t55 36t64.5 12.5q66 0 108.5 -44.5t42.5 -103.5z" />
<glyph unicode="&#x1e42;" horiz-adv-x="1798" d="M1649 0h-267l48 680q10 127 24 243.5t31 206.5h-6q-78 -199 -172 -385l-387 -745h-242l-103 717q-12 115 -21 225.5t-9 187.5h-4q-20 -96 -50 -215.5t-65 -240.5l-197 -674h-252l424 1382h355l100 -716q8 -61 12 -136t4 -145h5q31 82 59.5 152.5t56.5 128.5l377 716h375z M920 -293q0 -72 -46 -118t-112 -46t-106.5 46t-40.5 106q0 72 46 116.5t111 44.5q66 0 107 -45t41 -104z" />
<glyph unicode="&#x1e43;" horiz-adv-x="1740" d="M1513 0h-256l123 639q16 92 2 135t-61 43q-45 0 -99.5 -48t-107.5 -129t-95 -181.5t-61 -200.5l-47 -258h-256l123 639q16 94 2 136t-61 42q-45 0 -99.5 -48t-107.5 -129t-95 -181.5t-61 -200.5l-49 -258h-256l103 532q14 70 24 129.5t21.5 119t21.5 120t21 117.5h252 q-10 -51 -33 -129t-60 -187h5q37 72 79.5 132.5t95 106.5t115 72.5t131.5 26.5q96 0 151.5 -50t55.5 -148q0 -29 -7 -60.5t-23 -87.5h4q37 74 81 136.5t97 109.5t115.5 73.5t132.5 26.5q139 0 192 -91t23 -247zM893 -301q0 -72 -46 -118t-112 -46t-106.5 46t-40.5 106 q0 72 46 116.5t111 44.5q66 0 107 -45t41 -104z" />
<glyph unicode="&#x1e44;" horiz-adv-x="1361" d="M1149 0h-311l-277 776q-23 66 -41 135.5t-31 135.5q-12 -90 -47.5 -297t-64.5 -361l-74 -389h-250l262 1382h338l267 -743q20 -66 36.5 -128t28.5 -124q10 94 43 281.5t68 365.5l65 348h250zM1043 1620q0 -66 -44 -109t-106 -43q-57 0 -96 39t-39 92q0 66 45 109t107 43 q57 0 95 -39t38 -92z" />
<glyph unicode="&#x1e45;" horiz-adv-x="1144" d="M920 0h-258l122 639q18 92 3 134t-64 42t-106.5 -51t-110.5 -136t-93 -183.5t-57 -186.5l-49 -258h-256l103 532q14 70 24 129.5t21.5 119t21.5 120t21 117.5h252q-10 -53 -32 -129t-61 -187h5q37 72 80.5 132.5t97 106.5t117 72.5t133.5 26.5q72 0 121 -24.5t75.5 -69.5 t31.5 -106.5t-9 -137.5zM845 1339q0 -72 -50 -121t-119 -49q-68 0 -111 44t-43 106q0 35 14.5 65.5t38 54t55 36t64.5 12.5q66 0 108.5 -44.5t42.5 -103.5z" />
<glyph unicode="&#x1e46;" horiz-adv-x="1361" d="M1149 0h-311l-277 776q-23 66 -41 135.5t-31 135.5q-12 -90 -47.5 -297t-64.5 -361l-74 -389h-250l262 1382h338l267 -743q20 -66 36.5 -128t28.5 -124q10 94 43 281.5t68 365.5l65 348h250zM715 -301q0 -72 -46 -118t-112 -46t-106.5 46t-40.5 106q0 72 46 116.5 t111 44.5q66 0 107 -45t41 -104z" />
<glyph unicode="&#x1e47;" horiz-adv-x="1144" d="M920 0h-258l122 639q18 92 3 134t-64 42t-106.5 -51t-110.5 -136t-93 -183.5t-57 -186.5l-49 -258h-256l103 532q14 70 24 129.5t21.5 119t21.5 120t21 117.5h252q-10 -53 -32 -129t-61 -187h5q37 72 80.5 132.5t97 106.5t117 72.5t133.5 26.5q72 0 121 -24.5t75.5 -69.5 t31.5 -106.5t-9 -137.5zM598 -301q0 -72 -46 -118t-112 -46t-106.5 46t-40.5 106q0 72 46 116.5t111 44.5q66 0 107 -45t41 -104z" />
<glyph unicode="&#x1e56;" horiz-adv-x="1110" d="M887 987q0 84 -56.5 134t-177.5 50q-61 0 -116 -2l-95 -497q16 -2 49 -6t66 -4q84 0 147.5 28.5t103.5 76.5t59.5 105.5t19.5 114.5zM1163 1028q0 -109 -41 -213t-121.5 -188t-203.5 -134.5t-279 -50.5q-39 0 -71.5 2t-47.5 2l-84 -446h-262l262 1382q51 2 159 5.5 t218 3.5q231 0 351 -99.5t120 -263.5zM903 1620q0 -66 -44 -109t-106 -43q-57 0 -96 39t-39 92q0 66 45 109t107 43q57 0 95 -39t38 -92z" />
<glyph unicode="&#x1e57;" horiz-adv-x="1110" d="M805 674q0 72 -20.5 106.5t-57.5 34.5q-51 0 -109.5 -53t-111.5 -137t-91 -179.5t-55 -175.5l-12 -65q27 -8 57.5 -13.5t57.5 -5.5q84 0 148.5 44t107.5 117t64.5 158t21.5 169zM1069 723q0 -147 -40 -280.5t-122 -238t-205.5 -163.5t-285.5 -59q-29 0 -54.5 2t-56.5 6 l-90 -484h-258l197 1024q8 43 22 118t24.5 133.5t20.5 119t21 117.5h252q-6 -31 -14.5 -61.5t-18.5 -67.5t-24.5 -82t-35.5 -109l5 -2q39 78 84 140.5t99 108.5t114.5 70.5t125.5 24.5q119 0 179.5 -77.5t60.5 -239.5zM929 1351q0 -72 -50 -121t-119 -49q-68 0 -111 44 t-43 106q0 35 14.5 65.5t38 54t55 36t64.5 12.5q66 0 108.5 -44.5t42.5 -103.5z" />
<glyph unicode="&#x1e5a;" horiz-adv-x="1153" d="M866 1020q0 72 -51 113t-160 41q-35 0 -68.5 -2.5t-49.5 -4.5l-78 -409q12 0 42.5 -1t65.5 -1q80 0 138.5 23.5t93.5 61.5t51 84t16 95zM1147 1071q0 -78 -22.5 -152.5t-69.5 -139t-121 -111.5t-172 -72q10 -16 30.5 -56t41.5 -87l208 -453h-313l-235 557h-74l-105 -557 h-262l262 1382q49 2 157 5.5t228 3.5q219 0 333 -84t114 -236zM649 -301q0 -72 -46 -118t-112 -46t-106.5 46t-40.5 106q0 72 46 116.5t111 44.5q66 0 107 -45t41 -104z" />
<glyph unicode="&#x1e5b;" horiz-adv-x="718" d="M745 786q-55 16 -114.5 -19.5t-114.5 -115.5t-99 -191.5t-67 -238.5l-43 -221h-256l103 532q14 70 24 129.5t21.5 119t21.5 120t21 117.5h247q-10 -61 -31.5 -134t-56.5 -173h5q43 88 84.5 150.5t89 106.5t102.5 62.5t119 7.5zM283 -301q0 -72 -46 -118t-112 -46 t-106.5 46t-40.5 106q0 72 46 116.5t111 44.5q66 0 107 -45t41 -104z" />
<glyph unicode="&#x1e5c;" horiz-adv-x="1153" d="M866 1020q0 72 -51 113t-160 41q-35 0 -68.5 -2.5t-49.5 -4.5l-78 -409q12 0 42.5 -1t65.5 -1q80 0 138.5 23.5t93.5 61.5t51 84t16 95zM1147 1071q0 -78 -22.5 -152.5t-69.5 -139t-121 -111.5t-172 -72q10 -16 30.5 -56t41.5 -87l208 -453h-313l-235 557h-74l-105 -557 h-262l262 1382q49 2 157 5.5t228 3.5q219 0 333 -84t114 -236zM1024 1518h-590l33 165h587zM649 -301q0 -72 -46 -118t-112 -46t-106.5 46t-40.5 106q0 72 46 116.5t111 44.5q66 0 107 -45t41 -104z" />
<glyph unicode="&#x1e5d;" horiz-adv-x="718" d="M745 786q-55 16 -114.5 -19.5t-114.5 -115.5t-99 -191.5t-67 -238.5l-43 -221h-256l103 532q14 70 24 129.5t21.5 119t21.5 120t21 117.5h247q-10 -61 -31.5 -134t-56.5 -173h5q43 88 84.5 150.5t89 106.5t102.5 62.5t119 7.5zM813 1229h-540l34 188h543zM287 -301 q0 -72 -46 -118t-112 -46t-106.5 46t-40.5 106q0 72 46 116.5t111 44.5q66 0 107 -45t41 -104z" />
<glyph unicode="&#x1e60;" horiz-adv-x="1009" d="M946 1145q-55 18 -119.5 28.5t-124.5 10.5q-57 0 -103 -13.5t-76.5 -38t-46 -56.5t-15.5 -66q0 -49 30.5 -86t92 -75t121 -74t108.5 -80t81 -108.5t32 -150.5q0 -88 -38 -171t-112 -147.5t-184.5 -102.5t-249.5 -38q-84 0 -168 10.5t-158 28.5l70 254q70 -29 146.5 -45 t156.5 -16q123 0 188.5 54t65.5 136q0 51 -30.5 90t-94 79t-119 74t-103.5 78t-80 106.5t-32 146.5q0 88 38 166t111 138t178 94t237 34q61 0 131.5 -7t130.5 -20zM869 1632q0 -66 -44 -109t-106 -43q-57 0 -96 39t-39 92q0 66 45 109t107 43q57 0 95 -39t38 -92z" />
<glyph unicode="&#x1e61;" horiz-adv-x="794" d="M707 821q-39 10 -78 16.5t-72 6.5q-76 0 -116 -29t-40 -78q0 -43 27 -70.5t104.5 -90t115.5 -120t38 -139.5q0 -68 -28.5 -129t-86 -108t-145.5 -73.5t-203 -26.5q-123 0 -213 22l49 215q39 -14 92.5 -24.5t96.5 -10.5q82 0 125 30t43 85q0 43 -27 70.5t-103.5 90 t-114.5 120t-38 139.5q0 66 28.5 124t85 103t139.5 70.5t187 25.5q84 0 177 -16zM708 1351q0 -72 -50 -121t-119 -49q-68 0 -111 44t-43 106q0 35 14.5 65.5t38 54t55 36t64.5 12.5q66 0 108.5 -44.5t42.5 -103.5z" />
<glyph unicode="&#x1e62;" horiz-adv-x="942" d="M946 1145q-55 18 -119.5 28.5t-124.5 10.5q-57 0 -103 -13.5t-76.5 -38t-46 -56.5t-15.5 -66q0 -49 30.5 -86t92 -75t121 -74t108.5 -80t81 -108.5t32 -150.5q0 -88 -38 -171t-112 -147.5t-184.5 -102.5t-249.5 -38q-84 0 -168 10.5t-158 28.5l70 254q70 -29 146.5 -45 t156.5 -16q123 0 188.5 54t65.5 136q0 51 -30.5 90t-94 79t-119 74t-103.5 78t-80 106.5t-32 146.5q0 88 38 166t111 138t178 94t237 34q61 0 131.5 -7t130.5 -20zM520 -311q0 -72 -46 -118t-112 -46t-106.5 46t-40.5 106q0 72 46 116.5t111 44.5q66 0 107 -45t41 -104z" />
<glyph unicode="&#x1e63;" horiz-adv-x="772" d="M707 821q-39 10 -78 16.5t-72 6.5q-76 0 -116 -29t-40 -78q0 -43 27 -70.5t104.5 -90t115.5 -120t38 -139.5q0 -68 -28.5 -129t-86 -108t-145.5 -73.5t-203 -26.5q-123 0 -213 22l49 215q39 -14 92.5 -24.5t96.5 -10.5q82 0 125 30t43 85q0 43 -27 70.5t-103.5 90 t-114.5 120t-38 139.5q0 66 28.5 124t85 103t139.5 70.5t187 25.5q84 0 177 -16zM418 -305q0 -72 -46 -118t-112 -46t-106.5 46t-40.5 106q0 72 46 116.5t111 44.5q66 0 107 -45t41 -104z" />
<glyph unicode="&#x1e6a;" horiz-adv-x="1024" d="M1126 1155h-350l-221 -1155h-260l219 1155h-350l43 227h481h481zM873 1620q0 -66 -44 -109t-106 -43q-57 0 -96 39t-39 92q0 66 45 109t107 43q57 0 95 -39t38 -92z" />
<glyph unicode="&#x1e6b;" horiz-adv-x="751" d="M750 815h-242l-88 -463q-16 -90 0 -121.5t80 -31.5q33 0 62.5 4t62.5 10l-21 -207q-51 -12 -107.5 -19t-103.5 -7q-164 0 -217 81.5t-18 266.5l94 487h-174l39 203h174l59 313l266 53l-69 -366h239zM674 1620q0 -66 -44 -109t-106 -43q-57 0 -96 39t-39 92q0 66 45 109 t107 43q57 0 95 -39t38 -92z" />
<glyph unicode="&#x1e6c;" horiz-adv-x="1024" d="M1126 1155h-350l-221 -1155h-260l219 1155h-350l43 227h481h481zM522 -301q0 -72 -46 -118t-112 -46t-106.5 46t-40.5 106q0 72 46 116.5t111 44.5q66 0 107 -45t41 -104z" />
<glyph unicode="&#x1e6d;" horiz-adv-x="751" d="M750 815h-242l-88 -463q-16 -90 0 -121.5t80 -31.5q33 0 62.5 4t62.5 10l-21 -207q-51 -12 -107.5 -19t-103.5 -7q-164 0 -217 81.5t-18 266.5l94 487h-174l39 203h174l59 313l266 53l-69 -366h239zM443 -305q0 -72 -46 -118t-112 -46t-106.5 46t-40.5 106q0 72 46 116.5 t111 44.5q66 0 107 -45t41 -104z" />
<glyph unicode="&#x1e80;" horiz-adv-x="1923" d="M1450 0h-320l-63 756q-4 55 -2 122.5t8 129.5h-6q-53 -164 -90 -252l-346 -756h-330l-76 1382h275l35 -755q2 -100 -0.5 -184.5t-8.5 -159.5h6q31 90 62 173t68 167l348 759h264l61 -768q6 -80 8.5 -166t-0.5 -165h5q35 106 60.5 181t53.5 146l326 772h260zM1293 1466 l-414 113l92 184l389 -155z" />
<glyph unicode="&#x1e81;" horiz-adv-x="1597" d="M1671 989l-489 -989h-283l-53 463q-6 57 -8 118.5t-4 118.5q-74 -182 -157 -354t-163 -346h-283l-104 1018h276l37 -451q0 -8 1 -29.5t2 -50t2 -59.5t2.5 -57.5t2.5 -45t3 -22.5q37 100 81 199.5t87 191.5l155 324h258l47 -440q2 -27 4 -47.5t3.5 -48t2.5 -58.5t2 -76 t1 -46t4 -1q35 96 54 144.5t62 148.5l213 469zM971 1143l-279 272l160 148l254 -299z" />
<glyph unicode="&#x1e82;" horiz-adv-x="1923" d="M1450 0h-320l-63 756q-4 55 -2 122.5t8 129.5h-6q-53 -164 -90 -252l-346 -756h-330l-76 1382h275l35 -755q2 -100 -0.5 -184.5t-8.5 -159.5h6q31 90 62 173t68 167l348 759h264l61 -768q6 -80 8.5 -166t-0.5 -165h5q35 106 60.5 181t53.5 146l326 772h260zM1035 1466 l-19 148l443 149l26 -192z" />
<glyph unicode="&#x1e83;" horiz-adv-x="1597" d="M1671 989l-489 -989h-283l-53 463q-6 57 -8 118.5t-4 118.5q-74 -182 -157 -354t-163 -346h-283l-104 1018h276l37 -451q0 -8 1 -29.5t2 -50t2 -59.5t2.5 -57.5t2.5 -45t3 -22.5q37 100 81 199.5t87 191.5l155 324h258l47 -440q2 -27 4 -47.5t3.5 -48t2.5 -58.5t2 -76 t1 -46t4 -1q35 96 54 144.5t62 148.5l213 469zM887 1143l-94 129l350 291l117 -160z" />
<glyph unicode="&#x1e84;" horiz-adv-x="1923" d="M1450 0h-320l-63 756q-4 55 -2 122.5t8 129.5h-6q-53 -164 -90 -252l-346 -756h-330l-76 1382h275l35 -755q2 -100 -0.5 -184.5t-8.5 -159.5h6q31 90 62 173t68 167l348 759h264l61 -768q6 -80 8.5 -166t-0.5 -165h5q35 106 60.5 181t53.5 146l326 772h260zM1105 1614 q0 -59 -40.5 -100t-98.5 -41q-55 0 -92 36.5t-37 89.5q0 61 42 102.5t97 41.5t92 -38t37 -91zM1538 1614q0 -59 -41 -100t-99 -41q-55 0 -92 36.5t-37 89.5q0 61 42 102.5t98 41.5q55 0 92 -38t37 -91z" />
<glyph unicode="&#x1e85;" horiz-adv-x="1597" d="M1671 989l-489 -989h-283l-53 463q-6 57 -8 118.5t-4 118.5q-74 -182 -157 -354t-163 -346h-283l-104 1018h276l37 -451q0 -8 1 -29.5t2 -50t2 -59.5t2.5 -57.5t2.5 -45t3 -22.5q37 100 81 199.5t87 191.5l155 324h258l47 -440q2 -27 4 -47.5t3.5 -48t2.5 -58.5t2 -76 t1 -46t4 -1q35 96 54 144.5t62 148.5l213 469zM901 1333q0 -61 -43 -104t-102 -43q-57 0 -96 41t-39 96q0 61 43 103t102 42q57 0 96 -40t39 -95zM1307 1333q0 -61 -43 -104t-102 -43q-57 0 -96.5 41t-39.5 98q0 61 43 102t103 41q57 0 96 -40t39 -95z" />
<glyph unicode="&#x1ef2;" d="M700 510l-96 -510h-260l96 508l-268 874h279l114 -389q25 -88 51 -219h2q35 59 73 119.5t77 118.5l252 370h285zM754 1466l-414 113l92 184l389 -155z" />
<glyph unicode="&#x1ef3;" horiz-adv-x="1007" d="M825 1061l248 -70q-102 -240 -200.5 -440.5t-192.5 -364t-184 -288.5t-181 -213q-98 -100 -195 -147.5t-222 -47.5h-33t-29 2q-16 2 -31 4l41 225q14 -4 31 -6q12 -4 28.5 -5t35.5 -1q61 0 116.5 27.5t95.5 79t62.5 128t22.5 175.5q0 86 -8.5 189.5t-25 218t-41 239.5 t-54.5 252h280q16 -78 31.5 -164t26 -168t16.5 -152.5t6 -117.5q0 -68 -5 -117t-15 -92q8 10 18 30.5t21.5 45t21.5 47t16 39.5q39 74 75 154.5t72 165.5t73.5 178.5t78.5 193.5v0zM602 1143l-279 272l160 148l254 -299z" />
<glyph unicode="&#x2012;" d="M1040 496h-946l45 229h944z" />
<glyph unicode="&#x2013;" d="M1130 496h-1126l43 229h1127z" />
<glyph unicode="&#x2014;" horiz-adv-x="2048" d="M1827 496h-1596l43 229h1596z" />
<glyph unicode="&#x2015;" horiz-adv-x="2048" d="M1827 496h-1596l43 229h1596z" />
<glyph unicode="&#x2018;" horiz-adv-x="534" d="M647 1436q-125 -102 -152.5 -174t13.5 -134q23 -35 24 -77q0 -41 -18 -78t-55 -61.5t-86 -24.5q-47 0 -86 25.5t-59.5 70.5t-16.5 107.5t40 136t108.5 154.5t193.5 165z" />
<glyph unicode="&#x2019;" horiz-adv-x="534" d="M440 1530q47 0 86 -25.5t59.5 -70.5t16.5 -107.5t-40 -135.5t-109.5 -154t-192.5 -165l-94 109q63 51 100 95t51.5 81t10.5 70t-25 63q-23 35 -22 76q0 43 18 79t55 60.5t86 24.5z" />
<glyph unicode="&#x201a;" horiz-adv-x="534" d="M217 305q72 0 120 -56t41 -148.5t-85 -210t-256 -242.5l-94 108q61 51 98 94.5t52.5 80t11 69.5t-24.5 63q-23 35 -23 76q0 43 18.5 80t55.5 61.5t86 24.5z" />
<glyph unicode="&#x201c;" horiz-adv-x="972" d="M645 1438q-61 -53 -98 -96.5t-52.5 -80t-11.5 -69.5t25 -64q23 -35 22 -77q0 -41 -18 -77t-55 -60.5t-86 -24.5q-72 0 -120 56t-42 148.5t84 210t258 242.5l94 -108v0zM1098 1438q-61 -53 -98 -96.5t-51.5 -80t-10.5 -69.5t23 -64q23 -35 22 -77q0 -41 -18.5 -77 t-55.5 -60.5t-86 -24.5q-72 0 -120 56t-40.5 148.5t85 210t256.5 242.5l94 -108v0z" />
<glyph unicode="&#x201d;" horiz-adv-x="972" d="M440 1530q72 0 120 -56.5t42 -148.5t-84 -210t-258 -243l-94 109q61 51 98 94t52.5 80t11.5 69.5t-25 63.5q-23 37 -22 78q0 43 18 79t55 60.5t86 24.5zM893 1530q72 0 120 -56.5t41 -148.5t-85 -210t-256 -243l-95 109q61 51 98.5 94t52.5 80t11 69.5t-24 63.5 q-23 37 -23 78q0 43 18.5 79t55.5 60.5t86 24.5z" />
<glyph unicode="&#x201e;" horiz-adv-x="972" d="M209 305q72 0 118 -56t40.5 -148.5t-83 -210t-251.5 -242.5l-94 108q63 51 100 94.5t51 80t10 69.5t-24 63q-23 35 -23 76q0 43 18.5 80t55.5 61.5t82 24.5zM651 305q66 0 114 -56t42 -148.5t-84 -210t-252 -242.5l-92 108q61 51 98 94.5t51.5 80t10.5 69.5t-25 63 q-20 35 -20 76q0 43 18 80t55 61.5t84 24.5z" />
<glyph unicode="&#x2020;" horiz-adv-x="917" d="M952 1092h-268l6 -181l-145 -522h-201l53 522l76 181h-270l39 202h270l10 279h295l-94 -279h270z" />
<glyph unicode="&#x2021;" horiz-adv-x="917" d="M958 1122h-266l8 -168l-71 -166h268l-39 -200h-268l-6 -250h-297l90 250h-268l38 200h267l-11 166l74 168h-268l39 201h268l6 250h295l-86 -250h266z" />
<glyph unicode="&#x2022;" horiz-adv-x="866" d="M762 616q0 -63 -23.5 -119.5t-66.5 -100.5t-98.5 -67.5t-116.5 -23.5t-116.5 22.5t-95.5 63.5t-62.5 95.5t-22.5 113.5q0 63 23.5 119.5t65.5 100.5t98 67.5t118 23.5q61 0 115.5 -22.5t95.5 -63.5t63.5 -95.5t22.5 -113.5z" />
<glyph unicode="&#x2026;" horiz-adv-x="1452" d="M346 143q0 -70 -47 -118t-115 -48q-63 0 -107 46.5t-44 107.5q0 70 48 118t114 48t108.5 -45.5t42.5 -108.5zM815 143q0 -70 -47 -118t-115 -48q-63 0 -107 46.5t-44 107.5q0 70 48 118t114 48q63 0 107 -46.5t44 -107.5zM1284 143q0 -70 -48 -118t-114 -48t-108.5 45.5 t-42.5 108.5q0 70 47 118t115 48q63 0 107 -46.5t44 -107.5z" />
<glyph unicode="&#x2030;" horiz-adv-x="2119" d="M2009 387q0 -88 -28.5 -164t-79 -131t-115 -85t-133.5 -30q-117 0 -180.5 58.5t-63.5 175.5q0 86 27.5 162t78 131t114 86t132.5 31q117 0 182.5 -58.5t65.5 -175.5zM791 1174q0 -88 -29 -165t-79 -132.5t-114.5 -85t-134.5 -29.5q-119 0 -181.5 59.5t-62.5 175.5 q0 86 28 161t78 130t113.5 86t133.5 31q117 0 182.5 -57t65.5 -174zM184 -41l-131 127l1299 1335l129 -129zM1350 387q0 -88 -29 -164t-79 -131t-114.5 -85t-134.5 -30q-117 0 -180 58.5t-63 175.5q0 86 28.5 162t77.5 131t113.5 86t134.5 31q115 0 180.5 -58.5t65.5 -175.5 zM1821 371q0 86 -76 86q-37 0 -65.5 -21.5t-47 -57.5t-28 -76t-9.5 -75q0 -45 19.5 -65.5t56.5 -20.5t65.5 21.5t47 55.5t28 74t9.5 79zM602 1155q0 86 -76 86q-37 0 -65.5 -21.5t-47 -56.5t-27.5 -74.5t-9 -76.5q0 -45 19.5 -65.5t56.5 -20.5t65.5 21.5t47 56t27.5 74.5 t9 77zM1161 371q0 86 -74 86q-37 0 -65.5 -21.5t-48 -57.5t-28.5 -76t-9 -75q0 -45 19.5 -65.5t56.5 -20.5t65.5 21.5t47 55.5t27.5 74t9 79z" />
<glyph unicode="&#x2039;" horiz-adv-x="626" d="M354 598l125 -299l-211 -94l-159 405l301 387l182 -98z" />
<glyph unicode="&#x203a;" horiz-adv-x="626" d="M272 205l-184 100l238 299l-125 299l213 94l159 -405z" />
<glyph unicode="&#x203d;" horiz-adv-x="1071" d="M303 385l125 752q-47 -2 -104.5 -9.5t-122.5 -17.5l30 221q63 10 121 17.5t111 11.5l18 104h277l-21 -100q195 -20 284 -103t89 -198q0 -96 -39 -160.5t-98.5 -114t-130 -88t-136 -82t-115.5 -98.5t-67 -135h-221zM614 791q37 33 77 59.5t73 52t53.5 56t20.5 73.5 q0 39 -31 70t-117 41zM520 141q0 -72 -49 -118t-117 -46t-108.5 43t-40.5 103q0 72 49 119t117 47t108.5 -44.5t40.5 -103.5z" />
<glyph unicode="&#x2044;" horiz-adv-x="403" d="M-500 -307l-137 110l1659 1854l135 -113z" />
<glyph unicode="&#x2070;" horiz-adv-x="931" d="M1010 1323q0 -100 -26 -204.5t-84 -197t-155.5 -148.5t-230.5 -56q-156 0 -238.5 78.5t-82.5 230.5q0 100 25.5 204.5t83.5 196t154.5 147.5t229.5 56q156 0 240 -77.5t84 -229.5zM545 893q61 0 105 46t68.5 114.5t35 138.5t10.5 119q0 70 -26.5 106.5t-82.5 36.5 q-61 0 -105 -46t-67.5 -114.5t-34 -137.5t-10.5 -118q0 -70 26 -107.5t81 -37.5z" />
<glyph unicode="&#x2074;" horiz-adv-x="833" d="M750 918l-35 -185h-217l34 185h-393l17 167l391 529h336l-99 -512h125l-35 -184h-124zM635 1470l-270 -372q18 0 45.5 1t55.5 1h51.5h47.5z" />
<glyph unicode="&#x2075;" horiz-adv-x="718" d="M760 1071q0 -74 -26.5 -138.5t-81 -112.5t-134.5 -75.5t-184 -27.5q-53 0 -107.5 6t-93.5 16l41 162q33 -10 75 -16t79 -6q80 0 130 42t50 109q0 94 -148 94q-31 0 -65.5 -3t-65.5 -7l95 500h501l-34 -176h-279l-31 -156q61 0 111.5 -11t88.5 -37t58.5 -66t20.5 -97z" />
<glyph unicode="&#x2076;" horiz-adv-x="843" d="M893 1083q0 -82 -32 -149.5t-89 -116.5t-133 -74.5t-162 -25.5q-145 0 -216 72.5t-71 214.5q0 106 32 215.5t100.5 203t179 150.5t262.5 57q39 0 84 -3t72 -9l-43 -162q-35 6 -74 11.5t-70 5.5q-63 0 -109 -18.5t-83 -55.5q-18 -18 -32.5 -39t-23 -37t-20.5 -42t-19 -34 q33 25 84.5 39t100.5 14q123 0 191.5 -60.5t70.5 -156.5zM504 874q74 0 116 51.5t42 129.5q0 45 -24 69.5t-75 24.5q-39 0 -69.5 -14.5t-51 -39t-30 -54t-9.5 -60.5q1 -107 101 -107z" />
<glyph unicode="&#x2077;" horiz-adv-x="692" d="M825 1442q-49 -70 -101 -157t-102.5 -181t-94.5 -189.5t-78 -181.5h-267q37 90 85 187.5t101.5 191.5t104.5 174t94 137q-8 0 -39.5 -1t-80 -2t-103.5 -1h-111l35 195h590z" />
<glyph unicode="&#x2078;" horiz-adv-x="827" d="M862 1014q0 -74 -31.5 -129.5t-86 -93t-129 -56t-154.5 -18.5q-141 0 -222 53t-81 145q0 86 50 149.5t138 115.5q-92 61 -92 163q0 63 28.5 119t79 92.5t121 57t154.5 20.5q129 0 210 -53t81 -141q0 -78 -45 -137.5t-127 -110.5q57 -35 81.5 -77t24.5 -99zM575 1272 q57 29 94.5 62.5t37.5 76.5q0 76 -97 76q-68 0 -101.5 -34t-33.5 -75q4 -65 100 -106zM489 862q59 0 103.5 31t44.5 90q-4 66 -111 113q-145 -70 -145 -154q0 -37 26.5 -58.5t81.5 -21.5z" />
<glyph unicode="&#x2079;" horiz-adv-x="835" d="M918 1358q0 -102 -28 -211t-92.5 -207t-176 -160.5t-269.5 -62.5q-45 0 -99 5t-87 13l47 166q68 -25 158 -24q70 0 115.5 18t82.5 55q31 31 61 98l29 68q-31 -31 -81 -48t-99 -17q-125 0 -188.5 56t-63.5 159q0 63 22.5 126.5t71 118t126 87t184.5 32.5q143 0 215 -68.5 t72 -203.5zM545 1202q41 0 70.5 16.5t49 42t27.5 55.5t8 58q0 100 -96 101q-74 0 -112.5 -56.5t-38.5 -132.5q0 -39 23.5 -61.5t68.5 -22.5z" />
<glyph unicode="&#x207a;" horiz-adv-x="802" d="M610 1073l-45 -231h-184l43 231h-229l32 162h230l43 229h184l-45 -229h231l-32 -162h-228z" />
<glyph unicode="&#x207b;" horiz-adv-x="802" d="M838 1073h-643l32 162h643z" />
<glyph unicode="&#x207c;" horiz-adv-x="802" d="M164 901l31 162h643l-31 -162h-643zM229 1243l29 164h645l-31 -164h-643z" />
<glyph unicode="&#x207d;" horiz-adv-x="620" d="M322 453q-39 102 -61.5 212.5t-22.5 223.5q0 111 17 227.5t57 239.5t106.5 250t159.5 247l208 -55q-162 -221 -237.5 -455.5t-75.5 -455.5q0 -207 62 -389z" />
<glyph unicode="&#x207e;" horiz-adv-x="620" d="M561 1853q41 -104 62.5 -214.5t21.5 -223.5q0 -111 -17.5 -226.5t-58.5 -238.5t-106.5 -250t-159.5 -247l-207 53q162 223 238 457.5t76 455.5q0 209 -64 387z" />
<glyph unicode="&#x207f;" horiz-adv-x="890" d="M836 733h-218l84 447q10 59 -1 85.5t-48 26.5q-41 0 -79.5 -32.5t-70.5 -86t-54.5 -115t-32.5 -116.5l-39 -209h-217l133 709h209q-8 -43 -20.5 -84t-32.5 -96l2 -2q25 43 55.5 78.5t69 63.5t84 42t94.5 14q53 0 92 -15.5t60.5 -44t26.5 -71.5t-5 -98z" />
<glyph unicode="&#x2080;" horiz-adv-x="931" d="M828 362q0 -100 -26 -204.5t-84 -197t-155.5 -148.5t-230.5 -56q-156 0 -238.5 78.5t-82.5 230.5q0 100 25.5 204.5t83.5 196t154.5 147.5t229.5 56q156 0 240 -77.5t84 -229.5zM363 -68q61 0 105 46t68.5 114.5t35 138.5t10.5 119q0 70 -26.5 106.5t-82.5 36.5 q-61 0 -105 -46t-67.5 -114.5t-34 -137.5t-10.5 -118q0 -70 26 -107.5t81 -37.5z" />
<glyph unicode="&#x2081;" horiz-adv-x="595" d="M94 -228l127 664l-178 -62v195l252 84h213l-168 -881h-246z" />
<glyph unicode="&#x2082;" horiz-adv-x="745" d="M-59 -228l33 187l182 151q63 53 107 95t70 76t37 61.5t11 54.5q0 39 -22.5 60.5t-73.5 21.5q-43 0 -89 -12.5t-87 -30.5l-4 184q25 10 55.5 19.5t65 16.5t69.5 10t68 3q141 0 211.5 -56t70.5 -163q0 -51 -15 -99t-44 -93t-70 -90.5t-98 -96.5l-121 -104q51 2 114.5 3 t170.5 1l-39 -199h-602z" />
<glyph unicode="&#x2083;" horiz-adv-x="731" d="M574 88q0 -76 -34 -137.5t-95.5 -105.5t-140 -66.5t-169.5 -22.5q-49 0 -103 5t-93 13l43 168q31 -10 73 -15t80 -5q86 0 138.5 34.5t52.5 98.5q0 45 -46 67.5t-130 22.5q-18 0 -41 -1t-51 -3l22 153q66 0 120 8.5t94 26t61.5 44t21.5 63.5t-26.5 54t-75.5 17 q-43 0 -90.5 -9t-87.5 -25l4 157q25 8 55.5 15.5t64 12.5t67.5 8t62 3q131 0 201 -48t70 -134q0 -41 -13.5 -80t-38 -70.5t-56 -55t-66.5 -36.5q55 -14 91 -58t36 -99z" />
<glyph unicode="&#x2084;" horiz-adv-x="833" d="M568 -43l-35 -185h-217l34 185h-393l17 167l391 529h336l-99 -512h125l-35 -184h-124zM453 509l-270 -372q18 0 45.5 1t55.5 1h51.5h47.5z" />
<glyph unicode="&#x2085;" horiz-adv-x="718" d="M578 110q0 -74 -26.5 -138.5t-81 -112.5t-134.5 -75.5t-184 -27.5q-53 0 -107.5 6t-93.5 16l41 162q33 -10 75 -16t79 -6q80 0 130 42t50 109q0 94 -148 94q-31 0 -65.5 -3t-65.5 -7l95 500h501l-34 -176h-279l-31 -156q61 0 111.5 -11t88.5 -37t58.5 -66t20.5 -97z" />
<glyph unicode="&#x2086;" horiz-adv-x="843" d="M711 122q0 -82 -32 -149.5t-89 -116.5t-133 -74.5t-162 -25.5q-145 0 -216 72.5t-71 214.5q0 106 32 215.5t100.5 203t179 150.5t262.5 57q39 0 84 -3t72 -9l-43 -162q-35 6 -74 11.5t-70 5.5q-63 0 -109 -18.5t-83 -55.5q-18 -18 -32.5 -39t-23 -37t-20.5 -42t-19 -34 q33 25 84.5 39t100.5 14q123 0 191.5 -60.5t70.5 -156.5zM322 -87q74 0 116 51.5t42 129.5q0 45 -24 69.5t-75 24.5q-39 0 -69.5 -14.5t-51 -39t-30 -54t-9.5 -60.5q1 -107 101 -107z" />
<glyph unicode="&#x2087;" horiz-adv-x="692" d="M643 481q-49 -70 -101 -157t-102.5 -181t-94.5 -189.5t-78 -181.5h-267q37 90 85 187.5t101.5 191.5t104.5 174t94 137q-8 0 -39.5 -1t-80 -2t-103.5 -1h-111l35 195h590z" />
<glyph unicode="&#x2088;" horiz-adv-x="827" d="M680 53q0 -74 -31.5 -129.5t-86 -93t-129 -56t-154.5 -18.5q-141 0 -222 53t-81 145q0 86 50 149.5t138 115.5q-92 61 -92 163q0 63 28.5 119t79 92.5t121 57t154.5 20.5q129 0 210 -53t81 -141q0 -78 -45 -137.5t-127 -110.5q57 -35 81.5 -77t24.5 -99zM393 311 q57 29 94.5 62.5t37.5 76.5q0 76 -97 76q-68 0 -101.5 -34t-33.5 -75q4 -65 100 -106zM307 -99q59 0 103.5 31t44.5 90q-4 66 -111 113q-145 -70 -145 -154q0 -37 26.5 -58.5t81.5 -21.5z" />
<glyph unicode="&#x2089;" horiz-adv-x="835" d="M736 397q0 -102 -28 -211t-92.5 -207t-176 -160.5t-269.5 -62.5q-45 0 -99 5t-87 13l47 166q68 -25 158 -24q70 0 115.5 18t82.5 55q31 31 61 98l29 68q-31 -31 -81 -48t-99 -17q-125 0 -188.5 56t-63.5 159q0 63 22.5 126.5t71 118t126 87t184.5 32.5q143 0 215 -68.5 t72 -203.5zM363 241q41 0 70.5 16.5t49 42t27.5 55.5t8 58q0 100 -96 101q-74 0 -112.5 -56.5t-38.5 -132.5q0 -39 23.5 -61.5t68.5 -22.5z" />
<glyph unicode="&#x208a;" horiz-adv-x="802" d="M430 112l-45 -231h-184l43 231h-229l32 162h230l43 229h184l-45 -229h231l-32 -162h-228z" />
<glyph unicode="&#x208b;" horiz-adv-x="802" d="M658 112h-643l32 162h643z" />
<glyph unicode="&#x208c;" horiz-adv-x="802" d="M-16 -60l31 162h643l-31 -162h-643zM49 282l29 164h645l-31 -164h-643z" />
<glyph unicode="&#x208d;" horiz-adv-x="620" d="M140 -508q-39 102 -61.5 212.5t-22.5 223.5q0 111 17 227.5t57 239.5t106.5 250t159.5 247l208 -55q-162 -221 -237.5 -455.5t-75.5 -455.5q0 -207 62 -389z" />
<glyph unicode="&#x208e;" horiz-adv-x="620" d="M379 892q41 -104 62.5 -214.5t21.5 -223.5q0 -111 -17.5 -226.5t-58.5 -238.5t-106.5 -250t-159.5 -247l-207 53q162 223 238 457.5t76 455.5q0 209 -64 387z" />
<glyph unicode="&#x20a1;" horiz-adv-x="1265" d="M1325 1354l-55 -236q-33 12 -64.5 20.5t-64.5 14.5l-260 -936q63 4 124.5 19.5t116.5 39.5l-32 -233q-63 -18 -128 -33.5t-137 -19.5l-84 -299h-149l80 291q-27 0 -57.5 3t-57.5 9l-82 -303h-149l92 334q-143 49 -226 165.5t-83 296.5q0 90 17 184.5t53 184.5t90.5 174 t128 152.5t170 119t212.5 74.5l64 246h151l-61 -227q27 2 57.5 2t59.5 -2l61 227h150l-66 -242q35 -4 64.5 -10t64.5 -16zM877 1165l-259 -938q51 -14 111 -18l264 958q-27 2 -58 2t-58 -4zM483 291l234 825q-66 -23 -116 -63.5t-87 -92t-62.5 -108.5t-41 -114.5t-22.5 -110 t-7 -90.5q0 -80 25.5 -142.5t76.5 -103.5z" />
<glyph unicode="&#x20a2;" horiz-adv-x="1357" d="M1292 1128q-47 16 -111.5 28.5t-131.5 19.5l-74 -361q164 -29 242.5 -102.5t78.5 -200.5q0 -82 -29.5 -157.5t-89 -141.5t-150.5 -117t-212 -82l-65 -323h-162l59 295q-29 -6 -59.5 -8.5t-65.5 -2.5l-57 -284h-160l57 289q-80 6 -160.5 18t-144.5 29l66 249 q57 -23 132 -38t153 -23l77 377q-72 12 -127 32.5t-99 56.5t-69.5 92t-25.5 136q0 74 25.5 144.5t82 133t149.5 112t222 77.5l49 246h162l-45 -221q29 4 59.5 5t63.5 1l45 215h162l-45 -219q70 -4 138 -14.5t122 -22.5zM889 1184q-31 2 -63.5 1t-59.5 -5l-68 -328 q16 -4 59.5 -11t59.5 -10zM598 1153q-74 -25 -114 -69t-40 -107q0 -39 25 -65.5t72 -43.5zM1012 428q0 39 -24.5 66.5t-67.5 46.5l-60 -293q72 29 112 73t40 107zM764 557q-37 6 -64.5 10t-54.5 11l-78 -371q35 0 67 2t58 8z" />
<glyph unicode="&#x20a3;" d="M1133 1161h-474l-47 -237h381l-37 -195h-378l-31 -151h379l-35 -193h-381l-72 -385h-266l72 385h-187l37 193h187l28 151h-186l35 195h188l88 458h740z" />
<glyph unicode="&#x20a4;" d="M1042 1149q-47 16 -99 27.5t-105 11.5q-115 0 -169.5 -68.5t-60.5 -199.5h318l-31 -162h-305l-10 -133h290l-32 -162h-281q-6 -72 -38 -127t-107 -115q41 2 73.5 3t67.5 1h405l-43 -225h-864l33 178q59 43 98 78t62.5 67.5t35 65.5t15.5 74h-197l33 162h184l11 133h-170 l30 162h158q12 113 45 200.5t93.5 150t155.5 96.5t228 34q59 0 129 -9.5t127 -23.5z" />
<glyph unicode="&#x20a7;" horiz-adv-x="2508" d="M848 1004q0 80 -49 125t-156 45h-45t-31.5 -1.5t-29.5 -1.5l-86 -458q37 -6 75 -6q66 0 124.5 22.5t103.5 64.5t69.5 96.5t24.5 113.5zM2400 823q-31 10 -65.5 15.5t-69.5 5.5q-78 0 -119 -29t-41 -80q0 -41 24.5 -67.5t97.5 -90t109 -120t36 -131.5q0 -66 -29 -127.5 t-87 -111.5t-146.5 -78.5t-202.5 -28.5q-139 0 -238 43q-141 -43 -270 -43q-164 0 -217.5 80.5t-18.5 267.5l92 487h-188q-33 -74 -89 -134t-131 -104.5t-164 -69t-185 -24.5q-18 0 -41 1t-51 3l-93 -487h-260l262 1382q82 4 172.5 6.5t200.5 2.5q215 0 326.5 -98.5 t105.5 -274.5h174l62 313l268 70l-72 -383h240l-41 -203h-240l-86 -459q-16 -92 0.5 -123.5t77.5 -31.5q51 0 103.5 10t113.5 29q51 -25 108.5 -38.5t102.5 -13.5q78 0 124 30t46 83q0 45 -25.5 71.5t-96 86t-105.5 114t-35 136.5q0 72 27.5 131t83 104t137.5 69.5t188 24.5 q102 0 174 -14z" />
<glyph unicode="&#x20ac;" horiz-adv-x="1187" d="M510 764q-10 -33 -17.5 -71t-15.5 -85h414l-29 -157h-401q-2 -123 65.5 -189.5t202.5 -66.5q76 0 151.5 22.5t147.5 63.5l41 -197q-86 -51 -185.5 -79t-213.5 -28q-258 0 -373 123t-111 351h-163l28 157h146q4 31 14 80t16 76h-145l31 158h157q90 229 263.5 356 t424.5 127q96 0 180.5 -20.5t137.5 -53.5l-90 -211q-47 29 -114.5 48.5t-141.5 19.5q-131 0 -220 -69.5t-143 -196.5h385l-28 -158h-414z" />
<glyph unicode="&#x2105;" horiz-adv-x="1507" d="M1221 406q0 102 -88 102q-39 0 -70 -23.5t-50.5 -61.5t-28.5 -82t-9 -83q0 -55 22.5 -79.5t67.5 -24.5q39 0 68.5 22.5t49 60t29 82t9.5 87.5zM1430 424q0 -78 -24 -156t-72 -142.5t-121.5 -103t-170.5 -38.5q-131 0 -203.5 64.5t-72.5 195.5q0 78 24.5 154.5t73.5 140 t123 101.5t168 38q127 0 201 -63.5t74 -190.5zM197 -47l-150 119l1258 1358l149 -119zM662 1204q-45 20 -95 21q-49 0 -83.5 -21.5t-57.5 -58.5t-33 -79t-10 -85q0 -49 25.5 -76.5t83.5 -27.5q55 0 112 22l-10 -170q-43 -12 -86 -19.5t-84 -7.5q-123 0 -188.5 57.5 t-65.5 180.5q0 88 25.5 170t77 146.5t127 102.5t169.5 38q66 0 138 -17z" />
<glyph unicode="&#x2113;" horiz-adv-x="1032" d="M799 1227q0 35 -17.5 54t-54.5 19q-53 0 -89 -44t-52 -136l-47 -235q80 66 129 112.5t77.5 84.5t41 72t12.5 73zM1067 1272q0 -74 -21.5 -137.5t-82 -137t-176 -173t-304.5 -236.5l-39 -207q-10 -51 -10 -80q0 -55 23.5 -77.5t68.5 -22.5q33 0 59.5 13t52.5 43t50.5 80 t50.5 126l228 -45q-39 -119 -86 -203t-104.5 -136t-129.5 -77t-160 -25q-156 0 -236.5 63.5t-80.5 186.5q0 20 2 41t6 58l17 88l-134 -113l-34 225l225 179l76 407q37 195 145.5 297t292.5 102q152 0 226.5 -62t74.5 -177z" />
<glyph unicode="&#x2116;" horiz-adv-x="2058" d="M1880 1116q0 53 -22.5 83t-77.5 30q-49 0 -85 -25.5t-58.5 -65.5t-33 -86t-10.5 -89q0 -55 22.5 -84t74.5 -29q43 0 77.5 21.5t60 59.5t39 86t13.5 99zM1055 0h-287l-195 670q-55 186 -81 362q-6 -45 -16.5 -109.5t-23 -137t-25.5 -145.5t-26 -134l-96 -506h-248 l262 1382h326l193 -675q18 -66 35.5 -137.5t27.5 -133.5q8 55 19.5 124t24.5 144.5t27.5 153.5t26.5 150l70 374h250zM1917 397h-610l39 193h610zM2083 1143q0 -106 -34 -194.5t-93.5 -150t-136 -93t-160.5 -31.5q-135 0 -204 67.5t-69 188.5q0 98 30 184t85 151.5 t133 101.5t172 36q76 0 129.5 -19.5t86 -54.5t47 -82t14.5 -104z" />
<glyph unicode="&#x2117;" horiz-adv-x="1529" d="M1174 831q0 -61 -26 -117.5t-75 -101.5t-120.5 -71.5t-164.5 -26.5h-43t-34 2l-33 -182h-189l136 708q59 2 123.5 3.5t119.5 1.5q82 0 140.5 -17.5t94.5 -46.5t53.5 -68t17.5 -84zM975 817q0 37 -28.5 60.5t-98.5 23.5h-33.5t-30.5 -2l-45 -235q14 -2 26.5 -3.5 t31.5 -1.5q76 0 127 39t51 119zM1507 725q0 -162 -59 -297t-160.5 -233.5t-233.5 -154.5t-278 -56q-147 0 -270 52t-212 141t-138.5 209t-49.5 257q0 160 60.5 295t161 234.5t232.5 154.5t280 55q145 0 267 -52t211 -141t139 -209t50 -255zM1315 711q0 102 -35 192 t-99.5 156.5t-154.5 105.5t-197 39q-106 0 -202.5 -42t-169 -115.5t-115.5 -173t-43 -214.5q0 -104 35 -195t99.5 -157.5t154.5 -105.5t198 -39q106 0 202.5 42t168.5 115.5t115 174t43 217.5z" />
<glyph unicode="&#x2120;" horiz-adv-x="1384" d="M1378 807h-190l14 248l6 96l-34 -88l-117 -256h-170l-17 262l-2 82l-18 -74l-86 -270h-172l196 575h211l21 -252l2 -83l27 79l118 256h228zM582 1257q-27 8 -50.5 11.5t-46.5 3.5q-45 0 -63.5 -16.5t-18.5 -38.5q0 -27 27 -43.5t58.5 -36t58 -48t26.5 -79.5 q0 -45 -20.5 -84t-57 -69t-90 -46t-118.5 -16q-37 0 -72 3t-63 9l36 135q25 -10 51.5 -14t55.5 -4q45 0 66.5 17t21.5 44q0 25 -25.5 41t-57.5 34.5t-57.5 47.5t-25.5 78q0 39 14.5 76.5t47 67.5t85 47.5t125.5 17.5q37 0 67 -2t58 -7z" />
<glyph unicode="&#x2122;" horiz-adv-x="1384" d="M653 1225h-131l-80 -418h-182l80 418h-137l30 157h451zM1380 807h-190l12 248l6 96l-34 -88l-115 -256h-170l-19 262v82l-20 -74l-86 -270h-172l196 575h211l21 -252l2 -83l27 79l118 256h228z" />
<glyph unicode="&#x2126;" horiz-adv-x="1431" d="M741 0l41 211q88 59 153.5 135t108.5 162t63.5 179t20.5 190q0 141 -66.5 215.5t-203.5 74.5q-111 0 -198 -56t-146 -149.5t-89 -202t-30 -210.5q0 -104 38 -183t122 -155l-39 -211h-530l43 215h256q-78 61 -121 149.5t-43 208.5q0 135 50 281.5t149.5 271.5t248 202 t334.5 77q115 0 208 -29.5t160.5 -89t104.5 -152t37 -214.5q0 -106 -23.5 -209t-68.5 -196t-112.5 -169t-151.5 -131h254l-43 -215h-527z" />
<glyph unicode="&#x212e;" horiz-adv-x="1652" d="M1212 1049q0 53 -15 84.5t-54 60.5q-61 45 -146.5 73.5t-181.5 28.5t-181 -28.5t-147 -73.5q-39 -29 -54 -60.5t-15 -84.5v-271h794v271zM418 324q0 -53 15.5 -85t53.5 -61q61 -45 146.5 -73.5t181.5 -28.5q162 0 299 78.5t229 228.5l89 -53q-102 -170 -266.5 -259 t-354.5 -89q-147 0 -275 53t-223.5 149.5t-148.5 225.5t-53 276t54 276.5t151.5 225.5t226.5 149.5t276 53.5t275.5 -53.5t223.5 -149.5t148.5 -225t53.5 -277h-1102v-362z" />
<glyph unicode="&#x2153;" horiz-adv-x="1728" d="M1559 88q0 -76 -34 -137.5t-95.5 -105.5t-140 -66.5t-169.5 -22.5q-49 0 -103 5t-93 13l43 168q31 -10 73 -15t80 -5q86 0 138.5 34.5t52.5 98.5q0 45 -46 67.5t-130 22.5q-18 0 -41 -1t-51 -3l22 153q66 0 120 8.5t94 26t61.5 44t21.5 63.5t-26.5 54t-75.5 17 q-43 0 -90.5 -9t-87.5 -25l4 157q25 8 55.5 15.5t64 12.5t67.5 8t62 3q131 0 201 -48t70 -134q0 -41 -13.5 -80t-38 -70.5t-56 -55t-66.5 -36.5q55 -14 91 -58t36 -99zM278 733l127 664l-178 -62v195l252 84h213l-168 -881h-246zM73 -307l-137 110l1659 1854l135 -113z" />
<glyph unicode="&#x2154;" horiz-adv-x="1865" d="M125 733l33 187l182 151q63 53 107 95t70 76t37 61.5t11 54.5q0 39 -22.5 60.5t-73.5 21.5q-43 0 -89 -12.5t-87 -30.5l-4 184q25 10 55.5 19.5t65 16.5t69.5 10t68 3q141 0 211.5 -56t70.5 -163q0 -51 -15 -99t-44 -93t-70 -90.5t-98 -96.5l-121 -104q51 2 114.5 3 t170.5 1l-39 -199h-602zM221 -307l-137 110l1659 1854l135 -113zM1696 88q0 -76 -34 -137.5t-95.5 -105.5t-140 -66.5t-169.5 -22.5q-49 0 -103 5t-93 13l43 168q31 -10 73 -15t80 -5q86 0 138.5 34.5t52.5 98.5q0 45 -46 67.5t-130 22.5q-18 0 -41 -1t-51 -3l22 153 q66 0 120 8.5t94 26t61.5 44t21.5 63.5t-26.5 54t-75.5 17q-43 0 -90.5 -9t-87.5 -25l4 157q25 8 55.5 15.5t64 12.5t67.5 8t62 3q131 0 201 -48t70 -134q0 -41 -13.5 -80t-38 -70.5t-56 -55t-66.5 -36.5q55 -14 91 -58t36 -99z" />
<glyph unicode="&#x215b;" horiz-adv-x="1777" d="M278 733l127 664l-178 -62v195l252 84h213l-168 -881h-246zM1597 53q0 -74 -31.5 -129.5t-86 -93t-129 -56t-154.5 -18.5q-141 0 -222 53t-81 145q0 86 50 149.5t138 115.5q-92 61 -92 163q0 63 28.5 119t79 92.5t121 57t154.5 20.5q129 0 210 -53t81 -141 q0 -78 -45 -137.5t-127 -110.5q57 -35 81.5 -77t24.5 -99zM1310 311q57 29 94.5 62.5t37.5 76.5q0 76 -97 76q-68 0 -101.5 -34t-33.5 -75q4 -65 100 -106zM1224 -99q59 0 103.5 31t44.5 90q-4 66 -111 113q-145 -70 -145 -154q0 -37 26.5 -58.5t81.5 -21.5zM71 -307 l-137 110l1659 1854l135 -113z" />
<glyph unicode="&#x215c;" horiz-adv-x="1814" d="M758 1049q0 -76 -34 -137.5t-95.5 -105.5t-140 -66.5t-169.5 -22.5q-49 0 -103 5t-93 13l43 168q31 -10 73 -15t80 -5q86 0 138.5 34.5t52.5 98.5q0 45 -46 67.5t-130 22.5q-18 0 -41 -1t-51 -3l22 153q66 0 120 8.5t94 26t61.5 44t21.5 63.5t-26.5 54t-75.5 17 q-43 0 -90.5 -9t-87.5 -25l4 157q25 8 55.5 15.5t64 12.5t67.5 8t62 3q131 0 201 -48t70 -134q0 -41 -13.5 -80t-38 -70.5t-56 -55t-66.5 -36.5q55 -14 91 -58t36 -99zM110 -307l-137 110l1659 1854l135 -113zM1634 53q0 -74 -31.5 -129.5t-86 -93t-129 -56t-154.5 -18.5 q-141 0 -222 53t-81 145q0 86 50 149.5t138 115.5q-92 61 -92 163q0 63 28.5 119t79 92.5t121 57t154.5 20.5q129 0 210 -53t81 -141q0 -78 -45 -137.5t-127 -110.5q57 -35 81.5 -77t24.5 -99zM1347 311q57 29 94.5 62.5t37.5 76.5q0 76 -97 76q-68 0 -101.5 -34t-33.5 -75 q4 -65 100 -106zM1261 -99q59 0 103.5 31t44.5 90q-4 66 -111 113q-145 -70 -145 -154q0 -37 26.5 -58.5t81.5 -21.5z" />
<glyph unicode="&#x215d;" horiz-adv-x="1841" d="M762 1071q0 -74 -26.5 -138.5t-81 -112.5t-134.5 -75.5t-184 -27.5q-53 0 -107.5 6t-93.5 16l41 162q33 -10 75 -16t79 -6q80 0 130 42t50 109q0 94 -148 94q-31 0 -65.5 -3t-65.5 -7l95 500h501l-34 -176h-279l-31 -156q61 0 111.5 -11t88.5 -37t58.5 -66t20.5 -97z M1659 53q0 -74 -31.5 -129.5t-86 -93t-129 -56t-154.5 -18.5q-141 0 -222 53t-81 145q0 86 50 149.5t138 115.5q-92 61 -92 163q0 63 28.5 119t79 92.5t121 57t154.5 20.5q129 0 210 -53t81 -141q0 -78 -45 -137.5t-127 -110.5q57 -35 81.5 -77t24.5 -99zM1372 311 q57 29 94.5 62.5t37.5 76.5q0 76 -97 76q-68 0 -101.5 -34t-33.5 -75q4 -65 100 -106zM1286 -99q59 0 103.5 31t44.5 90q-4 66 -111 113q-145 -70 -145 -154q0 -37 26.5 -58.5t81.5 -21.5zM135 -307l-137 110l1659 1854l135 -113z" />
<glyph unicode="&#x215e;" horiz-adv-x="1751" d="M829 1442q-49 -70 -101 -157t-102.5 -181t-94.5 -189.5t-78 -181.5h-267q37 90 85 187.5t101.5 191.5t104.5 174t94 137q-8 0 -39.5 -1t-80 -2t-103.5 -1h-111l35 195h590zM1577 53q0 -74 -31.5 -129.5t-86 -93t-129 -56t-154.5 -18.5q-141 0 -222 53t-81 145 q0 86 50 149.5t138 115.5q-92 61 -92 163q0 63 28.5 119t79 92.5t121 57t154.5 20.5q129 0 210 -53t81 -141q0 -78 -45 -137.5t-127 -110.5q57 -35 81.5 -77t24.5 -99zM1290 311q57 29 94.5 62.5t37.5 76.5q0 76 -97 76q-68 0 -101.5 -34t-33.5 -75q4 -65 100 -106z M1204 -99q59 0 103.5 31t44.5 90q-4 66 -111 113q-145 -70 -145 -154q0 -37 26.5 -58.5t81.5 -21.5zM45 -307l-137 110l1659 1854l135 -113z" />
<glyph unicode="&#x2190;" horiz-adv-x="2048" d="M510 496l584 -555l-166 -166l-836 835l836 836l166 -166l-582 -555h1536v-229h-1538z" />
<glyph unicode="&#x2191;" horiz-adv-x="2048" d="M1694 612l-555 584v-1536h-230v1536l-555 -584l-166 166l836 838l836 -838z" />
<glyph unicode="&#x2192;" horiz-adv-x="2048" d="M0 496v229h1536l-582 555l166 166l836 -836l-836 -835l-166 166l584 555h-1538z" />
<glyph unicode="&#x2193;" horiz-adv-x="2048" d="M1860 442l-836 -837l-836 837l166 166l555 -583v1536h230v-1536l555 583z" />
<glyph unicode="&#x2194;" horiz-adv-x="2764" d="M2042 23l-166 165l379 353h-1745l379 -353l-166 -165l-631 632l631 631l166 -166l-377 -352h1741l-377 352l166 166l631 -631z" />
<glyph unicode="&#x2195;" horiz-adv-x="1560" d="M780 -532l-630 630l165 168l351 -379v1446l-351 -379l-165 168l630 631l631 -631l-166 -168l-350 381v-1450l350 381l166 -168z" />
<glyph unicode="&#x2196;" horiz-adv-x="1685" d="M1485 -82l-1086 1088l21 -807h-236v1183h1182v-235l-805 20l1088 -1087z" />
<glyph unicode="&#x2197;" horiz-adv-x="1685" d="M37 80l1087 1087l-805 -20v235h1184v-1183h-237l20 807l-1085 -1088z" />
<glyph unicode="&#x2198;" horiz-adv-x="1685" d="M201 1305l1085 -1088l-20 807h237v-1184h-1184v236l805 -21l-1087 1088z" />
<glyph unicode="&#x2199;" horiz-adv-x="1685" d="M1649 1143l-1088 -1088l805 21v-236h-1182v1184h236l-21 -807l1086 1088z" />
<glyph unicode="&#x219e;" horiz-adv-x="2048" d="M1014 498l235 -215l-166 -166l-383 381h-206l237 -215l-166 -166l-495 493l495 494l166 -166l-237 -215h206l383 381l166 -166l-235 -215h891v-225h-891z" />
<glyph unicode="&#x219f;" horiz-adv-x="1243" d="M510 659l-217 -235l-166 166l383 383v207l-217 -238l-166 166l496 496l493 -496l-166 -166l-217 238v-207l383 -383l-166 -166l-217 235v-890h-223v890z" />
<glyph unicode="&#x21a0;" horiz-adv-x="2048" d="M143 498v225h891l-235 215l166 166l383 -381h206l-237 215l166 166l495 -494l-495 -493l-166 166l237 215h-206l-383 -381l-166 166l235 215h-891z" />
<glyph unicode="&#x21a1;" horiz-adv-x="1243" d="M510 1532h223v-891l217 238l166 -166l-383 -383v-207l217 235l166 -165l-493 -494l-496 494l166 165l217 -235v207l-383 383l166 166l217 -238v891z" />
<glyph unicode="&#x21a2;" horiz-adv-x="2048" d="M1927 283l-166 -166l-383 381h-884l237 -215l-166 -166l-495 493l495 494l166 -166l-237 -215h884l383 381l166 -166l-338 -328z" />
<glyph unicode="&#x21a3;" horiz-adv-x="2048" d="M459 610l-338 328l166 166l383 -381h884l-237 215l166 166l495 -494l-495 -493l-166 166l237 215h-884l-383 -381l-166 166z" />
<glyph unicode="&#x21a4;" horiz-adv-x="2048" d="M1905 141h-246v357h-1165l237 -215l-166 -166l-495 493l495 494l166 -166l-237 -215h1165v356h246v-938z" />
<glyph unicode="&#x21a5;" horiz-adv-x="1187" d="M125 -231v245h356v1166l-215 -238l-166 166l494 496l493 -496l-165 -166l-215 238v-1166h356v-245h-938z" />
<glyph unicode="&#x21a6;" horiz-adv-x="2048" d="M143 1079h246v-356h1165l-237 215l166 166l495 -494l-495 -493l-166 166l237 215h-1165v-357h-246v938z" />
<glyph unicode="&#x21a7;" horiz-adv-x="1187" d="M1063 1534v-246h-356v-1165l215 237l165 -165l-493 -496l-494 496l166 165l215 -237v1165h-356v246h938z" />
<glyph unicode="&#x21a8;" horiz-adv-x="1560" d="M780 -229l-590 589l166 168l310 -338v1180l-310 -338l-166 166l590 590l590 -590l-166 -166l-309 338v-1182l309 340l166 -168zM217 -485v211h1126v-211h-1126z" />
<glyph unicode="&#x21a9;" horiz-adv-x="2441" d="M70 381l606 606l166 -166l-344 -325q100 -4 215 -9q98 -4 223 -5t258 -1q236 0 394.5 29t254.5 80t136 123.5t40 160.5q0 72 -28.5 130.5t-94 96.5t-167 58.5t-246.5 20.5q-55 0 -110.5 -2t-98.5 -4q-51 -4 -96 -7v226q53 4 110 8q49 4 109.5 6t120.5 2q215 0 365.5 -41 t244.5 -111.5t138 -165t44 -202.5q0 -139 -59.5 -257t-192.5 -202t-347 -131t-527 -47q-139 0 -263 1t-219 5q-111 4 -204 8l344 -323l-166 -166z" />
<glyph unicode="&#x21aa;" horiz-adv-x="2441" d="M1741 -223l-166 166l344 323q-90 -4 -199 -8q-94 -4 -223 -5t-283 -1q-305 0 -516 42t-342 118.5t-190.5 186.5t-59.5 245q0 121 47.5 225.5t146.5 180t258 117.5t380 42q55 0 108.5 -2t96.5 -4q51 -4 96 -6v-232q-53 2 -109 6q-49 4 -111.5 6.5t-125.5 2.5 q-129 0 -223.5 -20.5t-155.5 -60.5t-90 -97.5t-29 -131.5q0 -84 42 -156.5t142.5 -123.5t266.5 -80t414 -29q119 0 237.5 1t212.5 5q109 4 209 9l-344 325l166 166l604 -606z" />
<glyph unicode="&#x21d0;" horiz-adv-x="2048" d="M739 270l232 -229l-166 -166l-735 735l735 736l166 -166l-232 -230h1166v-229h-1391l-111 -111l111 -110h1391v-230h-1166z" />
<glyph unicode="&#x21d1;" horiz-adv-x="1767" d="M543 864l-228 -231l-165 168l733 733l735 -733l-166 -168l-227 231v-1163h-230v1389l-112 112l-111 -112v-1389h-229v1163z" />
<glyph unicode="&#x21d2;" horiz-adv-x="2048" d="M143 270v230h1391l111 110l-111 111h-1391v229h1166l-232 230l166 166l735 -736l-735 -735l-166 166l232 229h-1166z" />
<glyph unicode="&#x21d3;" horiz-adv-x="1767" d="M543 1520h229v-1389l111 -113l112 113v1389h230v-1164l227 232l166 -168l-735 -733l-733 733l165 168l228 -232v1164z" />
<glyph unicode="&#x21d4;" horiz-adv-x="2867" d="M2353 721h-1839l-111 -111l111 -110h1839l111 110zM2062 -125l-166 166l232 229h-1389l232 -229l-166 -166l-735 735l735 736l166 -166l-232 -230h1389l-232 230l166 166l736 -736z" />
<glyph unicode="&#x21d5;" horiz-adv-x="1767" d="M995 -211v1774l-112 110l-111 -110v-1774l111 -111zM150 80l165 166l228 -232v1323l-228 -231l-165 166l733 735l735 -735l-166 -166l-227 231v-1323l227 232l166 -166l-735 -735z" />
<glyph unicode="&#x21d6;" horiz-adv-x="1794" d="M395 631l2 -326h-235v1041h1040v-236l-325 2l825 -823l-164 -162l-983 981l-158 2l2 -158l981 -983l-161 -164z" />
<glyph unicode="&#x21d7;" horiz-adv-x="1794" d="M575 -195l-161 164l981 983l2 158l-158 -2l-983 -981l-164 162l826 823l-326 -2v236h1040v-1041h-235l2 326z" />
<glyph unicode="&#x21d8;" horiz-adv-x="1794" d="M1399 592l-2 326h235v-1041h-1040v236l326 -2l-826 823l164 162l983 -981l158 -2l-2 157l-981 983l161 164z" />
<glyph unicode="&#x21d9;" horiz-adv-x="1794" d="M1219 1417l161 -164l-981 -983l-2 -157l158 2l983 981l164 -162l-825 -823l325 2v-236h-1040v1041h235l-2 -326z" />
<glyph unicode="&#x21dd;" horiz-adv-x="2048" d="M143 725h60l137 127l190 -184l191 184l190 -184l191 184l190 -184l56 57h202l-227 219l160 160l495 -494l-495 -493l-160 159l227 220h-123l-135 -127l-190 184l-191 -184l-190 184l-191 -184l-190 184l-55 -57h-142v229z" />
<glyph unicode="&#x21e6;" horiz-adv-x="2048" d="M1675 780h-903v207l-379 -377l379 -377v207h903v170v170zM1905 211h-906v-301h-227l-702 700l702 701h227v-301h906v-400v-399z" />
<glyph unicode="&#x21e7;" horiz-adv-x="1761" d="M1051 -72v906h206l-376 376l-379 -376h209v-906h170h170zM481 -299v903h-301v230l701 700l700 -700v-230h-301v-903h-399h-400z" />
<glyph unicode="&#x21e8;" horiz-adv-x="2048" d="M373 610v-170h903v-207l379 377l-379 377v-207h-903v-170zM143 610v400h906v301h227l702 -701l-702 -700h-227v301h-906v399z" />
<glyph unicode="&#x21e9;" horiz-adv-x="1761" d="M881 1292h-170v-905h-209l379 -377l376 377h-206v905h-170zM881 1520h399v-904h301v-229l-700 -700l-701 700v229h301v904h400z" />
<glyph unicode="&#x21f3;" horiz-adv-x="1761" d="M1280 426h301v-229l-700 -701l-701 701v229h301v369h-301v229l701 700l700 -700v-229h-301v-369zM1051 1024h206l-376 379l-379 -379h209v-827h-209l379 -379l376 379h-206v827z" />
<glyph unicode="&#x2202;" horiz-adv-x="1271" d="M1208 938q0 -106 -20.5 -215t-60.5 -212t-97 -193.5t-127 -157.5q-84 -82 -188.5 -128t-218.5 -46q-92 0 -164 27.5t-120 76.5t-71.5 114.5t-23.5 141.5q0 119 43 224.5t118.5 184.5t178 123t217.5 44q88 0 157.5 -34t100.5 -91q0 6 7 70.5t3 113.5q-14 141 -111.5 226 t-255.5 85l76 219q131 -2 235.5 -46t176.5 -120.5t108.5 -180t36.5 -226.5zM838 526q0 76 -47.5 125t-141.5 49q-59 0 -110.5 -25.5t-89 -69.5t-57 -99t-19.5 -113q0 -86 45 -134t129 -48q66 0 120 27.5t92 72.5t58.5 101.5t20.5 113.5z" />
<glyph unicode="&#x2205;" horiz-adv-x="1861" d="M1436 692q0 68 -19.5 129.5t-54.5 112.5l-4 4l-649 -649l4 -4q55 -35 115.5 -54.5t125.5 -19.5q98 0 186.5 37t155 103.5t103.5 154.5t37 186zM1198 1098q-55 37 -116.5 56.5t-127.5 19.5q-98 0 -186 -37t-154.5 -103.5t-103.5 -154.5t-37 -187q0 -68 19.5 -129 t54.5 -112l4 -5l649 650zM1552 1133l9 -9q68 -92 103.5 -202.5t35.5 -229.5q0 -152 -57.5 -288t-161 -239.5t-239.5 -160.5t-288 -57q-119 0 -229.5 36.5t-204.5 104.5l-6 6l-385 -385l-158 158l385 385l-8 8q-68 92 -103.5 202.5t-35.5 229.5q0 152 57.5 288t160.5 239.5 t239.5 161t287.5 57.5q121 0 230.5 -37t204.5 -105l6 -6l385 385l157 -157z" />
<glyph unicode="&#x2206;" horiz-adv-x="1259" d="M-84 0l731 1382h303l217 -1382h-1251zM756 903q-6 47 -9.5 95.5t-5.5 91.5h-4q-18 -47 -41.5 -98.5t-50.5 -102.5l-342 -649h553z" />
<glyph unicode="&#x220f;" horiz-adv-x="1572" d="M1647 1274h-193l-340 -1768h-240l340 1768h-538l-340 -1768h-242l340 1768h-194l41 221h1409z" />
<glyph unicode="&#x2211;" horiz-adv-x="1218" d="M1245 1274h-686l404 -770l-707 -768h727l-45 -230h-721h-326l39 203l738 811l-402 770l39 205h299h682z" />
<glyph unicode="&#x2212;" d="M1051 496h-967l43 227h967z" />
<glyph unicode="&#x2219;" horiz-adv-x="540" d="M465 614q0 -37 -13.5 -68.5t-37 -55t-55 -37t-66.5 -13.5q-70 0 -116 48.5t-46 115.5q0 37 13.5 69t38 56.5t56 37.5t66.5 13t64.5 -13t51 -36.5t33 -53.5t11.5 -63z" />
<glyph unicode="&#x221a;" horiz-adv-x="1236" d="M664 0h-299l-117 821h-172l37 197h381l59 -529q6 -47 10 -97t6 -101h2q20 53 39 97t39 91l488 1073h284z" />
<glyph unicode="&#x221b;" horiz-adv-x="1236" d="M664 0h-299l-117 821h-172l37 197h381l59 -529q6 -47 10 -97t6 -101h2q20 53 39 97t39 91l488 1073h284zM423 1270q29 -8 61 -13t68 -5q37 0 63 8t43 20.5t25.5 28.5t8.5 33q0 14 -9.5 27.5t-34 22.5t-67.5 12t-110 -5l22 125q137 0 191.5 27.5t54.5 70.5q0 18 -18.5 33 t-61.5 15q-35 0 -75 -8.5t-75 -20.5l-4 135q47 14 105.5 24.5t120.5 10.5q66 0 111.5 -14.5t72.5 -39t37 -55t6 -63.5q-6 -59 -49 -102.5t-105 -61.5q66 -12 91.5 -53t19.5 -92q-4 -45 -27.5 -84t-68.5 -70t-108.5 -48.5t-149.5 -17.5q-18 0 -43 2.5t-49.5 4.5t-47 4 t-39.5 6z" />
<glyph unicode="&#x221c;" horiz-adv-x="1236" d="M664 0h-299l-117 821h-172l37 197h381l59 -529q6 -47 10 -97t6 -101h2q20 53 39 97t39 91l488 1073h284zM776 1239l-23 -110h-200l22 110h-330l17 144l307 409h311l-75 -393h94l-31 -160h-92zM653 1655h-2l-199 -260q16 0 36 1t40.5 2t39.5 1h36z" />
<glyph unicode="&#x221e;" horiz-adv-x="1976" d="M807 616q-82 72 -142.5 109t-115.5 37q-82 0 -137.5 -52.5t-55.5 -127.5q0 -53 32 -86t95 -33q55 0 131 38.5t193 114.5zM1677 649q0 47 -32.5 80t-96.5 33q-55 0 -130 -39t-195 -117q82 -70 142 -106.5t116 -36.5q86 0 141 53t55 133zM1929 690q0 -88 -32.5 -170 t-96 -146.5t-154 -101t-202.5 -36.5q-57 0 -114.5 17t-113 47t-107.5 66.5t-112 86.5q-74 -47 -140 -85t-135 -68t-136.5 -47t-130.5 -17q-176 0 -262.5 81.5t-86.5 217.5q0 102 39 186t105.5 144.5t151.5 92t173 31.5q61 0 122 -17.5t118 -48t110.5 -69.5t112.5 -88 q76 49 144.5 88t137.5 69.5t135.5 48t125.5 17.5q90 0 156.5 -23.5t108.5 -64.5t62.5 -95.5t20.5 -115.5z" />
<glyph unicode="&#x221f;" horiz-adv-x="1495" d="M186 0v1382h232v-1157h1018v-225h-1250z" />
<glyph unicode="&#x2229;" horiz-adv-x="1445" d="M1212 0h-239l162 838q14 70 0.5 132t-51 109t-96 73t-130.5 26q-78 0 -145.5 -26t-119.5 -72t-87 -107.5t-49 -134.5l-162 -838h-242l164 838q25 127 86.5 232.5t150.5 180t199.5 114.5t235.5 40q121 0 221 -44t168 -123t94.5 -182.5t3.5 -217.5z" />
<glyph unicode="&#x222b;" horiz-adv-x="692" d="M883 1767q-18 6 -42 10.5t-48 4.5q-33 0 -56.5 -11.5t-43 -39t-36 -80t-32.5 -133.5q-20 -106 -48 -274.5t-80.5 -500t-87 -539.5t-61.5 -343q-29 -145 -67.5 -244.5t-91 -159t-119 -85t-154.5 -25.5q-59 0 -109 12l43 225q20 -6 41 -9t41 -3q35 0 59.5 11t44 40t37 81 t33.5 136q20 104 49 275.5t81.5 499t87 534.5t61.5 344q29 147 70 246.5t96 158t122.5 84t151.5 25.5q20 0 49 -4t54 -10z" />
<glyph unicode="&#x2245;" d="M1141 977q-57 -55 -135 -90t-158 -35q-63 0 -109.5 15.5t-101.5 45t-92 43t-86 13.5q-59 0 -109.5 -21.5t-105.5 -64.5l-64 176q68 53 144.5 88t152.5 35q59 0 107.5 -15.5t107 -46t94 -44t80.5 -13.5q53 0 105.5 21.5t103.5 64.5zM1022 498h-907l39 209h907zM946 106 h-905l39 209h907z" />
<glyph unicode="&#x2248;" d="M1036 360q-61 -57 -141 -92t-154 -35q-63 0 -109 15.5t-101.5 46.5t-90 44t-82.5 13q-53 0 -104 -23.5t-102 -64.5l-86 176q66 55 140.5 93t149.5 38q61 0 106.5 -15t100.5 -46t94 -45t95 -14q51 0 101 20.5t99 63.5zM1112 768q-61 -59 -136 -95t-157 -36 q-57 0 -100 15.5t-98.5 45t-94.5 44t-90 14.5q-53 0 -106.5 -23.5t-102.5 -62.5l-84 174q66 57 147 94t156 37q61 0 108.5 -15.5t105 -47t91 -45t74.5 -13.5q49 0 99.5 23.5t101.5 66.5z" />
<glyph unicode="&#x2260;" d="M1061 698h-299l-107 -180h371l-41 -211h-453l-145 -248h-240l146 248h-215l41 211h297l106 180h-370l41 211h450l148 248h239l-147 -248h217z" />
<glyph unicode="&#x2261;" d="M188 891l41 211h908l-41 -211h-908zM41 109l39 210h907l-39 -210h-907zM115 500l41 211h907l-41 -211h-907z" />
<glyph unicode="&#x2264;" d="M893 0h-838l43 219h836zM522 823l439 -356l-185 -170l-598 541l760 512l143 -181z" />
<glyph unicode="&#x2265;" d="M891 0h-836l43 219h836zM315 297l-143 180l559 346l-438 357l182 170l600 -541z" />
<glyph unicode="&#x2297;" horiz-adv-x="1783" d="M147 690q0 156 59.5 292t162 237.5t238.5 160t292 58.5t290 -57.5t234.5 -158t157.5 -235.5t57 -291t-59 -292t-161.5 -237t-239 -159.5t-289.5 -58.5q-154 0 -289 56t-235.5 156.5t-159 235.5t-58.5 293zM1053 694v-2l276 -276q41 59 62.5 128.5t21.5 147.5t-22.5 147.5 t-63.5 129.5zM895 850l274 276q-121 86 -280 86q-78 0 -146.5 -21.5t-128.5 -62.5zM618 260q121 -86 279 -86q76 0 144.5 21.5t127.5 62.5l-276 277zM735 690v2l-278 277q-39 -59 -60.5 -129t-21.5 -148q0 -156 86 -276z" />
<glyph unicode="&#x22a0;" horiz-adv-x="1783" d="M205 0v1382h1374v-1382h-1374zM549 203h686l-342 344zM895 838l340 342h-680zM422 1016v-649l326 323v2zM1362 371v645l-322 -322v-2z" />
<glyph unicode="&#x22c5;" horiz-adv-x="550" d="M467 614q0 -37 -13.5 -68.5t-38 -55t-56 -37t-66.5 -13.5q-70 0 -116 48.5t-46 117.5q0 35 13.5 67t38 56.5t56 37.5t66.5 13t64.5 -13t51 -36.5t34 -53.5t12.5 -63z" />
<glyph unicode="&#x22c6;" horiz-adv-x="1785" d="M1223 434l112 -577l-442 387l-444 -387l114 577l-557 191l557 190l-112 578l442 -387l444 387l-114 -580l557 -188z" />
<glyph unicode="&#x22ee;" horiz-adv-x="563" d="M602 1303q0 -70 -48 -119t-118 -49t-119 49t-49 119t49.5 118.5t118.5 48.5q70 0 118 -48.5t48 -118.5zM492 723q0 -70 -49.5 -119t-118.5 -49q-70 0 -118 49t-48 119t48 119t118 49t119 -49t49 -119zM383 143q0 -70 -49 -119t-119 -49t-119 49.5t-49 118.5q0 70 49 119 t119 49t119 -49t49 -119z" />
<glyph unicode="&#x2300;" horiz-adv-x="1861" d="M1552 1133l9 -9q66 -92 102.5 -200.5t36.5 -231.5q0 -158 -58.5 -294t-159 -236.5t-235.5 -157.5t-293 -57q-123 0 -232.5 36.5t-201.5 104.5l-6 6l-285 -287l-159 160l286 285l-8 8q-66 92 -102.5 200.5t-36.5 231.5q0 158 57.5 293t157.5 235.5t236.5 159t293.5 58.5 q123 0 232.5 -37t202.5 -105l6 -6l284 287l160 -160zM1200 1096l-2 2q-53 35 -114.5 55.5t-129.5 20.5q-104 0 -191 -37t-151.5 -101.5t-101.5 -152.5t-37 -191q0 -68 19.5 -129t54.5 -112l4 -5zM709 289l4 -4q51 -35 112.5 -54.5t128.5 -19.5q102 0 190.5 37t153 101.5 t101.5 151.5t37 191q0 68 -19.5 129.5t-54.5 112.5l-4 4z" />
<glyph unicode="&#x2302;" horiz-adv-x="2048" d="M1221 1452l-531 -444l-149 -783h874l152 799zM1876 641l-125 154l-149 -795h-1332l146 778l-166 -141l-135 162l1157 973l788 -973z" />
<glyph unicode="&#x2310;" d="M1053 500h-691l-59 -305h-231l100 524h922z" />
<glyph unicode="&#x2320;" horiz-adv-x="722" d="M692 1276q-20 6 -44.5 10t-49.5 4q-33 0 -56.5 -11t-40 -40t-24.5 -82t-8 -133v-1518h-242v1459q0 147 24.5 251.5t71 170t112 95t149.5 29.5q25 0 54.5 -4t53.5 -10v-221z" />
<glyph unicode="&#x2321;" horiz-adv-x="722" d="M469 35q0 -147 -24.5 -252t-70.5 -170.5t-111.5 -95t-149.5 -29.5q-27 0 -55.5 3t-53.5 9v224q20 -6 45 -10.5t49 -4.5q33 0 56.5 11.5t40 40t24.5 82t8 132.5v1794h242v-1734z" />
<glyph unicode="&#x2349;" horiz-adv-x="1861" d="M473.088 692q0 68 19.499 129.5q19.498 61.5 54.4961 112.5l4 4l648.96 -649l-3.99902 -4q-54.9971 -35 -115.493 -54.5t-125.492 -19.5q-97.9941 0 -186.489 37q-88.4941 37 -154.99 103.5t-103.494 154.5q-36.9971 88 -36.9971 186zM711.073 1098 q54.9961 37 116.493 56.5q61.4961 19.5 127.492 19.5q97.9941 0 185.988 -37t154.49 -103.5t103.494 -154.5t36.998 -187q0 -68 -19.499 -129t-54.4971 -112l-4 -5l-648.96 650zM357.095 1133l-8.99902 -9q-67.9961 -92 -103.494 -202.5t-35.498 -229.5q0 -152 57.4971 -288 q57.4961 -136 160.99 -239.5q103.493 -103.5 239.485 -160.5q135.991 -57 287.982 -57q118.992 0 229.485 36.5t204.487 104.5l6 6l384.977 -385l157.99 158l-384.977 385l8 8q67.9961 92 103.493 202.5q35.498 110.5 35.498 229.5q0 152 -57.4961 288 q-57.4971 136 -160.49 239.5q-102.994 103.5 -239.485 161q-136.492 57.5 -287.482 57.5q-120.993 0 -230.486 -37t-204.487 -105l-6 -6l-384.977 385l-156.99 -157z" />
<glyph unicode="&#x25a0;" horiz-adv-x="1433" d="M1405 1382v-1382h-1376v1382h1376z" />
<glyph unicode="&#x25a1;" horiz-adv-x="1783" d="M205 0v1382h1374v-1382h-1374zM1325 1141h-866v-899h866v899z" />
<glyph unicode="&#x25aa;" horiz-adv-x="866" d="M696 342h-528v532h528v-532z" />
<glyph unicode="&#x25ab;" horiz-adv-x="866" d="M283 760v-303h299v303h-299zM748 293h-629v631h629v-631z" />
<glyph unicode="&#x25ac;" horiz-adv-x="2048" d="M0 317v388h2048v-388h-2048z" />
<glyph unicode="&#x25ae;" horiz-adv-x="1452" d="M-23 -621v2485h1498v-2485h-1498z" />
<glyph unicode="&#x25b2;" horiz-adv-x="1966" d="M983 1434l717 -1434h-1434z" />
<glyph unicode="&#x25b6;" horiz-adv-x="1966" d="M389 0v1434l1434 -717z" />
<glyph unicode="&#x25b8;" horiz-adv-x="860" d="M764 633l-612 -352v704z" />
<glyph unicode="&#x25ba;" horiz-adv-x="1378" d="M152 219v828l1130 -414z" />
<glyph unicode="&#x25bc;" horiz-adv-x="1966" d="M983 0l-717 1434h1434z" />
<glyph unicode="&#x25c0;" horiz-adv-x="1966" d="M143 717l1434 717v-1434z" />
<glyph unicode="&#x25c2;" horiz-adv-x="860" d="M709 985v-704l-613 352z" />
<glyph unicode="&#x25c4;" horiz-adv-x="1378" d="M1227 219l-1131 414l1131 414v-828z" />
</font>
</defs>
</svg>
